<svg width="189" height="42" viewBox="0 0 189 42" fill="none" xmlns="http://www.w3.org/2000/svg">
<rect width="188.144" height="41.9959" rx="20.998" fill="white"/>
<path d="M31.0885 33.5277L28.8213 29.7092L24.5254 28.7546L24.9431 24.3394L22.0195 20.9982L24.9431 17.657L24.5254 13.2419L28.8213 12.2873L31.0885 8.46875L35.1457 10.199L39.2028 8.46875L41.4701 12.2873L45.7659 13.2419L45.3482 17.657L48.2718 20.9982L45.3482 24.3394L45.7659 28.7546L41.4701 29.7092L39.2028 33.5277L35.1457 31.7975L31.0885 33.5277ZM33.8927 25.2344L40.6348 18.4923L38.9642 16.7621L33.8927 21.8335L31.3271 19.3276L29.6565 20.9982L33.8927 25.2344Z" fill="#131313"/>
<path d="M60.7217 27.0098C60.6314 27.0098 60.5467 26.9759 60.4676 26.9081C60.3999 26.8404 60.366 26.7557 60.366 26.6541C60.366 26.6089 60.3773 26.5581 60.3999 26.5017L64.4817 15.5773C64.5156 15.4644 64.5777 15.3684 64.668 15.2894C64.7696 15.1991 64.9051 15.1539 65.0745 15.1539H66.9206C67.09 15.1539 67.2198 15.1991 67.3102 15.2894C67.4005 15.3684 67.4682 15.4644 67.5134 15.5773L71.5952 26.5017C71.6065 26.5581 71.6121 26.6089 71.6121 26.6541C71.6121 26.7557 71.5783 26.8404 71.5105 26.9081C71.4428 26.9759 71.3637 27.0098 71.2734 27.0098H69.7999C69.6418 27.0098 69.5233 26.9759 69.4442 26.9081C69.3765 26.8291 69.3313 26.7557 69.3087 26.688L68.5127 24.6217H63.4824L62.6864 26.688C62.6638 26.7557 62.613 26.8291 62.534 26.9081C62.4662 26.9759 62.3533 27.0098 62.1952 27.0098H60.7217ZM64.0752 22.6739H67.9199L65.9891 17.4404L64.0752 22.6739ZM76.4576 27.0098C75.7801 27.0098 75.2099 26.8912 74.7469 26.6541C74.284 26.417 73.9396 26.0669 73.7138 25.604C73.488 25.1298 73.375 24.5426 73.375 23.8426V19.9979H72.037C71.9241 19.9979 71.8281 19.9584 71.7491 19.8793C71.6701 19.8003 71.6305 19.7043 71.6305 19.5914V18.609C71.6305 18.4961 71.6701 18.4002 71.7491 18.3211C71.8281 18.2421 71.9241 18.2026 72.037 18.2026H73.375V15.391C73.375 15.2781 73.4089 15.1821 73.4767 15.1031C73.5557 15.0241 73.6573 14.9845 73.7815 14.9845H75.1534C75.2663 14.9845 75.3623 15.0241 75.4414 15.1031C75.5204 15.1821 75.5599 15.2781 75.5599 15.391V18.2026H77.677C77.7899 18.2026 77.8859 18.2421 77.965 18.3211C78.044 18.4002 78.0835 18.4961 78.0835 18.609V19.5914C78.0835 19.7043 78.044 19.8003 77.965 19.8793C77.8859 19.9584 77.7899 19.9979 77.677 19.9979H75.5599V23.6732C75.5599 24.1361 75.6389 24.4975 75.797 24.7572C75.9664 25.0169 76.2543 25.1467 76.6608 25.1467H77.8295C77.9424 25.1467 78.0383 25.1862 78.1174 25.2653C78.1964 25.3443 78.2359 25.4403 78.2359 25.5532V26.6033C78.2359 26.7162 78.1964 26.8122 78.1174 26.8912C78.0383 26.9702 77.9424 27.0098 77.8295 27.0098H76.4576ZM83.0073 27.1791C82.3185 27.1791 81.7201 27.0267 81.2119 26.7218C80.7151 26.4057 80.3312 25.9653 80.0602 25.4008C79.7892 24.8249 79.6538 24.1474 79.6538 23.3683V18.609C79.6538 18.4961 79.6933 18.4002 79.7723 18.3211C79.8513 18.2421 79.9473 18.2026 80.0602 18.2026H81.5507C81.6749 18.2026 81.7709 18.2421 81.8386 18.3211C81.9177 18.4002 81.9572 18.4961 81.9572 18.609V23.2667C81.9572 24.6668 82.5725 25.3669 83.8033 25.3669C84.3904 25.3669 84.8534 25.1806 85.1921 24.808C85.5422 24.4354 85.7172 23.9216 85.7172 23.2667V18.609C85.7172 18.4961 85.7567 18.4002 85.8357 18.3211C85.9148 18.2421 86.0107 18.2026 86.1237 18.2026H87.6141C87.727 18.2026 87.823 18.2421 87.902 18.3211C87.9811 18.4002 88.0206 18.4961 88.0206 18.609V26.6033C88.0206 26.7162 87.9811 26.8122 87.902 26.8912C87.823 26.9702 87.727 27.0098 87.6141 27.0098H86.2422C86.118 27.0098 86.0164 26.9702 85.9374 26.8912C85.8696 26.8122 85.8357 26.7162 85.8357 26.6033V25.9089C85.5309 26.3041 85.1526 26.6146 84.701 26.8404C84.2493 27.0662 83.6847 27.1791 83.0073 27.1791ZM92.8153 27.1791C92.2282 27.1791 91.6975 27.0662 91.2233 26.8404C90.749 26.6033 90.3708 26.2928 90.0885 25.9089C89.8175 25.5137 89.682 25.0733 89.682 24.5878C89.682 23.7974 89.9982 23.1707 90.6305 22.7078C91.2741 22.2335 92.1209 21.9174 93.171 21.7593L95.4914 21.4206V21.0649C95.4914 20.5907 95.3728 20.2237 95.1357 19.964C94.8986 19.7043 94.4921 19.5745 93.9162 19.5745C93.5098 19.5745 93.1767 19.6591 92.917 19.8285C92.6686 19.9866 92.4822 20.2011 92.358 20.4721C92.2677 20.6189 92.1379 20.6923 91.9685 20.6923H90.6305C90.5063 20.6923 90.4103 20.6584 90.3425 20.5907C90.2861 20.5229 90.2579 20.4326 90.2579 20.3197C90.2692 20.139 90.3425 19.9188 90.478 19.6591C90.6135 19.3994 90.8281 19.151 91.1216 18.9139C91.4152 18.6655 91.7935 18.4566 92.2564 18.2872C92.7194 18.1179 93.2783 18.0332 93.9332 18.0332C94.6445 18.0332 95.243 18.1235 95.7285 18.3042C96.2253 18.4736 96.6205 18.705 96.9141 18.9986C97.2076 19.2922 97.4222 19.6366 97.5577 20.0317C97.6932 20.4269 97.7609 20.8447 97.7609 21.2851V26.6033C97.7609 26.7162 97.7214 26.8122 97.6424 26.8912C97.5633 26.9702 97.4673 27.0098 97.3544 27.0098H95.9825C95.8583 27.0098 95.7567 26.9702 95.6777 26.8912C95.6099 26.8122 95.5761 26.7162 95.5761 26.6033V25.9427C95.4293 26.1573 95.2317 26.3605 94.9833 26.5525C94.7349 26.7331 94.43 26.8856 94.0687 27.0098C93.7186 27.1227 93.3009 27.1791 92.8153 27.1791ZM93.3912 25.5701C93.7864 25.5701 94.1421 25.4854 94.4582 25.3161C94.7857 25.1467 95.0397 24.887 95.2204 24.537C95.4123 24.1757 95.5083 23.724 95.5083 23.182V22.8263L93.8146 23.0973C93.1484 23.199 92.6516 23.3627 92.3242 23.5885C91.9967 23.8143 91.833 24.091 91.833 24.4184C91.833 24.6668 91.9064 24.8814 92.0532 25.062C92.2113 25.2314 92.4089 25.3612 92.646 25.4516C92.8831 25.5306 93.1315 25.5701 93.3912 25.5701ZM100.357 27.0098C100.244 27.0098 100.148 26.9702 100.069 26.8912C99.9902 26.8122 99.9507 26.7162 99.9507 26.6033V15.391C99.9507 15.2781 99.9902 15.1821 100.069 15.1031C100.148 15.0241 100.244 14.9845 100.357 14.9845H101.763C101.876 14.9845 101.972 15.0241 102.051 15.1031C102.13 15.1821 102.169 15.2781 102.169 15.391V26.6033C102.169 26.7162 102.13 26.8122 102.051 26.8912C101.972 26.9702 101.876 27.0098 101.763 27.0098H100.357ZM105.186 27.0098C105.074 27.0098 104.978 26.9702 104.899 26.8912C104.819 26.8122 104.78 26.7162 104.78 26.6033V18.609C104.78 18.4961 104.819 18.4002 104.899 18.3211C104.978 18.2421 105.074 18.2026 105.186 18.2026H106.592C106.716 18.2026 106.812 18.2421 106.88 18.3211C106.959 18.4002 106.999 18.4961 106.999 18.609V26.6033C106.999 26.7162 106.959 26.8122 106.88 26.8912C106.812 26.9702 106.716 27.0098 106.592 27.0098H105.186ZM105.119 16.746C104.994 16.746 104.893 16.7121 104.814 16.6444C104.746 16.5653 104.712 16.4637 104.712 16.3395V15.12C104.712 15.0071 104.746 14.9111 104.814 14.8321C104.893 14.7531 104.994 14.7136 105.119 14.7136H106.66C106.784 14.7136 106.886 14.7531 106.965 14.8321C107.044 14.9111 107.083 15.0071 107.083 15.12V16.3395C107.083 16.4637 107.044 16.5653 106.965 16.6444C106.886 16.7121 106.784 16.746 106.66 16.746H105.119ZM109.394 27.0098C109.27 27.0098 109.168 26.9702 109.089 26.8912C109.021 26.8122 108.987 26.7162 108.987 26.6033V25.6379C108.987 25.5363 109.01 25.4403 109.055 25.3499C109.112 25.2483 109.168 25.1636 109.224 25.0959L113.56 19.964H109.529C109.416 19.964 109.32 19.9301 109.241 19.8624C109.162 19.7833 109.123 19.6817 109.123 19.5575V18.609C109.123 18.4961 109.162 18.4002 109.241 18.3211C109.32 18.2421 109.416 18.2026 109.529 18.2026H115.948C116.073 18.2026 116.169 18.2421 116.236 18.3211C116.315 18.4002 116.355 18.4961 116.355 18.609V19.6422C116.355 19.7438 116.332 19.8342 116.287 19.9132C116.242 19.9922 116.186 20.0769 116.118 20.1672L111.884 25.2483H116.304C116.417 25.2483 116.513 25.2878 116.592 25.3669C116.671 25.4346 116.711 25.5306 116.711 25.6548V26.6033C116.711 26.7162 116.671 26.8122 116.592 26.8912C116.513 26.9702 116.417 27.0098 116.304 27.0098H109.394ZM120.983 27.1791C120.396 27.1791 119.865 27.0662 119.391 26.8404C118.917 26.6033 118.538 26.2928 118.256 25.9089C117.985 25.5137 117.85 25.0733 117.85 24.5878C117.85 23.7974 118.166 23.1707 118.798 22.7078C119.442 22.2335 120.289 21.9174 121.339 21.7593L123.659 21.4206V21.0649C123.659 20.5907 123.54 20.2237 123.303 19.964C123.066 19.7043 122.66 19.5745 122.084 19.5745C121.677 19.5745 121.344 19.6591 121.085 19.8285C120.836 19.9866 120.65 20.2011 120.526 20.4721C120.435 20.6189 120.305 20.6923 120.136 20.6923H118.798C118.674 20.6923 118.578 20.6584 118.51 20.5907C118.454 20.5229 118.425 20.4326 118.425 20.3197C118.437 20.139 118.51 19.9188 118.646 19.6591C118.781 19.3994 118.996 19.151 119.289 18.9139C119.583 18.6655 119.961 18.4566 120.424 18.2872C120.887 18.1179 121.446 18.0332 122.101 18.0332C122.812 18.0332 123.411 18.1235 123.896 18.3042C124.393 18.4736 124.788 18.705 125.082 18.9986C125.375 19.2922 125.59 19.6366 125.725 20.0317C125.861 20.4269 125.929 20.8447 125.929 21.2851V26.6033C125.929 26.7162 125.889 26.8122 125.81 26.8912C125.731 26.9702 125.635 27.0098 125.522 27.0098H124.15C124.026 27.0098 123.924 26.9702 123.845 26.8912C123.778 26.8122 123.744 26.7162 123.744 26.6033V25.9427C123.597 26.1573 123.399 26.3605 123.151 26.5525C122.902 26.7331 122.598 26.8856 122.236 27.0098C121.886 27.1227 121.468 27.1791 120.983 27.1791ZM121.559 25.5701C121.954 25.5701 122.31 25.4854 122.626 25.3161C122.953 25.1467 123.207 24.887 123.388 24.537C123.58 24.1757 123.676 23.724 123.676 23.182V22.8263L121.982 23.0973C121.316 23.199 120.819 23.3627 120.492 23.5885C120.164 23.8143 120.001 24.091 120.001 24.4184C120.001 24.6668 120.074 24.8814 120.221 25.062C120.379 25.2314 120.576 25.3612 120.814 25.4516C121.051 25.5306 121.299 25.5701 121.559 25.5701ZM131.895 30.7359C131.579 30.7246 131.297 30.6681 131.048 30.5665C130.811 30.4649 130.636 30.3463 130.523 30.2108C130.422 30.0754 130.427 29.9624 130.54 29.8721L130.828 29.6181C130.93 29.5277 131.014 29.4995 131.082 29.5334C131.161 29.5785 131.257 29.635 131.37 29.7027C131.494 29.7818 131.669 29.8213 131.895 29.8213C132.065 29.8213 132.211 29.7648 132.336 29.6519C132.46 29.5503 132.522 29.4148 132.522 29.2454C132.522 29.0874 132.46 28.9575 132.336 28.8559C132.223 28.7543 132.076 28.7035 131.895 28.7035C131.737 28.7035 131.602 28.7204 131.489 28.7543C131.376 28.7994 131.274 28.8277 131.184 28.839C131.094 28.8615 131.003 28.8277 130.913 28.7373L130.608 28.4325C130.54 28.3534 130.518 28.2687 130.54 28.1784C130.563 28.0994 130.597 28.009 130.642 27.9074L130.998 27.0945C130.026 26.9477 129.253 26.5468 128.677 25.8919C128.101 25.2257 127.796 24.3563 127.763 23.2836C127.751 23.1143 127.746 22.8941 127.746 22.6231C127.746 22.3408 127.751 22.1093 127.763 21.9287C127.796 21.1044 127.983 20.4044 128.322 19.8285C128.672 19.2414 129.151 18.7954 129.761 18.4905C130.382 18.1856 131.099 18.0332 131.912 18.0332C132.635 18.0332 133.25 18.1348 133.758 18.3381C134.266 18.5413 134.684 18.7954 135.012 19.1002C135.339 19.4051 135.582 19.7269 135.74 20.0656C135.909 20.3931 136 20.6923 136.011 20.9633C136.022 21.0875 135.983 21.1891 135.892 21.2681C135.813 21.3359 135.717 21.3698 135.604 21.3698H134.114C134.001 21.3698 133.911 21.3415 133.843 21.2851C133.786 21.2286 133.73 21.1439 133.674 21.031C133.504 20.5794 133.278 20.2632 132.996 20.0826C132.725 19.8906 132.375 19.7946 131.946 19.7946C131.381 19.7946 130.93 19.9753 130.591 20.3366C130.264 20.6866 130.089 21.2456 130.066 22.0134C130.043 22.4424 130.043 22.8376 130.066 23.199C130.089 23.9781 130.264 24.5426 130.591 24.8926C130.93 25.2427 131.381 25.4177 131.946 25.4177C132.386 25.4177 132.742 25.3274 133.013 25.1467C133.284 24.9548 133.504 24.6329 133.674 24.1813C133.73 24.0684 133.786 23.9837 133.843 23.9272C133.911 23.8708 134.001 23.8426 134.114 23.8426H135.604C135.717 23.8426 135.813 23.8821 135.892 23.9611C135.983 24.0289 136.022 24.1248 136.011 24.249C136 24.4975 135.915 24.791 135.757 25.1298C135.599 25.4572 135.362 25.779 135.045 26.0952C134.729 26.4 134.317 26.6597 133.809 26.8743C133.301 27.0775 132.686 27.1791 131.963 27.1791L131.607 27.9074C131.675 27.8735 131.765 27.8453 131.878 27.8227C132.002 27.8002 132.11 27.7889 132.2 27.7889C132.595 27.7889 132.911 27.9244 133.149 28.1954C133.397 28.4663 133.521 28.8107 133.521 29.2285C133.521 29.6576 133.38 30.0189 133.098 30.3125C132.815 30.606 132.415 30.7472 131.895 30.7359ZM141.673 27.1791C140.769 27.1791 140.007 27.0211 139.386 26.7049C138.776 26.3887 138.308 25.9427 137.98 25.3669C137.664 24.791 137.484 24.1192 137.438 23.3514C137.427 23.1481 137.422 22.8997 137.422 22.6062C137.422 22.3126 137.427 22.0642 137.438 21.8609C137.484 21.0818 137.67 20.41 137.997 19.8454C138.336 19.2696 138.81 18.8236 139.42 18.5074C140.041 18.1913 140.792 18.0332 141.673 18.0332C142.553 18.0332 143.299 18.1913 143.908 18.5074C144.529 18.8236 145.004 19.2696 145.331 19.8454C145.67 20.41 145.862 21.0818 145.907 21.8609C145.918 22.0642 145.924 22.3126 145.924 22.6062C145.924 22.8997 145.918 23.1481 145.907 23.3514C145.862 24.1192 145.675 24.791 145.348 25.3669C145.032 25.9427 144.563 26.3887 143.942 26.7049C143.333 27.0211 142.576 27.1791 141.673 27.1791ZM141.673 25.5024C142.271 25.5024 142.734 25.3161 143.062 24.9435C143.389 24.5596 143.57 24.0006 143.604 23.2667C143.615 23.0973 143.62 22.8772 143.62 22.6062C143.62 22.3352 143.615 22.115 143.604 21.9456C143.57 21.223 143.389 20.6697 143.062 20.2858C142.734 19.9019 142.271 19.7099 141.673 19.7099C141.074 19.7099 140.611 19.9019 140.284 20.2858C139.956 20.6697 139.776 21.223 139.742 21.9456C139.731 22.115 139.725 22.3352 139.725 22.6062C139.725 22.8772 139.731 23.0973 139.742 23.2667C139.776 24.0006 139.956 24.5596 140.284 24.9435C140.611 25.3161 141.074 25.5024 141.673 25.5024ZM142.604 17.017C142.311 17.017 142.074 16.9718 141.893 16.8815C141.712 16.7799 141.543 16.6782 141.385 16.5766C141.238 16.475 141.074 16.4242 140.894 16.4242C140.747 16.4242 140.64 16.4693 140.572 16.5597C140.515 16.6387 140.459 16.7234 140.402 16.8137C140.346 16.8928 140.256 16.9323 140.131 16.9323H139.352C139.273 16.9323 139.206 16.9041 139.149 16.8476C139.093 16.7911 139.064 16.7234 139.064 16.6444C139.064 16.475 139.093 16.2887 139.149 16.0854C139.217 15.8709 139.318 15.6677 139.454 15.4757C139.589 15.2838 139.759 15.1313 139.962 15.0184C140.177 14.8942 140.425 14.8321 140.707 14.8321C141.012 14.8321 141.255 14.8829 141.436 14.9845C141.616 15.0749 141.78 15.1708 141.927 15.2725C142.085 15.3741 142.254 15.4249 142.435 15.4249C142.582 15.4249 142.683 15.3797 142.74 15.2894C142.807 15.1991 142.87 15.1144 142.926 15.0354C142.983 14.945 143.073 14.8999 143.197 14.8999H143.976C144.066 14.8999 144.134 14.9337 144.179 15.0015C144.236 15.0579 144.264 15.1257 144.264 15.2047C144.264 15.3741 144.23 15.566 144.162 15.7806C144.106 15.9838 144.01 16.1814 143.875 16.3734C143.739 16.5653 143.564 16.7234 143.349 16.8476C143.146 16.9605 142.898 17.017 142.604 17.017ZM151.594 27.1791C150.341 27.1791 149.347 26.8178 148.613 26.0952C147.879 25.3725 147.484 24.345 147.428 23.0126C147.417 22.8997 147.411 22.7586 147.411 22.5892C147.411 22.4086 147.417 22.2674 147.428 22.1658C147.473 21.319 147.665 20.585 148.004 19.964C148.354 19.343 148.834 18.8687 149.443 18.5413C150.053 18.2026 150.77 18.0332 151.594 18.0332C152.509 18.0332 153.277 18.2251 153.898 18.609C154.519 18.9817 154.987 19.5067 155.304 20.1842C155.62 20.8504 155.778 21.6238 155.778 22.5045V22.8602C155.778 22.9731 155.738 23.0691 155.659 23.1481C155.58 23.2272 155.479 23.2667 155.354 23.2667H149.731C149.731 23.2667 149.731 23.2836 149.731 23.3175C149.731 23.3514 149.731 23.3796 149.731 23.4022C149.743 23.7974 149.816 24.1644 149.951 24.5031C150.098 24.8305 150.307 25.0959 150.578 25.2991C150.86 25.5024 151.193 25.604 151.577 25.604C151.894 25.604 152.159 25.5588 152.373 25.4685C152.588 25.3669 152.763 25.254 152.898 25.1298C153.034 25.0056 153.13 24.9039 153.186 24.8249C153.288 24.6894 153.367 24.6104 153.424 24.5878C153.491 24.5539 153.587 24.537 153.711 24.537H155.168C155.281 24.537 155.371 24.5708 155.439 24.6386C155.518 24.7063 155.552 24.791 155.541 24.8926C155.529 25.0733 155.433 25.2935 155.253 25.5532C155.083 25.8129 154.835 26.0669 154.507 26.3154C154.18 26.5638 153.768 26.7726 153.271 26.942C152.786 27.1001 152.227 27.1791 151.594 27.1791ZM149.731 21.844H153.474V21.7932C153.474 21.3528 153.401 20.9689 153.254 20.6415C153.107 20.314 152.893 20.0543 152.611 19.8624C152.328 19.6704 151.99 19.5745 151.594 19.5745C151.199 19.5745 150.86 19.6704 150.578 19.8624C150.296 20.0543 150.081 20.314 149.934 20.6415C149.799 20.9689 149.731 21.3528 149.731 21.7932V21.844ZM160.912 27.1791C160.235 27.1791 159.653 27.1001 159.168 26.942C158.693 26.7839 158.304 26.5863 157.999 26.3492C157.694 26.1121 157.468 25.875 157.322 25.6379C157.175 25.4008 157.096 25.2032 157.084 25.0451C157.073 24.9209 157.107 24.8249 157.186 24.7572C157.276 24.6781 157.372 24.6386 157.474 24.6386H158.812C158.857 24.6386 158.897 24.6442 158.931 24.6555C158.964 24.6668 159.01 24.7007 159.066 24.7572C159.213 24.8814 159.365 25.0112 159.523 25.1467C159.693 25.2822 159.89 25.4008 160.116 25.5024C160.342 25.5927 160.624 25.6379 160.963 25.6379C161.403 25.6379 161.77 25.5532 162.064 25.3838C162.369 25.2032 162.521 24.9491 162.521 24.6217C162.521 24.3845 162.453 24.1926 162.318 24.0458C162.194 23.899 161.957 23.7692 161.607 23.6563C161.257 23.532 160.76 23.4022 160.116 23.2667C159.484 23.1199 158.959 22.9336 158.541 22.7078C158.123 22.482 157.813 22.1997 157.609 21.8609C157.406 21.5222 157.305 21.127 157.305 20.6754C157.305 20.235 157.434 19.8172 157.694 19.422C157.965 19.0155 158.36 18.6824 158.88 18.4227C159.41 18.163 160.065 18.0332 160.844 18.0332C161.454 18.0332 161.985 18.1122 162.436 18.2703C162.888 18.4171 163.261 18.6034 163.554 18.8292C163.859 19.0551 164.091 19.2865 164.249 19.5236C164.407 19.7495 164.491 19.9471 164.503 20.1164C164.514 20.2406 164.48 20.3423 164.401 20.4213C164.322 20.489 164.232 20.5229 164.13 20.5229H162.877C162.82 20.5229 162.77 20.5116 162.724 20.489C162.679 20.4665 162.634 20.4382 162.589 20.4044C162.465 20.2914 162.329 20.1729 162.182 20.0487C162.036 19.9245 161.855 19.8172 161.64 19.7269C161.437 19.6253 161.166 19.5745 160.827 19.5745C160.398 19.5745 160.071 19.6704 159.845 19.8624C159.619 20.043 159.506 20.2745 159.506 20.5568C159.506 20.7487 159.557 20.9181 159.659 21.0649C159.772 21.2004 159.992 21.3302 160.319 21.4545C160.647 21.5787 161.144 21.7085 161.81 21.844C162.566 21.9795 163.165 22.1827 163.605 22.4537C164.057 22.7134 164.373 23.0183 164.554 23.3683C164.746 23.7071 164.842 24.0853 164.842 24.5031C164.842 25.0112 164.689 25.4685 164.384 25.875C164.091 26.2815 163.65 26.6033 163.063 26.8404C162.487 27.0662 161.77 27.1791 160.912 27.1791Z" fill="black"/>
</svg>
