<svg width="129" height="20" viewBox="0 0 129 20" fill="none" xmlns="http://www.w3.org/2000/svg">
<path d="M10.2437 0L13.6759 5.85181L20.3409 7.28505L15.7972 12.3349L16.4841 19.0725L10.2437 16.3417L4.00327 19.0725L4.69023 12.3349L0.146484 7.28505L6.81146 5.85181L10.2437 0Z" fill="#FFCB45"/>
<path d="M37.1695 0L40.6017 5.85181L47.2667 7.28505L42.7229 12.3349L43.4099 19.0725L37.1695 16.3417L30.9291 19.0725L31.616 12.3349L27.0723 7.28505L33.7372 5.85181L37.1695 0Z" fill="#FFCB45"/>
<path d="M64.0953 0L67.5275 5.85181L74.1925 7.28505L69.6487 12.3349L70.3357 19.0725L64.0953 16.3417L57.8548 19.0725L58.5418 12.3349L53.998 7.28505L60.663 5.85181L64.0953 0Z" fill="#FFCB45"/>
<path d="M91.021 0L94.4533 5.85181L101.118 7.28505L96.5745 12.3349L97.2614 19.0725L91.021 16.3417L84.7806 19.0725L85.4676 12.3349L80.9238 7.28505L87.5888 5.85181L91.021 0Z" fill="#FFCB45"/>
<path d="M117.947 0L121.379 5.85181L128.044 7.28505L123.5 12.3349L124.187 19.0725L117.947 16.3417L111.706 19.0725L112.393 12.3349L107.85 7.28505L114.515 5.85181L117.947 0Z" fill="#FFCB45"/>
</svg>
