<svg width="214" height="94" viewBox="0 0 214 94" fill="none" xmlns="http://www.w3.org/2000/svg">
<path d="M94.9374 88.3897C118.122 87.8222 143.976 85.6249 169.36 79.0933C177.245 77.065 184.995 74.6504 192.31 70.6421C195.613 68.8819 198.741 66.7622 201.646 64.3157C203.758 62.4395 205.534 60.1601 206.884 57.5909C210.078 51.5543 209.185 45.3608 204.304 40.8696C201.381 38.2357 198.17 35.9977 194.745 34.2052C184.85 29.1108 174.469 25.2039 163.787 22.5545C154.953 20.4187 145.961 19.1259 136.917 18.6911C135.851 18.7388 134.785 18.5835 133.768 18.2323C133.031 17.8701 132.037 16.7473 132.126 16.0954C132.256 15.5838 132.48 15.1059 132.785 14.6908C133.09 14.2758 133.47 13.9321 133.902 13.6807C134.807 13.3721 135.765 13.2855 136.705 13.4272C151.402 13.2702 165.597 16.4455 179.411 21.5766C186.145 24.1194 192.744 27.0617 199.178 30.39C202.598 32.2079 205.742 34.5771 208.503 37.4166C214.3 43.2842 215.483 51.2042 212.189 59.0035C210.461 62.9891 207.881 66.4734 204.662 69.1691C199.011 74.0829 192.511 77.2219 185.743 79.8056C172.677 84.816 159.13 87.6653 145.439 89.766C129.155 92.2636 112.744 93.6588 96.2999 93.9433C76.5886 94.2814 57.0002 93.1948 37.7468 88.281C30.0615 86.4369 22.6806 83.3389 15.8578 79.0933C11.3533 76.4141 7.40127 72.7702 4.24318 68.3844C-0.782362 61.0439 -1.28492 53.2446 2.42281 45.1314C4.59024 40.6698 7.51942 36.692 11.0556 33.4083C20.1797 24.4138 30.9344 18.3893 42.3256 13.6083C57.1789 7.36646 72.6575 3.94974 88.4266 1.84901C108.569 -0.648228 128.911 -0.615815 149.046 1.94559C166.479 4.03426 183.666 7.48719 200.161 14.212C202.272 15.0812 204.304 16.1557 206.359 17.182C207.789 17.9063 208.716 19.0292 208.101 20.8039C207.644 22.1682 206.259 22.5787 204.416 21.6853C194.03 16.5904 182.985 14.0309 171.918 11.5196C158.959 8.6973 145.829 6.89369 132.629 6.12293C109.302 4.46813 85.8767 6.62118 63.1425 12.5096C50.827 15.5711 38.9778 20.5145 27.9526 27.1906C22.1717 30.5812 16.9001 34.9003 12.3176 40.0003C10.5974 41.9608 9.07032 44.1093 7.76105 46.4112C3.78529 53.5706 4.41071 60.6093 9.73779 66.5493C12.5071 69.5493 15.6049 72.1725 18.9624 74.3606C26.3555 79.2744 34.5975 81.846 43.0404 83.7173C59.2561 87.3634 75.6394 88.4259 94.9374 88.3897Z" fill="#D5FF40"/>
</svg>
