<svg width="15" height="13" viewBox="0 0 15 13" fill="none" xmlns="http://www.w3.org/2000/svg">
<path fill-rule="evenodd" clip-rule="evenodd" d="M13.5341 0.918571C13.351 0.734174 13.0528 0.734174 12.8709 0.918571L5.88195 7.87502C5.6988 8.06067 5.40002 8.06067 5.21812 7.87502L2.15588 4.75653C2.06524 4.66402 1.94648 4.61838 1.82709 4.61776C1.70645 4.61713 1.58394 4.66276 1.49205 4.75653L0.138766 5.97292C0.0487558 6.06543 0 6.18107 0 6.30171C0 6.42297 0.0487558 6.54986 0.139392 6.64175L3.22726 9.88213C3.40978 10.0672 3.70919 10.3672 3.89109 10.551L5.21874 11.8892C5.40127 12.0724 5.69943 12.0724 5.88257 11.8892L14.8624 2.92568C15.0455 2.74191 15.0455 2.44 14.8624 2.25623L13.5341 0.918571Z" fill="#D5FF40"/>
</svg>
