<svg width="167" height="40" viewBox="0 0 167 40" fill="none" xmlns="http://www.w3.org/2000/svg">
<path d="M19.6 19.44H11.88V11.88H10.64V19.44H2.96V20.6H10.64V28.12H11.88V20.6H19.6V19.44ZM48.2097 24.72H42.1297V17.6H40.8097V24.72H26.4897L41.7697 6H40.2097L24.7297 24.96V25.92H40.8097V34H42.1297V25.92H48.2097V24.72ZM61.9472 34.16C68.3472 34.16 72.7472 28.64 72.7472 20C72.7472 11.36 68.3472 5.84 61.9472 5.84C55.5872 5.84 51.1472 11.36 51.1472 20C51.1472 28.64 55.5872 34.16 61.9472 34.16ZM61.9472 32.92C56.3472 32.92 52.5072 28.04 52.5072 20C52.5072 11.96 56.3472 7.08 61.9472 7.08C67.5872 7.08 71.4272 11.96 71.4272 20C71.4272 28.04 67.5872 32.92 61.9472 32.92ZM88.1581 34.16C94.5581 34.16 98.9581 28.64 98.9581 20C98.9581 11.36 94.5581 5.84 88.1581 5.84C81.7981 5.84 77.3581 11.36 77.3581 20C77.3581 28.64 81.7981 34.16 88.1581 34.16ZM88.1581 32.92C82.5581 32.92 78.7181 28.04 78.7181 20C78.7181 11.96 82.5581 7.08 88.1581 7.08C93.7981 7.08 97.6381 11.96 97.6381 20C97.6381 28.04 93.7981 32.92 88.1581 32.92Z" fill="white"/>
<path d="M112.094 24.46C110.6 24.46 109.196 24.928 108.242 25.738L108.818 26.692C109.592 26.008 110.744 25.576 111.968 25.576C113.732 25.576 114.65 26.458 114.65 28.078V28.654H111.644C108.926 28.654 107.99 29.878 107.99 31.336C107.99 32.974 109.304 34.09 111.446 34.09C113.012 34.09 114.128 33.496 114.704 32.524V34H115.928V28.132C115.928 25.684 114.542 24.46 112.094 24.46ZM111.644 33.082C110.132 33.082 109.25 32.398 109.25 31.3C109.25 30.328 109.844 29.608 111.68 29.608H114.65V31.156C114.146 32.398 113.084 33.082 111.644 33.082ZM119.399 34H120.677V20.644H119.399V34ZM131.487 24.532V29.5C131.487 31.66 130.245 32.938 128.265 32.938C126.465 32.938 125.421 31.912 125.421 29.896V24.532H124.143V30.022C124.143 32.74 125.727 34.09 128.139 34.09C129.651 34.09 130.875 33.424 131.541 32.272V34H132.765V24.532H131.487ZM141.169 24.46C139.531 24.46 138.253 25.126 137.569 26.278V24.532H136.345V34H137.623V29.032C137.623 26.872 138.901 25.612 140.935 25.612C142.735 25.612 143.779 26.638 143.779 28.636V34H145.057V28.51C145.057 25.792 143.473 24.46 141.169 24.46ZM152.431 34.09C155.203 34.09 157.237 32.074 157.237 29.266C157.237 26.458 155.203 24.46 152.431 24.46C149.659 24.46 147.607 26.458 147.607 29.266C147.607 32.074 149.659 34.09 152.431 34.09ZM152.431 32.956C150.415 32.956 148.903 31.48 148.903 29.266C148.903 27.052 150.415 25.576 152.431 25.576C154.447 25.576 155.941 27.052 155.941 29.266C155.941 31.48 154.447 32.956 152.431 32.956ZM162.384 34.09C164.85 34.09 166.29 33.028 166.29 31.39C166.29 27.754 160.152 29.68 160.152 27.124C160.152 26.224 160.908 25.558 162.618 25.558C163.59 25.558 164.58 25.792 165.408 26.368L165.966 25.342C165.174 24.802 163.842 24.46 162.618 24.46C160.206 24.46 158.874 25.612 158.874 27.16C158.874 30.904 165.012 28.96 165.012 31.426C165.012 32.362 164.274 32.974 162.474 32.974C161.142 32.974 159.864 32.506 159.108 31.912L158.532 32.92C159.306 33.586 160.818 34.09 162.384 34.09Z" fill="white"/>
</svg>
