<svg width="70" height="19" viewBox="0 0 70 19" fill="none" xmlns="http://www.w3.org/2000/svg">
<path d="M5.94496 2.00252C5.45181 2.7258 4.97429 3.31182 4.62251 3.96605C3.53102 5.99123 3.33294 8.11587 4.14663 10.2824C5.1288 12.8977 6.99207 14.5654 9.72409 15.2089C12.3468 15.8262 14.6646 15.1555 16.684 13.4188C16.9626 13.1796 17.1204 13.1887 17.3547 13.4344C17.787 13.8889 18.2317 14.332 18.6845 14.7651C18.9064 14.9771 18.8949 15.1202 18.6664 15.3297C16.4498 17.3631 13.8287 18.3166 10.8394 18.1514C8.25123 18.0083 5.99509 17.0015 4.12772 15.1966C2.64007 13.7591 1.67515 12.0134 1.19351 9.99968C0.78338 8.29011 0.832694 6.58465 1.28885 4.89974C1.73022 3.27072 2.52747 1.82005 3.67403 0.570755C4.01923 0.194322 4.05704 0.194322 4.41703 0.537879C4.93812 1.03513 5.45675 1.53485 5.94496 2.00334V2.00252Z" fill="black"/>
<path d="M34.4598 4.95607C35.3343 4.95607 36.111 4.94128 36.8853 4.97251C36.9979 4.97744 37.1548 5.18867 37.2009 5.33333C37.7417 7.04618 38.2644 8.76397 38.7954 10.4801C38.8208 10.5615 38.8743 10.6338 38.968 10.8122C39.1619 10.1719 39.3255 9.63519 39.4866 9.09848C39.8754 7.80727 40.2551 6.51276 40.6627 5.2273C40.7014 5.10648 40.9085 4.96593 41.0433 4.96018C41.6712 4.93223 42.3016 4.95771 42.9304 4.94374C43.246 4.93717 43.3002 5.14182 43.3718 5.37442C43.8887 7.06755 44.4131 8.75904 44.9367 10.4513C44.9687 10.5541 45.0106 10.6535 45.0846 10.8533C45.3994 9.82423 45.6871 8.88397 45.9739 7.9437C46.2361 7.08399 46.5057 6.22674 46.7555 5.36374C46.846 5.05141 47.0103 4.92484 47.3432 4.93963C47.9029 4.96429 48.4643 4.94949 49.0257 4.94621C49.3002 4.94456 49.4415 5.00538 49.3199 5.33086C48.6731 7.06508 48.0377 8.80342 47.4032 10.5426C47.0958 11.3867 46.7901 12.2316 46.5024 13.0831C46.3857 13.4291 46.241 13.6387 45.8128 13.6042C45.2416 13.559 44.6646 13.5853 44.0901 13.5968C43.8517 13.6017 43.7268 13.5319 43.6487 13.2853C43.2312 11.9752 42.7931 10.6716 42.36 9.36643C42.2318 8.98095 42.0962 8.59876 41.9392 8.14425C41.5578 9.32369 41.2011 10.4349 40.8403 11.5437C40.6463 12.1395 40.4614 12.7387 40.2378 13.3231C40.1918 13.4431 39.9962 13.5746 39.8638 13.5803C39.2359 13.6075 38.6055 13.5762 37.9768 13.6001C37.6858 13.6108 37.5576 13.4817 37.4688 13.2384C37.1105 12.253 36.7455 11.2708 36.3847 10.2861C35.8044 8.69986 35.2258 7.11276 34.648 5.52565C34.5938 5.37606 34.5478 5.22319 34.459 4.95607H34.4598Z" fill="black"/>
<path d="M24.8742 10.1801C24.3975 10.757 23.7088 11.0932 23.8394 11.9669C23.9011 12.3811 23.8394 12.8118 23.8534 13.2351C23.8616 13.4932 23.7803 13.6041 23.5049 13.5984C22.8762 13.5836 22.2466 13.5852 21.6178 13.5984C21.3638 13.6033 21.2718 13.4932 21.2759 13.2606C21.2775 13.1784 21.2734 13.097 21.2734 13.0148C21.2734 9.45185 21.2734 5.88806 21.2734 2.32509C21.2734 1.68072 21.2759 1.6799 21.9055 1.67908C22.3978 1.67908 22.891 1.69551 23.3825 1.67414C23.7375 1.65853 23.86 1.78264 23.8575 2.14428C23.8427 3.93275 23.8509 5.72122 23.8509 7.50969C23.8509 7.65845 23.8509 7.80722 23.8509 8.05708C24.0153 7.90749 24.123 7.81872 24.22 7.71927C25.0082 6.90558 25.7824 6.07792 26.5912 5.28396C26.7638 5.11465 27.0539 4.99547 27.2972 4.97986C27.9506 4.93876 28.609 4.96424 29.2657 4.96753C29.398 4.96753 29.5295 4.98972 29.7588 5.01027C29.5106 5.29547 29.3281 5.52149 29.1284 5.73108C28.3854 6.51189 27.6416 7.29188 26.8854 8.05954C26.7013 8.24694 26.6734 8.37516 26.8254 8.61351C27.8249 10.1743 28.8029 11.7483 29.7859 13.3189C29.8196 13.3732 29.8303 13.4414 29.8657 13.545C29.7391 13.5639 29.6396 13.5918 29.5402 13.5926C28.7742 13.5959 28.0081 13.586 27.2429 13.6C26.9898 13.605 26.8525 13.5096 26.7268 13.2943C26.1383 12.2825 25.5309 11.2814 24.8734 10.1817L24.8742 10.1801Z" fill="black"/>
<path d="M61.0977 14.1428C61.4207 14.2784 61.664 14.4 61.9204 14.4839C62.6289 14.7165 63.5264 14.1346 63.5157 13.4006C63.5108 13.0801 63.3168 12.757 63.1845 12.4455C62.5229 10.8913 61.8522 9.34202 61.1856 7.78944C60.8634 7.03904 60.5421 6.28864 60.2265 5.53495C60.1607 5.37714 60.1221 5.20865 60.0391 4.94399C60.4319 4.94399 60.7525 4.94399 61.073 4.94399C61.4971 4.94399 61.9237 4.91934 62.3437 4.95961C62.4933 4.97358 62.7053 5.11495 62.7588 5.24892C63.2996 6.61493 63.8116 7.99327 64.336 9.36586C64.4848 9.75544 64.6459 10.1401 64.8974 10.5289C65.0511 10.0998 65.2089 9.67161 65.3576 9.24093C65.8113 7.92834 66.2691 6.61658 66.708 5.29906C66.7984 5.02701 66.9472 4.93742 67.2168 4.94153C67.908 4.95139 68.5984 4.94482 69.3973 4.94482C69.1524 5.58919 68.9535 6.13165 68.7414 6.66918C68.0831 8.34094 67.4255 10.0135 66.7557 11.6812C66.2938 12.8302 65.8557 13.9916 65.3239 15.1085C64.825 16.1581 63.9366 16.717 62.7546 16.7885C61.867 16.8419 61.0369 16.6956 60.3185 16.1417C60.2199 16.0652 60.0974 15.8597 60.1336 15.7932C60.4402 15.2252 60.7812 14.6746 61.0985 14.142L61.0977 14.1428Z" fill="black"/>
<path d="M60.1537 3.99099C59.6868 3.90222 59.28 3.76907 58.8698 3.76003C58.2559 3.74606 57.78 4.64276 58.1005 5.16549C58.1482 5.24275 58.306 5.2822 58.4153 5.28631C58.8386 5.30111 59.2627 5.30111 59.686 5.29207C59.9671 5.28631 60.0772 5.40302 60.0657 5.68412C60.0501 6.06548 60.0526 6.44849 60.0641 6.82985C60.0715 7.07889 59.9605 7.17259 59.7222 7.1693C59.312 7.16437 58.9011 7.18738 58.4926 7.16437C58.1441 7.14465 58.0496 7.28766 58.052 7.61724C58.0635 9.41886 58.0578 11.2205 58.057 13.0213C58.057 13.59 58.0545 13.5909 57.5055 13.5909C56.972 13.5909 56.4386 13.5728 55.906 13.5974C55.5773 13.6131 55.4869 13.498 55.4893 13.1783C55.5025 11.3495 55.4828 9.52078 55.5049 7.69204C55.5099 7.28437 55.4129 7.13889 54.988 7.15944C54.351 7.19149 54.3502 7.16437 54.3493 6.50849C54.3493 6.23562 54.3608 5.96192 54.3469 5.68987C54.3329 5.41289 54.443 5.30275 54.7241 5.28878C55.4893 5.25179 55.4893 5.24193 55.4959 4.49728C55.5107 2.89621 56.6408 1.73732 58.3364 1.58855C59.1591 1.51622 59.9358 1.68882 60.6838 2.02663C60.9443 2.14416 61.0323 2.27895 60.8745 2.56087C60.609 3.03511 60.3821 3.5299 60.152 3.98934L60.1537 3.99099Z" fill="black"/>
<path d="M52.9049 9.30515C52.9049 10.589 52.8958 11.8736 52.9115 13.1574C52.9156 13.501 52.7972 13.6103 52.4602 13.5972C51.8726 13.575 51.2833 13.5799 50.6956 13.5955C50.4071 13.6029 50.2707 13.5224 50.2715 13.2076C50.2789 10.5849 50.2772 7.96216 50.2731 5.33945C50.2731 5.06082 50.3898 4.94165 50.6652 4.94329C51.2808 4.94822 51.8964 4.95151 52.512 4.94247C52.8194 4.93836 52.9106 5.08219 52.9082 5.37068C52.8991 6.68162 52.9041 7.99339 52.9041 9.30515H52.9049Z" fill="black"/>
<path d="M33.551 9.2615C33.551 10.5585 33.5428 11.8546 33.5567 13.1516C33.56 13.4828 33.463 13.6143 33.1145 13.6004C32.5277 13.5757 31.9384 13.5839 31.3515 13.5979C31.0795 13.6045 30.9562 13.5264 30.957 13.2313C30.9644 10.5971 30.9636 7.96289 30.9587 5.32868C30.9587 5.07142 31.0548 4.94813 31.3154 4.94895C31.9441 4.95142 32.5729 4.95389 33.2025 4.94731C33.5082 4.94402 33.5559 5.12073 33.5543 5.37224C33.5493 6.66921 33.5518 7.96535 33.5518 9.26232L33.551 9.2615Z" fill="black"/>
<path d="M51.6018 3.99579C50.8046 3.99744 50.1865 3.36786 50.1914 2.55992C50.1964 1.76349 50.7964 1.15775 51.5829 1.15528C52.4032 1.15282 52.9941 1.75527 52.9843 2.5854C52.9752 3.40073 52.3933 3.99497 51.6026 3.99662L51.6018 3.99579Z" fill="black"/>
<path d="M32.2512 1.15432C33.0451 1.15021 33.6624 1.75431 33.6657 2.53923C33.669 3.36771 33.0739 3.99154 32.2767 3.99647C31.4663 4.00141 30.8778 3.39813 30.877 2.56389C30.877 1.74445 31.4482 1.15843 32.2512 1.15432Z" fill="black"/>
<path d="M7.13086 11.4325C7.1325 10.6566 8.2577 9.54046 9.02782 9.56183C9.36316 9.57087 9.56699 9.73525 9.55713 10.0952C9.54152 10.6615 9.1996 11.0635 8.81166 11.4045C8.5429 11.6404 8.20756 11.8171 7.87551 11.9593C7.48017 12.1286 7.13004 11.8582 7.13086 11.4333V11.4325Z" fill="black"/>
<path d="M14.5003 12.3602C14.4345 12.4851 14.3688 12.8081 14.2052 12.8689C13.9907 12.9478 13.6364 12.9043 13.4532 12.7662C12.8244 12.2903 12.4767 11.6246 12.4948 10.8265C12.4997 10.6202 12.6559 10.3153 12.8244 10.2421C12.9978 10.1665 13.32 10.2528 13.491 10.3818C14.0992 10.8396 14.3959 11.4889 14.5003 12.3602Z" fill="black"/>
<path d="M11.6101 11.6287C11.5493 12.2887 11.4745 12.8402 11.0652 13.2742C10.7126 13.6473 10.2606 13.5857 10.1044 13.1016C9.84221 12.287 9.90632 11.4824 10.4488 10.7854C10.8104 10.321 11.2559 10.4115 11.463 10.9712C11.5501 11.2087 11.5764 11.4684 11.611 11.6287H11.6101Z" fill="black"/>
<path d="M6.67642 9.17786C6.52436 9.14005 6.26382 9.10635 6.02711 9.01101C5.5167 8.80553 5.44602 8.3165 5.88574 7.99267C6.58847 7.47569 7.38737 7.42473 8.19201 7.65569C8.68023 7.79541 8.73612 8.31568 8.34653 8.64773C7.8953 9.0332 7.34956 9.12854 6.67642 9.17786Z" fill="black"/>
<path d="M7.04793 4.67763C7.67258 4.70968 8.30463 5.05488 8.7764 5.66885C9.11667 6.11186 8.89558 6.56802 8.34079 6.6313C7.66025 6.70938 6.57205 6.15542 6.24082 5.56118C5.94658 5.03516 6.21205 4.67188 7.04793 4.67681V4.67763Z" fill="black"/>
</svg>
