<svg width="136" height="37" viewBox="0 0 136 37" fill="none" xmlns="http://www.w3.org/2000/svg">
<rect width="135.036" height="36.9369" rx="18.4685" fill="white"/>
<path d="M42.0176 9.46875H24.0176C22.9076 9.46875 22.0176 10.3587 22.0176 11.4688V23.4688C22.0176 23.9992 22.2283 24.5079 22.6034 24.883C22.9784 25.258 23.4871 25.4688 24.0176 25.4688H29.0176V27.4688H37.0176V25.4688H42.0176C43.1176 25.4688 44.0076 24.5688 44.0076 23.4688L44.0176 11.4688C44.0176 10.9383 43.8069 10.4296 43.4318 10.0545C43.0567 9.67946 42.548 9.46875 42.0176 9.46875ZM42.0176 23.4688H24.0176V11.4688H42.0176V23.4688ZM37.0176 17.4688L30.0176 21.4688V13.4688L37.0176 17.4688Z" fill="black"/>
<path d="M57.726 23.9098C57.6131 23.9098 57.5172 23.8703 57.4381 23.7913C57.3591 23.7122 57.3196 23.6163 57.3196 23.5033V20.2006H54.0677C53.9548 20.2006 53.8588 20.1611 53.7797 20.0821C53.7007 20.003 53.6612 19.9071 53.6612 19.7942V18.8965C53.6612 18.7723 53.7007 18.6763 53.7797 18.6086C53.8588 18.5295 53.9548 18.49 54.0677 18.49H57.3196V15.272C57.3196 15.1591 57.3591 15.0631 57.4381 14.9841C57.5172 14.905 57.6131 14.8655 57.726 14.8655H58.7084C58.8326 14.8655 58.9286 14.905 58.9963 14.9841C59.0754 15.0631 59.1149 15.1591 59.1149 15.272V18.49H62.3668C62.4797 18.49 62.5757 18.5295 62.6547 18.6086C62.7337 18.6763 62.7733 18.7723 62.7733 18.8965V19.7942C62.7733 19.9071 62.7337 20.003 62.6547 20.0821C62.5757 20.1611 62.4797 20.2006 62.3668 20.2006H59.1149V23.5033C59.1149 23.6163 59.0754 23.7122 58.9963 23.7913C58.9286 23.8703 58.8326 23.9098 58.7084 23.9098H57.726ZM67.4378 24.4688C67.3475 24.4688 67.2628 24.4349 67.1837 24.3671C67.116 24.2994 67.0821 24.2147 67.0821 24.1131C67.0821 24.0679 67.0934 24.0171 67.116 23.9606L71.1978 13.0363C71.2317 12.9234 71.2938 12.8274 71.3841 12.7484C71.4857 12.6581 71.6212 12.6129 71.7906 12.6129H73.6367C73.8061 12.6129 73.9359 12.6581 74.0263 12.7484C74.1166 12.8274 74.1843 12.9234 74.2295 13.0363L78.3113 23.9606C78.3226 24.0171 78.3282 24.0679 78.3282 24.1131C78.3282 24.2147 78.2944 24.2994 78.2266 24.3671C78.1589 24.4349 78.0798 24.4688 77.9895 24.4688H76.516C76.3579 24.4688 76.2394 24.4349 76.1603 24.3671C76.0926 24.2881 76.0474 24.2147 76.0248 24.1469L75.2288 22.0806H70.1985L69.4025 24.1469C69.3799 24.2147 69.3291 24.2881 69.25 24.3671C69.1823 24.4349 69.0694 24.4688 68.9113 24.4688H67.4378ZM70.7913 20.1329H74.636L72.7052 14.8994L70.7913 20.1329ZM82.8758 24.6381C82.187 24.6381 81.5886 24.4857 81.0805 24.1808C80.5837 23.8647 80.1998 23.4243 79.9288 22.8597C79.6578 22.2839 79.5223 21.6064 79.5223 20.8273V16.068C79.5223 15.9551 79.5618 15.8591 79.6409 15.7801C79.7199 15.7011 79.8159 15.6615 79.9288 15.6615H81.4192C81.5434 15.6615 81.6394 15.7011 81.7072 15.7801C81.7862 15.8591 81.8257 15.9551 81.8257 16.068V20.7257C81.8257 22.1258 82.4411 22.8259 83.6718 22.8259C84.259 22.8259 84.7219 22.6396 85.0607 22.2669C85.4107 21.8943 85.5857 21.3806 85.5857 20.7257V16.068C85.5857 15.9551 85.6252 15.8591 85.7043 15.7801C85.7833 15.7011 85.8793 15.6615 85.9922 15.6615H87.4827C87.5956 15.6615 87.6915 15.7011 87.7706 15.7801C87.8496 15.8591 87.8891 15.9551 87.8891 16.068V24.0623C87.8891 24.1752 87.8496 24.2712 87.7706 24.3502C87.6915 24.4292 87.5956 24.4688 87.4827 24.4688H86.1108C85.9866 24.4688 85.8849 24.4292 85.8059 24.3502C85.7382 24.2712 85.7043 24.1752 85.7043 24.0623V23.3678C85.3994 23.763 85.0212 24.0736 84.5695 24.2994C84.1178 24.5252 83.5533 24.6381 82.8758 24.6381ZM90.5498 24.4688C90.4369 24.4688 90.3409 24.4292 90.2619 24.3502C90.1829 24.2712 90.1433 24.1752 90.1433 24.0623V12.85C90.1433 12.7371 90.1829 12.6411 90.2619 12.5621C90.3409 12.483 90.4369 12.4435 90.5498 12.4435H91.9556C92.0685 12.4435 92.1645 12.483 92.2435 12.5621C92.3226 12.6411 92.3621 12.7371 92.3621 12.85V24.0623C92.3621 24.1752 92.3226 24.2712 92.2435 24.3502C92.1645 24.4292 92.0685 24.4688 91.9556 24.4688H90.5498ZM97.1662 24.6381C96.5791 24.6381 96.0484 24.5252 95.5741 24.2994C95.0999 24.0623 94.7216 23.7518 94.4394 23.3678C94.1684 22.9727 94.0329 22.5323 94.0329 22.0468C94.0329 21.2564 94.349 20.6297 94.9813 20.1668C95.625 19.6925 96.4718 19.3764 97.5219 19.2183L99.8422 18.8796V18.5239C99.8422 18.0497 99.7237 17.6827 99.4866 17.423C99.2495 17.1633 98.843 17.0334 98.2671 17.0334C97.8606 17.0334 97.5275 17.1181 97.2678 17.2875C97.0194 17.4456 96.8331 17.6601 96.7089 17.9311C96.6186 18.0779 96.4887 18.1513 96.3194 18.1513H94.9813C94.8571 18.1513 94.7612 18.1174 94.6934 18.0497C94.637 17.9819 94.6087 17.8916 94.6087 17.7787C94.62 17.598 94.6934 17.3778 94.8289 17.1181C94.9644 16.8584 95.1789 16.61 95.4725 16.3729C95.7661 16.1245 96.1444 15.9156 96.6073 15.7462C97.0702 15.5769 97.6292 15.4922 98.2841 15.4922C98.9954 15.4922 99.5938 15.5825 100.079 15.7632C100.576 15.9325 100.971 16.164 101.265 16.4576C101.559 16.7512 101.773 17.0955 101.909 17.4907C102.044 17.8859 102.112 18.3037 102.112 18.7441V24.0623C102.112 24.1752 102.072 24.2712 101.993 24.3502C101.914 24.4292 101.818 24.4688 101.705 24.4688H100.333C100.209 24.4688 100.108 24.4292 100.029 24.3502C99.9608 24.2712 99.9269 24.1752 99.9269 24.0623V23.4017C99.7801 23.6163 99.5825 23.8195 99.3341 24.0115C99.0857 24.1921 98.7809 24.3445 98.4195 24.4688C98.0695 24.5817 97.6517 24.6381 97.1662 24.6381ZM97.7421 23.0291C98.1373 23.0291 98.4929 22.9444 98.8091 22.7751C99.1365 22.6057 99.3906 22.346 99.5713 21.996C99.7632 21.6346 99.8592 21.183 99.8592 20.641V20.2853L98.1655 20.5563C97.4993 20.6579 97.0025 20.8217 96.675 21.0475C96.3476 21.2733 96.1839 21.55 96.1839 21.8774C96.1839 22.1258 96.2573 22.3403 96.4041 22.521C96.5621 22.6904 96.7597 22.8202 96.9968 22.9106C97.234 22.9896 97.4824 23.0291 97.7421 23.0291ZM107.621 24.6381C106.944 24.6381 106.362 24.5591 105.877 24.401C105.402 24.2429 105.013 24.0453 104.708 23.8082C104.403 23.5711 104.177 23.334 104.031 23.0969C103.884 22.8597 103.805 22.6621 103.793 22.5041C103.782 22.3799 103.816 22.2839 103.895 22.2161C103.985 22.1371 104.081 22.0976 104.183 22.0976H105.521C105.566 22.0976 105.606 22.1032 105.64 22.1145C105.673 22.1258 105.719 22.1597 105.775 22.2161C105.922 22.3403 106.074 22.4702 106.232 22.6057C106.402 22.7412 106.599 22.8597 106.825 22.9614C107.051 23.0517 107.333 23.0969 107.672 23.0969C108.112 23.0969 108.479 23.0122 108.773 22.8428C109.078 22.6621 109.23 22.4081 109.23 22.0806C109.23 21.8435 109.162 21.6516 109.027 21.5048C108.903 21.358 108.666 21.2281 108.316 21.1152C107.966 20.991 107.469 20.8612 106.825 20.7257C106.193 20.5789 105.668 20.3926 105.25 20.1668C104.832 19.9409 104.522 19.6587 104.318 19.3199C104.115 18.9812 104.014 18.586 104.014 18.1343C104.014 17.694 104.143 17.2762 104.403 16.881C104.674 16.4745 105.069 16.1414 105.589 15.8817C106.119 15.622 106.774 15.4922 107.553 15.4922C108.163 15.4922 108.694 15.5712 109.146 15.7293C109.597 15.8761 109.97 16.0624 110.263 16.2882C110.568 16.514 110.8 16.7455 110.958 16.9826C111.116 17.2084 111.201 17.406 111.212 17.5754C111.223 17.6996 111.189 17.8012 111.11 17.8803C111.031 17.948 110.941 17.9819 110.839 17.9819H109.586C109.529 17.9819 109.479 17.9706 109.433 17.948C109.388 17.9254 109.343 17.8972 109.298 17.8633C109.174 17.7504 109.038 17.6319 108.891 17.5077C108.745 17.3835 108.564 17.2762 108.349 17.1859C108.146 17.0842 107.875 17.0334 107.537 17.0334C107.107 17.0334 106.78 17.1294 106.554 17.3214C106.328 17.502 106.215 17.7335 106.215 18.0158C106.215 18.2077 106.266 18.3771 106.368 18.5239C106.481 18.6594 106.701 18.7892 107.028 18.9134C107.356 19.0376 107.853 19.1675 108.519 19.303C109.275 19.4385 109.874 19.6417 110.314 19.9127C110.766 20.1724 111.082 20.4773 111.263 20.8273C111.455 21.166 111.551 21.5443 111.551 21.9621C111.551 22.4702 111.398 22.9275 111.093 23.334C110.8 23.7405 110.359 24.0623 109.772 24.2994C109.196 24.5252 108.479 24.6381 107.621 24.6381Z" fill="black"/>
</svg>
