<svg width="180" height="41" viewBox="0 0 180 41" fill="none" xmlns="http://www.w3.org/2000/svg">
<path d="M14.762 8.6V35H13.322V10.16L5.84195 15.2L5.16195 14.04L13.322 8.6H14.762ZM26.7848 11C27.6381 9.96 28.5981 9.24 29.6648 8.84C30.7314 8.41333 32.0381 8.2 33.5848 8.2C35.1314 8.2 36.4381 8.41333 37.5048 8.84C38.5981 9.24 39.5581 9.96 40.3848 11C41.9848 12.9733 42.7848 16.76 42.7848 22.36C42.7848 27.32 41.9581 30.76 40.3048 32.68C39.4781 33.64 38.5181 34.3333 37.4248 34.76C36.3581 35.16 35.0781 35.36 33.5848 35.36C32.0914 35.36 30.7981 35.16 29.7048 34.76C28.6381 34.36 27.6914 33.6933 26.8648 32.76C25.1848 30.8667 24.3448 27.4133 24.3448 22.4C24.3448 16.8267 25.1581 13.0267 26.7848 11ZM40.3848 14.48C39.7981 12.5867 38.9581 11.2933 37.8648 10.6C36.7981 9.90667 35.3581 9.56 33.5448 9.56C31.7581 9.56 30.3314 9.90667 29.2648 10.6C26.9981 12.04 25.8648 15.9867 25.8648 22.44C25.8648 27 26.5581 30.1067 27.9448 31.76C28.6381 32.5867 29.4248 33.1733 30.3048 33.52C31.2114 33.84 32.4114 34 33.9048 34C35.3981 34 36.6781 33.7067 37.7448 33.12C38.8114 32.5067 39.6648 31.3333 40.3048 29.6C40.9448 27.84 41.2648 25.36 41.2648 22.16C41.2648 18.9333 40.9714 16.3733 40.3848 14.48ZM49.1676 11C50.0209 9.96 50.9809 9.24 52.0476 8.84C53.1142 8.41333 54.4209 8.2 55.9676 8.2C57.5142 8.2 58.8209 8.41333 59.8876 8.84C60.9809 9.24 61.9409 9.96 62.7676 11C64.3676 12.9733 65.1676 16.76 65.1676 22.36C65.1676 27.32 64.3409 30.76 62.6876 32.68C61.8609 33.64 60.9009 34.3333 59.8076 34.76C58.7409 35.16 57.4609 35.36 55.9676 35.36C54.4742 35.36 53.1809 35.16 52.0876 34.76C51.0209 34.36 50.0742 33.6933 49.2476 32.76C47.5676 30.8667 46.7276 27.4133 46.7276 22.4C46.7276 16.8267 47.5409 13.0267 49.1676 11ZM62.7676 14.48C62.1809 12.5867 61.3409 11.2933 60.2476 10.6C59.1809 9.90667 57.7409 9.56 55.9276 9.56C54.1409 9.56 52.7142 9.90667 51.6476 10.6C49.3809 12.04 48.2476 15.9867 48.2476 22.44C48.2476 27 48.9409 30.1067 50.3276 31.76C51.0209 32.5867 51.8076 33.1733 52.6876 33.52C53.5942 33.84 54.7942 34 56.2876 34C57.7809 34 59.0609 33.7067 60.1276 33.12C61.1942 32.5067 62.0476 31.3333 62.6876 29.6C63.3276 27.84 63.6476 25.36 63.6476 22.16C63.6476 18.9333 63.3542 16.3733 62.7676 14.48ZM74.1504 35.04L81.5504 8.24L82.8304 8.6L75.3904 35.36L74.1504 35.04ZM68.6704 13.56C68.6704 10.0133 70.0437 8.24 72.7904 8.24C75.5371 8.24 76.9104 10.0267 76.9104 13.6C76.9104 15.44 76.5371 16.8267 75.7904 17.76C75.0437 18.6667 74.0304 19.12 72.7504 19.12C71.4971 19.12 70.4971 18.6667 69.7504 17.76C69.0304 16.8267 68.6704 15.4267 68.6704 13.56ZM70.0704 13.56C70.0704 16.4133 70.9771 17.84 72.7904 17.84C74.6037 17.84 75.5104 16.4267 75.5104 13.6C75.5104 12.2133 75.2971 11.1867 74.8704 10.52C74.4704 9.85333 73.7771 9.52 72.7904 9.52C71.8304 9.52 71.1371 9.85333 70.7104 10.52C70.2837 11.1867 70.0704 12.2 70.0704 13.56ZM79.8304 29.8C79.8304 26.2533 81.2037 24.48 83.9504 24.48C86.6971 24.48 88.0704 26.2667 88.0704 29.84C88.0704 31.68 87.6971 33.0667 86.9504 34C86.2037 34.9067 85.1904 35.36 83.9104 35.36C82.6571 35.36 81.6571 34.9067 80.9104 34C80.1904 33.0667 79.8304 31.6667 79.8304 29.8ZM81.2304 29.8C81.2304 32.6533 82.1371 34.08 83.9504 34.08C85.7637 34.08 86.6704 32.6667 86.6704 29.84C86.6704 28.4533 86.4571 27.4267 86.0304 26.76C85.6304 26.0933 84.9371 25.76 83.9504 25.76C82.9904 25.76 82.2971 26.0933 81.8704 26.76C81.4437 27.4267 81.2304 28.44 81.2304 29.8Z" fill="white"/>
<path d="M107.652 12.2492V16.8572C107.688 17.3012 108.036 17.5652 108.696 17.6492L108.642 18.7113C107.694 18.7113 106.98 18.4713 106.5 17.9912C105.42 18.4713 104.34 18.7113 103.26 18.7113C102.432 18.7113 101.802 18.4773 101.37 18.0092C100.938 17.5412 100.722 16.8692 100.722 15.9932C100.722 15.1172 100.944 14.4752 101.388 14.0672C101.832 13.6472 102.528 13.3892 103.476 13.2932L106.302 13.0232V12.2492C106.302 11.6372 106.17 11.1992 105.906 10.9352C105.642 10.6712 105.282 10.5392 104.826 10.5392C103.866 10.5392 102.87 10.5992 101.838 10.7192L101.28 10.7732L101.226 9.74725C102.546 9.48325 103.716 9.35125 104.736 9.35125C105.756 9.35125 106.494 9.58525 106.95 10.0532C107.418 10.5212 107.652 11.2532 107.652 12.2492ZM102.108 15.9212C102.108 17.0252 102.564 17.5772 103.476 17.5772C104.292 17.5772 105.096 17.4392 105.888 17.1632L106.302 17.0192V14.0492L103.638 14.3012C103.098 14.3492 102.708 14.5052 102.468 14.7692C102.228 15.0332 102.108 15.4172 102.108 15.9212ZM109.382 9.53125H110.822L112.928 17.3612H113.594L115.772 9.53125H117.158L114.62 18.5312H111.92L109.382 9.53125ZM125.107 12.2492V16.8572C125.143 17.3012 125.491 17.5652 126.151 17.6492L126.097 18.7113C125.149 18.7113 124.435 18.4713 123.955 17.9912C122.875 18.4713 121.795 18.7113 120.715 18.7113C119.887 18.7113 119.257 18.4773 118.825 18.0092C118.393 17.5412 118.177 16.8692 118.177 15.9932C118.177 15.1172 118.399 14.4752 118.843 14.0672C119.287 13.6472 119.983 13.3892 120.931 13.2932L123.757 13.0232V12.2492C123.757 11.6372 123.625 11.1992 123.361 10.9352C123.097 10.6712 122.737 10.5392 122.281 10.5392C121.321 10.5392 120.325 10.5992 119.293 10.7192L118.735 10.7732L118.681 9.74725C120.001 9.48325 121.171 9.35125 122.191 9.35125C123.211 9.35125 123.949 9.58525 124.405 10.0532C124.873 10.5212 125.107 11.2532 125.107 12.2492ZM119.563 15.9212C119.563 17.0252 120.019 17.5772 120.931 17.5772C121.747 17.5772 122.551 17.4392 123.343 17.1632L123.757 17.0192V14.0492L121.093 14.3012C120.553 14.3492 120.163 14.5052 119.923 14.7692C119.683 15.0332 119.563 15.4172 119.563 15.9212ZM127.879 18.5312V5.60725H129.229V18.5312H127.879ZM131.937 18.5312V9.53125H133.287V18.5312H131.937ZM131.937 7.49725V5.93125H133.287V7.49725H131.937ZM142.228 12.2492V16.8572C142.264 17.3012 142.612 17.5652 143.272 17.6492L143.218 18.7113C142.27 18.7113 141.556 18.4713 141.076 17.9912C139.996 18.4713 138.916 18.7113 137.836 18.7113C137.008 18.7113 136.378 18.4773 135.946 18.0092C135.514 17.5412 135.298 16.8692 135.298 15.9932C135.298 15.1172 135.52 14.4752 135.964 14.0672C136.408 13.6472 137.104 13.3892 138.052 13.2932L140.878 13.0232V12.2492C140.878 11.6372 140.746 11.1992 140.482 10.9352C140.218 10.6712 139.858 10.5392 139.402 10.5392C138.442 10.5392 137.446 10.5992 136.414 10.7192L135.856 10.7732L135.802 9.74725C137.122 9.48325 138.292 9.35125 139.312 9.35125C140.332 9.35125 141.07 9.58525 141.526 10.0532C141.994 10.5212 142.228 11.2532 142.228 12.2492ZM136.684 15.9212C136.684 17.0252 137.14 17.5772 138.052 17.5772C138.868 17.5772 139.672 17.4392 140.464 17.1632L140.878 17.0192V14.0492L138.214 14.3012C137.674 14.3492 137.284 14.5052 137.044 14.7692C136.804 15.0332 136.684 15.4172 136.684 15.9212ZM150.076 20.8173C150.076 21.8973 149.518 22.4373 148.402 22.4373C147.85 22.4373 147.4 22.4073 147.052 22.3473L146.854 22.3113L146.908 21.4473C147.376 21.4833 147.772 21.5013 148.096 21.5013C148.624 21.5013 148.888 21.2733 148.888 20.8173C148.888 20.4093 148.624 20.2053 148.096 20.2053H147.34V18.6573C146.284 18.5373 145.546 18.1112 145.126 17.3792C144.718 16.6472 144.514 15.4712 144.514 13.8512C144.514 12.2312 144.802 11.0792 145.378 10.3952C145.954 9.69925 146.914 9.35125 148.258 9.35125C148.654 9.35125 149.326 9.42325 150.274 9.56725L150.706 9.62125L150.652 10.7192C149.692 10.6112 148.984 10.5572 148.528 10.5572C147.508 10.5572 146.812 10.8032 146.44 11.2952C146.08 11.7752 145.9 12.6752 145.9 13.9952C145.9 15.3032 146.068 16.2152 146.404 16.7312C146.752 17.2472 147.466 17.5052 148.546 17.5052L150.67 17.3433L150.724 18.4592C149.608 18.6273 148.774 18.7113 148.222 18.7113H148.078V19.4133C148.786 19.4133 149.296 19.5093 149.608 19.7013C149.92 19.8933 150.076 20.2653 150.076 20.8173ZM156.082 9.35125C157.486 9.35125 158.476 9.71725 159.052 10.4492C159.64 11.1812 159.934 12.3692 159.934 14.0132C159.934 15.6572 159.658 16.8512 159.106 17.5952C158.554 18.3393 157.546 18.7113 156.082 18.7113C154.618 18.7113 153.61 18.3393 153.058 17.5952C152.506 16.8512 152.23 15.6572 152.23 14.0132C152.23 12.3692 152.524 11.1812 153.112 10.4492C153.7 9.71725 154.69 9.35125 156.082 9.35125ZM156.082 17.5412C157.102 17.5412 157.768 17.2832 158.08 16.7672C158.392 16.2392 158.548 15.3152 158.548 13.9952C158.548 12.6752 158.374 11.7692 158.026 11.2772C157.678 10.7732 157.03 10.5212 156.082 10.5212C155.146 10.5212 154.498 10.7732 154.138 11.2772C153.79 11.7692 153.616 12.6752 153.616 13.9952C153.616 15.3032 153.772 16.2212 154.084 16.7492C154.408 17.2772 155.074 17.5412 156.082 17.5412ZM157.36 7.51525C157.108 7.51525 156.67 7.37725 156.046 7.10125C155.434 6.81325 155.05 6.66925 154.894 6.66925C154.618 6.66925 154.246 6.84925 153.778 7.20925L153.544 7.38925L153.22 6.52525C153.82 5.90125 154.366 5.58925 154.858 5.58925C155.11 5.58925 155.548 5.72725 156.172 6.00325C156.796 6.27925 157.174 6.41725 157.306 6.41725C157.57 6.41725 157.93 6.24325 158.386 5.89525L158.602 5.73325L158.908 6.59725C158.356 7.20925 157.84 7.51525 157.36 7.51525ZM168.256 17.4152L168.778 17.3612L168.814 18.4232C167.446 18.6153 166.276 18.7113 165.304 18.7113C164.008 18.7113 163.09 18.3393 162.55 17.5952C162.01 16.8392 161.74 15.6692 161.74 14.0852C161.74 10.9292 162.994 9.35125 165.502 9.35125C166.714 9.35125 167.62 9.69325 168.22 10.3772C168.82 11.0492 169.12 12.1112 169.12 13.5632L169.048 14.5892H163.108C163.108 15.5852 163.288 16.3232 163.648 16.8032C164.008 17.2832 164.632 17.5232 165.52 17.5232C166.42 17.5232 167.332 17.4872 168.256 17.4152ZM167.77 13.5092C167.77 12.4052 167.59 11.6252 167.23 11.1692C166.882 10.7132 166.306 10.4852 165.502 10.4852C164.71 10.4852 164.11 10.7252 163.702 11.2052C163.306 11.6852 163.102 12.4532 163.09 13.5092H167.77ZM174.05 10.5572C172.742 10.5572 172.088 11.0132 172.088 11.9252C172.088 12.3452 172.238 12.6452 172.538 12.8252C172.838 12.9932 173.522 13.1732 174.59 13.3652C175.658 13.5452 176.414 13.8032 176.858 14.1392C177.302 14.4752 177.524 15.1052 177.524 16.0292C177.524 16.9532 177.224 17.6312 176.624 18.0632C176.036 18.4953 175.172 18.7113 174.032 18.7113C173.288 18.7113 172.412 18.6273 171.404 18.4592L170.864 18.3692L170.936 17.1992C172.304 17.4032 173.336 17.5052 174.032 17.5052C174.728 17.5052 175.256 17.3972 175.616 17.1812C175.988 16.9532 176.174 16.5812 176.174 16.0652C176.174 15.5372 176.018 15.1832 175.706 15.0032C175.394 14.8112 174.71 14.6312 173.654 14.4632C172.598 14.2952 171.848 14.0492 171.404 13.7252C170.96 13.4012 170.738 12.8012 170.738 11.9252C170.738 11.0492 171.044 10.4012 171.656 9.98125C172.28 9.56125 173.054 9.35125 173.978 9.35125C174.71 9.35125 175.628 9.43525 176.732 9.60325L177.236 9.69325L177.2 10.8452C175.868 10.6532 174.818 10.5572 174.05 10.5572ZM101.298 40.5273V27.5312H102.63V28.1792C103.542 27.6272 104.442 27.3512 105.33 27.3512C106.47 27.3512 107.298 27.7172 107.814 28.4492C108.33 29.1692 108.588 30.3632 108.588 32.0312C108.588 33.6992 108.282 34.8992 107.67 35.6312C107.07 36.3513 106.068 36.7113 104.664 36.7113C103.932 36.7113 103.26 36.6453 102.648 36.5132V40.5273H101.298ZM105.132 28.5572C104.772 28.5572 104.382 28.6172 103.962 28.7372C103.554 28.8572 103.23 28.9772 102.99 29.0972L102.648 29.2772V35.3433C103.5 35.4752 104.148 35.5412 104.592 35.5412C105.564 35.5412 106.242 35.2652 106.626 34.7132C107.022 34.1612 107.22 33.2612 107.22 32.0132C107.22 30.7652 107.04 29.8772 106.68 29.3492C106.332 28.8212 105.816 28.5572 105.132 28.5572ZM110.394 32.0132C110.394 30.3692 110.688 29.1812 111.276 28.4492C111.864 27.7172 112.854 27.3512 114.246 27.3512C115.65 27.3512 116.64 27.7172 117.216 28.4492C117.804 29.1812 118.098 30.3692 118.098 32.0132C118.098 33.6572 117.822 34.8512 117.27 35.5952C116.718 36.3393 115.71 36.7113 114.246 36.7113C112.782 36.7113 111.774 36.3393 111.222 35.5952C110.67 34.8512 110.394 33.6572 110.394 32.0132ZM111.78 31.9952C111.78 33.3032 111.936 34.2212 112.248 34.7492C112.572 35.2772 113.238 35.5412 114.246 35.5412C115.266 35.5412 115.932 35.2832 116.244 34.7672C116.556 34.2392 116.712 33.3152 116.712 31.9952C116.712 30.6752 116.538 29.7692 116.19 29.2772C115.842 28.7732 115.194 28.5212 114.246 28.5212C113.31 28.5212 112.662 28.7732 112.302 29.2772C111.954 29.7692 111.78 30.6752 111.78 31.9952ZM123.126 28.5572C121.818 28.5572 121.164 29.0132 121.164 29.9252C121.164 30.3452 121.314 30.6452 121.614 30.8252C121.914 30.9932 122.598 31.1732 123.666 31.3652C124.734 31.5452 125.49 31.8032 125.934 32.1392C126.378 32.4752 126.6 33.1052 126.6 34.0292C126.6 34.9532 126.3 35.6312 125.7 36.0632C125.112 36.4953 124.248 36.7113 123.108 36.7113C122.364 36.7113 121.488 36.6273 120.48 36.4592L119.94 36.3692L120.012 35.1992C121.38 35.4032 122.412 35.5052 123.108 35.5052C123.804 35.5052 124.332 35.3972 124.692 35.1812C125.064 34.9532 125.25 34.5812 125.25 34.0652C125.25 33.5372 125.094 33.1832 124.782 33.0032C124.47 32.8112 123.786 32.6312 122.73 32.4632C121.674 32.2952 120.924 32.0492 120.48 31.7252C120.036 31.4012 119.814 30.8012 119.814 29.9252C119.814 29.0492 120.12 28.4012 120.732 27.9812C121.356 27.5612 122.13 27.3512 123.054 27.3512C123.786 27.3512 124.704 27.4352 125.808 27.6032L126.312 27.6932L126.276 28.8452C124.944 28.6532 123.894 28.5572 123.126 28.5572ZM128.667 36.5312V27.5312H130.017V36.5312H128.667ZM128.667 25.4972V23.9312H130.017V25.4972H128.667ZM137.267 28.7012H134.405V33.0032C134.405 34.0352 134.477 34.7132 134.621 35.0372C134.777 35.3612 135.137 35.5232 135.701 35.5232L137.303 35.4152L137.393 36.5312C136.589 36.6633 135.977 36.7293 135.557 36.7293C134.621 36.7293 133.973 36.5013 133.613 36.0452C133.253 35.5892 133.073 34.7192 133.073 33.4352V28.7012H131.795V27.5312H133.073V24.7772H134.405V27.5312H137.267V28.7012ZM138.915 36.5312V27.5312H140.265V36.5312H138.915ZM138.915 25.4972V23.9312H140.265V25.4972H138.915ZM142.007 27.5312H143.447L145.553 35.3612H146.219L148.397 27.5312H149.783L147.245 36.5312H144.545L142.007 27.5312ZM157.732 30.2492V34.8572C157.768 35.3012 158.116 35.5652 158.776 35.6492L158.722 36.7113C157.774 36.7113 157.06 36.4713 156.58 35.9912C155.5 36.4713 154.42 36.7113 153.34 36.7113C152.512 36.7113 151.882 36.4773 151.45 36.0092C151.018 35.5412 150.802 34.8692 150.802 33.9932C150.802 33.1172 151.024 32.4752 151.468 32.0672C151.912 31.6472 152.608 31.3892 153.556 31.2932L156.382 31.0232V30.2492C156.382 29.6372 156.25 29.1992 155.986 28.9352C155.722 28.6712 155.362 28.5392 154.906 28.5392C153.946 28.5392 152.95 28.5992 151.918 28.7192L151.36 28.7732L151.306 27.7472C152.626 27.4832 153.796 27.3512 154.816 27.3512C155.836 27.3512 156.574 27.5852 157.03 28.0532C157.498 28.5212 157.732 29.2532 157.732 30.2492ZM152.188 33.9212C152.188 35.0252 152.644 35.5772 153.556 35.5772C154.372 35.5772 155.176 35.4392 155.968 35.1632L156.382 35.0192V32.0492L153.718 32.3012C153.178 32.3492 152.788 32.5052 152.548 32.7692C152.308 33.0332 152.188 33.4172 152.188 33.9212ZM163.222 28.5572C161.914 28.5572 161.26 29.0132 161.26 29.9252C161.26 30.3452 161.41 30.6452 161.71 30.8252C162.01 30.9932 162.694 31.1732 163.762 31.3652C164.83 31.5452 165.586 31.8032 166.03 32.1392C166.474 32.4752 166.696 33.1052 166.696 34.0292C166.696 34.9532 166.396 35.6312 165.796 36.0632C165.208 36.4953 164.344 36.7113 163.204 36.7113C162.46 36.7113 161.584 36.6273 160.576 36.4592L160.036 36.3692L160.108 35.1992C161.476 35.4032 162.508 35.5052 163.204 35.5052C163.9 35.5052 164.428 35.3972 164.788 35.1812C165.16 34.9532 165.346 34.5812 165.346 34.0652C165.346 33.5372 165.19 33.1832 164.878 33.0032C164.566 32.8112 163.882 32.6312 162.826 32.4632C161.77 32.2952 161.02 32.0492 160.576 31.7252C160.132 31.4012 159.91 30.8012 159.91 29.9252C159.91 29.0492 160.216 28.4012 160.828 27.9812C161.452 27.5612 162.226 27.3512 163.15 27.3512C163.882 27.3512 164.8 27.4352 165.904 27.6032L166.408 27.6932L166.372 28.8452C165.04 28.6532 163.99 28.5572 163.222 28.5572Z" fill="white"/>
</svg>
