<svg width="1440" height="114" viewBox="0 0 1440 114" fill="none" xmlns="http://www.w3.org/2000/svg">
<path opacity="0.5" fill-rule="evenodd" clip-rule="evenodd" d="M78.2124 42.533H64.1477L64.0625 41.9036C62.7458 32.1708 59.3921 24.9701 54.0784 20.1981C48.7675 15.4288 41.4046 13.001 31.8974 13.001C19.6779 13.001 10.3753 17.0345 3.879 25.0375L3.87617 25.0409C-2.64725 32.9769 -5.94677 43.6665 -5.94677 57.1872C-5.94677 71.1481 -3.14572 82.0051 2.3722 89.8379C7.83803 97.5968 16.4479 101.527 28.3631 101.527C38.8728 101.527 46.5211 98.448 51.4644 92.413C56.3395 86.3606 58.7898 77.1089 58.6863 64.5281H21.6438V52.9226H75.8463C79.0167 52.9226 81.5299 53.6485 83.252 55.2286C84.9861 56.8197 85.7925 59.1602 85.7925 62.1092V112.21H71.7393V70.9781L73.6246 57.9142H71.6514C71.5098 76.2388 67.9133 90.1407 60.7488 99.5046C53.462 109.028 42.5707 113.748 28.2094 113.748C12.6644 113.748 0.656693 108.551 -7.70114 98.0939L-7.70392 98.0905C-15.9237 87.6759 -20 74.0188 -20 57.1872C-20 40.8368 -15.2915 27.3251 -5.83196 16.7121C3.64366 6.08108 16.2455 0.780273 31.8974 0.780273C45.1498 0.780273 55.7916 4.46296 63.7413 11.8967C71.6694 19.3102 76.4453 29.267 78.1028 41.7099L78.2124 42.533ZM70.9289 57.1872H74.4633L72.4656 71.0303V111.483H85.0663V62.1092C85.0663 56.4694 81.993 53.6495 75.8463 53.6495H22.3701V63.8011H59.4039C59.6088 76.8239 57.1501 86.5141 52.0278 92.8716C46.9056 99.1267 39.0174 102.254 28.3631 102.254C16.2746 102.254 7.41313 98.2551 1.77867 90.2568C-3.8558 82.2586 -6.67303 71.2354 -6.67303 57.1872C-6.67303 43.5492 -3.34357 32.6798 3.31534 24.579C9.97425 16.3757 19.5016 12.2741 31.8974 12.2741C51.1571 12.2741 62.1187 22.118 64.7822 41.806H77.3829C77.3505 41.5627 77.3169 41.3204 77.2821 41.0791C75.5563 29.1148 70.8774 19.5644 63.2456 12.4279C55.4597 5.14744 45.0104 1.50722 31.8974 1.50722C16.4283 1.50722 4.03245 6.73683 -5.29003 17.1961C-14.6125 27.6553 -19.2737 40.9857 -19.2737 57.1872C-19.2737 73.9015 -15.2272 87.3857 -7.13403 97.6398C1.06155 107.894 12.8427 113.021 28.2094 113.021C56.5866 113.021 70.8265 94.4098 70.9289 57.1872ZM128.716 67.2311L128.722 67.2304L158.451 64.375C158.006 57.8666 156.089 53.0669 152.796 49.8642C149.389 46.5515 144.398 44.8401 137.705 44.8401C131.684 44.8401 126.725 46.344 122.777 49.3064C119.02 52.2015 117.071 56.8705 117.071 63.4935V64.2205H103.325V63.4935C103.325 54.9877 106.429 47.7245 112.613 41.7446C118.823 35.74 127.215 32.7732 137.705 32.7732C148.411 32.7732 156.914 36.0042 163.123 42.5336C169.421 49.0494 172.545 57.5985 172.545 68.1079V99.9891H183.763V112.21H169.514C166.383 112.21 163.9 111.44 162.205 109.771C160.507 108.1 159.721 105.651 159.721 102.562V98.3194L161.515 91.1376H159.32C157.368 98.5214 153.935 104.148 148.98 107.946C143.904 111.836 137.306 113.748 129.253 113.748C124.995 113.748 121.18 113.228 117.818 112.177L117.805 112.173L117.792 112.168C114.565 111.022 112.014 109.65 110.179 108.029L110.17 108.021L110.161 108.013C108.36 106.316 106.877 104.354 105.713 102.13L105.71 102.124L105.707 102.118C104.561 99.8235 103.813 97.7551 103.49 95.9204L103.489 95.9136C103.175 94.0289 103.018 92.1432 103.018 90.2568C103.018 83.5262 105.166 78.1734 109.523 74.294C113.856 70.4364 120.288 68.1109 128.716 67.2311ZM158.757 90.4107H162.445L160.447 98.4089V102.562C160.447 108.509 163.469 111.483 169.514 111.483H183.036V100.716H171.819V68.1079C171.819 57.7512 168.745 49.3941 162.599 43.0365C156.554 36.6789 148.256 33.5001 137.705 33.5001C127.358 33.5001 119.162 36.4226 113.118 42.2674C107.251 47.941 104.231 54.7741 104.059 62.7666C104.054 63.0078 104.051 63.2502 104.051 63.4935H116.345C116.345 56.7258 118.342 51.8038 122.338 48.7276C126.436 45.6513 131.558 44.1132 137.705 44.1132C151.33 44.1132 158.501 51.086 159.218 65.0316L128.792 67.9541C112.093 69.6973 103.744 77.1315 103.744 90.2568C103.744 92.1026 103.898 93.9483 104.205 95.7941C104.512 97.5373 105.23 99.5368 106.356 101.793C107.483 103.946 108.918 105.843 110.659 107.484C112.401 109.022 114.859 110.355 118.035 111.483C121.313 112.508 125.053 113.021 129.253 113.021C145.132 113.021 154.966 105.484 158.757 90.4107ZM131.018 78.0597L131.017 78.0598C126.045 78.5676 122.512 79.6769 120.311 81.3051L120.302 81.3113L120.294 81.3172C118.187 82.7839 117.071 85.1897 117.071 88.7187C117.071 92.8738 118.301 95.9922 120.678 98.1815C123.069 100.384 126.409 101.527 130.789 101.527C139.131 101.527 145.8 98.9683 150.867 93.8957C155.769 88.9895 158.315 82.7827 158.483 75.221L131.018 78.0597ZM130.943 77.3366C125.923 77.8493 122.235 78.9773 119.879 80.7205C117.523 82.3612 116.345 85.0272 116.345 88.7187C116.345 93.0255 117.625 96.3581 120.186 98.7165C122.748 101.075 126.282 102.254 130.789 102.254C139.292 102.254 146.156 99.6394 151.381 94.4098C156.447 89.3384 159.057 82.9171 159.211 75.1457C159.216 74.9032 159.218 74.6594 159.218 74.4142L130.943 77.3366ZM196.731 112.21V44.1132C196.731 40.3689 197.639 37.4528 199.598 35.5203C201.561 33.5844 204.441 32.7695 208.088 32.9275C208.089 32.9276 208.09 32.9276 208.092 32.9277L251.198 34.3347V46.5574L210.784 45.1731V112.21H196.731ZM210.058 44.4208L250.472 45.8051V35.0383L208.06 33.654C200.991 33.3463 197.457 36.8327 197.457 44.1132V111.483H210.058V44.4208ZM286.736 67.2311L286.742 67.2304L316.47 64.375C316.026 57.8666 314.109 53.0669 310.815 49.8642C307.408 46.5515 302.417 44.8401 295.724 44.8401C289.703 44.8401 284.744 46.3442 280.796 49.3067C277.039 52.2019 275.09 56.8708 275.09 63.4935V64.2205H261.344V63.4935C261.344 54.9877 264.448 47.7245 270.632 41.7446C276.842 35.74 285.234 32.7732 295.724 32.7732C306.429 32.7732 314.933 36.004 321.141 42.5329C327.44 49.0488 330.564 57.5981 330.564 68.1079V99.9891H341.782V112.21H327.533C324.402 112.21 321.92 111.44 320.224 109.771C318.526 108.1 317.74 105.651 317.74 102.562V98.3194L319.534 91.1376H317.339C315.387 98.5214 311.954 104.148 306.999 107.946C301.923 111.836 295.326 113.748 287.272 113.748C283.014 113.748 279.2 113.228 275.838 112.177L275.824 112.173L275.811 112.168C272.584 111.022 270.033 109.65 268.198 108.029L268.189 108.021L268.18 108.013C266.379 106.316 264.896 104.354 263.732 102.13L263.729 102.124L263.726 102.118C262.58 99.8235 261.832 97.7551 261.509 95.9204L261.508 95.9136C261.194 94.0289 261.037 92.1432 261.037 90.2568C261.037 83.5262 263.186 78.1734 267.542 74.294C271.875 70.4364 278.307 68.1109 286.736 67.2311ZM316.776 90.4107H320.464L318.466 98.4089V102.562C318.466 108.509 321.489 111.483 327.533 111.483H341.055V100.716H329.838V68.1079C329.838 57.7512 326.764 49.3941 320.618 43.0365C314.573 36.6789 306.275 33.5001 295.724 33.5001C285.377 33.5001 277.181 36.4226 271.137 42.2674C265.27 47.941 262.25 54.7741 262.078 62.7666C262.073 63.0078 262.071 63.2502 262.071 63.4935H274.364C274.364 56.7258 276.362 51.8038 280.357 48.7276C284.455 45.6513 289.577 44.1132 295.724 44.1132C309.349 44.1132 316.52 51.086 317.237 65.0316L286.811 67.9541C270.112 69.6973 261.763 77.1315 261.763 90.2568C261.763 92.1026 261.917 93.9483 262.224 95.7941C262.532 97.5373 263.249 99.5368 264.376 101.793C265.502 103.946 266.937 105.843 268.678 107.484C270.42 109.022 272.878 110.355 276.054 111.483C279.332 112.508 283.072 113.021 287.272 113.021C303.151 113.021 312.986 105.484 316.776 90.4107ZM289.037 78.0597L289.036 78.0598C284.064 78.5676 280.531 79.6769 278.33 81.3051L278.322 81.3113L278.313 81.3172C276.207 82.7839 275.09 85.1897 275.09 88.7187C275.09 92.8738 276.32 95.9922 278.697 98.1815C281.089 100.384 284.428 101.527 288.809 101.527C297.15 101.527 303.819 98.9683 308.886 93.8957C313.788 88.9895 316.334 82.7827 316.502 75.221L289.037 78.0597ZM288.962 77.3366C283.942 77.8493 280.254 78.9773 277.898 80.7205C275.542 82.3612 274.364 85.0272 274.364 88.7187C274.364 93.0255 275.644 96.3581 278.206 98.7165C280.767 101.075 284.301 102.254 288.809 102.254C297.312 102.254 304.175 99.6394 309.4 94.4098C314.467 89.3384 317.077 82.9171 317.23 75.1457C317.235 74.9032 317.237 74.6594 317.237 74.4142L288.962 77.3366ZM368.803 112.21H354.75V34.3113H368.803V48.348L366.99 56.3065H369.039C370.749 49.2622 374.055 43.6157 378.976 39.4083C384.153 34.9663 390.838 32.7732 398.964 32.7732C408.026 32.7732 415.199 35.437 420.386 40.8409C425.583 46.2546 428.119 54.26 428.119 64.724V112.21H414.219V66.416C414.219 58.5849 412.638 53.1758 409.652 49.9943L409.645 49.9861L409.637 49.9776C406.753 46.7058 402.127 44.9939 395.583 44.9939C387.594 44.9939 381.141 47.9306 376.162 53.8097C371.281 59.6948 368.803 67.6141 368.803 77.6442V112.21ZM375.607 53.3419C380.729 47.292 387.388 44.267 395.583 44.267C402.242 44.267 407.108 46.0102 410.182 49.4966C413.358 52.8805 414.945 58.5203 414.945 66.416V111.483H427.392V64.724C427.392 54.3673 424.883 46.5742 419.863 41.3446C414.843 36.115 407.877 33.5001 398.964 33.5001C390.973 33.5001 384.468 35.6535 379.448 39.9603C374.531 44.1645 371.253 49.8555 369.614 57.0334H366.079L368.077 48.2661V35.0383H355.476V111.483H368.077V77.6442C368.077 67.4926 370.587 59.3919 375.607 53.3419ZM468.683 35.0383H492.502V45.8051H468.683V102.408L495.575 100.716V111.483L466.686 113.021C463.1 113.226 460.436 112.457 458.695 110.714C457.056 108.868 456.236 106.151 456.236 102.562V45.8051H439.333V35.0383H456.236V15.3503L468.683 11.505V35.0383ZM455.51 34.3113V14.8139L469.41 10.5199V34.3113H493.228V46.5321H469.41V101.634L496.301 99.942V112.172L466.727 113.747M455.51 34.3113H438.607V46.5321H455.51V102.562C455.51 106.249 456.351 109.169 458.152 111.197L458.166 111.213L458.181 111.228C460.125 113.174 463.03 113.958 466.724 113.747M535.094 67.2311L535.1 67.2304L564.829 64.375C564.384 57.8666 562.467 53.0669 559.173 49.8642C555.766 46.5515 550.776 44.8401 544.082 44.8401C538.062 44.8401 533.102 46.3441 529.154 49.3067C525.397 52.2018 523.449 56.8708 523.449 63.4935V64.2205H509.703V63.4935C509.703 54.9877 512.807 47.7245 518.991 41.7446C525.2 35.74 533.593 32.7732 544.082 32.7732C554.788 32.7732 563.292 36.004 569.5 42.5329C575.799 49.0488 578.923 57.5981 578.923 68.1079V99.9891H590.14V112.21H575.891C572.76 112.21 570.278 111.44 568.582 109.771C566.884 108.1 566.099 105.651 566.099 102.562V98.3194L567.892 91.1376H565.697C563.746 98.5214 560.313 104.148 555.357 107.946C550.281 111.836 543.684 113.748 535.631 113.748C531.373 113.748 527.558 113.228 524.196 112.177L524.183 112.173L524.17 112.168C520.943 111.022 518.391 109.65 516.556 108.029L516.548 108.021L516.539 108.013C514.738 106.316 513.255 104.354 512.091 102.13L512.088 102.124L512.085 102.118C510.938 99.8235 510.191 97.7551 509.868 95.9204L509.866 95.9136C509.553 94.0289 509.396 92.1432 509.396 90.2568C509.396 83.5262 511.544 78.1734 515.901 74.294C520.233 70.4364 526.666 68.1109 535.094 67.2311ZM565.135 90.4107H568.823L566.825 98.4089V102.562C566.825 108.509 569.847 111.483 575.891 111.483H589.414V100.716H578.196V68.1079C578.196 57.7512 575.123 49.3941 568.976 43.0365C562.932 36.6789 554.634 33.5001 544.082 33.5001C533.735 33.5001 525.54 36.4226 519.495 42.2674C513.628 47.941 510.609 54.7741 510.437 62.7666C510.432 63.0078 510.429 63.2502 510.429 63.4935H522.722C522.722 56.7258 524.72 51.8038 528.716 48.7276C532.813 45.6513 537.936 44.1132 544.082 44.1132C557.707 44.1132 564.878 51.0858 565.596 65.0311C565.596 65.031 565.596 65.0313 565.596 65.0311L535.17 67.9541C518.471 69.6973 510.122 77.1315 510.122 90.2568C510.122 92.1026 510.275 93.9483 510.583 95.7941C510.89 97.5373 511.607 99.5368 512.734 101.793C513.861 103.946 515.295 105.843 517.037 107.484C518.778 109.022 521.237 110.355 524.413 111.483C527.691 112.508 531.43 113.021 535.631 113.021C551.509 113.021 561.344 105.484 565.135 90.4107ZM537.396 78.0597L537.395 78.0598C532.422 78.5676 528.889 79.6769 526.689 81.3051L526.68 81.3113L526.672 81.3172C524.565 82.7839 523.449 85.1897 523.449 88.7187C523.449 92.8738 524.678 95.9922 527.056 98.1815C529.447 100.384 532.786 101.527 537.167 101.527C545.509 101.527 552.177 98.9683 557.245 93.8957C562.147 88.9895 564.692 82.7827 564.86 75.221L537.396 78.0597ZM537.321 77.3366C532.301 77.8493 528.613 78.9773 526.257 80.7205C523.901 82.3612 522.722 85.0272 522.722 88.7187C522.722 93.0255 524.003 96.3581 526.564 98.7165C529.125 101.075 532.66 102.254 537.167 102.254C545.67 102.254 552.534 99.6394 557.759 94.4098C562.825 89.3384 565.435 82.9171 565.588 75.1457C565.593 74.9032 565.596 74.6594 565.596 74.4142L537.321 77.3366ZM708.949 107.731L708.942 107.737C704.033 111.796 696.14 113.748 685.43 113.748C673.716 113.748 664.796 111.258 658.797 106.153C652.776 101.029 649.821 93.3763 649.821 83.3353V82.6084H663.874V83.3353C663.874 89.6531 665.698 94.2678 669.231 97.3202C672.785 100.39 678.193 101.989 685.583 101.989C691.594 101.989 695.836 101.167 698.429 99.6293C700.931 98.145 702.222 95.6941 702.222 92.1026C702.222 90.7153 702.073 89.559 701.791 88.62L701.789 88.6112L701.786 88.6024C701.522 87.6317 700.943 86.7218 700.003 85.8752L699.989 85.8624L699.976 85.8489C699.062 84.9346 698.257 84.1792 697.558 83.5796C696.954 83.0615 695.788 82.4818 693.959 81.8716L693.935 81.8636L693.912 81.8541C692.175 81.138 690.861 80.6329 689.964 80.3334L689.951 80.3292L689.938 80.3245C689.153 80.0296 687.493 79.525 684.927 78.8057L684.919 78.8036C682.479 78.0912 680.819 77.5731 679.965 77.2539C675.561 75.8183 672.065 74.5838 669.486 73.551L669.476 73.5472C666.973 72.5031 664.325 71.0984 661.532 69.3383L661.524 69.3332L661.516 69.328C658.667 67.4267 656.573 65.1838 655.276 62.5881C653.987 60.0085 653.355 57.0222 653.355 53.6495C653.355 47.2694 655.921 42.1803 661.025 38.4532C666.111 34.6369 673.096 32.7732 681.895 32.7732C692.938 32.7732 701.062 35.2483 706.076 40.3717C711.135 45.4364 713.662 51.7246 713.662 59.1868V59.9137H699.609V59.1868C699.609 54.2101 698.124 50.5978 695.26 48.2093C692.372 45.7997 687.959 44.5325 681.895 44.5325C676.875 44.5325 673.233 45.3108 670.867 46.7701C668.558 48.1938 667.409 50.2978 667.409 53.1881C667.409 56.481 668.556 58.8551 670.79 60.4393C673.148 62.1109 677.66 64.0316 684.421 66.1847L684.43 66.1877C685.355 66.4963 686.992 67.0597 689.339 67.8767C691.766 68.5856 693.521 69.1522 694.582 69.5743C695.636 69.8928 697.182 70.4617 699.208 71.2724C701.237 71.9839 702.774 72.6643 703.773 73.3224C704.812 73.8442 706.094 74.564 707.616 75.4776C709.292 76.4225 710.564 77.4537 711.366 78.592C712.2 79.6377 713.03 80.8327 713.856 82.1747C714.723 83.4799 715.317 84.9423 715.641 86.5541C716.065 88.1523 716.275 89.849 716.275 91.6412C716.275 98.2054 713.83 103.589 708.949 107.731ZM714.934 86.7192C714.626 85.181 714.063 83.7967 713.243 82.5662C712.424 81.2332 711.604 80.054 710.785 79.0285C710.068 78.0031 708.89 77.029 707.25 76.1061C705.714 75.1833 704.433 74.4655 703.409 73.9528C702.487 73.3375 701.001 72.671 698.952 71.9532C696.904 71.1329 695.367 70.5689 694.342 70.2613C693.318 69.8511 691.576 69.2871 689.118 68.5693C686.762 67.749 685.122 67.185 684.2 66.8774C677.439 64.724 672.829 62.7757 670.37 61.0325C667.912 59.2893 666.682 56.6745 666.682 53.1881C666.682 46.9331 671.753 43.8056 681.895 43.8056C694.189 43.8056 700.335 48.9326 700.335 59.1868H712.936C712.936 58.9431 712.933 58.7008 712.928 58.4598C712.769 51.4993 710.313 45.6404 705.56 40.8831C700.745 35.9611 692.857 33.5001 681.895 33.5001C673.188 33.5001 666.375 35.3459 661.458 39.0374C656.54 42.6263 654.082 47.4971 654.082 53.6495C654.082 56.9309 654.696 59.802 655.926 62.263C657.155 64.724 659.153 66.8774 661.919 68.7231C664.685 70.4663 667.297 71.8506 669.756 72.8761C672.317 73.9015 675.8 75.132 680.205 76.5676C681.025 76.8752 682.664 77.3879 685.122 78.1057C687.683 78.8235 689.374 79.3362 690.193 79.6438C691.115 79.9514 692.447 80.4641 694.189 81.1819C696.033 81.7972 697.313 82.4124 698.03 83.0277C698.748 83.6429 699.567 84.412 700.489 85.3349C701.513 86.2577 702.179 87.2831 702.487 88.4111C702.794 89.4365 702.948 90.667 702.948 92.1026C702.948 95.8966 701.565 98.614 698.799 100.255C696.033 101.895 691.628 102.716 685.583 102.716C670.626 102.716 663.148 96.2555 663.148 83.3353H650.547C650.547 83.5791 650.549 83.8214 650.552 84.0622C650.835 103.368 662.461 113.021 685.43 113.021C696.084 113.021 703.767 111.073 708.48 107.176C713.192 103.177 715.548 97.9987 715.548 91.6412C715.548 89.8979 715.344 88.2573 714.934 86.7192ZM738.092 43.2954L738.096 43.2915C745.115 36.2655 754.274 32.7732 765.501 32.7732C776.517 32.7732 785.373 36.1078 791.988 42.8342C798.61 49.5669 801.878 58.896 801.878 70.7227V76.3716H741.531C742.039 83.8924 744.285 89.9871 748.227 94.706C752.349 99.4165 758.671 101.835 767.345 101.835C773.581 101.835 778.644 100.377 782.589 97.5158C786.523 94.56 789.156 90.2623 790.455 84.558L790.584 83.9927H804.688L804.47 84.8909C803.636 88.3328 802.385 91.5695 800.717 94.5988C799.146 97.6369 796.956 100.659 794.16 103.666C791.406 106.739 787.669 109.205 782.982 111.081L782.974 111.084C778.368 112.865 773.155 113.748 767.345 113.748C754.291 113.748 744.331 109.906 737.599 102.114L737.592 102.107C731.009 94.2617 727.741 84.2936 727.741 72.2608C727.741 60.0212 731.165 50.3343 738.092 43.2954ZM793.622 103.177C796.388 100.203 798.54 97.2297 800.076 94.256C801.597 91.4961 802.766 88.5597 803.581 85.4465C803.644 85.2053 803.705 84.963 803.764 84.7196H791.163C789.832 90.5645 787.117 95.025 783.019 98.1013C778.921 101.075 773.697 102.562 767.345 102.562C758.535 102.562 751.978 100.101 747.676 95.1788C743.603 90.3074 741.313 84.0383 740.803 76.3716C740.787 76.1307 740.773 75.8884 740.761 75.6447H801.152V70.7227C801.152 59.033 797.925 49.9068 791.471 43.3441C785.017 36.7815 776.36 33.5001 765.501 33.5001C754.437 33.5001 745.473 36.9353 738.609 43.8056C731.848 50.6758 728.467 60.1609 728.467 72.2608C728.467 84.1556 731.694 93.9483 738.148 101.639C744.705 109.227 754.437 113.021 767.345 113.021C773.082 113.021 778.204 112.149 782.712 110.406C787.322 108.56 790.959 106.151 793.622 103.177ZM782.198 50.9335L782.192 50.9272C778.264 46.8972 772.735 44.8401 765.501 44.8401C758.273 44.8401 752.468 46.8949 748.016 50.9525C743.835 54.853 741.665 59.6482 741.497 65.3814H788.123C787.972 59.5272 785.99 54.7291 782.198 50.9335ZM788.849 65.3814C788.855 65.622 788.859 65.8643 788.859 66.1083H740.761C740.761 65.8645 740.764 65.6221 740.771 65.3814C740.94 59.4471 743.19 54.4598 747.522 50.4195C752.132 46.2153 758.125 44.1132 765.501 44.1132C772.877 44.1132 778.614 46.2153 782.712 50.4195C786.652 54.3637 788.698 59.351 788.849 65.3814ZM870.824 92.8639L870.825 92.8631C875.808 86.9777 878.336 79.0596 878.336 69.0308V34.3113H892.236V112.21H878.336V98.1732L880.149 90.2147H878.101C876.387 97.2653 873.028 102.962 868.01 107.267L868.009 107.267C862.931 111.609 856.297 113.748 848.175 113.748C839.113 113.748 831.892 111.084 826.604 105.686L826.599 105.68C821.403 100.267 818.867 92.2611 818.867 81.7972V34.3113H832.92V80.1052C832.92 87.9316 834.448 93.4012 837.342 96.6898C840.33 99.8673 845.015 101.527 851.556 101.527C859.551 101.527 865.951 98.6381 870.824 92.8639ZM836.804 97.1784C833.731 93.692 832.194 88.0009 832.194 80.1052V35.0383H819.593V81.7972C819.593 92.1539 822.103 99.947 827.123 105.177C832.245 110.406 839.263 113.021 848.175 113.021C856.166 113.021 862.62 110.919 867.537 106.715C872.557 102.408 875.887 96.6657 877.526 89.4878H881.06L879.062 98.2551V111.483H891.509V35.0383H879.062V69.0308C879.062 79.1824 876.501 87.2831 871.379 93.3331C866.359 99.2805 859.752 102.254 851.556 102.254C844.897 102.254 839.98 100.562 836.804 97.1784ZM985.441 67.2311L985.447 67.2304L1015.18 64.375C1014.73 57.8666 1012.81 53.0669 1009.52 49.8642C1006.11 46.5515 1001.12 44.8401 994.429 44.8401C988.409 44.8401 983.449 46.3441 979.502 49.3067C975.744 52.2018 973.796 56.8708 973.796 63.4935V64.2205H960.05V63.4935C960.05 54.9877 963.154 47.7245 969.338 41.7446C975.547 35.74 983.94 32.7732 994.429 32.7732C1005.14 32.7732 1013.64 36.0048 1019.85 42.5354C1026.15 49.0509 1029.27 57.5994 1029.27 68.1079V99.9891H1040.49V112.21H1026.24C1023.11 112.21 1020.63 111.44 1018.93 109.771C1017.23 108.1 1016.45 105.651 1016.45 102.562V98.3194L1018.24 91.1376H1016.04C1014.09 98.5214 1010.66 104.148 1005.7 107.946C1000.63 111.836 994.031 113.748 985.978 113.748C981.72 113.748 977.905 113.228 974.543 112.177L974.53 112.173L974.517 112.168C971.29 111.022 968.738 109.65 966.903 108.029L966.895 108.021L966.886 108.013C965.085 106.316 963.602 104.354 962.438 102.13L962.435 102.124L962.432 102.118C961.285 99.8235 960.538 97.7551 960.215 95.9204L960.213 95.9136C959.9 94.0289 959.743 92.1432 959.743 90.2568C959.743 83.5262 961.891 78.1734 966.248 74.294C970.58 70.4364 977.013 68.1109 985.441 67.2311ZM1015.48 90.4107H1019.17L1017.17 98.4089V102.562C1017.17 108.509 1020.19 111.483 1026.24 111.483H1039.76V100.716H1028.54V68.1079C1028.54 57.7512 1025.47 49.3941 1019.32 43.0365C1013.28 36.6789 1004.98 33.5001 994.429 33.5001C984.082 33.5001 975.887 36.4226 969.843 42.2674C963.975 47.941 960.956 54.7741 960.784 62.7666C960.779 63.0078 960.776 63.2502 960.776 63.4935H973.07C973.07 56.7258 975.067 51.8038 979.063 48.7276C983.16 45.6513 988.283 44.1132 994.429 44.1132C1008.05 44.1132 1015.23 51.086 1015.94 65.0316L985.517 67.9541C968.818 69.6973 960.469 77.1315 960.469 90.2568C960.469 92.1026 960.622 93.9483 960.93 95.7941C961.237 97.5373 961.954 99.5368 963.081 101.793C964.208 103.946 965.642 105.843 967.384 107.484C969.125 109.022 971.584 110.355 974.76 111.483C978.038 112.508 981.777 113.021 985.978 113.021C1001.86 113.021 1011.69 105.484 1015.48 90.4107ZM987.668 77.3366C982.648 77.8493 978.96 78.9773 976.604 80.7205C974.248 82.3612 973.07 85.0272 973.07 88.7187C973.07 93.0255 974.35 96.3581 976.911 98.7165C979.472 101.075 983.007 102.254 987.514 102.254C996.017 102.254 1002.88 99.6394 1008.11 94.4098C1013.17 89.3384 1015.78 82.9171 1015.94 75.1457C1015.94 74.9032 1015.94 74.6594 1015.94 74.4142L987.668 77.3366ZM1015.21 75.221L987.743 78.0597L987.742 78.0598C982.769 78.5676 979.236 79.6769 977.035 81.3051L977.027 81.3113L977.019 81.3172C974.912 82.7839 973.796 85.1897 973.796 88.7187C973.796 92.8738 975.025 95.9922 977.403 98.1815C979.794 100.384 983.133 101.527 987.514 101.527C995.856 101.527 1002.52 98.9683 1007.59 93.8957C1012.49 88.9895 1015.04 82.7827 1015.21 75.221ZM1058.33 44.3865C1065.55 36.6275 1075.29 32.7732 1087.44 32.7732C1092.85 32.7732 1098.06 33.7635 1103.07 35.7438C1108.12 37.6416 1112.67 41.0574 1116.73 45.9515C1120.83 50.7976 1123.19 56.7896 1123.81 63.8911L1123.88 64.6819H1109.71L1109.62 64.0617C1108.66 57.6162 1106.32 52.8758 1102.68 49.7404C1099.03 46.6046 1093.98 44.9939 1087.44 44.9939C1079 44.9939 1072.67 47.6514 1068.33 52.8834C1063.95 58.1638 1061.73 64.9112 1061.73 73.1837C1061.73 81.4554 1063.95 88.257 1068.33 93.6423C1072.67 98.8712 1079 101.527 1087.44 101.527C1093.98 101.527 1099.03 99.9165 1102.68 96.7808C1106.32 93.6454 1108.66 88.905 1109.62 82.4595L1109.71 81.8393H1123.88L1123.81 82.6301C1123.19 89.732 1120.83 95.7726 1116.73 100.719L1116.73 100.725C1112.67 105.517 1108.12 108.929 1103.07 110.928L1103.07 110.931L1103.06 110.933C1098.06 112.81 1092.85 113.748 1087.44 113.748C1075.29 113.748 1065.56 109.947 1058.33 102.292L1058.32 102.285C1051.22 94.5467 1047.68 84.828 1047.68 73.1837C1047.68 61.6401 1051.22 52.0221 1058.33 44.3865ZM1067.77 94.1021C1063.26 88.5649 1061.01 81.5921 1061.01 73.1837C1061.01 64.7753 1063.26 57.8537 1067.77 52.419C1072.28 46.9844 1078.83 44.267 1087.44 44.267C1100.76 44.267 1108.39 50.8297 1110.34 63.955H1123.09C1123.07 63.7113 1123.04 63.469 1123.02 63.228C1122.31 56.575 1120.03 50.9724 1116.17 46.4204C1112.18 41.6009 1107.72 38.2683 1102.81 36.4226C1097.89 34.4743 1092.77 33.5001 1087.44 33.5001C1075.45 33.5001 1065.93 37.2942 1058.86 44.8822C1051.89 52.3678 1048.41 61.8016 1048.41 73.1837C1048.41 84.6683 1051.89 94.2047 1058.86 101.793C1065.93 109.278 1075.45 113.021 1087.44 113.021C1092.77 113.021 1097.89 112.098 1102.81 110.252C1107.72 108.304 1112.18 104.972 1116.17 100.255C1120.03 95.6036 1122.31 89.9498 1123.02 83.2932C1123.04 83.0522 1123.07 82.8099 1123.09 82.5662H1110.34C1108.39 95.6915 1100.76 102.254 1087.44 102.254C1078.83 102.254 1072.28 99.5368 1067.77 94.1021ZM1147.02 43.2954L1147.02 43.2915C1154.04 36.2655 1163.2 32.7732 1174.43 32.7732C1185.45 32.7732 1194.3 36.1078 1200.92 42.8342C1207.54 49.5669 1210.81 58.896 1210.81 70.7227V76.3716H1150.46C1150.97 83.8917 1153.21 89.9861 1157.16 94.7049C1161.28 99.4161 1167.6 101.835 1176.27 101.835C1182.51 101.835 1187.57 100.377 1191.52 97.5158C1195.45 94.56 1198.08 90.2623 1199.38 84.558L1199.51 83.9927H1213.62L1213.4 84.8909C1212.57 88.3328 1211.31 91.5695 1209.65 94.5988C1208.07 97.6369 1205.88 100.659 1203.09 103.666C1200.33 106.739 1196.6 109.205 1191.91 111.081L1191.9 111.084C1187.3 112.865 1182.08 113.748 1176.27 113.748C1163.22 113.748 1153.26 109.906 1146.53 102.114L1146.52 102.107C1139.94 94.2617 1136.67 84.2936 1136.67 72.2608C1136.67 60.0212 1140.09 50.3343 1147.02 43.2954ZM1202.55 103.177C1205.32 100.203 1207.47 97.2297 1209.01 94.256C1210.53 91.4961 1211.69 88.5597 1212.51 85.4465C1212.57 85.2053 1212.63 84.963 1212.69 84.7196H1200.09C1198.76 90.5645 1196.05 95.025 1191.95 98.1013C1187.85 101.075 1182.63 102.562 1176.27 102.562C1167.46 102.562 1160.91 100.101 1156.6 95.1788C1152.53 90.3074 1150.24 84.0383 1149.73 76.3716C1149.72 76.1307 1149.7 75.8884 1149.69 75.6447H1210.08V70.7227C1210.08 59.033 1206.85 49.9068 1200.4 43.3441C1193.95 36.7815 1185.29 33.5001 1174.43 33.5001C1163.37 33.5001 1154.4 36.9353 1147.54 43.8056C1140.78 50.6758 1137.4 60.1609 1137.4 72.2608C1137.4 84.1556 1140.62 93.9483 1147.08 101.639C1153.63 109.227 1163.37 113.021 1176.27 113.021C1182.01 113.021 1187.13 112.149 1191.64 110.406C1196.25 108.56 1199.89 106.151 1202.55 103.177ZM1191.13 50.9335L1191.12 50.9272C1187.19 46.8972 1181.66 44.8401 1174.43 44.8401C1167.2 44.8401 1161.4 46.8949 1156.94 50.9525C1152.76 54.853 1150.59 59.6482 1150.43 65.3814H1197.05C1196.9 59.5272 1194.92 54.7291 1191.13 50.9335ZM1197.78 65.3814C1197.78 65.622 1197.79 65.8643 1197.79 66.1083H1149.69C1149.69 65.8645 1149.69 65.6221 1149.7 65.3814C1149.87 59.4471 1152.12 54.4598 1156.45 50.4195C1161.06 46.2153 1167.05 44.1132 1174.43 44.1132C1181.81 44.1132 1187.54 46.2153 1191.64 50.4195C1195.58 54.3637 1197.63 59.351 1197.78 65.3814ZM1283.85 107.731L1283.84 107.737C1278.93 111.796 1271.04 113.748 1260.33 113.748C1248.62 113.748 1239.7 111.258 1233.7 106.153C1227.68 101.029 1224.72 93.3763 1224.72 83.3353V82.6084H1238.78V83.3353C1238.78 89.6531 1240.6 94.2678 1244.13 97.3202C1247.69 100.39 1253.09 101.989 1260.48 101.989C1266.5 101.989 1270.74 101.167 1273.33 99.6293C1275.83 98.145 1277.12 95.6941 1277.12 92.1026C1277.12 90.7153 1276.97 89.559 1276.69 88.62L1276.69 88.6112L1276.69 88.6024C1276.42 87.6317 1275.84 86.7218 1274.9 85.8752L1274.89 85.8624L1274.88 85.8489C1273.96 84.9346 1273.16 84.1792 1272.46 83.5796C1271.86 83.0615 1270.69 82.4818 1268.86 81.8716L1268.84 81.8636L1268.81 81.8541C1267.08 81.138 1265.76 80.6329 1264.87 80.3334L1264.85 80.3292L1264.84 80.3245C1264.05 80.0296 1262.39 79.525 1259.83 78.8057L1259.82 78.8036C1257.38 78.0911 1255.72 77.573 1254.87 77.2538C1250.46 75.8182 1246.97 74.5838 1244.39 73.551L1244.38 73.5472C1241.87 72.5031 1239.23 71.0984 1236.43 69.3383L1236.43 69.3332L1236.42 69.328C1233.57 67.4267 1231.47 65.1838 1230.18 62.5881C1228.89 60.0085 1228.26 57.0222 1228.26 53.6495C1228.26 47.2694 1230.82 42.1803 1235.93 38.4532C1241.01 34.6369 1248 32.7732 1256.8 32.7732C1267.84 32.7732 1275.96 35.2483 1280.98 40.3717C1286.04 45.4364 1288.56 51.7246 1288.56 59.1868V59.9137H1274.51V59.1868C1274.51 54.2101 1273.03 50.5978 1270.16 48.2093C1267.27 45.7997 1262.86 44.5325 1256.8 44.5325C1251.78 44.5325 1248.13 45.3108 1245.77 46.7701C1243.46 48.1938 1242.31 50.2978 1242.31 53.1881C1242.31 56.481 1243.46 58.8551 1245.69 60.4393C1248.05 62.1109 1252.56 64.0316 1259.32 66.1847L1259.33 66.1877C1260.26 66.4963 1261.89 67.0597 1264.24 67.8766C1266.67 68.5855 1268.42 69.1522 1269.48 69.5743C1270.54 69.8928 1272.08 70.4616 1274.11 71.2722C1276.14 71.9837 1277.68 72.6642 1278.67 73.3223C1279.71 73.8441 1281 74.5639 1282.52 75.4776C1284.19 76.4224 1285.46 77.4534 1286.27 78.5915C1287.1 79.6374 1287.93 80.8325 1288.76 82.1747C1289.62 83.4797 1290.22 84.9419 1290.54 86.5534C1290.97 88.1518 1291.18 89.8487 1291.18 91.6412C1291.18 98.2054 1288.73 103.589 1283.85 107.731ZM1289.84 86.7192C1289.53 85.181 1288.96 83.7967 1288.14 82.5662C1287.33 81.2332 1286.51 80.054 1285.69 79.0285C1284.97 78.0031 1283.79 77.029 1282.15 76.1061C1280.62 75.1833 1279.33 74.4655 1278.31 73.9528C1277.39 73.3375 1275.9 72.671 1273.85 71.9532C1271.8 71.1329 1270.27 70.5689 1269.24 70.2613C1268.22 69.8511 1266.48 69.2871 1264.02 68.5693C1261.66 67.749 1260.02 67.185 1259.1 66.8774C1252.34 64.724 1247.73 62.7757 1245.27 61.0325C1242.81 59.2893 1241.58 56.6745 1241.58 53.1881C1241.58 46.9331 1246.65 43.8056 1256.8 43.8056C1269.09 43.8056 1275.24 48.9326 1275.24 59.1868H1287.84C1287.84 58.9431 1287.83 58.7008 1287.83 58.4598C1287.67 51.4993 1285.21 45.6404 1280.46 40.8831C1275.65 35.9611 1267.76 33.5001 1256.8 33.5001C1248.09 33.5001 1241.28 35.3459 1236.36 39.0374C1231.44 42.6263 1228.98 47.4971 1228.98 53.6495C1228.98 56.9309 1229.6 59.802 1230.83 62.263C1232.06 64.724 1234.05 66.8774 1236.82 68.7231C1239.59 70.4663 1242.2 71.8506 1244.66 72.8761C1247.22 73.9015 1250.7 75.132 1255.11 76.5676C1255.93 76.8752 1257.57 77.3879 1260.02 78.1057C1262.58 78.8235 1264.28 79.3362 1265.09 79.6438C1266.02 79.9514 1267.35 80.4641 1269.09 81.1819C1270.93 81.7972 1272.21 82.4124 1272.93 83.0277C1273.65 83.6429 1274.47 84.412 1275.39 85.3349C1276.41 86.2577 1277.08 87.2831 1277.39 88.4111C1277.7 89.4365 1277.85 90.667 1277.85 92.1026C1277.85 95.8966 1276.47 98.614 1273.7 100.255C1270.93 101.895 1266.53 102.716 1260.48 102.716C1245.53 102.716 1238.05 96.2555 1238.05 83.3353H1225.45C1225.45 83.5791 1225.45 83.8214 1225.45 84.0622C1225.74 103.368 1237.36 113.021 1260.33 113.021C1270.99 113.021 1278.67 111.073 1283.38 107.176C1288.09 103.177 1290.45 97.9987 1290.45 91.6412C1290.45 89.8979 1290.24 88.2573 1289.84 86.7192ZM1360.23 107.731L1360.23 107.737C1355.32 111.796 1347.42 113.748 1336.71 113.748C1325 113.748 1316.08 111.258 1310.08 106.153C1304.06 101.029 1301.11 93.3763 1301.11 83.3353V82.6084H1315.16V83.3353C1315.16 89.6531 1316.98 94.2678 1320.52 97.3202C1324.07 100.39 1329.48 101.989 1336.87 101.989C1342.88 101.989 1347.12 101.167 1349.71 99.6293C1352.22 98.145 1353.51 95.6941 1353.51 92.1026C1353.51 90.7153 1353.36 89.559 1353.08 88.62L1353.07 88.6112L1353.07 88.6024C1352.81 87.6317 1352.23 86.7218 1351.29 85.8752L1351.27 85.8624L1351.26 85.8489C1350.35 84.9346 1349.54 84.1792 1348.84 83.5796C1348.24 83.0615 1347.07 82.4818 1345.24 81.8716L1345.22 81.8636L1345.2 81.8541C1343.46 81.138 1342.15 80.6329 1341.25 80.3334L1341.24 80.3292L1341.22 80.3245C1340.44 80.0296 1338.78 79.525 1336.21 78.8057L1336.2 78.8036C1333.76 78.0911 1332.1 77.573 1331.25 77.2538C1326.85 75.8182 1323.35 74.5838 1320.77 73.551L1320.76 73.5472C1318.26 72.5031 1315.61 71.0984 1312.82 69.3383L1312.81 69.3332L1312.8 69.328C1309.95 67.4267 1307.86 65.1838 1306.56 62.5881C1305.27 60.0085 1304.64 57.0222 1304.64 53.6495C1304.64 47.2694 1307.21 42.1803 1312.31 38.4532C1317.4 34.6369 1324.38 32.7732 1333.18 32.7732C1344.22 32.7732 1352.35 35.2483 1357.36 40.3717C1362.42 45.4364 1364.95 51.7246 1364.95 59.1868V59.9137H1350.89V59.1868C1350.89 54.2101 1349.41 50.5978 1346.55 48.2093C1343.66 45.7997 1339.24 44.5325 1333.18 44.5325C1328.16 44.5325 1324.52 45.3108 1322.15 46.7701C1319.84 48.1938 1318.69 50.2978 1318.69 53.1881C1318.69 56.481 1319.84 58.8551 1322.07 60.4393C1324.43 62.1109 1328.94 64.0316 1335.71 66.1847L1335.71 66.1877C1336.64 66.4963 1338.28 67.0597 1340.62 67.8766C1343.05 68.5855 1344.81 69.1522 1345.87 69.5743C1346.92 69.8928 1348.47 70.4616 1350.49 71.2722C1352.52 71.9837 1354.06 72.6642 1355.06 73.3223C1356.1 73.8441 1357.38 74.5639 1358.9 75.4776C1360.58 76.4224 1361.85 77.4534 1362.65 78.5915C1363.48 79.6374 1364.31 80.8325 1365.14 82.1747C1366.01 83.4797 1366.6 84.9419 1366.93 86.5534C1367.35 88.1518 1367.56 89.8487 1367.56 91.6412C1367.56 98.2054 1365.11 103.589 1360.23 107.731ZM1366.22 86.7192C1365.91 85.181 1365.35 83.7967 1364.53 82.5662C1363.71 81.2332 1362.89 80.054 1362.07 79.0285C1361.35 78.0031 1360.17 77.029 1358.54 76.1061C1357 75.1833 1355.72 74.4655 1354.69 73.9528C1353.77 73.3375 1352.29 72.671 1350.24 71.9532C1348.19 71.1329 1346.65 70.5689 1345.63 70.2613C1344.6 69.8511 1342.86 69.2871 1340.4 68.5693C1338.05 67.749 1336.41 67.185 1335.49 66.8774C1328.72 64.724 1324.11 62.7757 1321.66 61.0325C1319.2 59.2893 1317.97 56.6745 1317.97 53.1881C1317.97 46.9331 1323.04 43.8056 1333.18 43.8056C1345.47 43.8056 1351.62 48.9326 1351.62 59.1868H1364.22C1364.22 58.9431 1364.22 58.7008 1364.21 58.4598C1364.05 51.4993 1361.6 45.6404 1356.84 40.8831C1352.03 35.9611 1344.14 33.5001 1333.18 33.5001C1324.47 33.5001 1317.66 35.3459 1312.74 39.0374C1307.83 42.6263 1305.37 47.4971 1305.37 53.6495C1305.37 56.9309 1305.98 59.802 1307.21 62.263C1308.44 64.724 1310.44 66.8774 1313.2 68.7231C1315.97 70.4663 1318.58 71.8506 1321.04 72.8761C1323.6 73.9015 1327.08 75.132 1331.49 76.5676C1332.31 76.8752 1333.95 77.3879 1336.41 78.1057C1338.97 78.8235 1340.66 79.3362 1341.48 79.6438C1342.4 79.9514 1343.73 80.4641 1345.47 81.1819C1347.32 81.7972 1348.6 82.4124 1349.32 83.0277C1350.03 83.6429 1350.85 84.412 1351.77 85.3349C1352.8 86.2577 1353.46 87.2831 1353.77 88.4111C1354.08 89.4365 1354.23 90.667 1354.23 92.1026C1354.23 95.8966 1352.85 98.614 1350.08 100.255C1347.32 101.895 1342.91 102.716 1336.87 102.716C1321.91 102.716 1314.43 96.2555 1314.43 83.3353H1301.83C1301.83 83.5791 1301.83 83.8214 1301.84 84.0622C1302.12 103.368 1313.75 113.021 1336.71 113.021C1347.37 113.021 1355.05 111.073 1359.76 107.176C1364.48 103.177 1366.83 97.9987 1366.83 91.6412C1366.83 89.8979 1366.63 88.2573 1366.22 86.7192ZM1439.9 93.4711L1439.91 93.4653C1444.69 88.0776 1447.1 81.3347 1447.1 73.1837C1447.1 65.0325 1444.69 58.3439 1439.91 53.0608L1439.91 53.0555L1439.9 53.0501C1435.25 47.7015 1428.71 44.9939 1420.17 44.9939C1411.63 44.9939 1405.03 47.7015 1400.27 53.0558L1400.27 53.0609C1395.49 58.3439 1393.08 65.0325 1393.08 73.1837C1393.08 81.4394 1395.49 88.2325 1400.27 93.6186C1405.02 98.8693 1411.62 101.527 1420.17 101.527C1428.71 101.527 1435.25 98.8197 1439.9 93.4711ZM1399.73 94.1021C1394.81 88.5649 1392.35 81.5921 1392.35 73.1837C1392.35 64.8778 1394.81 58.0076 1399.73 52.5729C1404.65 47.0356 1411.46 44.267 1420.17 44.267C1428.87 44.267 1435.64 47.0356 1440.45 52.5729C1445.37 58.0076 1447.83 64.8778 1447.83 73.1837C1447.83 81.4895 1445.37 88.4111 1440.45 93.9483C1435.64 99.4856 1428.87 102.254 1420.17 102.254C1411.46 102.254 1404.65 99.5368 1399.73 94.1021ZM1379.03 73.1837C1379.03 61.7254 1382.83 52.1044 1390.45 44.3717C1398.09 36.6273 1408.01 32.7732 1420.17 32.7732C1432.22 32.7732 1442.04 36.6274 1449.57 44.3717C1457.19 52.1044 1461 61.7254 1461 73.1837C1461 84.7425 1457.2 94.4155 1449.57 102.149C1442.04 109.894 1432.22 113.748 1420.17 113.748C1408.01 113.748 1398.09 109.894 1390.45 102.149C1382.83 94.4155 1379.03 84.7425 1379.03 73.1837ZM1390.97 44.8822C1383.49 52.4703 1379.75 61.9041 1379.75 73.1837C1379.75 84.5658 1383.49 94.0509 1390.97 101.639C1398.45 109.227 1408.18 113.021 1420.17 113.021C1432.05 113.021 1441.68 109.227 1449.06 101.639C1456.53 94.0509 1460.27 84.5658 1460.27 73.1837C1460.27 61.9041 1456.53 52.4703 1449.06 44.8822C1441.68 37.2942 1432.05 33.5001 1420.17 33.5001C1408.18 33.5001 1398.45 37.2942 1390.97 44.8822Z" fill="url(#paint0_linear_901_35994)"/>
<defs>
<linearGradient id="paint0_linear_901_35994" x1="719.816" y1="58.8173" x2="719.816" y2="111.483" gradientUnits="userSpaceOnUse">
<stop stop-color="#D5FF40"/>
<stop offset="1" stop-color="#D5FF40" stop-opacity="0"/>
</linearGradient>
</defs>
</svg>
