<svg width="1291" height="325" viewBox="0 0 1291 325" fill="none" xmlns="http://www.w3.org/2000/svg">
<path opacity="0.03" d="M416.654 126.914C416.654 103.779 394.15 79.1828 355.188 79.1828C311.439 79.1828 263.405 111.264 256.046 175.276C248.536 239.917 288.783 268.672 329.306 268.672C369.83 268.672 391.075 252.871 412.799 231.802C394.124 208.34 370.007 219.202 365.395 221.596C360.279 224.141 353.752 227.669 340.345 227.669C324.695 227.669 308.742 220.638 308.742 191.43C408.993 181.526 416.654 150.074 416.654 126.939V126.914ZM367.008 130.745C366.378 137.927 363.505 150.225 312.724 157.08C323.409 119.077 343.848 116.204 353.273 116.204C362.043 116.204 367.638 123.058 367.008 130.72V130.745ZM197.15 136.97C197.15 136.97 175.603 204.66 173.839 210.23C173.209 204.484 157.408 83.0134 157.408 83.0134C120.689 83.0134 101.058 109.198 90.6746 136.818C90.6746 136.818 64.4903 204.66 62.2474 210.406C62.0962 205.139 58.2656 137.625 58.2656 137.625C56.0227 103.779 25.0502 83.1898 0 83.1898L30.3677 267.235C68.8502 267.084 89.5909 241.051 100.453 213.431C100.453 213.431 123.588 153.577 124.545 150.855C124.696 153.401 141.153 267.235 141.153 267.235C179.787 267.235 200.527 242.815 211.717 216.152L265.824 83.1898C227.669 83.1898 207.559 109.198 197.176 136.995L197.15 136.97ZM558.412 78.8551C534.622 78.8551 516.427 91.7834 501.104 110.785V110.634L514.839 0C483.236 0 457.531 27.4443 452.592 68.321L428.65 265.799C446.846 265.799 466.175 260.532 476.533 247.125C485.782 259.095 499.668 268.672 520.283 268.672C573.609 268.672 610.151 206.727 610.151 148.638C609.823 95.6392 584.143 78.8803 558.437 78.8803L558.412 78.8551ZM553.473 173.839C547.878 206.248 529.859 228.274 512.445 228.274C495.031 228.274 487.395 220.462 487.395 220.462C490.746 192.035 492.813 174.646 499.214 159.651C505.59 144.656 520.761 120.689 536.563 120.689C552.364 120.689 559.067 141.279 553.473 173.839ZM743.264 83.1646H706.067L706.218 81.2493C708.764 56.9803 714.51 44.2032 733.511 42.1367C746.44 40.8514 752.186 34.1479 753.622 26.8143C754.731 21.0684 758.259 1.10886 758.259 1.10886C683.562 0.630035 660.075 32.8878 654.026 82.0305L653.875 83.1394H653.069C640.947 83.1394 627.54 96.8741 625.297 114.263L624.49 120.639H649.389L628.472 293.369L622.096 324.342C622.903 324.342 623.86 324.493 624.641 324.493C659.596 323.208 681.949 295.587 686.889 255.542L695.029 188.103L703.169 120.664H714.812C726.304 120.664 739.711 109.172 742.105 90.0194L743.214 83.1646H743.264ZM936.735 79.964C893.792 79.964 853.243 111.567 840.794 161.213C828.344 210.86 847.17 269.604 910.4 269.604C973.63 269.604 1009.84 208.466 1009.84 157.534C1009.84 106.602 975.52 79.964 936.735 79.964ZM954.124 172.226C951.881 194.731 942.003 228.904 914.861 228.904C887.719 228.904 891.398 188.985 894.12 170.009C896.993 149.747 908.333 120.841 932.754 120.841C954.628 120.841 956.695 146.848 954.15 172.251L954.124 172.226ZM1221.99 136.944C1221.99 136.944 1200.44 204.635 1198.68 210.205C1198.05 204.459 1182.25 82.9882 1182.25 82.9882C1145.53 82.9882 1125.9 109.172 1115.51 136.793C1115.51 136.793 1089.33 204.635 1087.09 210.381C1086.94 205.114 1083.11 137.6 1083.11 137.6C1080.86 103.754 1049.89 83.1646 1024.84 83.1646L1055.01 267.21C1093.49 267.059 1114.23 241.026 1125.09 213.405C1125.09 213.405 1148.23 153.552 1149.03 150.83C1149.18 153.376 1165.64 267.21 1165.64 267.21C1204.27 267.21 1225.01 242.79 1236.2 216.127L1290.31 83.1646C1252.31 83.1646 1232.2 109.172 1221.99 136.97V136.944ZM778.395 1.10886L747.095 253.476L740.719 284.599C741.526 284.599 742.483 284.75 743.264 284.75C776.959 284.272 800.9 254.736 805.361 217.538L823.405 72.7564C828.823 28.528 802.488 1.08366 778.395 1.08366V1.10886Z" fill="white"/>
</svg>
