<svg width="169" height="40" viewBox="0 0 169 40" fill="none" xmlns="http://www.w3.org/2000/svg">
<rect width="168.018" height="39.5061" rx="19.753" fill="#D5FF40"/>
<path d="M45.3647 17.254C45.3385 17.1362 45.2873 17.0253 45.2146 16.929C45.1419 16.8326 45.0493 16.753 44.9431 16.6955L42.4351 15.3045C42.3006 15.0319 42.1493 14.7679 41.982 14.5141L42.0346 11.6478C42.0356 11.5276 42.0118 11.4084 41.9646 11.2978C41.9175 11.1872 41.8481 11.0875 41.7607 11.005C40.5119 9.87272 39.035 9.02111 37.4295 8.50745C37.3142 8.47149 37.1926 8.46042 37.0727 8.47495C36.9528 8.48949 36.8374 8.52929 36.734 8.59175L34.2786 10.0671C33.973 10.0565 33.678 10.0565 33.3724 10.0671L30.917 8.59175C30.8136 8.52929 30.6982 8.48949 30.5783 8.47495C30.4584 8.46042 30.3368 8.47149 30.2215 8.50745C28.6139 9.0215 27.1364 9.87707 25.8903 11.0155C25.8022 11.0952 25.7321 11.1929 25.6849 11.302C25.6376 11.411 25.6142 11.5289 25.6164 11.6478L25.669 14.5141C25.5004 14.7671 25.3529 15.0305 25.2054 15.3045L22.6973 16.6955C22.5927 16.7536 22.5018 16.8336 22.4309 16.9299C22.36 17.0263 22.3107 17.1369 22.2863 17.254C21.928 18.8998 21.928 20.6033 22.2863 22.2491C22.3125 22.3669 22.3637 22.4778 22.4364 22.5741C22.5091 22.6705 22.6017 22.7501 22.7078 22.8076L25.2159 24.1986C25.3504 24.4712 25.5017 24.7352 25.669 24.989L25.6164 27.8553C25.6154 27.9755 25.6392 28.0947 25.6864 28.2053C25.7335 28.3159 25.8029 28.4156 25.8903 28.4981C27.1391 29.6304 28.616 30.482 30.2215 30.9957C30.3368 31.0316 30.4584 31.0427 30.5783 31.0282C30.6982 31.0136 30.8136 30.9738 30.917 30.9114L33.3724 29.436H34.2786L36.7445 30.9114C36.8727 30.9956 37.0232 31.0397 37.1766 31.0378C37.2623 31.0341 37.3472 31.02 37.4295 30.9957C39.0371 30.4816 40.5146 29.626 41.7607 28.4876C41.8488 28.4079 41.9189 28.3102 41.9661 28.2011C42.0134 28.0921 42.0368 27.9742 42.0346 27.8553L41.982 24.989C42.1506 24.7361 42.2981 24.4726 42.4456 24.1986L44.9537 22.8076C45.0583 22.7495 45.1492 22.6695 45.2201 22.5732C45.291 22.4768 45.3403 22.3662 45.3647 22.2491C45.723 20.6033 45.723 18.8998 45.3647 17.254ZM33.8255 24.3883C32.9084 24.3883 32.012 24.1164 31.2495 23.6069C30.487 23.0974 29.8926 22.3732 29.5417 21.526C29.1908 20.6787 29.0989 19.7464 29.2778 18.847C29.4568 17.9475 29.8984 17.1213 30.5468 16.4729C31.1953 15.8244 32.0215 15.3828 32.9209 15.2039C33.8204 15.025 34.7526 15.1168 35.5999 15.4678C36.4472 15.8187 37.1713 16.413 37.6808 17.1755C38.1903 17.938 38.4622 18.8345 38.4622 19.7516C38.4622 20.9813 37.9737 22.1607 37.1042 23.0302C36.2346 23.8998 35.0552 24.3883 33.8255 24.3883Z" fill="black"/>
<path d="M59.7085 25.3786C59.5956 25.3786 59.4996 25.3391 59.4205 25.26C59.3415 25.181 59.302 25.085 59.302 24.9721V21.6694H56.0501C55.9372 21.6694 55.8412 21.6299 55.7622 21.5508C55.6831 21.4718 55.6436 21.3758 55.6436 21.2629V20.3652C55.6436 20.241 55.6831 20.1451 55.7622 20.0773C55.8412 19.9983 55.9372 19.9588 56.0501 19.9588H59.302V16.7407C59.302 16.6278 59.3415 16.5319 59.4205 16.4528C59.4996 16.3738 59.5956 16.3343 59.7085 16.3343H60.6908C60.815 16.3343 60.911 16.3738 60.9787 16.4528C61.0578 16.5319 61.0973 16.6278 61.0973 16.7407V19.9588H64.3492C64.4621 19.9588 64.5581 19.9983 64.6371 20.0773C64.7162 20.1451 64.7557 20.241 64.7557 20.3652V21.2629C64.7557 21.3758 64.7162 21.4718 64.6371 21.5508C64.5581 21.6299 64.4621 21.6694 64.3492 21.6694H61.0973V24.9721C61.0973 25.085 61.0578 25.181 60.9787 25.26C60.911 25.3391 60.815 25.3786 60.6908 25.3786H59.7085ZM71.0016 25.9375C70.8887 25.9375 70.7927 25.898 70.7136 25.8189C70.6346 25.7399 70.5951 25.6439 70.5951 25.531V14.5051C70.5951 14.3809 70.6346 14.2792 70.7136 14.2002C70.7927 14.1212 70.8887 14.0816 71.0016 14.0816H75.3882C76.7545 14.0816 77.8328 14.3978 78.6232 15.0301C79.4136 15.6624 79.8088 16.5827 79.8088 17.7908C79.8088 18.6264 79.5999 19.3208 79.1821 19.8741C78.7756 20.4274 78.228 20.8282 77.5392 21.0766L80.012 25.3955C80.0459 25.4633 80.0628 25.5254 80.0628 25.5818C80.0628 25.6834 80.0233 25.7681 79.9443 25.8359C79.8765 25.9036 79.7975 25.9375 79.7072 25.9375H78.1659C77.9739 25.9375 77.8272 25.8867 77.7255 25.7851C77.6239 25.6834 77.5449 25.5818 77.4884 25.4802L75.3035 21.4661H72.9493V25.531C72.9493 25.6439 72.9098 25.7399 72.8308 25.8189C72.763 25.898 72.667 25.9375 72.5428 25.9375H71.0016ZM72.9493 19.5523H75.3374C76.0262 19.5523 76.5399 19.3998 76.8787 19.095C77.2174 18.7788 77.3868 18.3385 77.3868 17.7739C77.3868 17.2093 77.2174 16.769 76.8787 16.4528C76.5512 16.1254 76.0375 15.9616 75.3374 15.9616H72.9493V19.5523ZM85.4825 26.1069C84.2292 26.1069 83.2355 25.7455 82.5016 25.0229C81.7677 24.3003 81.3725 23.2728 81.316 21.9404C81.3047 21.8275 81.2991 21.6863 81.2991 21.517C81.2991 21.3363 81.3047 21.1952 81.316 21.0935C81.3612 20.2467 81.5531 19.5128 81.8919 18.8917C82.2419 18.2707 82.7218 17.7965 83.3315 17.469C83.9413 17.1303 84.6582 16.9609 85.4825 16.9609C86.3971 16.9609 87.1649 17.1529 87.7859 17.5368C88.407 17.9094 88.8755 18.4344 89.1917 19.1119C89.5079 19.7781 89.6659 20.5516 89.6659 21.4323V21.788C89.6659 21.9009 89.6264 21.9968 89.5474 22.0759C89.4683 22.1549 89.3667 22.1944 89.2425 22.1944H83.6195C83.6195 22.1944 83.6195 22.2114 83.6195 22.2452C83.6195 22.2791 83.6195 22.3074 83.6195 22.3299C83.6307 22.7251 83.7041 23.0921 83.8396 23.4308C83.9864 23.7583 84.1953 24.0236 84.4663 24.2269C84.7486 24.4301 85.0817 24.5317 85.4656 24.5317C85.7817 24.5317 86.0471 24.4866 86.2616 24.3962C86.4761 24.2946 86.6512 24.1817 86.7867 24.0575C86.9222 23.9333 87.0181 23.8317 87.0746 23.7526C87.1762 23.6171 87.2552 23.5381 87.3117 23.5155C87.3795 23.4816 87.4754 23.4647 87.5996 23.4647H89.0562C89.1691 23.4647 89.2595 23.4986 89.3272 23.5663C89.4062 23.6341 89.4401 23.7188 89.4288 23.8204C89.4175 24.001 89.3216 24.2212 89.1409 24.4809C88.9715 24.7406 88.7231 24.9947 88.3957 25.2431C88.0682 25.4915 87.6561 25.7004 87.1593 25.8698C86.6737 26.0278 86.1148 26.1069 85.4825 26.1069ZM83.6195 20.7717H87.3625V20.7209C87.3625 20.2806 87.2891 19.8967 87.1423 19.5692C86.9955 19.2418 86.781 18.9821 86.4987 18.7901C86.2164 18.5982 85.8777 18.5022 85.4825 18.5022C85.0873 18.5022 84.7486 18.5982 84.4663 18.7901C84.184 18.9821 83.9695 19.2418 83.8227 19.5692C83.6872 19.8967 83.6195 20.2806 83.6195 20.7209V20.7717ZM95.2746 26.1069C94.4616 26.1069 93.7446 25.9544 93.1236 25.6496C92.5139 25.3447 92.034 24.9043 91.6839 24.3285C91.3452 23.7413 91.1589 23.0356 91.125 22.2114C91.1137 22.042 91.1081 21.8218 91.1081 21.5508C91.1081 21.2686 91.1137 21.0371 91.125 20.8564C91.1589 20.0322 91.3452 19.3321 91.6839 18.7562C92.034 18.1691 92.5139 17.7231 93.1236 17.4182C93.7446 17.1134 94.4616 16.9609 95.2746 16.9609C95.9972 16.9609 96.6126 17.0625 97.1207 17.2658C97.6288 17.469 98.0466 17.7231 98.374 18.028C98.7015 18.3328 98.9442 18.6546 99.1023 18.9934C99.2717 19.3208 99.362 19.62 99.3733 19.891C99.3846 20.0152 99.3451 20.1168 99.2548 20.1959C99.1757 20.2636 99.0797 20.2975 98.9668 20.2975H97.4764C97.3635 20.2975 97.2731 20.2693 97.2054 20.2128C97.1489 20.1564 97.0925 20.0717 97.036 19.9588C96.8666 19.5071 96.6408 19.191 96.3585 19.0103C96.0875 18.8183 95.7375 18.7224 95.3085 18.7224C94.7439 18.7224 94.2922 18.903 93.9535 19.2643C93.626 19.6144 93.451 20.1733 93.4285 20.9411C93.4059 21.3702 93.4059 21.7654 93.4285 22.1267C93.451 22.9058 93.626 23.4704 93.9535 23.8204C94.2922 24.1704 94.7439 24.3454 95.3085 24.3454C95.7488 24.3454 96.1045 24.2551 96.3755 24.0744C96.6465 23.8825 96.8666 23.5607 97.036 23.109C97.0925 22.9961 97.1489 22.9114 97.2054 22.855C97.2731 22.7985 97.3635 22.7703 97.4764 22.7703H98.9668C99.0797 22.7703 99.1757 22.8098 99.2548 22.8889C99.3451 22.9566 99.3846 23.0526 99.3733 23.1768C99.362 23.38 99.3056 23.6115 99.2039 23.8712C99.1136 24.1196 98.9612 24.3793 98.7466 24.6503C98.5434 24.91 98.2837 25.1528 97.9675 25.3786C97.6514 25.5931 97.2675 25.7681 96.8158 25.9036C96.3755 26.0391 95.8617 26.1069 95.2746 26.1069ZM104.408 26.1069C103.72 26.1069 103.121 25.9544 102.613 25.6496C102.116 25.3334 101.732 24.8931 101.461 24.3285C101.19 23.7526 101.055 23.0752 101.055 22.2961V17.5368C101.055 17.4239 101.094 17.3279 101.174 17.2489C101.253 17.1698 101.349 17.1303 101.461 17.1303H102.952C103.076 17.1303 103.172 17.1698 103.24 17.2489C103.319 17.3279 103.358 17.4239 103.358 17.5368V22.1944C103.358 23.5946 103.974 24.2946 105.205 24.2946C105.792 24.2946 106.255 24.1083 106.593 23.7357C106.943 23.3631 107.118 22.8493 107.118 22.1944V17.5368C107.118 17.4239 107.158 17.3279 107.237 17.2489C107.316 17.1698 107.412 17.1303 107.525 17.1303H109.015C109.128 17.1303 109.224 17.1698 109.303 17.2489C109.382 17.3279 109.422 17.4239 109.422 17.5368V25.531C109.422 25.6439 109.382 25.7399 109.303 25.8189C109.224 25.898 109.128 25.9375 109.015 25.9375H107.643C107.519 25.9375 107.418 25.898 107.339 25.8189C107.271 25.7399 107.237 25.6439 107.237 25.531V24.8366C106.932 25.2318 106.554 25.5423 106.102 25.7681C105.651 25.994 105.086 26.1069 104.408 26.1069ZM112.066 25.9375C111.953 25.9375 111.857 25.898 111.778 25.8189C111.699 25.7399 111.659 25.6439 111.659 25.531V17.5537C111.659 17.4295 111.699 17.3279 111.778 17.2489C111.857 17.1698 111.953 17.1303 112.066 17.1303H113.437C113.55 17.1303 113.646 17.1698 113.725 17.2489C113.816 17.3279 113.861 17.4295 113.861 17.5537V18.2481C114.121 17.8868 114.454 17.6102 114.86 17.4182C115.278 17.2263 115.758 17.1303 116.3 17.1303H116.994C117.118 17.1303 117.214 17.1698 117.282 17.2489C117.361 17.3279 117.401 17.4239 117.401 17.5368V18.7562C117.401 18.8692 117.361 18.9651 117.282 19.0442C117.214 19.1232 117.118 19.1627 116.994 19.1627H115.673C115.131 19.1627 114.708 19.3152 114.403 19.62C114.109 19.9249 113.962 20.3427 113.962 20.8734V25.531C113.962 25.6439 113.923 25.7399 113.844 25.8189C113.765 25.898 113.663 25.9375 113.539 25.9375H112.066ZM122.058 26.1069C121.381 26.1069 120.799 26.0278 120.314 25.8698C119.839 25.7117 119.45 25.5141 119.145 25.277C118.84 25.0398 118.614 24.8027 118.468 24.5656C118.321 24.3285 118.242 24.1309 118.23 23.9728C118.219 23.8486 118.253 23.7526 118.332 23.6849C118.422 23.6058 118.518 23.5663 118.62 23.5663H119.958C120.003 23.5663 120.043 23.572 120.077 23.5833C120.11 23.5946 120.156 23.6284 120.212 23.6849C120.359 23.8091 120.511 23.9389 120.669 24.0744C120.839 24.2099 121.036 24.3285 121.262 24.4301C121.488 24.5204 121.77 24.5656 122.109 24.5656C122.549 24.5656 122.916 24.4809 123.21 24.3116C123.515 24.1309 123.667 23.8768 123.667 23.5494C123.667 23.3123 123.599 23.1203 123.464 22.9735C123.34 22.8267 123.103 22.6969 122.753 22.584C122.403 22.4598 121.906 22.3299 121.262 22.1944C120.63 22.0477 120.105 21.8613 119.687 21.6355C119.269 21.4097 118.959 21.1274 118.756 20.7887C118.552 20.4499 118.451 20.0547 118.451 19.6031C118.451 19.1627 118.581 18.7449 118.84 18.3498C119.111 17.9433 119.506 17.6102 120.026 17.3505C120.556 17.0908 121.211 16.9609 121.99 16.9609C122.6 16.9609 123.131 17.04 123.583 17.198C124.034 17.3448 124.407 17.5311 124.7 17.757C125.005 17.9828 125.237 18.2143 125.395 18.4514C125.553 18.6772 125.638 18.8748 125.649 19.0442C125.66 19.1684 125.626 19.27 125.547 19.349C125.468 19.4168 125.378 19.4507 125.276 19.4507H124.023C123.966 19.4507 123.916 19.4394 123.87 19.4168C123.825 19.3942 123.78 19.366 123.735 19.3321C123.611 19.2192 123.475 19.1006 123.328 18.9764C123.182 18.8522 123.001 18.7449 122.787 18.6546C122.583 18.553 122.312 18.5022 121.974 18.5022C121.544 18.5022 121.217 18.5982 120.991 18.7901C120.765 18.9708 120.652 19.2022 120.652 19.4845C120.652 19.6765 120.703 19.8458 120.805 19.9926C120.918 20.1281 121.138 20.258 121.465 20.3822C121.793 20.5064 122.29 20.6362 122.956 20.7717C123.712 20.9072 124.311 21.1105 124.751 21.3815C125.203 21.6412 125.519 21.946 125.7 22.2961C125.892 22.6348 125.988 23.0131 125.988 23.4308C125.988 23.9389 125.835 24.3962 125.53 24.8027C125.237 25.2092 124.796 25.531 124.209 25.7681C123.633 25.994 122.916 26.1069 122.058 26.1069ZM131.631 26.1069C130.728 26.1069 129.966 25.9488 129.345 25.6326C128.735 25.3165 128.267 24.8705 127.939 24.2946C127.623 23.7188 127.442 23.0469 127.397 22.2791C127.386 22.0759 127.38 21.8275 127.38 21.5339C127.38 21.2403 127.386 20.9919 127.397 20.7887C127.442 20.0096 127.629 19.3377 127.956 18.7732C128.295 18.1973 128.769 17.7513 129.379 17.4352C130 17.119 130.751 16.9609 131.631 16.9609C132.512 16.9609 133.257 17.119 133.867 17.4352C134.488 17.7513 134.962 18.1973 135.29 18.7732C135.629 19.3377 135.82 20.0096 135.866 20.7887C135.877 20.9919 135.883 21.2403 135.883 21.5339C135.883 21.8275 135.877 22.0759 135.866 22.2791C135.82 23.0469 135.634 23.7188 135.307 24.2946C134.991 24.8705 134.522 25.3165 133.901 25.6326C133.291 25.9488 132.535 26.1069 131.631 26.1069ZM131.631 24.4301C132.23 24.4301 132.693 24.2438 133.02 23.8712C133.348 23.4873 133.528 22.9284 133.562 22.1944C133.574 22.0251 133.579 21.8049 133.579 21.5339C133.579 21.2629 133.574 21.0427 133.562 20.8734C133.528 20.1507 133.348 19.5974 133.02 19.2135C132.693 18.8296 132.23 18.6377 131.631 18.6377C131.033 18.6377 130.57 18.8296 130.243 19.2135C129.915 19.5974 129.734 20.1507 129.701 20.8734C129.689 21.0427 129.684 21.2629 129.684 21.5339C129.684 21.8049 129.689 22.0251 129.701 22.1944C129.734 22.9284 129.915 23.4873 130.243 23.8712C130.57 24.2438 131.033 24.4301 131.631 24.4301ZM141.096 26.1069C140.418 26.1069 139.837 26.0278 139.351 25.8698C138.877 25.7117 138.487 25.5141 138.183 25.277C137.878 25.0398 137.652 24.8027 137.505 24.5656C137.358 24.3285 137.279 24.1309 137.268 23.9728C137.257 23.8486 137.291 23.7526 137.37 23.6849C137.46 23.6058 137.556 23.5663 137.658 23.5663H138.996C139.041 23.5663 139.08 23.572 139.114 23.5833C139.148 23.5946 139.193 23.6284 139.25 23.6849C139.396 23.8091 139.549 23.9389 139.707 24.0744C139.876 24.2099 140.074 24.3285 140.3 24.4301C140.526 24.5204 140.808 24.5656 141.147 24.5656C141.587 24.5656 141.954 24.4809 142.247 24.3116C142.552 24.1309 142.705 23.8768 142.705 23.5494C142.705 23.3123 142.637 23.1203 142.501 22.9735C142.377 22.8267 142.14 22.6969 141.79 22.584C141.44 22.4598 140.943 22.3299 140.3 22.1944C139.667 22.0477 139.142 21.8613 138.725 21.6355C138.307 21.4097 137.996 21.1274 137.793 20.7887C137.59 20.4499 137.488 20.0547 137.488 19.6031C137.488 19.1627 137.618 18.7449 137.878 18.3498C138.149 17.9433 138.544 17.6102 139.063 17.3505C139.594 17.0908 140.249 16.9609 141.028 16.9609C141.638 16.9609 142.168 17.04 142.62 17.198C143.072 17.3448 143.444 17.5311 143.738 17.757C144.043 17.9828 144.274 18.2143 144.432 18.4514C144.59 18.6772 144.675 18.8748 144.686 19.0442C144.698 19.1684 144.664 19.27 144.585 19.349C144.506 19.4168 144.415 19.4507 144.314 19.4507H143.06C143.004 19.4507 142.953 19.4394 142.908 19.4168C142.863 19.3942 142.818 19.366 142.772 19.3321C142.648 19.2192 142.513 19.1006 142.366 18.9764C142.219 18.8522 142.039 18.7449 141.824 18.6546C141.621 18.553 141.35 18.5022 141.011 18.5022C140.582 18.5022 140.255 18.5982 140.029 18.7901C139.803 18.9708 139.69 19.2022 139.69 19.4845C139.69 19.6765 139.741 19.8458 139.842 19.9926C139.955 20.1281 140.175 20.258 140.503 20.3822C140.83 20.5064 141.327 20.6362 141.993 20.7717C142.75 20.9072 143.348 21.1105 143.789 21.3815C144.24 21.6412 144.557 21.946 144.737 22.2961C144.929 22.6348 145.025 23.0131 145.025 23.4308C145.025 23.9389 144.873 24.3962 144.568 24.8027C144.274 25.2092 143.834 25.531 143.247 25.7681C142.671 25.994 141.954 26.1069 141.096 26.1069Z" fill="black"/>
</svg>
