<svg width="156" height="38" viewBox="0 0 156 38" fill="none" xmlns="http://www.w3.org/2000/svg">
<rect width="155.571" height="37.4057" rx="18.7028" fill="#D5FF40"/>
<path d="M37.0176 23.4688H39.5176V20.9688H42.0176V18.4688H39.5176V15.9688H37.0176V18.4688H34.5176V20.9688H37.0176V23.4688ZM24.5176 28.4688C23.8301 28.4688 23.2413 28.2238 22.7513 27.7338C22.2613 27.2438 22.0167 26.6554 22.0176 25.9688V10.9688C22.0176 10.2813 22.2626 9.6925 22.7526 9.2025C23.2426 8.7125 23.8309 8.46792 24.5176 8.46875H32.0176L34.5176 10.9688H44.5176C45.2051 10.9688 45.7938 11.2138 46.2838 11.7038C46.7738 12.1938 47.0184 12.7821 47.0176 13.4688V25.9688C47.0176 26.6563 46.7726 27.245 46.2826 27.735C45.7926 28.225 45.2042 28.4696 44.5176 28.4688H24.5176Z" fill="black"/>
<path d="M59.2612 24.3786C59.1483 24.3786 59.0523 24.3391 58.9733 24.26C58.8942 24.181 58.8547 24.085 58.8547 23.9721V20.6694H55.6028C55.4899 20.6694 55.3939 20.6299 55.3149 20.5508C55.2359 20.4718 55.1963 20.3758 55.1963 20.2629V19.3652C55.1963 19.241 55.2359 19.1451 55.3149 19.0773C55.3939 18.9983 55.4899 18.9588 55.6028 18.9588H58.8547V15.7407C58.8547 15.6278 58.8942 15.5319 58.9733 15.4528C59.0523 15.3738 59.1483 15.3343 59.2612 15.3343H60.2435C60.3677 15.3343 60.4637 15.3738 60.5315 15.4528C60.6105 15.5319 60.65 15.6278 60.65 15.7407V18.9588H63.9019C64.0148 18.9588 64.1108 18.9983 64.1899 19.0773C64.2689 19.1451 64.3084 19.241 64.3084 19.3652V20.2629C64.3084 20.3758 64.2689 20.4718 64.1899 20.5508C64.1108 20.6299 64.0148 20.6694 63.9019 20.6694H60.65V23.9721C60.65 24.085 60.6105 24.181 60.5315 24.26C60.4637 24.3391 60.3677 24.3786 60.2435 24.3786H59.2612ZM66.7009 24.9375C66.5767 24.9375 66.4751 24.898 66.396 24.8189C66.317 24.7399 66.2775 24.6439 66.2775 24.531V13.5051C66.2775 13.3809 66.317 13.2792 66.396 13.2002C66.4751 13.1212 66.5767 13.0816 66.7009 13.0816H68.0389C68.197 13.0816 68.3155 13.1268 68.3946 13.2171C68.4736 13.2962 68.5244 13.3583 68.547 13.4034L71.8158 19.5007L75.1185 13.4034C75.1411 13.3583 75.1919 13.2962 75.271 13.2171C75.35 13.1268 75.4686 13.0816 75.6266 13.0816H76.9477C77.0719 13.0816 77.1736 13.1212 77.2526 13.2002C77.3316 13.2792 77.3712 13.3809 77.3712 13.5051V24.531C77.3712 24.6439 77.3316 24.7399 77.2526 24.8189C77.1736 24.898 77.0719 24.9375 76.9477 24.9375H75.525C75.4008 24.9375 75.2992 24.898 75.2202 24.8189C75.1524 24.7399 75.1185 24.6439 75.1185 24.531V17.1973L72.7474 21.7195C72.6909 21.8211 72.6175 21.9114 72.5272 21.9905C72.4369 22.0582 72.3183 22.0921 72.1715 22.0921H71.4771C71.319 22.0921 71.1948 22.0582 71.1045 21.9905C71.0254 21.9114 70.9577 21.8211 70.9012 21.7195L68.5301 17.1973V24.531C68.5301 24.6439 68.4906 24.7399 68.4115 24.8189C68.3325 24.898 68.2365 24.9375 68.1236 24.9375H66.7009ZM83.6979 25.1069C82.7946 25.1069 82.0324 24.9488 81.4114 24.6326C80.8017 24.3165 80.3331 23.8705 80.0056 23.2946C79.6895 22.7188 79.5088 22.0469 79.4637 21.2791C79.4524 21.0759 79.4467 20.8275 79.4467 20.5339C79.4467 20.2403 79.4524 19.9919 79.4637 19.7887C79.5088 19.0096 79.6951 18.3377 80.0226 17.7732C80.3613 17.1973 80.8355 16.7513 81.4453 16.4352C82.0663 16.119 82.8172 15.9609 83.6979 15.9609C84.5786 15.9609 85.3238 16.119 85.9336 16.4352C86.5546 16.7513 87.0288 17.1973 87.3563 17.7732C87.695 18.3377 87.887 19.0096 87.9321 19.7887C87.9434 19.9919 87.9491 20.2403 87.9491 20.5339C87.9491 20.8275 87.9434 21.0759 87.9321 21.2791C87.887 22.0469 87.7007 22.7188 87.3732 23.2946C87.0571 23.8705 86.5885 24.3165 85.9674 24.6326C85.3577 24.9488 84.6012 25.1069 83.6979 25.1069ZM83.6979 23.4301C84.2963 23.4301 84.7593 23.2438 85.0867 22.8712C85.4142 22.4873 85.5948 21.9284 85.6287 21.1944C85.64 21.0251 85.6456 20.8049 85.6456 20.5339C85.6456 20.2629 85.64 20.0427 85.6287 19.8734C85.5948 19.1507 85.4142 18.5974 85.0867 18.2135C84.7593 17.8296 84.2963 17.6377 83.6979 17.6377C83.0995 17.6377 82.6365 17.8296 82.3091 18.2135C81.9816 18.5974 81.801 19.1507 81.7671 19.8734C81.7558 20.0427 81.7501 20.2629 81.7501 20.5339C81.7501 20.8049 81.7558 21.0251 81.7671 21.1944C81.801 21.9284 81.9816 22.4873 82.3091 22.8712C82.6365 23.2438 83.0995 23.4301 83.6979 23.4301ZM82.9696 14.86C82.7889 14.86 82.6986 14.7697 82.6986 14.589C82.6986 14.4987 82.7268 14.4253 82.7833 14.3689L84.1552 12.6921C84.2681 12.5679 84.3641 12.4889 84.4431 12.455C84.5222 12.4098 84.6351 12.3872 84.7819 12.3872H86.4755C86.6901 12.3872 86.7974 12.4945 86.7974 12.709C86.7974 12.7881 86.7691 12.8558 86.7127 12.9123L84.6125 14.6398C84.5222 14.7189 84.4318 14.7753 84.3415 14.8092C84.2625 14.8431 84.1495 14.86 84.0028 14.86H82.9696ZM93.0945 25.1069C92.5073 25.1069 91.9879 25.0109 91.5363 24.8189C91.0959 24.6157 90.7289 24.3334 90.4354 23.9721C90.1418 23.6108 89.916 23.1873 89.7579 22.7018C89.5998 22.205 89.5095 21.663 89.4869 21.0759C89.4756 20.8726 89.4699 20.692 89.4699 20.5339C89.4699 20.3645 89.4756 20.1782 89.4869 19.975C89.5095 19.4104 89.5942 18.8854 89.7409 18.3998C89.899 17.9143 90.1248 17.4909 90.4184 17.1296C90.7233 16.757 91.0959 16.469 91.5363 16.2658C91.9879 16.0625 92.5073 15.9609 93.0945 15.9609C93.7042 15.9609 94.2179 16.0682 94.6357 16.2827C95.0648 16.486 95.4205 16.7513 95.7027 17.0788V13.3188C95.7027 13.2058 95.7366 13.1099 95.8044 13.0308C95.8834 12.9518 95.985 12.9123 96.1092 12.9123H97.5489C97.6618 12.9123 97.7578 12.9518 97.8368 13.0308C97.9158 13.1099 97.9554 13.2058 97.9554 13.3188V24.531C97.9554 24.6439 97.9158 24.7399 97.8368 24.8189C97.7578 24.898 97.6618 24.9375 97.5489 24.9375H96.2108C96.0866 24.9375 95.985 24.898 95.906 24.8189C95.8382 24.7399 95.8044 24.6439 95.8044 24.531V23.9043C95.5221 24.2544 95.1608 24.5423 94.7204 24.7681C94.2913 24.994 93.7493 25.1069 93.0945 25.1069ZM93.7211 23.2946C94.1954 23.2946 94.5736 23.1873 94.8559 22.9728C95.1382 22.7583 95.3471 22.4873 95.4826 22.1598C95.6181 21.8211 95.6915 21.4767 95.7027 21.1267C95.714 20.9234 95.7197 20.7089 95.7197 20.4831C95.7197 20.246 95.714 20.0258 95.7027 19.8225C95.6915 19.4838 95.6124 19.162 95.4656 18.8571C95.3188 18.541 95.1043 18.2813 94.822 18.078C94.5397 17.8748 94.1728 17.7732 93.7211 17.7732C93.2469 17.7732 92.8686 17.8804 92.5863 18.095C92.3154 18.2982 92.1178 18.5692 91.9936 18.908C91.8693 19.2467 91.796 19.6193 91.7734 20.0258C91.7621 20.3645 91.7621 20.7033 91.7734 21.042C91.796 21.4485 91.8693 21.8211 91.9936 22.1598C92.1178 22.4986 92.3154 22.7752 92.5863 22.9898C92.8686 23.193 93.2469 23.2946 93.7211 23.2946ZM103.482 25.1069C102.793 25.1069 102.194 24.9544 101.686 24.6496C101.189 24.3334 100.806 23.8931 100.535 23.3285C100.264 22.7526 100.128 22.0752 100.128 21.2961V16.5368C100.128 16.4239 100.168 16.3279 100.247 16.2489C100.326 16.1698 100.422 16.1303 100.535 16.1303H102.025C102.149 16.1303 102.245 16.1698 102.313 16.2489C102.392 16.3279 102.431 16.4239 102.431 16.5368V21.1944C102.431 22.5946 103.047 23.2946 104.278 23.2946C104.865 23.2946 105.328 23.1083 105.666 22.7357C106.016 22.3631 106.191 21.8493 106.191 21.1944V16.5368C106.191 16.4239 106.231 16.3279 106.31 16.2489C106.389 16.1698 106.485 16.1303 106.598 16.1303H108.088C108.201 16.1303 108.297 16.1698 108.376 16.2489C108.455 16.3279 108.495 16.4239 108.495 16.5368V24.531C108.495 24.6439 108.455 24.7399 108.376 24.8189C108.297 24.898 108.201 24.9375 108.088 24.9375H106.717C106.592 24.9375 106.491 24.898 106.412 24.8189C106.344 24.7399 106.31 24.6439 106.31 24.531V23.8366C106.005 24.2318 105.627 24.5423 105.175 24.7681C104.724 24.994 104.159 25.1069 103.482 25.1069ZM111.156 24.9375C111.043 24.9375 110.947 24.898 110.868 24.8189C110.789 24.7399 110.749 24.6439 110.749 24.531V13.3188C110.749 13.2058 110.789 13.1099 110.868 13.0308C110.947 12.9518 111.043 12.9123 111.156 12.9123H112.561C112.674 12.9123 112.77 12.9518 112.849 13.0308C112.928 13.1099 112.968 13.2058 112.968 13.3188V24.531C112.968 24.6439 112.928 24.7399 112.849 24.8189C112.77 24.898 112.674 24.9375 112.561 24.9375H111.156ZM119.11 25.1069C118.207 25.1069 117.445 24.9488 116.823 24.6326C116.214 24.3165 115.745 23.8705 115.418 23.2946C115.102 22.7188 114.921 22.0469 114.876 21.2791C114.864 21.0759 114.859 20.8275 114.859 20.5339C114.859 20.2403 114.864 19.9919 114.876 19.7887C114.921 19.0096 115.107 18.3377 115.435 17.7732C115.773 17.1973 116.248 16.7513 116.857 16.4352C117.478 16.119 118.229 15.9609 119.11 15.9609C119.991 15.9609 120.736 16.119 121.346 16.4352C121.967 16.7513 122.441 17.1973 122.768 17.7732C123.107 18.3377 123.299 19.0096 123.344 19.7887C123.356 19.9919 123.361 20.2403 123.361 20.5339C123.361 20.8275 123.356 21.0759 123.344 21.2791C123.299 22.0469 123.113 22.7188 122.785 23.2946C122.469 23.8705 122.001 24.3165 121.38 24.6326C120.77 24.9488 120.013 25.1069 119.11 25.1069ZM119.11 23.4301C119.708 23.4301 120.171 23.2438 120.499 22.8712C120.826 22.4873 121.007 21.9284 121.041 21.1944C121.052 21.0251 121.058 20.8049 121.058 20.5339C121.058 20.2629 121.052 20.0427 121.041 19.8734C121.007 19.1507 120.826 18.5974 120.499 18.2135C120.171 17.8296 119.708 17.6377 119.11 17.6377C118.512 17.6377 118.049 17.8296 117.721 18.2135C117.394 18.5974 117.213 19.1507 117.179 19.8734C117.168 20.0427 117.162 20.2629 117.162 20.5339C117.162 20.8049 117.168 21.0251 117.179 21.1944C117.213 21.9284 117.394 22.4873 117.721 22.8712C118.049 23.2438 118.512 23.4301 119.11 23.4301ZM128.574 25.1069C127.897 25.1069 127.315 25.0278 126.83 24.8698C126.356 24.7117 125.966 24.5141 125.661 24.277C125.356 24.0398 125.13 23.8027 124.984 23.5656C124.837 23.3285 124.758 23.1309 124.747 22.9728C124.735 22.8486 124.769 22.7526 124.848 22.6849C124.938 22.6058 125.034 22.5663 125.136 22.5663H126.474C126.519 22.5663 126.559 22.572 126.593 22.5833C126.627 22.5946 126.672 22.6284 126.728 22.6849C126.875 22.8091 127.027 22.9389 127.185 23.0744C127.355 23.2099 127.552 23.3285 127.778 23.4301C128.004 23.5204 128.286 23.5656 128.625 23.5656C129.065 23.5656 129.432 23.4809 129.726 23.3116C130.031 23.1309 130.183 22.8768 130.183 22.5494C130.183 22.3123 130.116 22.1203 129.98 21.9735C129.856 21.8267 129.619 21.6969 129.269 21.584C128.919 21.4598 128.422 21.3299 127.778 21.1944C127.146 21.0477 126.621 20.8613 126.203 20.6355C125.785 20.4097 125.475 20.1274 125.272 19.7887C125.068 19.4499 124.967 19.0547 124.967 18.6031C124.967 18.1627 125.097 17.7449 125.356 17.3498C125.627 16.9433 126.022 16.6102 126.542 16.3505C127.073 16.0908 127.727 15.9609 128.507 15.9609C129.116 15.9609 129.647 16.04 130.099 16.198C130.55 16.3448 130.923 16.5311 131.216 16.757C131.521 16.9828 131.753 17.2143 131.911 17.4514C132.069 17.6772 132.154 17.8748 132.165 18.0442C132.176 18.1684 132.142 18.27 132.063 18.349C131.984 18.4168 131.894 18.4507 131.792 18.4507H130.539C130.483 18.4507 130.432 18.4394 130.387 18.4168C130.341 18.3942 130.296 18.366 130.251 18.3321C130.127 18.2192 129.991 18.1006 129.845 17.9764C129.698 17.8522 129.517 17.7449 129.303 17.6546C129.099 17.553 128.828 17.5022 128.49 17.5022C128.061 17.5022 127.733 17.5982 127.507 17.7901C127.281 17.9708 127.169 18.2022 127.169 18.4845C127.169 18.6765 127.219 18.8458 127.321 18.9926C127.434 19.1281 127.654 19.258 127.981 19.3822C128.309 19.5064 128.806 19.6362 129.472 19.7717C130.228 19.9072 130.827 20.1105 131.267 20.3815C131.719 20.6412 132.035 20.946 132.216 21.2961C132.408 21.6348 132.504 22.0131 132.504 22.4308C132.504 22.9389 132.351 23.3962 132.046 23.8027C131.753 24.2092 131.312 24.531 130.725 24.7681C130.149 24.994 129.432 25.1069 128.574 25.1069Z" fill="black"/>
</svg>
