<svg width="253" height="65" viewBox="0 0 253 65" fill="none" xmlns="http://www.w3.org/2000/svg">
<path d="M81.7041 25.4093C81.7041 20.89 77.3079 16.0852 69.697 16.0852C61.1507 16.0852 51.7675 22.3521 50.33 34.8565C48.8629 47.484 56.7249 53.1011 64.6411 53.1011C72.5572 53.1011 76.7073 50.0144 80.9509 45.8988C77.303 41.3155 72.5917 43.4373 71.6908 43.9049C70.6914 44.4022 69.4164 45.0914 66.7973 45.0914C63.7402 45.0914 60.6239 43.7179 60.6239 38.0121C80.2075 36.0774 81.7041 29.9335 81.7041 25.4142V25.4093ZM72.0058 26.1576C71.8828 27.5607 71.3216 29.9631 61.4018 31.3021C63.4891 23.8783 67.4816 23.317 69.3228 23.317C71.036 23.317 72.1289 24.6561 72.0058 26.1527V26.1576ZM38.825 27.3736C38.825 27.3736 34.6158 40.5967 34.2712 41.6847C34.1481 40.5622 31.0614 16.8335 31.0614 16.8335C23.8886 16.8335 20.0536 21.9485 18.0254 27.344C18.0254 27.344 12.9104 40.5967 12.4723 41.7191C12.4427 40.6902 11.6944 27.5016 11.6944 27.5016C11.2563 20.89 5.20594 16.8679 0.3125 16.8679L6.24469 52.8205C13.7621 52.7909 17.8137 47.7055 19.9355 42.3099C19.9355 42.3099 24.4548 30.6178 24.6419 30.0861C24.6714 30.5834 27.8861 52.8205 27.8861 52.8205C35.433 52.8205 39.4846 48.0501 41.6705 42.8416L52.2401 16.8679C44.7867 16.8679 40.8582 21.9485 38.8299 27.3785L38.825 27.3736ZM109.396 16.0212C104.749 16.0212 101.194 18.5467 98.201 22.2586V22.2291L100.884 0.617188C94.7106 0.617188 89.6892 5.97831 88.7243 13.9634L84.0475 52.5398C87.6018 52.5398 91.3778 51.5109 93.4011 48.8919C95.2079 51.2303 97.9204 53.1011 101.947 53.1011C112.364 53.1011 119.503 41.0004 119.503 29.6529C119.439 19.2999 114.422 16.0261 109.401 16.0261L109.396 16.0212ZM108.431 34.5759C107.338 40.9069 103.818 45.2095 100.416 45.2095C97.0146 45.2095 95.5229 43.6834 95.5229 43.6834C96.1777 38.1303 96.5814 34.7334 97.8318 31.8043C99.0773 28.8751 102.041 24.1933 105.128 24.1933C108.214 24.1933 109.524 28.2154 108.431 34.5759ZM145.506 16.863H138.24L138.269 16.4889C138.766 11.748 139.889 9.25209 143.601 8.84841C146.126 8.59734 147.249 7.28782 147.529 5.85524C147.746 4.7328 148.435 0.833799 148.435 0.833799C133.843 0.740262 129.255 7.04167 128.074 16.6415L128.044 16.8581H127.887C125.519 16.8581 122.9 19.5411 122.461 22.938L122.304 24.1835H127.168L123.082 57.9256L121.836 63.9759C121.994 63.9759 122.181 64.0055 122.333 64.0055C129.162 63.7544 133.528 58.3588 134.493 50.5362L137.673 24.1884H139.948C142.193 24.1884 144.812 21.9435 145.279 18.2021L145.496 16.863H145.506ZM183.3 16.2378C174.911 16.2378 166.99 22.4112 164.558 32.1095C162.126 41.8078 165.803 53.2832 178.155 53.2832C190.507 53.2832 197.581 41.3401 197.581 31.3907C197.581 21.4414 190.876 16.2378 183.3 16.2378V16.2378ZM186.697 34.2608C186.258 38.657 184.329 45.3326 179.027 45.3326C173.724 45.3326 174.443 37.5346 174.975 33.8276C175.536 29.8695 177.751 24.2229 182.522 24.2229C186.795 24.2229 187.199 29.3034 186.701 34.2657L186.697 34.2608ZM239.023 27.3687C239.023 27.3687 234.814 40.5918 234.469 41.6798C234.346 40.5573 231.259 16.8286 231.259 16.8286C224.087 16.8286 220.252 21.9435 218.223 27.3391C218.223 27.3391 213.108 40.5918 212.67 41.7142C212.641 40.6853 211.892 27.4967 211.892 27.4967C211.454 20.8851 205.404 16.863 200.51 16.863L206.403 52.8155C213.921 52.786 217.972 47.7006 220.094 42.305C220.094 42.305 224.613 30.6129 224.771 30.0812C224.8 30.5784 228.015 52.8155 228.015 52.8155C235.562 52.8155 239.614 48.0452 241.799 42.8367L252.369 16.863C244.945 16.863 241.017 21.9435 239.023 27.3736V27.3687ZM152.369 0.833799L146.254 50.1325L145.009 56.2124C145.166 56.2124 145.353 56.2419 145.506 56.2419C152.088 56.1484 156.765 50.3787 157.636 43.1123L161.161 14.8298C162.219 6.19 157.075 0.828876 152.369 0.828876V0.833799Z" fill="white"/>
</svg>
