<svg width="337" height="55" viewBox="0 0 337 55" fill="none" xmlns="http://www.w3.org/2000/svg">
<path d="M212.354 25.0971C212.354 25.0971 209.462 25.7882 207.016 26.3714L203.298 27.2194C203.288 27.2194 203.273 27.2194 203.264 27.2194C203.264 26.2146 203.337 25.1559 203.577 24.1805C203.885 22.9307 204.56 21.4701 205.734 20.8281C207.011 20.1321 208.567 20.0488 209.918 20.5879C211.317 21.1418 211.957 22.4945 212.232 23.8963C212.31 24.2884 212.359 24.6805 212.398 25.0775L212.354 25.0971ZM222.05 27.2194C222.05 17.5001 215.94 13.3242 208.132 13.3242C199.306 13.3242 193.777 19.4459 193.777 27.2684C193.777 35.7721 198.484 41.3103 208.616 41.3103C214.096 41.3103 217.197 40.3403 220.886 38.4923L219.482 32.1255C216.669 33.39 214.051 34.1644 210.558 34.1644C206.728 34.1644 204.546 32.7088 203.719 29.9886H221.806C221.952 29.2583 222.05 28.43 222.05 27.2194Z" fill="white"/>
<path d="M131.184 25.0971C131.184 25.0971 128.292 25.7882 125.846 26.3714L122.128 27.2194C122.118 27.2194 122.103 27.2194 122.093 27.2194C122.093 26.2146 122.167 25.1559 122.406 24.1805C122.715 22.9307 123.39 21.4701 124.564 20.8281C125.841 20.1321 127.397 20.0488 128.747 20.5879C130.146 21.1418 130.787 22.4945 131.061 23.8963C131.139 24.2884 131.188 24.6805 131.227 25.0775L131.184 25.0971ZM140.88 27.2194C140.88 17.5001 134.769 13.3242 126.961 13.3242C118.136 13.3242 112.607 19.4459 112.607 27.2684C112.607 35.7721 117.314 41.3103 127.446 41.3103C132.925 41.3103 136.027 40.3403 139.716 38.4923L138.312 32.1255C135.498 33.39 132.881 34.1644 129.388 34.1644C125.557 34.1644 123.375 32.7088 122.549 29.9886H140.636C140.782 29.2583 140.88 28.43 140.88 27.2194Z" fill="white"/>
<path d="M108.81 6.18457H99.8516V40.3367H108.81V6.18457Z" fill="white"/>
<path d="M223.936 14.1992H233.343L235.325 20.2376C236.563 17.2576 239.351 13.4248 244.298 13.4248C251.088 13.4248 254.772 16.8753 254.772 25.7662V40.3428H245.364C245.364 37.3039 245.369 34.2699 245.374 31.2311C245.374 29.8392 245.349 28.4472 245.369 27.0552C245.383 25.7711 245.476 24.4428 244.791 23.291C244.327 22.5118 243.569 21.9383 242.752 21.5462C241.093 20.7522 239.292 20.7718 237.663 21.6246C237.262 21.8354 235.325 22.8843 235.325 23.3695V40.3428H225.917V21.2521L223.936 14.1992Z" fill="white"/>
<path d="M261.889 21.0503H257.574V14.1984H261.889V9.91462L271.297 7.69434V14.1984H280.754V21.0503H271.297V28.7257C271.297 31.74 272.751 33.1467 274.933 33.1467C277.163 33.1467 278.425 32.8526 280.314 32.2252L281.429 39.3172C278.861 40.4349 275.661 40.9692 272.408 40.9692C265.569 40.9692 261.884 37.7145 261.884 31.3969V21.0503H261.889Z" fill="white"/>
<path d="M298.357 33.5328C301.801 33.5328 303.836 31.0527 303.836 27.0729C303.836 23.093 301.899 20.8041 298.504 20.8041C295.059 20.8041 293.073 23.0881 293.073 27.215C293.073 31.1066 295.01 33.5328 298.357 33.5328ZM298.455 13.1777C307.28 13.1777 313.728 18.7162 313.728 27.313C313.728 35.9589 307.28 41.159 298.357 41.159C289.482 41.159 283.176 35.8167 283.176 27.313C283.176 18.7162 289.433 13.1777 298.455 13.1777Z" fill="white"/>
<path d="M185.349 14.1189C183.685 13.4327 181.802 13.1778 180.001 13.4376C179.086 13.5699 178.191 13.8346 177.359 14.2463C175.079 15.3736 173.304 17.9468 172.35 20.2406C171.723 17.5988 169.898 15.2266 167.232 14.1238C165.569 13.4376 163.685 13.1828 161.885 13.4425C160.97 13.5749 160.074 13.8395 159.243 14.2512C156.968 15.3736 155.197 17.937 154.238 20.2259V20.0592L152.32 14.2071H142.912L144.894 21.2601V40.3455H154.238V23.2843C154.272 23.1569 154.688 22.9216 154.761 22.8677C155.857 22.0884 157.144 21.2845 158.514 21.1865C159.913 21.0836 161.293 21.7943 162.124 22.9069C162.213 23.0294 162.296 23.1519 162.374 23.2794C163.059 24.4312 162.966 25.7594 162.951 27.0436C162.937 28.4355 162.956 29.8275 162.956 31.2194C162.951 34.2582 162.946 37.2923 162.946 40.3308H172.355V25.7594C172.355 25.6859 172.355 25.6124 172.355 25.5438V23.2941C172.374 23.1715 172.805 22.9265 172.883 22.8726C173.979 22.0933 175.265 21.2895 176.635 21.1914C178.034 21.0885 179.414 21.7992 180.246 22.9118C180.334 23.0343 180.417 23.1569 180.495 23.2843C181.18 24.4361 181.087 25.7643 181.073 27.0484C181.058 28.4404 181.078 29.8324 181.078 31.2243C181.073 34.2631 181.068 37.2969 181.068 40.3358H190.476V25.7594C190.476 21.4855 189.864 15.9814 185.349 14.1189Z" fill="white"/>
<path d="M335.977 13.4248C331.031 13.4248 328.247 17.2625 327.005 20.2376L325.023 14.1992H315.615L317.597 21.2521V40.3378H327.005V22.7029C328.345 22.4676 335.62 23.8106 337 24.3154V13.4591C336.667 13.4395 336.329 13.4248 335.977 13.4248Z" fill="white"/>
<path d="M86.3594 25.0971C86.3594 25.0971 83.4682 25.7882 81.022 26.3714L77.3037 27.2194C77.2941 27.2194 77.2793 27.2194 77.2697 27.2194C77.2697 26.2146 77.3429 25.1559 77.5826 24.1805C77.891 22.9307 78.5662 21.4701 79.7402 20.8281C81.017 20.1321 82.573 20.0488 83.9234 20.5879C85.3225 21.1418 85.9632 22.4945 86.2375 23.8963C86.3157 24.2884 86.3645 24.6805 86.4036 25.0775L86.3594 25.0971ZM96.0562 27.2194C96.0562 17.5001 89.9456 13.3242 82.1376 13.3242C73.3116 13.3242 67.7832 19.4459 67.7832 27.2684C67.7832 35.7721 72.4896 41.3103 82.6218 41.3103C88.1014 41.3103 91.203 40.3403 94.8918 38.4923L93.4877 32.1255C90.6747 33.39 88.0573 34.1644 84.564 34.1644C80.7334 34.1644 78.5514 32.7088 77.7244 29.9886H95.8114C95.9582 29.2583 96.0562 28.43 96.0562 27.2194Z" fill="white"/>
<path d="M27.3385 0.729492C12.4951 0.729492 0.464844 12.7817 0.464844 27.6522C0.464844 42.5179 12.4951 54.5751 27.3385 54.5751C42.1817 54.5751 54.212 42.5226 54.212 27.6522C54.2073 12.7817 42.1771 0.729492 27.3385 0.729492ZM20.6213 38.8661H16.1448V16.4332H20.6213V38.8661ZM38.5321 38.8661H25.0978V34.3816H38.5321V38.8661ZM38.5321 29.8921H25.0978V25.4074H38.5321V29.8921ZM38.5321 20.9179H25.0978V16.4332H38.5321V20.9179Z" fill="white"/>
</svg>
