<svg width="275" height="152" viewBox="0 0 275 152" fill="none" xmlns="http://www.w3.org/2000/svg">
<path d="M76.3623 50.0208V33.8827H10.6926V120.78H30.8031V89.1247H71.0243V72.9866H30.8031V50.0208H76.3623ZM151.265 120.78H172.369L133.513 33.8827H113.651L74.9192 120.78H95.5263L103.223 102.159H143.568L151.265 120.78ZM109.678 86.8902L123.458 53.6208L137.237 86.8902H109.678ZM265.207 119.415C261.111 123.76 256.394 125.87 251.056 125.87C246.711 125.87 242.987 124.256 238.766 119.787C257.263 113.828 269.801 97.6903 269.801 77.3315C269.801 51.3863 249.566 32.393 222.255 32.393C194.82 32.393 174.71 51.5105 174.71 77.3315C174.71 100.918 191.469 118.918 215.303 121.898C228.71 136.049 237.773 140.767 250.683 140.767C260.242 140.767 268.435 137.043 274.146 130.091L265.207 119.415ZM195.069 77.3315C195.069 60.8209 206.738 49.5242 222.255 49.5242C237.773 49.5242 249.442 60.8209 249.442 77.3315C249.442 93.842 237.773 105.139 222.255 105.139C206.738 105.139 195.069 93.842 195.069 77.3315Z" fill="url(#paint0_linear_975_2268)"/>
<path d="M72.3529 53.8566H64.5019V73.9873H67.3778V67.8906H72.3529C77.5869 67.8906 80.7503 65.2448 80.7503 60.8736C80.7503 56.5023 77.5869 53.8566 72.3529 53.8566ZM72.2666 65.3886H67.3778V56.3585H72.2666C75.9477 56.3585 77.8745 57.9978 77.8745 60.8736C77.8745 63.7494 75.9477 65.3886 72.2666 65.3886ZM98.2917 66.4527C98.2917 61.7651 95.157 58.6017 90.757 58.6017C86.357 58.6017 83.1074 61.8514 83.1074 66.3664C83.1074 70.9102 86.3858 74.1599 91.3034 74.1599C93.8341 74.1599 95.9335 73.2971 97.3139 71.6867L95.7897 69.9036C94.6681 71.1402 93.1727 71.7442 91.3897 71.7442C88.3701 71.7442 86.2132 69.9612 85.8681 67.2867H98.2341C98.2629 67.0278 98.2917 66.6827 98.2917 66.4527ZM90.757 60.9311C93.4315 60.9311 95.3583 62.7429 95.6459 65.3023H85.8681C86.1557 62.7141 88.1113 60.9311 90.757 60.9311ZM104.771 61.305V58.7455H102.125V73.9873H104.886V66.3951C104.886 63.0592 106.727 61.2474 109.689 61.2474C109.89 61.2474 110.091 61.2474 110.321 61.2762V58.6017C107.647 58.6017 105.749 59.5219 104.771 61.305ZM125.547 58.7455V61.1036C124.253 59.4357 122.182 58.6017 119.91 58.6017C115.51 58.6017 112.174 61.5638 112.174 65.9638C112.174 70.3638 115.51 73.3546 119.91 73.3546C122.096 73.3546 124.08 72.5782 125.403 70.9965V72.2043C125.403 75.6553 123.764 77.3233 120.169 77.3233C117.926 77.3233 115.712 76.5468 114.303 75.3389L112.98 77.467C114.648 78.9625 117.466 79.7389 120.255 79.7389C125.432 79.7389 128.164 77.2945 128.164 71.9167V58.7455H125.547ZM120.227 70.9389C117.15 70.9389 114.964 68.8971 114.964 65.9638C114.964 63.0017 117.15 61.0174 120.227 61.0174C123.275 61.0174 125.461 63.0017 125.461 65.9638C125.461 68.8971 123.275 70.9389 120.227 70.9389ZM144.885 58.7455V66.6252C144.885 69.9036 143.044 71.6867 140.169 71.6867C137.552 71.6867 136.056 70.1912 136.056 67.2004V58.7455H133.295V67.5167C133.295 72.003 135.912 74.1599 139.852 74.1599C142.009 74.1599 143.907 73.2684 145.029 71.6867V73.9873H147.646V58.7455H144.885ZM161.04 58.6017C158.624 58.6017 156.669 59.4932 155.547 61.0461V58.7455H152.901V73.9873H155.662V66.1363C155.662 62.8291 157.56 61.0749 160.494 61.0749C163.111 61.0749 164.606 62.5416 164.606 65.5324V73.9873H167.367V65.2161C167.367 60.7298 164.75 58.6017 161.04 58.6017ZM180.183 71.1115C179.608 71.5716 178.832 71.8304 178.026 71.8304C176.502 71.8304 175.639 70.9102 175.639 69.271V61.0174H180.011V58.7455H175.639V55.4095H172.879V58.7455H170.29V61.0174H172.879V69.386C172.879 72.4631 174.633 74.1599 177.71 74.1599C178.947 74.1599 180.212 73.8148 181.046 73.0958L180.183 71.1115ZM189.934 58.6017C187.49 58.6017 185.218 59.2919 183.636 60.5572L184.786 62.6278C185.965 61.6213 187.806 60.9886 189.618 60.9886C192.35 60.9886 193.701 62.3402 193.701 64.6697V65.2161H189.33C184.786 65.2161 183.205 67.2291 183.205 69.6736C183.205 72.3193 185.39 74.1599 188.841 74.1599C191.228 74.1599 192.925 73.3546 193.845 71.9742V73.9873H196.462V64.7847C196.462 60.6148 194.104 58.6017 189.934 58.6017ZM189.301 72.0317C187.202 72.0317 185.937 71.0827 185.937 69.5585C185.937 68.2644 186.713 67.2004 189.445 67.2004H193.701V69.3285C193.011 71.0827 191.372 72.0317 189.301 72.0317ZM205.942 74.1599C209.997 74.1599 212.528 72.4056 212.528 69.6448C212.528 63.7206 202.865 66.654 202.865 63.0592C202.865 61.8514 204.044 60.9599 206.46 60.9599C207.956 60.9599 209.48 61.2762 210.86 62.1677L212.039 59.9821C210.716 59.1193 208.473 58.6017 206.489 58.6017C202.578 58.6017 200.133 60.4422 200.133 63.1742C200.133 69.2422 209.767 66.2801 209.767 69.7023C209.767 70.9965 208.703 71.7729 206.144 71.7729C204.159 71.7729 202.089 71.1115 200.795 70.1912L199.644 72.3768C200.91 73.3834 203.412 74.1599 205.942 74.1599ZM71.2943 81.3585V78.8566H57.0877V98.9873H59.9635V90.8487H70.0577V88.3755H59.9635V81.3585H71.2943ZM77.3047 86.305V83.7455H74.659V98.9873H77.4197V91.3951C77.4197 88.0592 79.2603 86.2474 82.2224 86.2474C82.4237 86.2474 82.625 86.2474 82.855 86.2762V83.6017C80.1805 83.6017 78.2825 84.5219 77.3047 86.305ZM99.8925 91.4527C99.8925 86.7651 96.7578 83.6017 92.3578 83.6017C87.9578 83.6017 84.7081 86.8514 84.7081 91.3664C84.7081 95.9102 87.9866 99.1599 92.9042 99.1599C95.4349 99.1599 97.5343 98.2971 98.9147 96.6867L97.3905 94.9036C96.2689 96.1402 94.7735 96.7442 92.9905 96.7442C89.9709 96.7442 87.814 94.9612 87.4689 92.2867H99.8349C99.8637 92.0278 99.8925 91.6827 99.8925 91.4527ZM92.3578 85.9311C95.0323 85.9311 96.9591 87.7429 97.2467 90.3023H87.4689C87.7565 87.7141 89.7121 85.9311 92.3578 85.9311ZM115.459 83.7455V86.1612C114.223 84.4644 112.267 83.6017 110.024 83.6017C105.567 83.6017 102.317 86.7076 102.317 91.3664C102.317 96.054 105.567 99.1599 110.024 99.1599C112.181 99.1599 114.079 98.3259 115.344 96.6867V104.566H118.105V83.7455H115.459ZM110.254 96.7442C107.321 96.7442 105.106 94.6161 105.106 91.3664C105.106 88.1455 107.321 86.0174 110.254 86.0174C113.159 86.0174 115.373 88.1455 115.373 91.3664C115.373 94.6161 113.159 96.7442 110.254 96.7442ZM134.775 83.7455V91.6252C134.775 94.9036 132.934 96.6867 130.058 96.6867C127.441 96.6867 125.946 95.1912 125.946 92.2004V83.7455H123.185V92.5167C123.185 97.003 125.802 99.1599 129.742 99.1599C131.899 99.1599 133.797 98.2684 134.918 96.6867V98.9873H137.535V83.7455H134.775ZM156.566 91.4527C156.566 86.7651 153.432 83.6017 149.032 83.6017C144.632 83.6017 141.382 86.8514 141.382 91.3664C141.382 95.9102 144.66 99.1599 149.578 99.1599C152.109 99.1599 154.208 98.2971 155.588 96.6867L154.064 94.9036C152.943 96.1402 151.447 96.7442 149.664 96.7442C146.645 96.7442 144.488 94.9612 144.143 92.2867H156.509C156.538 92.0278 156.566 91.6827 156.566 91.4527ZM149.032 85.9311C151.706 85.9311 153.633 87.7429 153.921 90.3023H144.143C144.43 87.7141 146.386 85.9311 149.032 85.9311ZM168.538 83.6017C166.123 83.6017 164.167 84.4932 163.046 86.0461V83.7455H160.4V98.9873H163.161V91.1363C163.161 87.8291 165.059 86.0749 167.992 86.0749C170.609 86.0749 172.104 87.5416 172.104 90.5324V98.9873H174.865V90.2161C174.865 85.7298 172.248 83.6017 168.538 83.6017ZM187.682 96.1115C187.107 96.5716 186.33 96.8304 185.525 96.8304C184.001 96.8304 183.138 95.9102 183.138 94.271V86.0174H187.509V83.7455H183.138V80.4095H180.377V83.7455H177.789V86.0174H180.377V94.386C180.377 97.4631 182.131 99.1599 185.209 99.1599C186.445 99.1599 187.71 98.8148 188.544 98.0958L187.682 96.1115ZM205.152 91.4527C205.152 86.7651 202.017 83.6017 197.617 83.6017C193.217 83.6017 189.968 86.8514 189.968 91.3664C189.968 95.9102 193.246 99.1599 198.164 99.1599C200.694 99.1599 202.794 98.2971 204.174 96.6867L202.65 94.9036C201.528 96.1402 200.033 96.7442 198.25 96.7442C195.23 96.7442 193.073 94.9612 192.728 92.2867H205.094C205.123 92.0278 205.152 91.6827 205.152 91.4527ZM197.617 85.9311C200.292 85.9311 202.219 87.7429 202.506 90.3023H192.728C193.016 87.7141 194.971 85.9311 197.617 85.9311ZM213.357 99.1599C217.412 99.1599 219.942 97.4056 219.942 94.6448C219.942 88.7206 210.28 91.654 210.28 88.0592C210.28 86.8514 211.459 85.9599 213.874 85.9599C215.37 85.9599 216.894 86.2762 218.274 87.1677L219.453 84.9821C218.131 84.1193 215.887 83.6017 213.903 83.6017C209.992 83.6017 207.548 85.4422 207.548 88.1742C207.548 94.2422 217.182 91.2801 217.182 94.7023C217.182 95.9965 216.117 96.7729 213.558 96.7729C211.574 96.7729 209.503 96.1115 208.209 95.1912L207.059 97.3768C208.324 98.3834 210.826 99.1599 213.357 99.1599Z" fill="white"/>
<defs>
<linearGradient id="paint0_linear_975_2268" x1="-285.185" y1="76.2803" x2="539.815" y2="76.2803" gradientUnits="userSpaceOnUse">
<stop stop-color="#D5FF40"/>
<stop offset="1" stop-color="#D5FF40" stop-opacity="0"/>
</linearGradient>
</defs>
</svg>
