<svg width="165" height="48" viewBox="0 0 165 48" fill="none" xmlns="http://www.w3.org/2000/svg">
<path d="M67.3862 17.1555H57.2488V23.8909H67.0426V27.671H57.2488V37.4304H53.2969V13.3754H67.3862V17.1555Z" fill="#2E2E2E"/>
<path d="M73.3168 16.9837C72.8586 17.4419 72.3087 17.671 71.6673 17.671C71.0258 17.671 70.4645 17.4419 69.9834 16.9837C69.5252 16.5026 69.2961 15.9413 69.2961 15.2998C69.2961 14.6584 69.5252 14.1086 69.9834 13.6504C70.4416 13.1693 71.0029 12.9287 71.6673 12.9287C72.3316 12.9287 72.8929 13.1693 73.3511 13.6504C73.8093 14.1086 74.0384 14.6584 74.0384 15.2998C74.0384 15.9413 73.7979 16.5026 73.3168 16.9837ZM69.8116 37.4304V20.2483H73.5229V37.4304H69.8116Z" fill="#2E2E2E"/>
<path d="M90.4782 20.2483H94.1208V36.6401C94.1208 39.2517 93.2617 41.2563 91.5435 42.6538C89.8253 44.0513 87.7405 44.75 85.2892 44.75C81.3259 44.75 78.6111 43.364 77.1449 40.592L80.3408 38.7363C81.2342 40.5003 82.9066 41.3823 85.3579 41.3823C86.9616 41.3823 88.2102 40.9585 89.1036 40.1109C90.02 39.2861 90.4782 38.1292 90.4782 36.6401V34.5438C89.0807 36.537 87.0876 37.5335 84.4988 37.5335C82.0704 37.5335 80.02 36.6744 78.3476 34.9562C76.6752 33.2151 75.839 31.1189 75.839 28.6675C75.839 26.2162 76.6752 24.1315 78.3476 22.4133C80.02 20.6721 82.0704 19.8016 84.4988 19.8016C87.0876 19.8016 89.0807 20.7981 90.4782 22.7913V20.2483ZM81.0968 32.5163C82.1506 33.5473 83.4564 34.0627 85.0143 34.0627C86.5721 34.0627 87.8665 33.5473 88.8975 32.5163C89.9513 31.4854 90.4782 30.2025 90.4782 28.6675C90.4782 27.1326 89.9513 25.8497 88.8975 24.8188C87.8665 23.7878 86.5721 23.2724 85.0143 23.2724C83.4564 23.2724 82.1506 23.7878 81.0968 24.8188C80.0658 25.8497 79.5504 27.1326 79.5504 28.6675C79.5504 30.2025 80.0658 31.4854 81.0968 32.5163Z" fill="#2E2E2E"/>
<path d="M116.179 19.8016C118.126 19.8016 119.695 20.4316 120.887 21.6916C122.078 22.9516 122.674 24.6469 122.674 26.7775V37.4304H118.962V27.0181C118.962 25.8268 118.664 24.9104 118.069 24.2689C117.473 23.6045 116.66 23.2724 115.629 23.2724C114.483 23.2724 113.567 23.6504 112.88 24.4064C112.215 25.1624 111.883 26.2964 111.883 27.8084V37.4304H108.172V27.0181C108.172 25.8268 107.885 24.9104 107.313 24.2689C106.763 23.6045 105.972 23.2724 104.942 23.2724C103.819 23.2724 102.903 23.6618 102.192 24.4407C101.482 25.1968 101.127 26.3193 101.127 27.8084V37.4304H97.4158V20.2483H101.127V22.3102C102.227 20.6378 103.865 19.8016 106.041 19.8016C108.241 19.8016 109.867 20.7065 110.921 22.5163C112.066 20.7065 113.819 19.8016 116.179 19.8016Z" fill="#2E2E2E"/>
<path d="M139.223 20.2483H142.934V37.4304H139.223V34.9562C137.825 36.9035 135.821 37.8772 133.209 37.8772C130.849 37.8772 128.833 37.0066 127.161 35.2655C125.489 33.5015 124.652 31.3594 124.652 28.8394C124.652 26.2964 125.489 24.1544 127.161 22.4133C128.833 20.6721 130.849 19.8016 133.209 19.8016C135.821 19.8016 137.825 20.7638 139.223 22.6882V20.2483ZM129.91 32.7913C130.941 33.8222 132.235 34.3377 133.793 34.3377C135.351 34.3377 136.646 33.8222 137.676 32.7913C138.707 31.7374 139.223 30.4201 139.223 28.8394C139.223 27.2586 138.707 25.9528 137.676 24.9218C136.646 23.868 135.351 23.3411 133.793 23.3411C132.235 23.3411 130.941 23.868 129.91 24.9218C128.879 25.9528 128.364 27.2586 128.364 28.8394C128.364 30.4201 128.879 31.7374 129.91 32.7913Z" fill="#2E2E2E"/>
<path d="M148.772 16.1246C148.451 16.4453 148.062 16.6057 147.604 16.6057C147.146 16.6057 146.756 16.4453 146.435 16.1246C146.115 15.8039 145.954 15.4144 145.954 14.9562C145.954 14.498 146.115 14.1086 146.435 13.7878C146.756 13.4671 147.146 13.3067 147.604 13.3067C148.062 13.3067 148.451 13.4671 148.772 13.7878C149.093 14.1086 149.253 14.498 149.253 14.9562C149.253 15.4144 149.093 15.8039 148.772 16.1246ZM146.47 37.4304V20.2483H148.738V37.4304H146.47Z" fill="#2E2E2E"/>
<path d="M154.307 24.75C154.307 25.5289 154.65 26.1475 155.338 26.6057C156.025 27.0639 156.861 27.419 157.846 27.671C158.831 27.923 159.816 28.2094 160.801 28.5301C161.787 28.8279 162.623 29.3434 163.31 30.0765C163.997 30.7867 164.341 31.726 164.341 32.8944C164.341 34.3606 163.757 35.5519 162.588 36.4682C161.443 37.3846 159.954 37.8428 158.121 37.8428C156.472 37.8428 155.063 37.4763 153.894 36.7432C152.749 36.01 151.947 35.0593 151.489 33.8909L153.413 32.7569C153.734 33.6504 154.307 34.3606 155.131 34.8875C155.979 35.3915 156.976 35.6435 158.121 35.6435C159.244 35.6435 160.183 35.4259 160.939 34.9906C161.695 34.5324 162.073 33.8336 162.073 32.8944C162.073 32.1154 161.729 31.4969 161.042 31.0387C160.355 30.5805 159.519 30.2254 158.533 29.9734C157.548 29.7214 156.563 29.4465 155.578 29.1486C154.593 28.8279 153.757 28.3124 153.07 27.6023C152.382 26.8692 152.039 25.9184 152.039 24.75C152.039 23.3525 152.588 22.1842 153.688 21.2449C154.811 20.3056 156.22 19.8359 157.915 19.8359C159.312 19.8359 160.538 20.1567 161.592 20.7981C162.646 21.4167 163.425 22.2643 163.929 23.3411L162.039 24.4407C161.374 22.8371 160 22.0352 157.915 22.0352C156.93 22.0352 156.082 22.2758 155.372 22.7569C154.662 23.2151 154.307 23.8795 154.307 24.75Z" fill="#2E2E2E"/>
<path d="M14.7967 4.80675H40.919C40.5166 5.8009 40.0028 6.80053 39.3651 7.71134C37.8069 9.9366 35.6752 11.4558 32.5195 11.4558C30.2456 11.4558 27.9013 11.4136 25.6072 11.3724C22.2785 11.3126 19.0555 11.2546 16.3067 11.3301C13.9073 11.396 11.5959 11.5629 9.54878 11.9532C8.29326 12.1925 7.00308 12.5396 5.79691 13.0792C6.06517 12.1797 6.38896 11.3005 6.77524 10.4699C8.40042 6.97573 10.8305 4.80675 14.7967 4.80675Z" stroke="url(#paint0_linear_878_19813)" stroke-width="7.73265"/>
<path d="M14.7973 47.2804C12.8896 47.2804 11.0006 46.9046 9.23809 46.1746C7.47561 45.4445 5.87417 44.3745 4.52522 43.0256C3.17627 41.6766 2.10623 40.0752 1.37618 38.3127C0.646138 36.5502 0.270389 34.6612 0.270389 32.7535C0.270389 30.8458 0.646139 28.9568 1.37618 27.1943C2.10623 25.4318 3.17628 23.8303 4.52522 22.4814C5.87417 21.1324 7.47561 20.0624 9.2381 19.3324C11.0006 18.6023 12.8896 18.2266 14.7973 18.2266L14.7973 32.7535L14.7973 47.2804Z" fill="url(#paint1_linear_878_19813)"/>
<path d="M27.7932 22.0962C27.0928 24.1683 25.813 25.6124 24.3519 26.6639C23.2986 27.4218 22.1304 27.9835 20.9888 28.3823V22.0962H27.7932Z" stroke="url(#paint2_linear_878_19813)" stroke-width="7.44625"/>
<defs>
<linearGradient id="paint0_linear_878_19813" x1="45.919" y1="0.940429" x2="0.730862" y2="22.1512" gradientUnits="userSpaceOnUse">
<stop stop-color="#FF7262"/>
<stop offset="0.671875" stop-color="#F24E1E"/>
</linearGradient>
<linearGradient id="paint1_linear_878_19813" x1="7.18693" y1="51.1998" x2="15.0257" y2="18.0003" gradientUnits="userSpaceOnUse">
<stop stop-color="#A259FF"/>
<stop offset="1" stop-color="#7000FF"/>
</linearGradient>
<linearGradient id="paint2_linear_878_19813" x1="32.0852" y1="18.4627" x2="17.3299" y2="32.7568" gradientUnits="userSpaceOnUse">
<stop stop-color="#29BEFF"/>
<stop offset="1" stop-color="#00FFFF"/>
</linearGradient>
</defs>
</svg>
