<svg width="138" height="25" viewBox="0 0 138 25" fill="none" xmlns="http://www.w3.org/2000/svg">
<path fill-rule="evenodd" clip-rule="evenodd" d="M1.43029 6.2587C0.886373 8.09439 0.741585 10.0098 0.798878 11.3944C1.15753 10.6173 2.74158 9.47657 3.48878 9.00334C3.89678 8.69734 4.43267 8.4709 5.07592 8.30464C7.04423 7.79589 10.0179 7.85053 13.4094 7.91284C14.5929 7.93459 15.8273 7.95727 17.0877 7.95727C19.8101 7.95727 21.5577 6.39815 22.6148 4.5949C23.4376 3.19111 23.842 1.63937 23.9619 0.560059H19.8805H7.97193C4.61242 0.560059 2.73197 2.75295 1.74561 5.3263C1.67055 5.52211 1.60067 5.72013 1.53571 5.91955C1.49902 6.0322 1.4639 6.1453 1.43029 6.2587ZM7.97193 24.3956C6.9907 24.3956 6.01908 24.2023 5.11255 23.8268C4.20601 23.4513 3.38231 22.9009 2.68848 22.2071C1.99464 21.5133 1.44427 20.6896 1.06877 19.783C0.693267 18.8765 0.5 17.9049 0.5 16.9236C0.5 15.9424 0.693267 14.9708 1.06877 14.0643C1.44427 13.1577 1.99465 12.334 2.68848 11.6402C3.38231 10.9464 4.20601 10.396 5.11255 10.0205C6.01908 9.64498 6.9907 9.45171 7.97193 9.45171L7.97193 16.9236L7.97193 24.3956ZM13.1276 15.8939C11.7558 16.6359 10.285 16.9472 9.24222 16.9983V13.4118V13.1031V9.52637H12.9782H13.1276H16.8636C16.8636 11.1187 16.4641 12.3957 15.8332 13.4118C15.1376 14.532 14.1607 15.3351 13.1276 15.8939Z" fill="black"/>
<path d="M26.8633 17.215V4.41833H35.3762V5.94304H28.624V10.7713L34.632 10.4082V11.9511L28.624 12.3141V17.215H26.8633Z" fill="black"/>
<path d="M39.2833 6.83245C38.884 6.83245 38.5512 6.71144 38.285 6.46942C38.0309 6.21531 37.9038 5.90068 37.9038 5.52556C37.9038 5.15043 38.0309 4.84186 38.285 4.59984C38.5512 4.35782 38.884 4.23682 39.2833 4.23682C39.6947 4.23682 40.0335 4.35782 40.2998 4.59984C40.566 4.84186 40.6991 5.15043 40.6991 5.52556C40.6991 5.90068 40.566 6.21531 40.2998 6.46942C40.0335 6.71144 39.6947 6.83245 39.2833 6.83245ZM36.1431 17.215V15.6903H38.6843V9.53699L36.7421 9.70035V8.17564L39.1018 7.99413C39.9488 7.92153 40.3724 8.30875 40.3724 9.15581V15.6903H42.9135V17.215H36.1431Z" fill="black"/>
<path d="M52.0219 8.17564H53.8008V19.5565C53.8008 20.343 53.3651 20.7303 52.4939 20.7182L45.5238 20.5548V19.0301L52.0219 19.1935V16.0533L52.3305 14.8916H51.8404C51.6226 15.6298 51.2051 16.2348 50.588 16.7067C49.9709 17.1666 49.1782 17.3965 48.2102 17.3965C46.8912 17.3965 45.8324 16.9548 45.0337 16.0714C44.2471 15.176 43.8539 14.0446 43.8539 12.6772C43.8539 11.3219 44.2471 10.2025 45.0337 9.31917C45.8324 8.43581 46.8912 7.99413 48.2102 7.99413C49.1782 7.99413 49.9709 8.2301 50.588 8.70203C51.2051 9.16186 51.6226 9.7548 51.8404 10.4809H52.3305L52.0219 9.33733V8.17564ZM48.7547 15.8718C49.7349 15.8718 50.5214 15.6116 51.1144 15.0913C51.7194 14.5709 52.0219 13.7662 52.0219 12.6772C52.0219 11.6123 51.7194 10.8197 51.1144 10.2993C50.5093 9.77901 49.7228 9.51884 48.7547 9.51884C47.7987 9.51884 47.0364 9.77901 46.4677 10.2993C45.8989 10.8076 45.6145 11.6002 45.6145 12.6772C45.6145 13.7662 45.8989 14.5709 46.4677 15.0913C47.0364 15.6116 47.7987 15.8718 48.7547 15.8718Z" fill="black"/>
<path d="M67.5083 7.99413C68.4521 7.99413 69.16 8.339 69.6319 9.02875C70.116 9.7064 70.358 10.6019 70.358 11.7151V17.215H68.5973V12.0419C68.5973 11.1343 68.4703 10.4869 68.2161 10.0997C67.962 9.71245 67.5022 9.51884 66.8367 9.51884C65.9775 9.51884 65.3119 9.86976 64.84 10.5716C64.3802 11.2614 64.1503 12.2052 64.1503 13.4032V17.215H62.3896V12.0419C62.3896 11.1343 62.2625 10.4869 62.0084 10.0997C61.7543 9.71245 61.2945 9.51884 60.6289 9.51884C59.7698 9.51884 59.1042 9.86976 58.6323 10.5716C58.1724 11.2614 57.9425 12.2052 57.9425 13.4032V17.215H56.1819V8.17564H57.9425V9.57329L57.634 10.735H58.124C58.5355 8.90774 59.5943 7.99413 61.3005 7.99413C62.0992 7.99413 62.7224 8.2422 63.1701 8.73833C63.6178 9.22237 63.8961 9.88791 64.0051 10.735H64.3318C64.7432 8.90774 65.802 7.99413 67.5083 7.99413Z" fill="black"/>
<path d="M82.1621 17.215H80.3833V16.0533L80.6919 14.8916H80.2018C79.984 15.6298 79.5665 16.2348 78.9494 16.7067C78.3322 17.1666 77.5396 17.3965 76.5715 17.3965C75.2526 17.3965 74.1937 16.9548 73.3951 16.0714C72.6085 15.176 72.2152 14.0446 72.2152 12.6772C72.2152 11.3219 72.6085 10.2025 73.3951 9.31917C74.1937 8.43581 75.2526 7.99413 76.5715 7.99413C77.5396 7.99413 78.3322 8.2301 78.9494 8.70203C79.5665 9.16186 79.984 9.7548 80.2018 10.4809H80.6919L80.3833 9.33733V8.17564H82.1621V17.215ZM80.3833 12.6772C80.3833 11.6123 80.0808 10.8197 79.4758 10.2993C78.8707 9.77901 78.0842 9.51884 77.1161 9.51884C76.1601 9.51884 75.3978 9.77901 74.829 10.2993C74.2603 10.8076 73.9759 11.6002 73.9759 12.6772C73.9759 13.7662 74.2603 14.5709 74.829 15.0913C75.3978 15.6116 76.1601 15.8718 77.1161 15.8718C78.0963 15.8718 78.8828 15.6116 79.4758 15.0913C80.0808 14.5709 80.3833 13.7662 80.3833 12.6772Z" fill="black"/>
<path d="M87.2672 6.83245C86.8679 6.83245 86.5351 6.71144 86.2689 6.46942C86.0148 6.21531 85.8877 5.90068 85.8877 5.52556C85.8877 5.15043 86.0148 4.84186 86.2689 4.59984C86.5351 4.35782 86.8679 4.23682 87.2672 4.23682C87.6786 4.23682 88.0174 4.35782 88.2837 4.59984C88.5499 4.84186 88.683 5.15043 88.683 5.52556C88.683 5.90068 88.5499 6.21531 88.2837 6.46942C88.0174 6.71144 87.6786 6.83245 87.2672 6.83245ZM84.127 17.215V15.6903H86.6682V9.53699L84.726 9.70035V8.17564L87.0857 7.99413C87.9327 7.92153 88.3563 8.30875 88.3563 9.15581V15.6903H90.8974V17.215H84.127Z" fill="black"/>
<path d="M99.8547 14.8372C99.8547 15.6116 99.5643 16.2348 98.9834 16.7067C98.4026 17.1666 97.4587 17.3965 96.1518 17.3965C93.3202 17.3965 91.9044 16.2288 91.9044 13.8933H93.6651C93.6651 15.297 94.5061 15.9988 96.1881 15.9988C96.8416 15.9988 97.3195 15.9141 97.6221 15.7447C97.9367 15.5632 98.094 15.2728 98.094 14.8735C98.094 14.7283 98.0759 14.5951 98.0396 14.4741C98.0033 14.3531 97.9306 14.2442 97.8217 14.1474C97.7249 14.0506 97.6342 13.972 97.5495 13.9114C97.4769 13.8509 97.3377 13.7844 97.132 13.7118C96.9384 13.6271 96.7932 13.5666 96.6964 13.5303C96.5995 13.494 96.412 13.4335 96.1337 13.3488C95.8553 13.2641 95.6557 13.2035 95.5347 13.1672C95.0022 12.9978 94.5848 12.8587 94.2822 12.7498C93.9797 12.6288 93.653 12.4593 93.3021 12.2415C92.9632 12.0237 92.7152 11.7635 92.5579 11.461C92.4006 11.1585 92.3219 10.8015 92.3219 10.3901C92.3219 9.65195 92.6244 9.07111 93.2295 8.64758C93.8345 8.21195 94.6695 7.99413 95.7343 7.99413C97.0654 7.99413 98.0335 8.2906 98.6385 8.88354C99.2436 9.46438 99.5461 10.1904 99.5461 11.0617H97.7854C97.7854 9.94842 97.1017 9.39178 95.7343 9.39178C94.6332 9.39178 94.0826 9.72455 94.0826 10.3901C94.0826 10.7531 94.2338 11.0314 94.5364 11.2251C94.8389 11.4187 95.3955 11.6486 96.2063 11.9148C96.291 11.939 96.4664 11.9935 96.7327 12.0782C96.9989 12.1629 97.1804 12.2234 97.2772 12.2597C97.374 12.296 97.5374 12.3565 97.7673 12.4412C97.9972 12.5259 98.1606 12.5925 98.2574 12.6409C98.3663 12.6893 98.5115 12.7679 98.693 12.8768C98.8745 12.9736 99.0076 13.0644 99.0923 13.1491C99.177 13.2338 99.2799 13.3427 99.4009 13.4758C99.5219 13.5968 99.6066 13.7239 99.655 13.857C99.7034 13.9901 99.7458 14.1414 99.7821 14.3108C99.8305 14.4681 99.8547 14.6435 99.8547 14.8372Z" fill="black"/>
<path d="M106.951 6.07946C107.641 6.07946 108.246 6.11576 108.766 6.18837C109.298 6.24887 109.807 6.37593 110.291 6.56955C110.775 6.75106 111.168 7.00518 111.47 7.3319C111.785 7.64652 112.033 8.064 112.215 8.58434C112.396 9.10467 112.487 9.72182 112.487 10.4358C112.487 11.3312 112.354 12.0754 112.088 12.6684C111.833 13.2613 111.44 13.7151 110.908 14.0297C110.387 14.3322 109.819 14.544 109.202 14.665C108.584 14.7739 107.834 14.8284 106.951 14.8284H105.099V18.8761H102.758V6.07946H106.951ZM107.078 12.7954C108.155 12.7954 108.935 12.6442 109.419 12.3417C109.903 12.0391 110.145 11.4038 110.145 10.4358C110.145 9.4798 109.903 8.85661 109.419 8.56619C108.935 8.26367 108.155 8.1124 107.078 8.1124H105.099V12.7954H107.078Z" fill="black"/>
<path d="M113.593 18.8761V6.07946H118.276C119.087 6.07946 119.801 6.13392 120.418 6.24282C121.035 6.35173 121.598 6.53324 122.106 6.78736C122.627 7.04148 123.02 7.41056 123.286 7.89459C123.552 8.37862 123.685 8.96551 123.685 9.65526C123.685 11.3494 122.717 12.3235 120.781 12.5776V13.1948H122.524C123.407 13.1948 123.849 13.6304 123.849 14.5017V18.8761H121.507V14.1205H115.935V18.8761H113.593ZM115.935 12.0875H118.276C118.724 12.0875 119.075 12.0815 119.329 12.0694C119.595 12.0452 119.874 12.0028 120.164 11.9423C120.454 11.8697 120.672 11.7669 120.817 11.6338C120.975 11.4885 121.102 11.2949 121.199 11.0529C121.295 10.7988 121.344 10.4842 121.344 10.109C121.344 9.73392 121.289 9.4193 121.181 9.16518C121.084 8.91106 120.963 8.71745 120.817 8.58434C120.684 8.43913 120.467 8.33022 120.164 8.25761C119.874 8.18501 119.601 8.14266 119.347 8.13056C119.093 8.11845 118.736 8.1124 118.276 8.1124H115.935V12.0875Z" fill="black"/>
<path d="M126.592 17.2062C125.454 15.9598 124.885 14.3806 124.885 12.4687C124.885 10.5568 125.454 8.98367 126.592 7.74938C127.741 6.51509 129.278 5.89795 131.202 5.89795C133.126 5.89795 134.657 6.52114 135.794 7.76753C136.932 9.00182 137.5 10.5689 137.5 12.4687C137.5 14.3806 136.932 15.9598 135.794 17.2062C134.657 18.4405 133.126 19.0576 131.202 19.0576C129.278 19.0576 127.741 18.4405 126.592 17.2062ZM128.243 9.16518C127.566 9.97594 127.227 11.0771 127.227 12.4687C127.227 13.8603 127.566 14.9675 128.243 15.7904C128.921 16.6133 129.907 17.0247 131.202 17.0247C132.497 17.0247 133.477 16.6133 134.143 15.7904C134.82 14.9675 135.159 13.8603 135.159 12.4687C135.159 11.0771 134.82 9.97594 134.143 9.16518C133.465 8.34232 132.485 7.93089 131.202 7.93089C129.907 7.93089 128.921 8.34232 128.243 9.16518Z" fill="black"/>
</svg>
