<svg width="232" height="30" viewBox="0 0 232 30" fill="none" xmlns="http://www.w3.org/2000/svg">
<mask id="mask0_973_2262" style="mask-type:alpha" maskUnits="userSpaceOnUse" x="0" y="0" width="232" height="30">
<rect width="231.53" height="29.88" fill="#D9D9D9"/>
</mask>
<g mask="url(#mask0_973_2262)">
<g clip-path="url(#clip0_973_2262)">
<rect x="-0.0117188" y="-0.0126953" width="231.534" height="29.8754" rx="14.9377" fill="#181A20"/>
<g clip-path="url(#clip1_973_2262)">
<g clip-path="url(#clip2_973_2262)">
<rect width="35.8504" height="29.8754" transform="translate(-0.0117188 -0.0126953)" fill="#09B4FE" fill-opacity="0.18"/>
<g filter="url(#filter0_b_973_2262)">
<rect x="35.0938" y="-0.0126953" width="0.746884" height="29.8754" fill="#09B4FE"/>
</g>
</g>
</g>
</g>
<g clip-path="url(#clip3_973_2262)">
<path d="M49.2809 19.4056V10.443H58.2435V19.4056H49.2809Z" fill="#86898A"/>
<path d="M49.2809 8.94922V20.8994M58.2435 8.94922V20.8994M59.7373 10.443H47.7871M47.7871 19.4056H59.7373" stroke="#BCC0C2" stroke-width="1.49377"/>
</g>
<path d="M67.207 13.4307L70.1946 16.4182L73.1821 13.4307" stroke="#BCC0C2" stroke-width="1.49377"/>
<g clip-path="url(#clip4_973_2262)">
<rect x="99.709" y="15.0879" width="5.97507" height="2.98754" rx="0.746884" transform="rotate(-135 99.709 15.0879)" fill="#86898A"/>
<path fill-rule="evenodd" clip-rule="evenodd" d="M90.0617 20.1955L94.0825 16.1747C93.7939 15.7396 93.8413 15.1475 94.2247 14.7641C94.6622 14.3265 95.3716 14.3265 95.8091 14.7641C96.2466 15.2016 96.2466 15.9109 95.8091 16.3484C95.426 16.7315 94.8345 16.7792 94.3996 16.4914L90.3625 20.5285C90.4546 20.5765 90.5603 20.603 90.6736 20.6018C92.7149 20.5788 96.4458 19.9812 97.3348 19.4581C99.5642 18.1464 101.302 14.9748 98.46 12.1333C95.6186 9.29183 92.5527 10.9778 91.1352 13.2585C90.596 14.1262 90.0828 17.9151 90.014 19.9194C90.0106 20.0176 90.0278 20.1111 90.0617 20.1955Z" fill="#BCC0C2"/>
</g>
<path d="M109.031 13.4316L112.019 16.4192L115.006 13.4316" stroke="#BCC0C2" stroke-width="1.49377"/>
<g clip-path="url(#clip5_973_2262)">
<path d="M137.412 12.684V11.1902C137.412 10.7778 137.747 10.4434 138.159 10.4434H141.893M146.375 12.684V11.1902C146.375 10.7778 146.04 10.4434 145.628 10.4434H141.893M141.893 10.4434V20.1529M139.653 20.1529H144.134" stroke="#BCC0C2" stroke-width="1.49377"/>
</g>
<g clip-path="url(#clip6_973_2262)">
<path d="M174.364 18.7305L175.149 19.7427C175.715 20.4724 176.587 20.8994 177.51 20.8994H178.79C179.825 20.8994 180.783 20.3527 181.309 19.4616C181.909 18.447 182.225 17.2902 182.225 16.1117V12.3926C182.225 11.9052 181.83 11.51 181.342 11.51C180.855 11.51 180.46 11.9052 180.46 12.3926V10.6855C180.46 10.198 180.065 9.8028 179.577 9.8028C179.09 9.8028 178.694 10.198 178.694 10.6855V9.8319C178.694 9.34441 178.299 8.94922 177.812 8.94922C177.324 8.94922 176.929 9.34441 176.929 9.8319V11.1123C176.929 10.6248 176.534 10.2296 176.046 10.2296C175.559 10.2296 175.164 10.6248 175.164 11.1123V14.6157C175.164 14.9119 174.766 15.0087 174.63 14.7455L174.041 13.6069C173.917 13.3675 173.67 13.2171 173.401 13.2171C172.944 13.2171 172.602 13.6366 172.695 14.084L173.079 15.9416C173.289 16.9571 173.729 17.9111 174.364 18.7305Z" fill="#BCC0C2"/>
</g>
<g clip-path="url(#clip7_973_2262)">
<path fill-rule="evenodd" clip-rule="evenodd" d="M213.595 19.4068C216.483 19.4068 218.824 17.2332 218.824 14.552C218.824 11.8708 216.483 9.69727 213.595 9.69727C210.708 9.69727 208.367 11.8708 208.367 14.552C208.367 15.8748 208.937 17.074 209.861 17.9496V20.1536L211.886 19.1413C212.421 19.3133 212.997 19.4068 213.595 19.4068Z" fill="#BCC0C2"/>
</g>
<path d="M10.9763 19.1918L7.54615 10.9594C7.19014 10.105 7.01214 9.67777 7.22435 9.46556C7.43656 9.25335 7.86377 9.43136 8.71818 9.78736L16.9506 13.2175C17.693 13.5269 18.0641 13.6815 18.0799 13.962C18.0957 14.2424 17.7442 14.4377 17.0411 14.8283L14.4017 16.2947C14.2905 16.3564 14.2349 16.3873 14.1905 16.4317C14.1461 16.4761 14.1152 16.5317 14.0535 16.6429L12.5871 19.2823C12.1965 19.9854 12.0012 20.3369 11.7208 20.3211C11.4403 20.3054 11.2856 19.9342 10.9763 19.1918Z" fill="#2487E2"/>
<path d="M21.6465 13.4326L24.634 16.4202L27.6216 13.4326" stroke="#2487E2" stroke-width="1.49377"/>
</g>
<defs>
<filter id="filter0_b_973_2262" x="-108.512" y="-143.618" width="287.958" height="317.086" filterUnits="userSpaceOnUse" color-interpolation-filters="sRGB">
<feFlood flood-opacity="0" result="BackgroundImageFix"/>
<feGaussianBlur in="BackgroundImageFix" stdDeviation="71.8029"/>
<feComposite in2="SourceAlpha" operator="in" result="effect1_backgroundBlur_973_2262"/>
<feBlend mode="normal" in="SourceGraphic" in2="effect1_backgroundBlur_973_2262" result="shape"/>
</filter>
<clipPath id="clip0_973_2262">
<rect x="-0.0117188" y="-0.0126953" width="231.534" height="29.8754" rx="14.9377" fill="white"/>
</clipPath>
<clipPath id="clip1_973_2262">
<rect width="35.8504" height="29.8754" fill="white" transform="translate(-0.0117188 -0.0126953)"/>
</clipPath>
<clipPath id="clip2_973_2262">
<rect width="35.8504" height="29.8754" fill="white" transform="translate(-0.0117188 -0.0126953)"/>
</clipPath>
<clipPath id="clip3_973_2262">
<rect width="11.9501" height="11.9501" fill="white" transform="translate(47.7871 8.94922)"/>
</clipPath>
<clipPath id="clip4_973_2262">
<rect width="11.9501" height="11.9501" fill="white" transform="translate(89.6133 8.94922)"/>
</clipPath>
<clipPath id="clip5_973_2262">
<rect width="11.9501" height="11.9501" fill="white" transform="translate(135.918 8.94922)"/>
</clipPath>
<clipPath id="clip6_973_2262">
<rect width="11.9501" height="11.9501" fill="white" transform="translate(171.77 8.94922)"/>
</clipPath>
<clipPath id="clip7_973_2262">
<rect width="11.9501" height="11.9501" fill="white" transform="translate(207.619 8.9502)"/>
</clipPath>
</defs>
</svg>
