<svg width="273" height="285" viewBox="0 0 273 285" fill="none" xmlns="http://www.w3.org/2000/svg">
<path d="M54.1706 159.647C53.8217 142.756 56.5752 118.801 65.9235 98.7017C75.7507 77.5725 92.8086 60.7912 121.199 60.7912H271.269C269.854 72.3221 265.08 89.1667 255.225 103.241C245.146 117.636 229.782 129.101 207.235 129.101C195.375 129.101 183.734 128.887 172.565 128.682C156.894 128.395 142.15 128.124 129.024 128.484C117.768 128.793 107.651 129.566 99.0975 131.197C90.5663 132.824 83.5258 135.315 78.4586 139.107C74.9103 141.356 69.3971 145.174 64.3378 149.355C61.8021 151.45 59.3702 153.645 57.3538 155.786C56.1249 157.09 55.0361 158.39 54.1706 159.647Z" stroke="url(#paint0_linear_878_19217)" stroke-width="1.50618"/>
<mask id="path-2-inside-1_878_19217" fill="white">
<path d="M121.195 285.001C111.934 285.001 102.764 283.177 94.2081 279.633C85.6521 276.089 77.8778 270.894 71.3293 264.345C64.7808 257.797 59.5863 250.023 56.0422 241.467C52.4982 232.911 50.6741 223.74 50.6741 214.479C50.6741 205.218 52.4982 196.048 56.0422 187.492C59.5863 178.936 64.7808 171.162 71.3293 164.613C77.8779 158.065 85.6521 152.87 94.2081 149.326C102.764 145.782 111.934 143.958 121.195 143.958L121.195 214.479L121.195 285.001Z"/>
</mask>
<path d="M121.195 285.001C111.934 285.001 102.764 283.177 94.2081 279.633C85.6521 276.089 77.8778 270.894 71.3293 264.345C64.7808 257.797 59.5863 250.023 56.0422 241.467C52.4982 232.911 50.6741 223.74 50.6741 214.479C50.6741 205.218 52.4982 196.048 56.0422 187.492C59.5863 178.936 64.7808 171.162 71.3293 164.613C77.8779 158.065 85.6521 152.87 94.2081 149.326C102.764 145.782 111.934 143.958 121.195 143.958L121.195 214.479L121.195 285.001Z" stroke="url(#paint1_linear_878_19217)" stroke-width="3.01236" mask="url(#path-2-inside-1_878_19217)"/>
<path d="M204.367 145.417C204.145 171.521 192.377 188.416 177.709 198.971C163.192 209.418 145.813 213.664 133.944 214.39V145.417H204.367Z" stroke="url(#paint2_linear_878_19217)" stroke-width="1.50618"/>
<path d="M93.7665 249.107L191.254 56.0717V54.6167H76.791V0.780273H261.096V54.6167L163.123 249.107H93.7665Z" fill="url(#paint3_linear_878_19217)"/>
<path d="M12.856 177.066L16.6698 185.335L25.712 186.407L19.0269 192.589L20.8014 201.52L12.856 197.072L4.91055 201.52L6.68512 192.589L0 186.407L9.04219 185.335L12.856 177.066Z" fill="#FFBC00"/>
<path d="M41.0396 177.066L44.8534 185.335L53.8956 186.407L47.2105 192.589L48.985 201.52L41.0396 197.072L33.0941 201.52L34.8687 192.589L28.1836 186.407L37.2258 185.335L41.0396 177.066Z" fill="#FFBC00"/>
<path d="M69.4458 177.066L73.2597 185.335L82.3018 186.407L75.6167 192.589L77.3913 201.52L69.4458 197.072L61.5004 201.52L63.275 192.589L56.5898 186.407L65.632 185.335L69.4458 177.066Z" fill="#FFBC00"/>
<path d="M97.856 177.066L101.67 185.335L110.712 186.407L104.027 192.589L105.801 201.52L97.856 197.072L89.9106 201.52L91.6851 192.589L85 186.407L94.0422 185.335L97.856 177.066Z" fill="#FFBC00"/>
<path d="M126.268 177.066L130.082 185.335L139.124 186.407L132.439 192.589L134.214 201.52L126.268 197.072L118.323 201.52L120.097 192.589L113.412 186.407L122.454 185.335L126.268 177.066Z" fill="#FFBC00"/>
<path d="M10.5691 140.59H0.95116V115.593H10.4715C13.0428 115.593 15.2642 116.093 17.1357 117.094C19.0153 118.087 20.4637 119.519 21.4809 121.39C22.5061 123.254 23.0187 125.487 23.0187 128.091C23.0187 130.695 22.5102 132.933 21.4931 134.804C20.4759 136.668 19.0357 138.1 17.1723 139.101C15.3089 140.093 13.1079 140.59 10.5691 140.59ZM7.73743 134.829H10.325C11.5618 134.829 12.6156 134.629 13.4862 134.231C14.365 133.832 15.0323 133.144 15.4879 132.168C15.9517 131.191 16.1837 129.833 16.1837 128.091C16.1837 126.35 15.9477 124.991 15.4757 124.015C15.0119 123.038 14.3284 122.351 13.4252 121.952C12.5301 121.553 11.4316 121.354 10.1297 121.354H7.73743V134.829Z" fill="white"/>
<path d="M32.9449 115.593V140.59H26.1586V115.593H32.9449Z" fill="white"/>
<path d="M42.6544 140.59H35.3311L43.582 115.593H52.8582L61.1091 140.59H53.7858L48.3177 122.477H48.1225L42.6544 140.59ZM41.2874 130.728H55.0552V135.805H41.2874V130.728Z" fill="white"/>
<path d="M76.0182 123.404C75.9531 122.591 75.6479 121.956 75.1028 121.5C74.5657 121.045 73.748 120.817 72.6495 120.817C71.9497 120.817 71.376 120.902 70.9285 121.073C70.4891 121.236 70.1636 121.46 69.952 121.744C69.7405 122.029 69.6306 122.355 69.6225 122.721C69.6062 123.022 69.6591 123.294 69.7812 123.539C69.9114 123.775 70.1148 123.99 70.3914 124.185C70.6681 124.373 71.022 124.543 71.4533 124.698C71.8846 124.853 72.3972 124.991 72.9912 125.113L75.0417 125.552C76.425 125.845 77.609 126.232 78.5935 126.712C79.5781 127.192 80.3837 127.758 81.0102 128.409C81.6368 129.051 82.0965 129.776 82.3895 130.581C82.6905 131.387 82.8451 132.265 82.8533 133.218C82.8451 134.861 82.4342 136.253 81.6205 137.392C80.8068 138.531 79.6432 139.398 78.1297 139.992C76.6244 140.586 74.8139 140.883 72.6983 140.883C70.5257 140.883 68.6298 140.561 67.0105 139.918C65.3994 139.276 64.1463 138.287 63.2512 136.952C62.3643 135.61 61.9167 133.893 61.9086 131.802H68.3531C68.3938 132.567 68.585 133.209 68.9268 133.73C69.2685 134.251 69.7486 134.646 70.367 134.914C70.9936 135.183 71.7381 135.317 72.6006 135.317C73.3248 135.317 73.931 135.227 74.4193 135.048C74.9075 134.869 75.2777 134.621 75.53 134.304C75.7822 133.986 75.9124 133.624 75.9205 133.218C75.9124 132.835 75.7863 132.501 75.5422 132.217C75.3062 131.924 74.9156 131.663 74.3704 131.436C73.8252 131.2 73.0889 130.98 72.1612 130.776L69.6713 130.239C67.458 129.759 65.7126 128.958 64.4351 127.835C63.1658 126.704 62.5351 125.162 62.5433 123.209C62.5351 121.622 62.9583 120.235 63.8127 119.047C64.6752 117.851 65.8672 116.919 67.3889 116.252C68.9186 115.585 70.6722 115.251 72.6495 115.251C74.6674 115.251 76.4128 115.589 77.8856 116.264C79.3584 116.939 80.4935 117.891 81.291 119.12C82.0965 120.341 82.5034 121.769 82.5115 123.404H76.0182Z" fill="white"/>
<path d="M101.9 140.59H92.282V115.593H101.802C104.374 115.593 106.595 116.093 108.467 117.094C110.346 118.087 111.795 119.519 112.812 121.39C113.837 123.254 114.35 125.487 114.35 128.091C114.35 130.695 113.841 132.933 112.824 134.804C111.807 136.668 110.367 138.1 108.503 139.101C106.64 140.093 104.439 140.59 101.9 140.59ZM99.0683 134.829H101.656C102.893 134.829 103.946 134.629 104.817 134.231C105.696 133.832 106.363 133.144 106.819 132.168C107.283 131.191 107.515 129.833 107.515 128.091C107.515 126.35 107.279 124.991 106.807 124.015C106.343 123.038 105.659 122.351 104.756 121.952C103.861 121.553 102.763 121.354 101.461 121.354H99.0683V134.829Z" fill="white"/>
<path d="M117.489 140.59V115.593H135.505V121.061H124.276V125.357H134.577V130.825H124.276V135.122H135.456V140.59H117.489Z" fill="white"/>
<path d="M17.1845 156.399C17.0787 155.967 16.9119 155.589 16.6841 155.264C16.4562 154.93 16.1714 154.649 15.8297 154.421C15.4961 154.185 15.1055 154.01 14.658 153.897C14.2186 153.774 13.7344 153.713 13.2055 153.713C12.0663 153.713 11.094 153.986 10.2884 154.531C9.49096 155.076 8.88068 155.862 8.45756 156.887C8.04257 157.912 7.83507 159.149 7.83507 160.597C7.83507 162.062 8.03443 163.315 8.43315 164.357C8.83186 165.398 9.42586 166.196 10.2152 166.749C11.0044 167.302 11.985 167.579 13.1567 167.579C14.1901 167.579 15.0485 167.428 15.7321 167.127C16.4237 166.826 16.9404 166.399 17.2822 165.846C17.6239 165.292 17.7948 164.641 17.7948 163.893L18.9665 164.015H13.2543V159.182H24.3369V162.648C24.3369 164.926 23.8528 166.875 22.8845 168.494C21.9243 170.105 20.598 171.342 18.9055 172.205C17.2211 173.059 15.2886 173.486 13.1079 173.486C10.6749 173.486 8.53893 172.97 6.69996 171.936C4.861 170.903 3.42481 169.43 2.39141 167.518C1.36615 165.606 0.853516 163.331 0.853516 160.695C0.853516 158.628 1.16679 156.797 1.79334 155.203C2.42803 153.608 3.30683 152.261 4.42973 151.162C5.55264 150.056 6.8505 149.222 8.3233 148.66C9.7961 148.091 11.3747 147.806 13.059 147.806C14.54 147.806 15.9151 148.018 17.1845 148.441C18.462 148.856 19.589 149.45 20.5654 150.223C21.55 150.988 22.3434 151.895 22.9455 152.944C23.5477 153.994 23.9138 155.146 24.044 156.399H17.1845Z" fill="white"/>
<path d="M33.2226 173.145H25.8993L34.1502 148.148H43.4264L51.6773 173.145H44.354L38.8859 155.032H38.6906L33.2226 173.145ZM31.8555 163.283H45.6234V168.36H31.8555V163.283Z" fill="white"/>
<path d="M54.0849 173.145V148.148H64.8745C66.7298 148.148 68.3531 148.485 69.7445 149.161C71.136 149.836 72.2182 150.809 72.9912 152.078C73.7642 153.347 74.1507 154.869 74.1507 156.643C74.1507 158.433 73.752 159.942 72.9546 161.171C72.1653 162.4 71.0546 163.327 69.6225 163.954C68.1985 164.58 66.5345 164.894 64.6304 164.894H58.1859V159.621H63.2634C64.0608 159.621 64.7403 159.523 65.3017 159.328C65.8713 159.125 66.3067 158.803 66.6077 158.364C66.9169 157.924 67.0715 157.351 67.0715 156.643C67.0715 155.927 66.9169 155.345 66.6077 154.897C66.3067 154.442 65.8713 154.108 65.3017 153.897C64.7403 153.677 64.0608 153.567 63.2634 153.567H60.8711V173.145H54.0849ZM68.7315 161.671L74.9807 173.145H67.6086L61.5058 161.671H68.7315Z" fill="white"/>
<path d="M83.5368 173.145H76.2135L84.4644 148.148H93.7406L101.992 173.145H94.6682L89.2001 155.032H89.0049L83.5368 173.145ZM82.1698 163.283H95.9376V168.36H82.1698V163.283Z" fill="white"/>
<path d="M126.027 148.148V173.145H120.364L111.332 160.011H111.185V173.145H104.399V148.148H110.16L119.046 161.232H119.241V148.148H126.027Z" fill="white"/>
<path d="M128.554 153.616V148.148H150.28V153.616H142.761V173.145H136.072V153.616H128.554Z" fill="white"/>
<path d="M159.62 148.148V173.145H152.834V148.148H159.62Z" fill="white"/>
<path d="M169.329 173.145H162.006L170.257 148.148H179.533L187.784 173.145H180.461L174.993 155.032H174.797L169.329 173.145ZM167.962 163.283H181.73V168.36H167.962V163.283Z" fill="white"/>
<defs>
<linearGradient id="paint0_linear_878_19217" x1="162.752" y1="60.0381" x2="162.752" y2="162.294" gradientUnits="userSpaceOnUse">
<stop stop-color="white"/>
<stop offset="1" stop-opacity="0"/>
</linearGradient>
<linearGradient id="paint1_linear_878_19217" x1="191.717" y1="214.479" x2="50.6741" y2="214.479" gradientUnits="userSpaceOnUse">
<stop stop-color="white"/>
<stop offset="1" stop-opacity="0"/>
</linearGradient>
<linearGradient id="paint2_linear_878_19217" x1="169.157" y1="144.664" x2="169.157" y2="215.185" gradientUnits="userSpaceOnUse">
<stop stop-color="white"/>
<stop offset="1" stop-opacity="0"/>
</linearGradient>
<linearGradient id="paint3_linear_878_19217" x1="170.464" y1="65.2546" x2="170.464" y2="290.844" gradientUnits="userSpaceOnUse">
<stop stop-color="#D5FF40"/>
<stop offset="1" stop-opacity="0"/>
</linearGradient>
</defs>
</svg>
