<svg width="69" height="18" viewBox="0 0 69 18" fill="none" xmlns="http://www.w3.org/2000/svg">
<path d="M5.44496 1.78474C4.95181 2.50802 4.47429 3.09404 4.12251 3.74828C3.03102 5.77346 2.83294 7.89809 3.64663 10.0646C4.6288 12.6799 6.49207 14.3476 9.22409 14.9912C11.8468 15.6084 14.1646 14.9377 16.184 13.201C16.4626 12.9619 16.6204 12.9709 16.8547 13.2167C17.287 13.6712 17.7317 14.1142 18.1845 14.5473C18.4064 14.7594 18.3949 14.9024 18.1664 15.112C15.9498 17.1454 13.3287 18.0988 10.3394 17.9336C7.75123 17.7906 5.49509 16.7837 3.62772 14.9788C2.14007 13.5413 1.17515 11.7956 0.693511 9.7819C0.28338 8.07234 0.332694 6.36688 0.788853 4.68197C1.23022 3.05295 2.02747 1.60228 3.17403 0.352982C3.51923 -0.0234518 3.55704 -0.0234518 3.91703 0.320105C4.43812 0.81736 4.95675 1.31708 5.44496 1.78557V1.78474Z" fill="white"/>
<path d="M33.9598 4.7383C34.8343 4.7383 35.611 4.7235 36.3853 4.75473C36.4979 4.75967 36.6548 4.9709 36.7009 5.11555C37.2417 6.82841 37.7644 8.54619 38.2954 10.2623C38.3208 10.3437 38.3743 10.416 38.468 10.5944C38.6619 9.95412 38.8255 9.41742 38.9866 8.88071C39.3754 7.58949 39.7551 6.29499 40.1627 5.00953C40.2014 4.88871 40.4085 4.74816 40.5433 4.74241C41.1712 4.71446 41.8016 4.73994 42.4304 4.72597C42.746 4.71939 42.8002 4.92405 42.8718 5.15665C43.3887 6.84978 43.9131 8.54126 44.4367 10.2336C44.4687 10.3363 44.5106 10.4358 44.5846 10.6355C44.8994 9.60645 45.1871 8.66619 45.4739 7.72593C45.7361 6.86622 46.0057 6.00897 46.2555 5.14596C46.346 4.83364 46.5103 4.70706 46.8432 4.72186C47.4029 4.74652 47.9643 4.73172 48.5257 4.72843C48.8002 4.72679 48.9415 4.78761 48.8199 5.11309C48.1731 6.84731 47.5377 8.58565 46.9032 10.3248C46.5958 11.1689 46.2901 12.0138 46.0024 12.8653C45.8857 13.2113 45.741 13.4209 45.3128 13.3864C44.7416 13.3412 44.1646 13.3675 43.5901 13.379C43.3517 13.3839 43.2268 13.3141 43.1487 13.0675C42.7312 11.7574 42.2931 10.4538 41.86 9.14865C41.7318 8.76318 41.5962 8.38099 41.4392 7.92648C41.0578 9.10591 40.7011 10.2171 40.3403 11.3259C40.1463 11.9218 39.9614 12.5209 39.7378 13.1053C39.6918 13.2253 39.4962 13.3568 39.3638 13.3626C38.7359 13.3897 38.1055 13.3585 37.4768 13.3823C37.1858 13.393 37.0576 13.2639 36.9688 13.0207C36.6105 12.0352 36.2455 11.053 35.8847 10.0684C35.3044 8.48209 34.7258 6.89498 34.148 5.30788C34.0938 5.15829 34.0478 5.00542 33.959 4.7383H33.9598Z" fill="white"/>
<path d="M24.3742 9.96229C23.8975 10.5393 23.2088 10.8754 23.3394 11.7491C23.4011 12.1634 23.3394 12.594 23.3534 13.0173C23.3616 13.2754 23.2803 13.3864 23.0049 13.3806C22.3762 13.3658 21.7466 13.3675 21.1178 13.3806C20.8638 13.3855 20.7718 13.2754 20.7759 13.0428C20.7775 12.9606 20.7734 12.8792 20.7734 12.797C20.7734 9.23408 20.7734 5.67029 20.7734 2.10732C20.7734 1.46295 20.7759 1.46212 21.4055 1.4613C21.8978 1.4613 22.391 1.47774 22.8825 1.45637C23.2375 1.44075 23.36 1.56486 23.3575 1.9265C23.3427 3.71497 23.3509 5.50344 23.3509 7.29191C23.3509 7.44068 23.3509 7.58944 23.3509 7.8393C23.5153 7.68972 23.623 7.60095 23.72 7.5015C24.5082 6.68781 25.2824 5.86015 26.0912 5.06619C26.2638 4.89688 26.5539 4.7777 26.7972 4.76208C27.4506 4.72099 28.109 4.74647 28.7657 4.74975C28.898 4.74975 29.0295 4.77195 29.2588 4.79249C29.0106 5.0777 28.8281 5.30372 28.6284 5.51331C27.8854 6.29412 27.1416 7.07411 26.3854 7.84177C26.2013 8.02916 26.1734 8.15738 26.3254 8.39574C27.3249 9.95654 28.3029 11.5305 29.2859 13.1012C29.3196 13.1554 29.3303 13.2236 29.3657 13.3272C29.2391 13.3461 29.1396 13.374 29.0402 13.3749C28.2742 13.3781 27.5081 13.3683 26.7429 13.3822C26.4898 13.3872 26.3525 13.2918 26.2268 13.0765C25.6383 12.0647 25.0309 11.0636 24.3734 9.96393L24.3742 9.96229Z" fill="white"/>
<path d="M60.5977 13.925C60.9207 14.0606 61.164 14.1823 61.4204 14.2661C62.1289 14.4987 63.0264 13.9168 63.0157 13.1828C63.0108 12.8623 62.8168 12.5393 62.6845 12.2278C62.0229 10.6735 61.3522 9.12425 60.6856 7.57166C60.3634 6.82126 60.0421 6.07086 59.7265 5.31717C59.6607 5.15937 59.6221 4.99088 59.5391 4.72622C59.9319 4.72622 60.2525 4.72622 60.573 4.72622C60.9971 4.72622 61.4237 4.70156 61.8437 4.74184C61.9933 4.75581 62.2053 4.89718 62.2588 5.03115C62.7996 6.39716 63.3116 7.7755 63.836 9.14808C63.9848 9.53767 64.1459 9.92232 64.3974 10.3111C64.5511 9.88205 64.7089 9.45383 64.8576 9.02315C65.3113 7.71057 65.7691 6.3988 66.208 5.08129C66.2984 4.80923 66.4472 4.71965 66.7168 4.72376C67.408 4.73362 68.0984 4.72704 68.8973 4.72704C68.6524 5.37142 68.4535 5.91388 68.2414 6.45141C67.5831 8.12316 66.9255 9.79575 66.2557 11.4634C65.7938 12.6124 65.3557 13.7738 64.8239 14.8908C64.325 15.9403 63.4366 16.4992 62.2546 16.5707C61.367 16.6242 60.5369 16.4779 59.8185 15.9239C59.7199 15.8474 59.5974 15.642 59.6336 15.5754C59.9402 15.0075 60.2812 14.4568 60.5985 13.9242L60.5977 13.925Z" fill="white"/>
<path d="M59.6537 3.77224C59.1868 3.68347 58.78 3.55032 58.3698 3.54128C57.7559 3.52731 57.28 4.42401 57.6005 4.94674C57.6482 5.024 57.806 5.06345 57.9153 5.06756C58.3386 5.08236 58.7627 5.08236 59.186 5.07332C59.4671 5.06756 59.5772 5.18427 59.5657 5.46537C59.5501 5.84673 59.5526 6.22974 59.5641 6.6111C59.5715 6.86014 59.4605 6.95384 59.2222 6.95055C58.812 6.94562 58.4011 6.96863 57.9926 6.94562C57.6441 6.9259 57.5496 7.06891 57.552 7.39849C57.5635 9.20011 57.5578 11.0017 57.557 12.8025C57.557 13.3713 57.5545 13.3721 57.0055 13.3721C56.472 13.3721 55.9386 13.354 55.406 13.3787C55.0773 13.3943 54.9869 13.2792 54.9893 12.9595C55.0025 11.1308 54.9828 9.30203 55.0049 7.47329C55.0099 7.06562 54.9129 6.92014 54.488 6.94069C53.851 6.97274 53.8502 6.94562 53.8493 6.28974C53.8493 6.01687 53.8608 5.74317 53.8469 5.47112C53.8329 5.19414 53.943 5.084 54.2241 5.07003C54.9893 5.03304 54.9893 5.02318 54.9959 4.27853C55.0107 2.67746 56.1408 1.51857 57.8364 1.3698C58.6591 1.29747 59.4358 1.47007 60.1838 1.80788C60.4443 1.92541 60.5323 2.0602 60.3745 2.34212C60.109 2.81636 59.8821 3.31115 59.652 3.77059L59.6537 3.77224Z" fill="white"/>
<path d="M52.4049 9.08738C52.4049 10.3712 52.3958 11.6558 52.4115 12.9397C52.4156 13.2832 52.2972 13.3925 51.9602 13.3794C51.3726 13.3572 50.7833 13.3621 50.1956 13.3777C49.9071 13.3851 49.7707 13.3046 49.7715 12.9898C49.7789 10.3671 49.7772 7.74438 49.7731 5.12168C49.7731 4.84305 49.8898 4.72387 50.1652 4.72552C50.7808 4.73045 51.3964 4.73374 52.012 4.72469C52.3194 4.72059 52.4106 4.86442 52.4082 5.15291C52.3991 6.46385 52.4041 7.77561 52.4041 9.08738H52.4049Z" fill="white"/>
<path d="M33.051 9.04275C33.051 10.3397 33.0428 11.6359 33.0567 12.9328C33.06 13.2641 32.963 13.3956 32.6145 13.3816C32.0277 13.3569 31.4384 13.3652 30.8515 13.3791C30.5795 13.3857 30.4562 13.3076 30.457 13.0126C30.4644 10.3784 30.4636 7.74414 30.4587 5.10993C30.4587 4.85267 30.5548 4.72938 30.8154 4.7302C31.4441 4.73267 32.0729 4.73514 32.7025 4.72856C33.0082 4.72527 33.0559 4.90198 33.0543 5.15349C33.0493 6.45046 33.0518 7.7466 33.0518 9.04357L33.051 9.04275Z" fill="white"/>
<path d="M51.1018 3.77802C50.3046 3.77966 49.6865 3.15008 49.6914 2.34215C49.6964 1.54572 50.2964 0.939973 51.0829 0.937508C51.9032 0.935042 52.4941 1.5375 52.4843 2.36763C52.4752 3.18296 51.8933 3.7772 51.1026 3.77884L51.1018 3.77802Z" fill="white"/>
<path d="M31.7512 0.935568C32.5451 0.931458 33.1624 1.53556 33.1657 2.32048C33.169 3.14896 32.5739 3.77279 31.7767 3.77772C30.9663 3.78266 30.3778 3.17938 30.377 2.34514C30.377 1.5257 30.9482 0.939677 31.7512 0.935568Z" fill="white"/>
<path d="M6.63086 11.2147C6.6325 10.4388 7.7577 9.32268 8.52782 9.34405C8.86316 9.35309 9.06699 9.51747 9.05713 9.87747C9.04152 10.4438 8.6996 10.8457 8.31166 11.1868C8.0429 11.4227 7.70756 11.5994 7.37551 11.7416C6.98017 11.9109 6.63004 11.6405 6.63086 11.2155V11.2147Z" fill="white"/>
<path d="M14.0003 12.1424C13.9345 12.2673 13.8688 12.5903 13.7052 12.6511C13.4907 12.7301 13.1364 12.6865 12.9532 12.5484C12.3244 12.0725 11.9767 11.4068 11.9948 10.6087C11.9997 10.4024 12.1559 10.0975 12.3244 10.0243C12.4978 9.94872 12.82 10.035 12.991 10.1641C13.5992 10.6219 13.8959 11.2712 14.0003 12.1424Z" fill="white"/>
<path d="M11.1101 11.4109C11.0493 12.0709 10.9745 12.6224 10.5652 13.0564C10.2126 13.4295 9.76056 13.3679 9.6044 12.8838C9.34221 12.0693 9.40632 11.2646 9.94877 10.5676C10.3104 10.1033 10.7559 10.1937 10.963 10.7534C11.0501 10.9909 11.0764 11.2507 11.111 11.4109H11.1101Z" fill="white"/>
<path d="M6.17642 8.96008C6.02436 8.92228 5.76382 8.88858 5.52711 8.79324C5.0167 8.58776 4.94602 8.09873 5.38574 7.77489C6.08847 7.25791 6.88737 7.20696 7.69201 7.43791C8.18023 7.57764 8.23612 8.0979 7.84653 8.42995C7.3953 8.81543 6.84956 8.91077 6.17642 8.96008Z" fill="white"/>
<path d="M6.54793 4.45986C7.17258 4.49191 7.80463 4.83711 8.2764 5.45108C8.61667 5.89408 8.39558 6.35024 7.84079 6.41353C7.16025 6.49161 6.07205 5.93765 5.74082 5.34341C5.44658 4.81739 5.71205 4.4541 6.54793 4.45903V4.45986Z" fill="white"/>
</svg>
