<svg width="237" height="42" viewBox="0 0 237 42" fill="none" xmlns="http://www.w3.org/2000/svg">
<path fill-rule="evenodd" clip-rule="evenodd" d="M1.60283 9.81835C0.665692 12.9811 0.416234 16.2812 0.514946 18.6667C1.13288 17.3279 3.86208 15.3625 5.14945 14.5472C5.85241 14.02 6.7757 13.6298 7.88399 13.3434C11.2752 12.4668 16.3986 12.561 22.2419 12.6683C24.2811 12.7058 26.4079 12.7449 28.5794 12.7449C33.27 12.7449 36.281 10.0586 38.1021 6.95175C39.5199 4.53311 40.2165 1.85957 40.4231 0H33.3911H12.8736C7.0854 0 3.84552 3.7782 2.14609 8.21189C2.01678 8.54927 1.89638 8.89044 1.78446 9.23403C1.72124 9.42811 1.66072 9.62297 1.60283 9.81835ZM12.8736 41.0669C11.183 41.0669 9.50899 40.7339 7.94709 40.0869C6.38519 39.44 4.96602 38.4917 3.77059 37.2963C2.57517 36.1009 1.6269 34.6817 0.979944 33.1198C0.332985 31.5579 -1.47796e-07 29.8839 0 28.1933C1.47796e-07 26.5027 0.332986 24.8287 0.979945 23.2668C1.6269 21.7049 2.57517 20.2857 3.77059 19.0903C4.96602 17.8948 6.38519 16.9466 7.94709 16.2996C9.50899 15.6527 11.183 15.3197 12.8736 15.3197L12.8736 28.1933L12.8736 41.0669ZM21.7565 26.4191C19.393 27.6975 16.8589 28.2339 15.0622 28.3219V22.1426V21.6108V15.4483H21.499H21.7565H28.1933C28.1933 18.1917 27.505 20.3919 26.418 22.1426C25.2195 24.0726 23.5364 25.4563 21.7565 26.4191Z" fill="white"/>
<path d="M45.4238 28.6964V6.64867H60.091V9.27563H48.4573V17.5943L58.8088 16.9689V19.6271L48.4573 20.2526V28.6964H45.4238Z" fill="url(#paint0_linear_901_28690)"/>
<path d="M66.8226 10.808C66.1346 10.808 65.5613 10.5995 65.1026 10.1826C64.6648 9.74473 64.4458 9.20266 64.4458 8.55634C64.4458 7.91003 64.6648 7.37838 65.1026 6.9614C65.5613 6.54443 66.1346 6.33594 66.8226 6.33594C67.5315 6.33594 68.1153 6.54443 68.5739 6.9614C69.0326 7.37838 69.2619 7.91003 69.2619 8.55634C69.2619 9.20266 69.0326 9.74473 68.5739 10.1826C68.1153 10.5995 67.5315 10.808 66.8226 10.808ZM61.4123 28.6964V26.0694H65.7906V15.4678L62.4443 15.7492V13.1223L66.5099 12.8095C67.9693 12.6844 68.699 13.3516 68.699 14.811V26.0694H73.0773V28.6964H61.4123Z" fill="url(#paint1_linear_901_28690)"/>
<path d="M88.7704 13.1223H91.8352V32.7306C91.8352 34.0858 91.0846 34.753 89.5835 34.7321L77.5745 34.4507V31.8237L88.7704 32.1052V26.6949L89.3021 24.6934H88.4577C88.0824 25.9652 87.3631 27.0076 86.2998 27.8207C85.2365 28.613 83.8709 29.0091 82.203 29.0091C79.9305 29.0091 78.1062 28.2481 76.7302 26.7262C75.375 25.1833 74.6974 23.234 74.6974 20.878C74.6974 18.543 75.375 16.6144 76.7302 15.0925C78.1062 13.5705 79.9305 12.8095 82.203 12.8095C83.8709 12.8095 85.2365 13.2161 86.2998 14.0292C87.3631 14.8214 88.0824 15.843 88.4577 17.094H89.3021L88.7704 15.1237V13.1223ZM83.1412 26.3822C84.83 26.3822 86.1851 25.9339 87.2067 25.0374C88.2492 24.1409 88.7704 22.7544 88.7704 20.878C88.7704 19.0433 88.2492 17.6777 87.2067 16.7812C86.1643 15.8847 84.8091 15.4365 83.1412 15.4365C81.4941 15.4365 80.1807 15.8847 79.2008 16.7812C78.2209 17.6569 77.7309 19.0225 77.7309 20.878C77.7309 22.7544 78.2209 24.1409 79.2008 25.0374C80.1807 25.9339 81.4941 26.3822 83.1412 26.3822Z" fill="url(#paint2_linear_901_28690)"/>
<path d="M115.452 12.8095C117.078 12.8095 118.298 13.4037 119.111 14.5921C119.945 15.7596 120.362 17.3025 120.362 19.2206V28.6964H117.329V19.7835C117.329 18.2198 117.11 17.1044 116.672 16.4372C116.234 15.7701 115.442 15.4365 114.295 15.4365C112.815 15.4365 111.668 16.0411 110.855 17.2503C110.063 18.4387 109.667 20.0649 109.667 22.129V28.6964H106.633V19.7835C106.633 18.2198 106.414 17.1044 105.976 16.4372C105.539 15.7701 104.746 15.4365 103.6 15.4365C102.119 15.4365 100.973 16.0411 100.16 17.2503C99.3673 18.4387 98.9711 20.0649 98.9711 22.129V28.6964H95.9376V13.1223H98.9711V15.5303L98.4395 17.5318H99.2839C99.9927 14.3836 101.817 12.8095 104.757 12.8095C106.133 12.8095 107.206 13.2369 107.978 14.0917C108.749 14.9257 109.229 16.0724 109.416 17.5318H109.979C110.688 14.3836 112.513 12.8095 115.452 12.8095Z" fill="url(#paint3_linear_901_28690)"/>
<path d="M140.7 28.6964H137.635V26.6949L138.167 24.6934H137.322C136.947 25.9652 136.228 27.0076 135.164 27.8207C134.101 28.613 132.736 29.0091 131.068 29.0091C128.795 29.0091 126.971 28.2481 125.595 26.7262C124.24 25.1833 123.562 23.234 123.562 20.878C123.562 18.543 124.24 16.6144 125.595 15.0925C126.971 13.5705 128.795 12.8095 131.068 12.8095C132.736 12.8095 134.101 13.2161 135.164 14.0292C136.228 14.8214 136.947 15.843 137.322 17.094H138.167L137.635 15.1237V13.1223H140.7V28.6964ZM137.635 20.878C137.635 19.0433 137.114 17.6777 136.071 16.7812C135.029 15.8847 133.674 15.4365 132.006 15.4365C130.359 15.4365 129.045 15.8847 128.065 16.7812C127.085 17.6569 126.596 19.0225 126.596 20.878C126.596 22.7544 127.085 24.1409 128.065 25.0374C129.045 25.9339 130.359 26.3822 132.006 26.3822C133.695 26.3822 135.05 25.9339 136.071 25.0374C137.114 24.1409 137.635 22.7544 137.635 20.878Z" fill="url(#paint4_linear_901_28690)"/>
<path d="M149.495 10.808C148.807 10.808 148.234 10.5995 147.775 10.1826C147.338 9.74473 147.119 9.20266 147.119 8.55634C147.119 7.91003 147.338 7.37838 147.775 6.9614C148.234 6.54443 148.807 6.33594 149.495 6.33594C150.204 6.33594 150.788 6.54443 151.247 6.9614C151.705 7.37838 151.935 7.91003 151.935 8.55634C151.935 9.20266 151.705 9.74473 151.247 10.1826C150.788 10.5995 150.204 10.808 149.495 10.808ZM144.085 28.6964V26.0694H148.463V15.4678L145.117 15.7492V13.1223L149.183 12.8095C150.642 12.6844 151.372 13.3516 151.372 14.811V26.0694H155.75V28.6964H144.085Z" fill="url(#paint5_linear_901_28690)"/>
<path d="M171.183 24.5996C171.183 25.9339 170.682 27.0076 169.682 27.8207C168.681 28.613 167.055 29.0091 164.803 29.0091C159.924 29.0091 157.485 26.9972 157.485 22.9734H160.519C160.519 25.3918 161.968 26.6011 164.866 26.6011C165.991 26.6011 166.815 26.4551 167.336 26.1632C167.878 25.8505 168.149 25.3501 168.149 24.6621C168.149 24.4119 168.118 24.1826 168.055 23.9741C167.993 23.7656 167.868 23.578 167.68 23.4112C167.513 23.2444 167.357 23.1089 167.211 23.0046C167.086 22.9004 166.846 22.7857 166.492 22.6606C166.158 22.5147 165.908 22.4104 165.741 22.3479C165.574 22.2853 165.251 22.1811 164.772 22.0352C164.292 21.8892 163.948 21.785 163.74 21.7224C162.822 21.4305 162.103 21.1908 161.582 21.0031C161.061 20.7947 160.498 20.5028 159.893 20.1275C159.309 19.7522 158.882 19.304 158.611 18.7827C158.34 18.2615 158.204 17.6465 158.204 16.9376C158.204 15.6658 158.726 14.6651 159.768 13.9354C160.81 13.1848 162.249 12.8095 164.084 12.8095C166.377 12.8095 168.045 13.3203 169.087 14.3419C170.13 15.3427 170.651 16.5936 170.651 18.0947H167.618C167.618 16.1766 166.44 15.2176 164.084 15.2176C162.186 15.2176 161.238 15.7909 161.238 16.9376C161.238 17.5631 161.498 18.0426 162.02 18.3762C162.541 18.7098 163.5 19.1059 164.897 19.5646C165.043 19.6063 165.345 19.7001 165.804 19.846C166.262 19.992 166.575 20.0962 166.742 20.1588C166.909 20.2213 167.19 20.3256 167.586 20.4715C167.982 20.6174 168.264 20.7321 168.431 20.8155C168.618 20.8989 168.869 21.0344 169.181 21.2221C169.494 21.3888 169.723 21.5452 169.869 21.6912C170.015 21.8371 170.192 22.0247 170.401 22.2541C170.609 22.4626 170.755 22.6815 170.839 22.9108C170.922 23.1402 170.995 23.4008 171.058 23.6926C171.141 23.9637 171.183 24.266 171.183 24.5996Z" fill="url(#paint6_linear_901_28690)"/>
<path d="M183.406 9.51C184.594 9.51 185.637 9.57255 186.533 9.69764C187.45 9.80188 188.326 10.0208 189.16 10.3544C189.994 10.6671 190.672 11.1049 191.193 11.6679C191.735 12.2099 192.162 12.9292 192.475 13.8257C192.788 14.7222 192.944 15.7855 192.944 17.0156C192.944 18.5584 192.715 19.8406 192.256 20.8622C191.818 21.8838 191.141 22.6657 190.223 23.2077C189.327 23.7289 188.347 24.0938 187.284 24.3023C186.22 24.4899 184.928 24.5838 183.406 24.5838H180.216V31.5577H176.182V9.51H183.406ZM183.625 21.0811C185.48 21.0811 186.825 20.8205 187.659 20.2993C188.493 19.7781 188.91 18.6835 188.91 17.0156C188.91 15.3685 188.493 14.2948 187.659 13.7944C186.825 13.2732 185.48 13.0126 183.625 13.0126H180.216V21.0811H183.625Z" fill="#D5FF40"/>
<path d="M194.85 31.5577V9.51H202.919C204.316 9.51 205.546 9.60382 206.609 9.79146C207.672 9.9791 208.642 10.2918 209.518 10.7297C210.414 11.1675 211.092 11.8034 211.55 12.6373C212.009 13.4713 212.238 14.4825 212.238 15.6708C212.238 18.5897 210.57 20.268 207.235 20.7059V21.7692H210.237C211.759 21.7692 212.52 22.5197 212.52 24.0208V31.5577H208.486V23.3641H198.885V31.5577H194.85ZM198.885 19.8615H202.919C203.69 19.8615 204.295 19.8511 204.733 19.8302C205.191 19.7885 205.671 19.7155 206.171 19.6113C206.672 19.4862 207.047 19.309 207.297 19.0796C207.568 18.8295 207.787 18.4959 207.954 18.0789C208.121 17.6411 208.204 17.099 208.204 16.4527C208.204 15.8064 208.11 15.2643 207.923 14.8265C207.756 14.3886 207.547 14.0551 207.297 13.8257C207.068 13.5755 206.693 13.3879 206.171 13.2628C205.671 13.1377 205.202 13.0647 204.764 13.0439C204.326 13.023 203.711 13.0126 202.919 13.0126H198.885V19.8615Z" fill="#D5FF40"/>
<path d="M217.246 28.6806C215.286 26.5331 214.306 23.8123 214.306 20.5182C214.306 17.2241 215.286 14.5137 217.246 12.3871C219.226 10.2606 221.874 9.19727 225.189 9.19727C228.504 9.19727 231.141 10.271 233.101 12.4184C235.061 14.545 236.041 17.2449 236.041 20.5182C236.041 23.8123 235.061 26.5331 233.101 28.6806C231.141 30.8072 228.504 31.8704 225.189 31.8704C221.874 31.8704 219.226 30.8072 217.246 28.6806ZM220.091 14.8265C218.924 16.2233 218.34 18.1206 218.34 20.5182C218.34 22.9158 218.924 24.8235 220.091 26.2412C221.259 27.659 222.958 28.3678 225.189 28.3678C227.42 28.3678 229.109 27.659 230.255 26.2412C231.423 24.8235 232.007 22.9158 232.007 20.5182C232.007 18.1206 231.423 16.2233 230.255 14.8265C229.088 13.4087 227.399 12.6999 225.189 12.6999C222.958 12.6999 221.259 13.4087 220.091 14.8265Z" fill="#D5FF40"/>
<defs>
<linearGradient id="paint0_linear_901_28690" x1="156.078" y1="15.2221" x2="174.656" y2="23.8809" gradientUnits="userSpaceOnUse">
<stop stop-color="white"/>
<stop offset="1" stop-color="white" stop-opacity="0"/>
</linearGradient>
<linearGradient id="paint1_linear_901_28690" x1="156.078" y1="15.2221" x2="174.656" y2="23.8809" gradientUnits="userSpaceOnUse">
<stop stop-color="white"/>
<stop offset="1" stop-color="white" stop-opacity="0"/>
</linearGradient>
<linearGradient id="paint2_linear_901_28690" x1="156.078" y1="15.2221" x2="174.656" y2="23.8809" gradientUnits="userSpaceOnUse">
<stop stop-color="white"/>
<stop offset="1" stop-color="white" stop-opacity="0"/>
</linearGradient>
<linearGradient id="paint3_linear_901_28690" x1="156.078" y1="15.2221" x2="174.656" y2="23.8809" gradientUnits="userSpaceOnUse">
<stop stop-color="white"/>
<stop offset="1" stop-color="white" stop-opacity="0"/>
</linearGradient>
<linearGradient id="paint4_linear_901_28690" x1="156.078" y1="15.2221" x2="174.656" y2="23.8809" gradientUnits="userSpaceOnUse">
<stop stop-color="white"/>
<stop offset="1" stop-color="white" stop-opacity="0"/>
</linearGradient>
<linearGradient id="paint5_linear_901_28690" x1="156.078" y1="15.2221" x2="174.656" y2="23.8809" gradientUnits="userSpaceOnUse">
<stop stop-color="white"/>
<stop offset="1" stop-color="white" stop-opacity="0"/>
</linearGradient>
<linearGradient id="paint6_linear_901_28690" x1="156.078" y1="15.2221" x2="174.656" y2="23.8809" gradientUnits="userSpaceOnUse">
<stop stop-color="white"/>
<stop offset="1" stop-color="white" stop-opacity="0"/>
</linearGradient>
</defs>
</svg>
