<svg width="185" height="62" viewBox="0 0 185 62" fill="none" xmlns="http://www.w3.org/2000/svg">
<g opacity="0.9">
<path d="M85.5547 6.82356H99.2018L92.3787 0L85.5547 6.82356Z" fill="#151515"/>
<path opacity="0.95" d="M183.05 5.54492H1.70589C0.763754 5.54492 0 6.30868 0 7.25081V60.1342C0 61.0763 0.763754 61.8401 1.70589 61.8401H183.05C183.992 61.8401 184.756 61.0763 184.756 60.1342V7.25081C184.756 6.30868 183.992 5.54492 183.05 5.54492Z" fill="#151515"/>
<path d="M36.2019 17.2628L41.8876 18.8834L41.8978 18.8868L41.9072 18.8894C43.561 19.3176 44.7791 20.8196 44.7791 22.6048C44.7816 23.0338 44.7253 23.3827 44.5991 23.7708L44.4413 24.2655L44.808 24.6322L46.3988 26.2238L44.5905 28.0329L43.0143 26.4576L42.6433 26.0865L42.1443 26.2511C41.7442 26.385 41.3843 26.4456 40.9408 26.443C39.089 26.443 37.5418 25.1303 37.1819 23.3844L37.175 23.3528L37.1665 23.3213L35.6039 17.8709L39.7859 22.0529C39.7057 22.2209 39.6613 22.4069 39.6613 22.6048C39.6613 23.311 40.2345 23.8842 40.9408 23.8842C41.647 23.8842 42.2202 23.311 42.2202 22.6048C42.2202 21.8986 41.647 21.3254 40.9408 21.3254C40.7429 21.3254 40.557 21.3697 40.3889 21.4499L36.2009 17.262L36.2019 17.2628ZM44.5897 29.239L47.6057 26.2238L45.4119 24.0301C45.5543 23.5806 45.6319 23.1012 45.6319 22.6048C45.6319 20.4212 44.141 18.5874 42.1221 18.0637L34.1172 15.7812L36.346 23.5566C36.787 25.6908 38.6763 27.296 40.9408 27.296C41.4543 27.296 41.949 27.2132 42.4113 27.0606L44.5897 29.239Z" fill="white"/>
<path d="M58.1174 23.0851H56.1733V22.3005H58.1174C58.4939 22.3005 58.7988 22.2405 59.032 22.1206C59.2652 22.0006 59.4351 21.834 59.5417 21.6208C59.6517 21.4076 59.7067 21.1643 59.7067 20.8911C59.7067 20.6413 59.6517 20.4064 59.5417 20.1864C59.4351 19.9665 59.2652 19.7899 59.032 19.6567C58.7988 19.5201 58.4939 19.4518 58.1174 19.4518H56.3982V25.9388H55.4336V18.6621H58.1174C58.6671 18.6621 59.1319 18.7571 59.5118 18.947C59.8916 19.137 60.1798 19.4001 60.3763 19.7367C60.5729 20.0698 60.6712 20.4513 60.6712 20.8811C60.6712 21.3476 60.5729 21.7457 60.3763 22.0756C60.1798 22.4055 59.8916 22.657 59.5118 22.8303C59.1319 23.0002 58.6671 23.0851 58.1174 23.0851ZM64.1294 26.0388C63.753 26.0388 63.4114 25.9754 63.1049 25.8489C62.8017 25.7189 62.5402 25.5373 62.3202 25.3042C62.1037 25.0709 61.9371 24.7944 61.8205 24.4745C61.7039 24.1546 61.6456 23.8048 61.6456 23.425V23.2151C61.6456 22.7752 61.7105 22.3837 61.8405 22.0406C61.9705 21.6941 62.1471 21.4009 62.3703 21.161C62.5935 20.9211 62.8467 20.7395 63.1299 20.6163C63.4131 20.4929 63.7063 20.4314 64.0095 20.4314C64.396 20.4314 64.7292 20.4979 65.009 20.6313C65.2922 20.7645 65.5238 20.9511 65.7037 21.191C65.8836 21.4276 66.0169 21.7075 66.1035 22.0306C66.1902 22.3505 66.2335 22.7003 66.2335 23.0801V23.495H62.1953V22.7403H65.3089V22.6703C65.2956 22.4304 65.2456 22.1972 65.159 21.9706C65.0757 21.7441 64.9425 21.5575 64.7592 21.4109C64.5759 21.2643 64.326 21.191 64.0095 21.191C63.7996 21.191 63.6063 21.236 63.4298 21.326C63.2532 21.4126 63.1016 21.5425 62.975 21.7158C62.8484 21.889 62.7501 22.1006 62.6801 22.3505C62.6101 22.6004 62.5752 22.8885 62.5752 23.2151V23.425C62.5752 23.6815 62.6101 23.9231 62.6801 24.1496C62.7535 24.3728 62.8584 24.5694 62.995 24.7394C63.1349 24.9093 63.3031 25.0426 63.4997 25.1392C63.6996 25.2358 63.9262 25.2841 64.1794 25.2841C64.5059 25.2841 64.7825 25.2175 65.009 25.0842C65.2357 24.9509 65.4339 24.7727 65.6038 24.5495L66.1635 24.9943C66.0469 25.1708 65.8986 25.3391 65.7187 25.4991C65.5389 25.6589 65.3172 25.7889 65.0541 25.8889C64.7941 25.9888 64.486 26.0388 64.1294 26.0388ZM68.4423 21.6857V25.9388H67.5177V20.5313H68.3924L68.4423 21.6857ZM68.2224 23.0302L67.8376 23.0152C67.8409 22.6453 67.8959 22.3039 68.0025 21.9906C68.1091 21.6741 68.259 21.3992 68.4523 21.166C68.6455 20.9328 68.8754 20.7529 69.142 20.6263C69.4119 20.4963 69.7101 20.4314 70.0366 20.4314C70.3031 20.4314 70.543 20.468 70.7562 20.5413C70.9694 20.6113 71.151 20.7246 71.301 20.8811C71.4542 21.0377 71.5709 21.241 71.6508 21.4908C71.7308 21.7374 71.7707 22.039 71.7707 22.3954V25.9388H70.8412V22.3854C70.8412 22.1023 70.7996 21.8757 70.7163 21.7058C70.6329 21.5325 70.5114 21.4076 70.3514 21.331C70.1915 21.251 69.9949 21.211 69.7617 21.211C69.5318 21.211 69.3219 21.2593 69.132 21.3559C68.9454 21.4525 68.7838 21.5858 68.6472 21.7557C68.5139 21.9257 68.409 22.1206 68.3323 22.3405C68.259 22.557 68.2224 22.7869 68.2224 23.0302Z" fill="white"/>
<path d="M167.852 22.718H165.908V21.9333H167.852C168.229 21.9333 168.533 21.8733 168.767 21.7534C169 21.6334 169.17 21.4668 169.276 21.2536C169.387 21.0404 169.442 20.7971 169.442 20.524C169.442 20.274 169.387 20.0392 169.276 19.8192C169.17 19.5993 169 19.4228 168.767 19.2895C168.533 19.1529 168.229 19.0846 167.852 19.0846H166.133V25.5716H165.168V18.2949H167.852C168.402 18.2949 168.867 18.3899 169.247 18.5798C169.627 18.7697 169.915 19.033 170.111 19.3694C170.308 19.7026 170.406 20.0841 170.406 20.5139C170.406 20.9804 170.308 21.3785 170.111 21.7083C169.915 22.0383 169.627 22.2897 169.247 22.463C168.867 22.633 168.402 22.718 167.852 22.718Z" fill="white"/>
<path fill-rule="evenodd" clip-rule="evenodd" d="M39.1757 50.3814L47.9188 41.6382C48.5507 41.0063 48.5507 39.9833 47.9188 39.3522L46.777 38.2096C46.1459 37.5786 45.1222 37.5786 44.4911 38.2096L35.7479 46.9527L34.8906 51.2386L39.1757 50.3821V50.3814ZM43.1529 40.6919L36.4921 47.3503L35.9208 50.2076L38.7773 49.6363L45.4381 42.9755L43.1522 40.6903L43.1529 40.6919ZM43.7242 40.1206L46.0094 42.405L47.3483 41.0661C47.6635 40.7509 47.6635 40.2394 47.3483 39.9235L46.2057 38.7809C45.8907 38.4658 45.3783 38.4658 45.0624 38.7809L43.7235 40.1199L43.7242 40.1206Z" fill="white"/>
<path d="M58.1174 45.2623H56.1733V44.4776H58.1174C58.4939 44.4776 58.7988 44.4176 59.032 44.2977C59.2652 44.1778 59.4351 44.0112 59.5417 43.7979C59.6517 43.5847 59.7067 43.3415 59.7067 43.0683C59.7067 42.8184 59.6517 42.5835 59.5417 42.3636C59.4351 42.1437 59.2652 41.9671 59.032 41.8338C58.7988 41.6972 58.4939 41.6289 58.1174 41.6289H56.3982V48.116H55.4336V40.8393H58.1174C58.6671 40.8393 59.1319 40.9342 59.5118 41.1241C59.8916 41.3141 60.1798 41.5773 60.3763 41.9138C60.5729 42.247 60.6712 42.6284 60.6712 43.0583C60.6712 43.5247 60.5729 43.9228 60.3763 44.2528C60.1798 44.5826 59.8916 44.8342 59.5118 45.0074C59.1319 45.1773 58.6671 45.2623 58.1174 45.2623ZM64.1294 48.2159C63.753 48.2159 63.4114 48.1526 63.1049 48.0261C62.8017 47.8961 62.5402 47.7145 62.3202 47.4813C62.1037 47.2481 61.9371 46.9715 61.8205 46.6517C61.7039 46.3318 61.6456 45.9819 61.6456 45.6021V45.3922C61.6456 44.9524 61.7105 44.561 61.8405 44.2177C61.9705 43.8713 62.1471 43.5781 62.3703 43.3382C62.5935 43.0983 62.8467 42.9167 63.1299 42.7934C63.4131 42.6701 63.7063 42.6085 64.0095 42.6085C64.396 42.6085 64.7292 42.6751 65.009 42.8084C65.2922 42.9417 65.5238 43.1282 65.7037 43.3682C65.8836 43.6047 66.0169 43.8846 66.1035 44.2077C66.1902 44.5276 66.2335 44.8775 66.2335 45.2573V45.6721H62.1953V44.9174H65.3089V44.8475C65.2956 44.6075 65.2456 44.3744 65.159 44.1478C65.0757 43.9212 64.9425 43.7347 64.7592 43.588C64.5759 43.4415 64.326 43.3682 64.0095 43.3682C63.7996 43.3682 63.6063 43.4131 63.4298 43.5031C63.2532 43.5897 63.1016 43.7196 62.975 43.8929C62.8484 44.0662 62.7501 44.2777 62.6801 44.5276C62.6101 44.7775 62.5752 45.0657 62.5752 45.3922V45.6021C62.5752 45.8587 62.6101 46.1002 62.6801 46.3268C62.7535 46.55 62.8584 46.7466 62.995 46.9165C63.1349 47.0864 63.3031 47.2197 63.4997 47.3163C63.6996 47.4129 63.9262 47.4613 64.1794 47.4613C64.5059 47.4613 64.7825 47.3946 65.009 47.2614C65.2357 47.1281 65.4339 46.9499 65.6038 46.7266L66.1635 47.1714C66.0469 47.348 65.8986 47.5162 65.7187 47.6762C65.5389 47.8361 65.3172 47.966 65.0541 48.066C64.7941 48.166 64.486 48.2159 64.1294 48.2159ZM68.4423 43.8629V48.116H67.5177V42.7084H68.3924L68.4423 43.8629ZM68.2224 45.2073L67.8376 45.1923C67.8409 44.8225 67.8959 44.481 68.0025 44.1678C68.1091 43.8513 68.259 43.5764 68.4523 43.3432C68.6455 43.1099 68.8754 42.93 69.142 42.8034C69.4119 42.6735 69.7101 42.6085 70.0366 42.6085C70.3031 42.6085 70.543 42.6452 70.7562 42.7184C70.9694 42.7884 71.151 42.9017 71.301 43.0583C71.4542 43.2148 71.5709 43.4181 71.6508 43.668C71.7308 43.9145 71.7707 44.2161 71.7707 44.5726V48.116H70.8412V44.5626C70.8412 44.2794 70.7996 44.0529 70.7163 43.8829C70.6329 43.7096 70.5114 43.5847 70.3514 43.5081C70.1915 43.4281 69.9949 43.3881 69.7617 43.3881C69.5318 43.3881 69.3219 43.4365 69.132 43.5331C68.9454 43.6297 68.7838 43.763 68.6472 43.9329C68.5139 44.1028 68.409 44.2977 68.3323 44.5176C68.259 44.7342 68.2224 44.9641 68.2224 45.2073ZM75.5439 47.4563C75.7638 47.4563 75.967 47.4113 76.1536 47.3214C76.3402 47.2314 76.4934 47.1081 76.6133 46.9515C76.7333 46.7916 76.8016 46.61 76.8183 46.4067H77.6978C77.6812 46.7266 77.5729 47.0248 77.373 47.3013C77.1764 47.5746 76.9182 47.7961 76.5983 47.966C76.2785 48.1327 75.9271 48.2159 75.5439 48.2159C75.1374 48.2159 74.7825 48.1443 74.4793 48.001C74.1795 47.8578 73.9296 47.6612 73.7297 47.4113C73.5331 47.1614 73.3848 46.8749 73.2849 46.5517C73.1882 46.2252 73.14 45.8803 73.14 45.5171V45.3072C73.14 44.9441 73.1882 44.6009 73.2849 44.2777C73.3848 43.9512 73.5331 43.663 73.7297 43.4131C73.9296 43.1633 74.1795 42.9667 74.4793 42.8234C74.7825 42.6801 75.1374 42.6085 75.5439 42.6085C75.967 42.6085 76.3369 42.6951 76.6534 42.8684C76.9699 43.0383 77.2181 43.2715 77.398 43.5681C77.5812 43.8613 77.6812 44.1944 77.6978 44.5676H76.8183C76.8016 44.3444 76.7383 44.1428 76.6284 43.9629C76.5217 43.783 76.3751 43.6397 76.1885 43.5331C76.0053 43.4231 75.7904 43.3682 75.5439 43.3682C75.2607 43.3682 75.0224 43.4247 74.8292 43.5381C74.6393 43.648 74.4877 43.7979 74.3744 43.9879C74.2644 44.1744 74.1845 44.3827 74.1345 44.6125C74.0878 44.8392 74.0645 45.0707 74.0645 45.3072V45.5171C74.0645 45.7537 74.0878 45.9869 74.1345 46.2168C74.1811 46.4468 74.2595 46.655 74.3694 46.8416C74.4827 47.0282 74.6343 47.1781 74.8242 47.2913C75.0174 47.4013 75.2573 47.4563 75.5439 47.4563ZM79.9464 42.7084V48.116H79.0168V42.7084H79.9464ZM78.9473 41.2741C78.9473 41.1241 78.9922 40.9976 79.0821 40.8943C79.1754 40.791 79.312 40.7393 79.4918 40.7393C79.6682 40.7393 79.803 40.791 79.8963 40.8943C79.993 40.9976 80.0414 41.1241 80.0414 41.2741C80.0414 41.4173 79.993 41.5406 79.8963 41.6439C79.803 41.7439 79.6682 41.7939 79.4918 41.7939C79.312 41.7939 79.1754 41.7439 79.0821 41.6439C78.9922 41.5406 78.9473 41.4173 78.9473 41.2741ZM82.64 40.4395V48.116H81.7105V40.4395H82.64Z" fill="white"/>
<path d="M157.193 47.6834V43.0933H155.6L158.516 40.125L161.433 43.0933H159.839V47.6834H157.193ZM157.506 47.3654H159.527V42.7752H160.673L158.516 40.5808L156.36 42.7752H157.506V47.3654Z" fill="white"/>
<path d="M157.087 47.6832V47.7899H157.193H159.839H159.946V47.6832V43.1997H161.433H161.687L161.509 43.0183L158.592 40.0501L158.516 39.9727L158.44 40.0501L155.524 43.0183L155.346 43.1997H155.599H157.087V47.6832ZM159.527 42.6684H159.42V42.775V47.2586H157.613V42.775V42.6684H157.506H156.614L158.516 40.7327L160.418 42.6684H159.527Z" stroke="white" stroke-width="0.213236"/>
<path d="M167.852 44.8957H165.908V44.111H167.852C168.229 44.111 168.533 44.051 168.767 43.9311C169 43.8111 169.169 43.6445 169.276 43.4313C169.387 43.2181 169.442 42.9749 169.442 42.7017C169.442 42.4517 169.387 42.2169 169.276 41.997C169.169 41.7771 169 41.6005 168.767 41.4672C168.533 41.3306 168.229 41.2623 167.852 41.2623H166.133V47.7494H165.168V40.4727H167.852C168.402 40.4727 168.867 40.5676 169.247 40.7575C169.627 40.9474 169.914 41.2107 170.111 41.5471C170.308 41.8804 170.406 42.2618 170.406 42.6917C170.406 43.1581 170.308 43.5563 170.111 43.8861C169.914 44.216 169.627 44.4676 169.247 44.6407C168.867 44.8107 168.402 44.8957 167.852 44.8957Z" fill="white"/>
</g>
</svg>
