<svg width="168" height="157" viewBox="0 0 168 157" fill="none" xmlns="http://www.w3.org/2000/svg">
<path opacity="0.95" d="M77.6777 6.19541H90.0687L83.8732 0L77.6777 6.19541Z" fill="#151515"/>
<path opacity="0.95" d="M166.199 5.0332H1.54885C0.693444 5.0332 0 5.72665 0 6.58205V155.272C0 156.128 0.693444 156.821 1.54885 156.821H166.199C167.054 156.821 167.748 156.128 167.748 155.272V6.58205C167.748 5.72665 167.054 5.0332 166.199 5.0332Z" fill="#151515"/>
<path d="M11.1614 23.1667L8.51758 20.5228L9.61261 19.4278L11.1614 20.9766L14.2591 17.8789L15.3542 18.9739L11.1614 23.1667Z" fill="white"/>
<path d="M42.5949 15.1025V25.9445H31.7529V15.1025H42.5949ZM42.5949 26.7189H43.3693V14.3281H30.9785V26.7189H42.5949Z" fill="white"/>
<path d="M50.3301 17.1013H52.5172C53.0134 17.1013 53.4323 17.177 53.7742 17.3282C54.119 17.4794 54.3807 17.7033 54.5592 17.9998C54.7407 18.2932 54.8315 18.6547 54.8315 19.0843C54.8315 19.3868 54.7694 19.6636 54.6454 19.9146C54.5244 20.1627 54.3489 20.3745 54.119 20.5499C53.8921 20.7224 53.6199 20.8509 53.3022 20.9356L53.0572 21.0309H51.0017L50.9926 20.3185H52.5445C52.8591 20.3185 53.1207 20.264 53.3294 20.1552C53.5382 20.0432 53.6955 19.8935 53.8014 19.7059C53.9072 19.5184 53.9602 19.3111 53.9602 19.0843C53.9602 18.8302 53.9103 18.6079 53.8105 18.4172C53.7106 18.2266 53.5533 18.08 53.3385 17.9771C53.1268 17.8712 52.853 17.8183 52.5172 17.8183H51.2059V23.7081H50.3301V17.1013ZM54.1916 23.7081L52.5853 20.7133L53.4973 20.7088L55.1264 23.6537V23.7081H54.1916ZM58.1531 23.7989C57.8112 23.7989 57.5011 23.7414 57.2228 23.6265C56.947 23.5085 56.7099 23.3436 56.5103 23.1319C56.3138 22.9201 56.1623 22.669 56.0564 22.3786C55.9505 22.0882 55.8976 21.7706 55.8976 21.4257V21.2351C55.8976 20.8358 55.9566 20.4804 56.0745 20.1688C56.1925 19.8542 56.3531 19.588 56.5558 19.3702C56.758 19.1523 56.9882 18.9874 57.2453 18.8755C57.5023 18.7636 57.7687 18.7077 58.0439 18.7077C58.3945 18.7077 58.6971 18.7681 58.9517 18.8892C59.2087 19.0102 59.419 19.1795 59.5825 19.3974C59.7453 19.6122 59.8663 19.8662 59.945 20.1597C60.0236 20.4501 60.0629 20.7677 60.0629 21.1126V21.4892H56.3967V20.804H59.2237V20.7405C59.2119 20.5227 59.1663 20.311 59.0877 20.1053C59.0122 19.8995 58.8912 19.7302 58.7246 19.597C58.558 19.4639 58.3315 19.3974 58.0439 19.3974C57.8536 19.3974 57.6776 19.4382 57.5173 19.5199C57.3569 19.5985 57.2197 19.7165 57.1049 19.8738C56.9895 20.0311 56.9002 20.2232 56.8366 20.4501C56.7736 20.677 56.7418 20.9387 56.7418 21.2351V21.4257C56.7418 21.6586 56.7736 21.8779 56.8366 22.0836C56.9034 22.2863 56.9988 22.4648 57.123 22.6191C57.2496 22.7734 57.4025 22.8944 57.5809 22.9821C57.7625 23.0699 57.9684 23.1137 58.198 23.1137C58.4943 23.1137 58.7458 23.0532 58.9517 22.9322C59.157 22.8112 59.3373 22.6493 59.4914 22.4467L59.9999 22.8505C59.8938 23.0108 59.759 23.1636 59.5956 23.3088C59.4327 23.454 59.2312 23.572 58.9922 23.6628C58.7564 23.7535 58.4763 23.7989 58.1531 23.7989ZM63.1937 23.1092C63.3933 23.1092 63.578 23.0683 63.7477 22.9866C63.9168 22.905 64.056 22.793 64.1651 22.6508C64.2737 22.5057 64.3361 22.3408 64.3511 22.1563H65.1497C65.1347 22.4467 65.0361 22.7174 64.8546 22.9685C64.6761 23.2165 64.4415 23.4177 64.1514 23.572C63.8607 23.7232 63.5418 23.7989 63.1937 23.7989C62.825 23.7989 62.5024 23.7338 62.2272 23.6037C61.9552 23.4737 61.7281 23.2952 61.5466 23.0683C61.3681 22.8414 61.234 22.5813 61.1429 22.2878C61.0549 21.9914 61.0112 21.6783 61.0112 21.3485V21.158C61.0112 20.8282 61.0549 20.5167 61.1429 20.2232C61.234 19.9267 61.3681 19.6651 61.5466 19.4382C61.7281 19.2113 61.9552 19.0329 62.2272 18.9028C62.5024 18.7727 62.825 18.7077 63.1937 18.7077C63.578 18.7077 63.9137 18.7863 64.2013 18.9436C64.489 19.0979 64.7142 19.3096 64.8777 19.5789C65.0436 19.8451 65.1347 20.1476 65.1497 20.4864H64.3511C64.3361 20.2837 64.2787 20.1007 64.1789 19.9374C64.0815 19.774 63.9486 19.6439 63.7796 19.5471C63.613 19.4473 63.4177 19.3974 63.1937 19.3974C62.9366 19.3974 62.7208 19.4488 62.5448 19.5517C62.3726 19.6515 62.2347 19.7876 62.1324 19.9601C62.0326 20.1295 61.9596 20.3185 61.914 20.5273C61.8722 20.733 61.851 20.9432 61.851 21.158V21.3485C61.851 21.5633 61.8722 21.7751 61.914 21.9838C61.9565 22.1926 62.0276 22.3816 62.1274 22.551C62.2304 22.7205 62.3683 22.8565 62.5405 22.9594C62.7158 23.0593 62.9335 23.1092 63.1937 23.1092ZM68.3348 18.7984V19.4427H65.6806V18.7984H68.3348ZM66.5791 17.605H67.4182V22.492C67.4182 22.6584 67.4438 22.784 67.4956 22.8686C67.5468 22.9534 67.6135 23.0093 67.6953 23.0365C67.777 23.0638 67.8643 23.0774 67.9586 23.0774C68.0278 23.0774 68.1002 23.0714 68.1763 23.0593C68.2549 23.0441 68.3136 23.032 68.3529 23.0229L68.3579 23.7081C68.2911 23.7293 68.2031 23.749 68.0946 23.7671C67.9885 23.7883 67.86 23.7989 67.709 23.7989C67.5031 23.7989 67.314 23.758 67.1412 23.6764C66.969 23.5947 66.8311 23.4586 66.7288 23.268C66.629 23.0744 66.5791 22.8142 66.5791 22.4875V17.605ZM72.4002 22.8686V20.3412C72.4002 20.1476 72.3609 19.9797 72.2823 19.8375C72.2068 19.6923 72.092 19.5804 71.9379 19.5017C71.7832 19.4231 71.5929 19.3838 71.3658 19.3838C71.1543 19.3838 70.9683 19.4201 70.808 19.4927C70.6501 19.5653 70.5266 19.6605 70.4355 19.7785C70.3482 19.8965 70.3039 20.0236 70.3039 20.1597H69.4647C69.4647 19.9842 69.5102 19.8103 69.6007 19.6379C69.6912 19.4654 69.8216 19.3096 69.9907 19.1705C70.1635 19.0283 70.3694 18.9164 70.6083 18.8347C70.8498 18.75 71.1193 18.7077 71.4157 18.7077C71.7726 18.7077 72.0876 18.7681 72.3597 18.8892C72.6348 19.0102 72.8494 19.1931 73.0042 19.4382C73.1614 19.6802 73.24 19.9842 73.24 20.3503V22.6372C73.24 22.8006 73.2537 22.9745 73.2806 23.1591C73.3111 23.3436 73.3548 23.5024 73.4122 23.6355V23.7081H72.5369C72.4944 23.6113 72.4607 23.4828 72.437 23.3224C72.4127 23.1591 72.4002 23.0078 72.4002 22.8686ZM72.5456 20.7314L72.555 21.3213H71.7064C71.4675 21.3213 71.2541 21.341 71.0663 21.3803C70.8791 21.4166 70.7213 21.4726 70.5946 21.5482C70.4673 21.6239 70.3706 21.7191 70.3039 21.8341C70.2377 21.946 70.204 22.0776 70.204 22.2289C70.204 22.3831 70.239 22.5238 70.3089 22.6508C70.3781 22.7779 70.4823 22.8793 70.6214 22.9549C70.7637 23.0275 70.9378 23.0638 71.1437 23.0638C71.4007 23.0638 71.6278 23.0093 71.8243 22.9004C72.0209 22.7915 72.1769 22.6584 72.2917 22.5011C72.4096 22.3438 72.4732 22.1911 72.482 22.0428L72.8407 22.4467C72.8195 22.5737 72.7621 22.7144 72.6679 22.8686C72.5743 23.0229 72.4489 23.1712 72.2917 23.3134C72.1376 23.4525 71.9529 23.569 71.7383 23.6628C71.5261 23.7535 71.2872 23.7989 71.0207 23.7989C70.6882 23.7989 70.3962 23.7338 70.1454 23.6037C69.8971 23.4737 69.7037 23.2997 69.5645 23.082C69.4285 22.8611 69.3605 22.6146 69.3605 22.3423C69.3605 22.0791 69.4117 21.8477 69.5146 21.648C69.6176 21.4454 69.7654 21.2775 69.9595 21.1444C70.1529 21.0082 70.3856 20.9054 70.6582 20.8358C70.9303 20.7662 71.2341 20.7314 71.5698 20.7314H72.5456ZM75.5859 19.8466V23.7081H74.7462V18.7984H75.5404L75.5859 19.8466ZM75.3863 21.0672L75.0369 21.0536C75.0394 20.7178 75.0893 20.4077 75.1866 20.1234C75.2833 19.836 75.4194 19.5865 75.5947 19.3747C75.77 19.163 75.979 18.9995 76.2211 18.8846C76.4663 18.7666 76.7365 18.7077 77.0334 18.7077C77.2749 18.7077 77.4933 18.7409 77.6867 18.8075C77.8801 18.871 78.0448 18.9738 78.1814 19.116C78.3206 19.2582 78.426 19.4427 78.499 19.6696C78.5714 19.8935 78.6076 20.1673 78.6076 20.491V23.7081H77.764V20.4818C77.764 20.2247 77.726 20.019 77.6505 19.8647C77.575 19.7074 77.4646 19.594 77.3192 19.5244C77.1738 19.4518 76.9954 19.4155 76.7839 19.4155C76.5749 19.4155 76.3846 19.4594 76.2117 19.5471C76.0427 19.6348 75.896 19.7559 75.7719 19.9101C75.6508 20.0644 75.5554 20.2414 75.4861 20.441C75.4194 20.6376 75.3863 20.8464 75.3863 21.0672ZM83.2495 18.7984H84.012V23.6037C84.012 24.0364 83.924 24.4054 83.7487 24.7109C83.5733 25.0165 83.3281 25.2479 83.0137 25.4052C82.7017 25.5655 82.3424 25.6457 81.9337 25.6457C81.764 25.6457 81.5643 25.6185 81.3347 25.564C81.1076 25.5126 80.8843 25.4233 80.6634 25.2963C80.445 25.1723 80.2622 25.0044 80.1143 24.7926L80.5542 24.2935C80.7601 24.5416 80.9747 24.7139 81.1987 24.8108C81.4252 24.9075 81.6492 24.956 81.87 24.956C82.1365 24.956 82.3661 24.906 82.5601 24.8062C82.7535 24.7064 82.9033 24.5582 83.0093 24.3616C83.1179 24.168 83.1722 23.9289 83.1722 23.6446V19.8783L83.2495 18.7984ZM79.8691 21.3077V21.2124C79.8691 20.8373 79.9128 20.497 80.0008 20.1915C80.0913 19.8829 80.2198 19.6182 80.3864 19.3974C80.5554 19.1765 80.7601 19.0072 80.9991 18.8892C81.238 18.7681 81.5069 18.7077 81.8064 18.7077C82.1152 18.7077 82.3842 18.7621 82.6144 18.871C82.8471 18.9769 83.0436 19.1327 83.204 19.3384C83.3674 19.541 83.496 19.7861 83.5902 20.0735C83.6838 20.3609 83.7487 20.6861 83.7848 21.0491V21.4665C83.7518 21.8265 83.6869 22.1502 83.5902 22.4376C83.496 22.725 83.3674 22.97 83.204 23.1727C83.0436 23.3754 82.8471 23.5312 82.6144 23.6401C82.3817 23.7459 82.109 23.7989 81.7977 23.7989C81.5038 23.7989 81.238 23.7369 80.9991 23.6129C80.7632 23.4888 80.5604 23.3149 80.3907 23.091C80.2217 22.8671 80.0913 22.604 80.0008 22.3014C79.9128 21.9959 79.8691 21.6647 79.8691 21.3077ZM80.7083 21.2124V21.3077C80.7083 21.5527 80.7326 21.7827 80.7813 21.9974C80.8325 22.2122 80.9098 22.4013 81.0128 22.5647C81.1182 22.728 81.253 22.8565 81.4165 22.9503C81.5799 23.0411 81.7746 23.0865 82.0017 23.0865C82.28 23.0865 82.5102 23.0275 82.6917 22.9095C82.8727 22.7915 83.0168 22.6357 83.1223 22.4421C83.2314 22.2485 83.3163 22.0383 83.3768 21.8114V20.7178C83.3431 20.5514 83.2919 20.3911 83.2221 20.2368C83.1559 20.0795 83.068 19.9404 82.9594 19.8194C82.8533 19.6953 82.7217 19.597 82.5645 19.5244C82.4072 19.4518 82.2226 19.4155 82.0111 19.4155C81.7808 19.4155 81.583 19.4639 81.4165 19.5607C81.253 19.6545 81.1182 19.7846 81.0128 19.951C80.9098 20.1143 80.8325 20.3049 80.7813 20.5227C80.7326 20.7375 80.7083 20.9674 80.7083 21.2124ZM86.3847 16.7383V23.7081H85.5412V16.7383H86.3847ZM89.956 23.7989C89.6141 23.7989 89.304 23.7414 89.0258 23.6265C88.7506 23.5085 88.5129 23.3436 88.3132 23.1319C88.1167 22.9201 87.9651 22.669 87.8596 22.3786C87.7536 22.0882 87.7006 21.7706 87.7006 21.4257V21.2351C87.7006 20.8358 87.7598 20.4804 87.8777 20.1688C87.9957 19.8542 88.156 19.588 88.3588 19.3702C88.5616 19.1523 88.7912 18.9874 89.0482 18.8755C89.3053 18.7636 89.5717 18.7077 89.8468 18.7077C90.1981 18.7077 90.5001 18.7681 90.7546 18.8892C91.0117 19.0102 91.2219 19.1795 91.3854 19.3974C91.5483 19.6122 91.6693 19.8662 91.7479 20.1597C91.8271 20.4501 91.8665 20.7677 91.8665 21.1126V21.4892H88.1997V20.804H91.0267V20.7405C91.0148 20.5227 90.9693 20.311 90.8906 20.1053C90.8151 19.8995 90.6941 19.7302 90.5275 19.597C90.3609 19.4639 90.1345 19.3974 89.8468 19.3974C89.6565 19.3974 89.4812 19.4382 89.3209 19.5199C89.1605 19.5985 89.0226 19.7165 88.9078 19.8738C88.7924 20.0311 88.7032 20.2232 88.6402 20.4501C88.5765 20.677 88.5447 20.9387 88.5447 21.2351V21.4257C88.5447 21.6586 88.5765 21.8779 88.6402 22.0836C88.7063 22.2863 88.8018 22.4648 88.9259 22.6191C89.0526 22.7734 89.2054 22.8944 89.3839 22.9821C89.5654 23.0699 89.7713 23.1137 90.0009 23.1137C90.2979 23.1137 90.5487 23.0532 90.7546 22.9322C90.9599 22.8112 91.1402 22.6493 91.2943 22.4467L91.8028 22.8505C91.6967 23.0108 91.562 23.1636 91.3985 23.3088C91.2357 23.454 91.0341 23.572 90.7952 23.6628C90.5593 23.7535 90.2798 23.7989 89.956 23.7989Z" fill="white"/>
<path d="M149.885 17.0352H152.072C152.568 17.0352 152.987 17.1108 153.329 17.2621C153.674 17.4133 153.935 17.6372 154.114 17.9336C154.295 18.227 154.386 18.5885 154.386 19.0181C154.386 19.3206 154.324 19.5974 154.2 19.8485C154.079 20.0965 153.903 20.3083 153.674 20.4838C153.447 20.6562 153.175 20.7848 152.856 20.8695L152.612 20.9648H150.556L150.547 20.2523H152.099C152.414 20.2523 152.676 20.1979 152.884 20.089C153.093 19.9771 153.25 19.8273 153.356 19.6398C153.462 19.4522 153.515 19.245 153.515 19.0181C153.515 18.764 153.465 18.5417 153.365 18.3511C153.265 18.1605 153.108 18.0138 152.893 17.9109C152.681 17.8051 152.407 17.7521 152.072 17.7521H150.76V23.6419H149.885V17.0352ZM153.746 23.6419L152.14 20.6471L153.052 20.6426L154.681 23.5875V23.6419H153.746Z" fill="white"/>
<path d="M31.4753 45.579L31.2012 45.8524L31.7487 46.3999L32.0228 46.1265L31.4753 45.579ZM42.864 35.2838L43.1373 35.0097L42.5906 34.4629L42.3165 34.737L42.8648 35.2846L42.864 35.2838ZM32.0221 46.1257L42.864 35.2838L42.3165 34.7363L31.4745 45.5782L32.0221 46.1257Z" fill="white"/>
<path d="M54.3368 43.1316V43.844H51.0334V43.1316H54.3368ZM51.2059 37.2372V43.844H50.3301V37.2372H51.2059ZM56.3106 38.9343V43.844H55.4665V38.9343H56.3106ZM55.403 37.632C55.403 37.4959 55.4438 37.3809 55.5255 37.2871C55.6102 37.1933 55.7343 37.1465 55.8976 37.1465C56.0579 37.1465 56.1804 37.1933 56.2651 37.2871C56.3531 37.3809 56.3967 37.4959 56.3967 37.632C56.3967 37.762 56.3531 37.874 56.2651 37.9677C56.1804 38.0585 56.0579 38.1039 55.8976 38.1039C55.7343 38.1039 55.6102 38.0585 55.5255 37.9677C55.4438 37.874 55.403 37.762 55.403 37.632ZM58.6834 39.9825V43.844H57.8442V38.9343H58.6379L58.6834 39.9825ZM58.4837 41.2031L58.1343 41.1895C58.1375 40.8537 58.1874 40.5437 58.2841 40.2593C58.3808 39.9719 58.5174 39.7223 58.6928 39.5106C58.8681 39.2988 59.0771 39.1355 59.3185 39.0205C59.5637 38.9025 59.8345 38.8435 60.1309 38.8435C60.373 38.8435 60.5907 38.8768 60.7847 38.9434C60.9782 39.0069 61.1429 39.1098 61.2789 39.2519C61.418 39.3941 61.5241 39.5786 61.5965 39.8055C61.6695 40.0294 61.7057 40.3031 61.7057 40.6268V43.844H60.8615V40.6178C60.8615 40.3606 60.8241 40.1549 60.7479 40.0007C60.6724 39.8433 60.562 39.7299 60.4166 39.6603C60.2719 39.5877 60.0934 39.5514 59.8813 39.5514C59.6729 39.5514 59.482 39.5953 59.3098 39.683C59.1401 39.7707 58.9935 39.8917 58.8693 40.046C58.7483 40.2003 58.6534 40.3773 58.5836 40.5769C58.5174 40.7736 58.4837 40.9823 58.4837 41.2031ZM65.204 43.9348C64.862 43.9348 64.552 43.8773 64.2737 43.7623C63.9985 43.6443 63.7608 43.4795 63.5612 43.2677C63.3646 43.056 63.2137 42.8049 63.1076 42.5145C63.0015 42.224 62.9485 41.9064 62.9485 41.5616V41.371C62.9485 40.9717 63.0078 40.6162 63.1257 40.3046C63.2436 39.99 63.404 39.7238 63.6067 39.506C63.8095 39.2882 64.0391 39.1234 64.2962 39.0114C64.5538 38.8995 64.8196 38.8435 65.0948 38.8435C65.446 38.8435 65.7486 38.9041 66.0026 39.025C66.2596 39.146 66.4699 39.3155 66.6334 39.5333C66.7968 39.748 66.9179 40.0022 66.9965 40.2956C67.0751 40.586 67.1144 40.9037 67.1144 41.2485V41.6251H63.4476V40.9399H66.2746V40.8764C66.2627 40.6586 66.2172 40.4468 66.1386 40.2411C66.0631 40.0354 65.942 39.866 65.7755 39.7329C65.6095 39.5998 65.3824 39.5333 65.0948 39.5333C64.9045 39.5333 64.7292 39.5741 64.5688 39.6558C64.4085 39.7344 64.2706 39.8524 64.1558 40.0097C64.041 40.167 63.9518 40.3591 63.8881 40.586C63.8245 40.8129 63.7927 41.0745 63.7927 41.371V41.5616C63.7927 41.7945 63.8245 42.0139 63.8881 42.2196C63.9543 42.4222 64.0497 42.6007 64.1739 42.755C64.3012 42.9092 64.454 43.0303 64.6325 43.118C64.8134 43.2057 65.0193 43.2496 65.2495 43.2496C65.5459 43.2496 65.7967 43.1891 66.0026 43.0681C66.2085 42.947 66.3882 42.7853 66.5423 42.5826L67.0508 42.9864C66.9447 43.1468 66.8105 43.2995 66.6471 43.4447C66.4836 43.5899 66.2821 43.7079 66.0431 43.7986C65.8073 43.8894 65.5278 43.9348 65.204 43.9348Z" fill="white"/>
<path d="M154.515 43.0643V43.7767H151.211V43.0643H154.515ZM151.383 37.1699V43.7767H150.508V37.1699H151.383Z" fill="white"/>
<path d="M38.7215 54.5977H43.3681V59.2442H42.5936V55.9196L31.2514 67.2627L30.7031 66.7143L42.0461 55.3721H38.7215V54.5977Z" fill="white"/>
<path d="M52.7764 57.9565L50.5893 63.9781H49.6953L52.2137 57.3711H52.79L52.7764 57.9565ZM54.6096 63.9781L52.4179 57.9565L52.4043 57.3711H52.9806L55.508 63.9781H54.6096ZM54.4962 61.5323V62.2492H50.7844V61.5323H54.4962ZM57.2913 59.8396V63.9781H56.4515V59.0682H57.2682L57.2913 59.8396ZM58.8249 59.0409L58.8205 59.8215C58.7507 59.8063 58.6839 59.7973 58.6209 59.7942C58.5604 59.7882 58.4905 59.7852 58.4119 59.7852C58.2185 59.7852 58.0475 59.8154 57.899 59.8759C57.7511 59.9364 57.6251 60.0211 57.5228 60.13C57.4198 60.2389 57.3381 60.369 57.2776 60.5203C57.2202 60.6684 57.1821 60.8318 57.164 61.0103L56.9282 61.1464C56.9282 60.85 56.9569 60.5717 57.0143 60.3115C57.0748 60.0513 57.1672 59.8215 57.2913 59.6218C57.4155 59.4191 57.5727 59.2618 57.763 59.1499C57.9564 59.0349 58.1866 58.9774 58.4531 58.9774C58.5136 58.9774 58.5828 58.985 58.6614 59.0001C58.7401 59.0122 58.7943 59.0258 58.8249 59.0409ZM60.6262 59.8396V63.9781H59.7864V59.0682H60.6037L60.6262 59.8396ZM62.1598 59.0409L62.1554 59.8215C62.0855 59.8063 62.0194 59.7973 61.9557 59.7942C61.8952 59.7882 61.8253 59.7852 61.7467 59.7852C61.5533 59.7852 61.3823 59.8154 61.2345 59.8759C61.086 59.9364 60.9606 60.0211 60.8576 60.13C60.7547 60.2389 60.673 60.369 60.6124 60.5203C60.555 60.6684 60.517 60.8318 60.4989 61.0103L60.263 61.1464C60.263 60.85 60.2917 60.5717 60.3491 60.3115C60.4097 60.0513 60.502 59.8215 60.6262 59.6218C60.7503 59.4191 60.9076 59.2618 61.0978 59.1499C61.2919 59.0349 61.5215 58.9774 61.7879 58.9774C61.8484 58.9774 61.9177 58.985 61.9963 59.0001C62.0749 59.0122 62.1298 59.0258 62.1598 59.0409ZM62.8086 61.5772V61.473C62.8086 61.1192 62.8598 60.791 62.9627 60.4885C63.0657 60.183 63.2142 59.9182 63.4076 59.6944C63.601 59.4675 63.8356 59.2921 64.1107 59.168C64.3859 59.0409 64.6947 58.9774 65.0366 58.9774C65.3817 58.9774 65.6917 59.0409 65.9669 59.168C66.2452 59.2921 66.481 59.4675 66.6744 59.6944C66.871 59.9182 67.0213 60.183 67.1236 60.4885C67.2266 60.791 67.2784 61.1192 67.2784 61.473V61.5772C67.2784 61.9316 67.2266 62.2598 67.1236 62.5624C67.0213 62.8644 66.871 63.1295 66.6744 63.356C66.481 63.58 66.2464 63.7553 65.9713 63.8826C65.6992 64.0068 65.3904 64.0685 65.0454 64.0685C64.701 64.0685 64.3909 64.0068 64.1151 63.8826C63.84 63.7553 63.6041 63.58 63.4076 63.356C63.2142 63.1295 63.0657 62.8644 62.9627 62.5624C62.8598 62.2598 62.8086 61.9316 62.8086 61.5772ZM63.6478 61.473V61.5772C63.6478 61.8224 63.6765 62.0539 63.7345 62.2717C63.7919 62.4863 63.878 62.6772 63.9928 62.8438C64.1107 63.0097 64.2574 63.1414 64.4333 63.2381C64.6086 63.3323 64.8126 63.3791 65.0454 63.3791C65.2756 63.3791 65.4765 63.3323 65.6493 63.2381C65.8246 63.1414 65.97 63.0097 66.0848 62.8438C66.1996 62.6772 66.2857 62.4863 66.3431 62.2717C66.4036 62.0539 66.4342 61.8224 66.4342 61.5772V61.473C66.4342 61.231 66.4036 61.0027 66.3431 60.788C66.2857 60.5702 66.1984 60.3781 66.0805 60.2117C65.965 60.0423 65.8203 59.9092 65.6443 59.8124C65.4721 59.7156 65.2694 59.6672 65.0366 59.6672C64.8064 59.6672 64.6043 59.7156 64.4283 59.8124C64.2561 59.9092 64.1107 60.0423 63.9928 60.2117C63.878 60.3781 63.7919 60.5702 63.7345 60.788C63.6765 61.0027 63.6478 61.231 63.6478 61.473ZM69.7603 63.1065L71.0213 59.0682H71.5753L71.4661 59.8714L70.1821 63.9781H69.6418L69.7603 63.1065ZM68.9118 59.0682L69.9868 63.152L70.0642 63.9781H69.497L68.072 59.0682H68.9118ZM72.782 63.1202L73.8077 59.0682H74.6425L73.2174 63.9781H72.6553L72.782 63.1202ZM71.6976 59.0682L72.9317 63.0385L73.0727 63.9781H72.5374L71.2165 59.8623L71.108 59.0682H71.6976Z" fill="white"/>
<path d="M143.265 63.589V59.4215H141.818L144.466 56.7266L147.114 59.4215H145.667V63.589H143.265ZM143.549 63.3002H145.384V59.1328H146.424L144.466 57.1404L142.508 59.1328H143.549V63.3002Z" fill="white"/>
<path d="M143.171 63.5885V63.6852H143.268H145.67H145.766V63.5885V59.5178H147.117H147.347L147.186 59.3532L144.538 56.6581L144.469 56.5879L144.4 56.6581L141.751 59.3532L141.59 59.5178H141.821H143.171V63.5885ZM145.386 59.0355H145.289V59.1322V63.2029H143.648V59.1322V59.0355H143.551H142.742L144.469 57.278L146.196 59.0355H145.386Z" stroke="white" stroke-width="0.193606"/>
<path d="M154.515 63.2012V63.9131H151.211V63.2012H154.515ZM151.383 57.3066V63.9131H150.508V57.3066H151.383Z" fill="white"/>
<path d="M37.1739 87.1228C40.5953 87.1228 43.3693 84.3489 43.3693 80.9273C43.3693 77.5064 40.5953 74.7324 37.1739 74.7324C33.7525 74.7324 30.9785 77.5064 30.9785 80.9273C30.9785 84.3489 33.7525 87.1228 37.1739 87.1228ZM37.1739 86.3485C34.18 86.3485 31.7529 83.9215 31.7529 80.9273C31.7529 77.9337 34.18 75.5067 37.1739 75.5067C40.1678 75.5067 42.5949 77.9337 42.5949 80.9273C42.5949 83.9215 40.1678 86.3485 37.1739 86.3485Z" fill="white"/>
<path d="M54.5274 83.4018V84.1143H51.0289V83.4018H54.5274ZM51.2059 77.507V84.1143H50.3301V77.507H51.2059ZM54.0645 80.3477V81.0602H51.0289V80.3477H54.0645ZM54.482 77.507V78.2245H51.0289V77.507H54.482ZM56.5827 77.1445V84.1143H55.7388V77.1445H56.5827ZM59.0284 77.1445V84.1143H58.1843V77.1445H59.0284ZM61.4742 79.2047V84.1143H60.63V79.2047H61.4742ZM60.5664 77.902C60.5664 77.766 60.6076 77.6512 60.6887 77.5569C60.7735 77.4634 60.8977 77.4166 61.0611 77.4166C61.2215 77.4166 61.3438 77.4634 61.4286 77.5569C61.5166 77.6512 61.5603 77.766 61.5603 77.902C61.5603 78.0324 61.5166 78.1441 61.4286 78.2376C61.3438 78.3287 61.2215 78.3743 61.0611 78.3743C60.8977 78.3743 60.7735 78.3287 60.6887 78.2376C60.6076 78.1441 60.5664 78.0324 60.5664 77.902ZM63.8469 80.1481V86.0017H63.0028V79.2047H63.7746L63.8469 80.1481ZM67.155 81.6186V81.7135C67.155 82.071 67.1125 82.4017 67.0277 82.7074C66.9434 83.01 66.8193 83.2733 66.6558 83.4973C66.4955 83.7206 66.2971 83.8947 66.0612 84.0189C65.8254 84.143 65.5546 84.2048 65.2489 84.2048C64.9375 84.2048 64.6624 84.1536 64.4234 84.0507C64.1845 83.9477 63.9817 83.798 63.8151 83.6015C63.6492 83.4049 63.5156 83.1691 63.4158 82.8933C63.3191 82.6182 63.2523 82.3081 63.2162 81.9631V81.4552C63.2523 81.0921 63.3204 80.767 63.4202 80.4794C63.52 80.1924 63.6517 79.9472 63.8151 79.7444C63.9817 79.5385 64.1826 79.3831 64.4184 79.2771C64.6549 79.1679 64.9269 79.1136 65.2358 79.1136C65.544 79.1136 65.8179 79.1741 66.0569 79.2952C66.2958 79.4131 66.4967 79.5828 66.6602 79.8037C66.8237 80.0239 66.9459 80.2891 67.0277 80.5973C67.1125 80.903 67.155 81.243 67.155 81.6186ZM66.3108 81.7135V81.6186C66.3108 81.3734 66.2852 81.1432 66.234 80.9286C66.1823 80.7108 66.1024 80.5206 65.9932 80.3571C65.8872 80.1905 65.7511 80.0607 65.5852 79.9665C65.4186 79.8698 65.2202 79.8218 64.9906 79.8218C64.7784 79.8218 64.5944 79.8579 64.4372 79.9303C64.2824 80.0033 64.1508 80.1013 64.0422 80.2254C63.933 80.3465 63.8438 80.4856 63.7746 80.6428C63.7078 80.797 63.6579 80.9573 63.6248 81.1239V82.2993C63.6853 82.5109 63.7696 82.7105 63.8788 82.8983C63.9879 83.0824 64.1327 83.2321 64.3143 83.3475C64.4958 83.4592 64.7242 83.5154 64.9993 83.5154C65.2264 83.5154 65.4217 83.4686 65.5852 83.3743C65.7511 83.2776 65.8872 83.146 65.9932 82.9794C66.1024 82.8134 66.1823 82.6225 66.234 82.4079C66.2852 82.1902 66.3108 81.9587 66.3108 81.7135ZM71.2703 82.8116C71.2703 82.6905 71.2429 82.5789 71.1886 82.4759C71.1374 82.3705 71.0301 82.275 70.8666 82.1902C70.7063 82.1022 70.4642 82.0267 70.1404 81.9631C69.8684 81.9057 69.6219 81.8376 69.4011 81.759C69.1833 81.6804 68.9968 81.585 68.8426 81.4733C68.6917 81.3616 68.575 81.2299 68.4933 81.0783C68.4115 80.9273 68.371 80.7502 68.371 80.5474C68.371 80.354 68.4134 80.1712 68.4976 79.9983C68.5856 79.8261 68.7079 79.6733 68.8657 79.5404C69.0261 79.4069 69.2176 79.3027 69.4416 79.2272C69.6656 79.1517 69.9152 79.1136 70.1903 79.1136C70.584 79.1136 70.9197 79.1835 71.1979 79.3226C71.4762 79.4618 71.6896 79.6477 71.8375 79.8804C71.9859 80.1106 72.0602 80.3658 72.0602 80.6472H71.2204C71.2204 80.5112 71.1798 80.3795 71.0981 80.2529C71.0195 80.1225 70.9028 80.0152 70.7487 79.9303C70.5971 79.8455 70.4112 79.8037 70.1903 79.8037C69.9576 79.8037 69.7685 79.8399 69.6232 79.9122C69.4809 79.9821 69.3767 80.0713 69.31 80.1799C69.2463 80.2891 69.2151 80.4039 69.2151 80.5249C69.2151 80.6154 69.2301 80.6971 69.2601 80.7701C69.2937 80.8394 69.3511 80.9043 69.4329 80.9648C69.5146 81.0222 69.6294 81.0771 69.7773 81.1283C69.9258 81.18 70.1148 81.2312 70.3444 81.2824C70.7468 81.3734 71.0781 81.482 71.3383 81.6093C71.5985 81.7366 71.7925 81.8919 71.9192 82.0766C72.0465 82.2613 72.1101 82.4853 72.1101 82.7486C72.1101 82.9632 72.0646 83.1597 71.9735 83.3382C71.8861 83.5166 71.7576 83.6707 71.5879 83.8011C71.4219 83.9284 71.2223 84.0282 70.9889 84.1006C70.7593 84.1698 70.5004 84.2048 70.2134 84.2048C69.7804 84.2048 69.4148 84.128 69.1153 83.9733C68.8158 83.8192 68.5887 83.6195 68.4346 83.3743C68.2799 83.1291 68.2031 82.8708 68.2031 82.5988H69.0467C69.0591 82.8284 69.1259 83.0112 69.2463 83.1479C69.3674 83.2808 69.5159 83.3762 69.6912 83.4336C69.8665 83.4879 70.0406 83.5154 70.2134 83.5154C70.443 83.5154 70.6352 83.4848 70.7893 83.4243C70.9465 83.3637 71.0663 83.2808 71.148 83.1747C71.2298 83.0693 71.2703 82.9482 71.2703 82.8116ZM75.4356 84.2048C75.0937 84.2048 74.7836 84.1474 74.5053 84.0326C74.2302 83.9147 73.9931 83.7493 73.7934 83.5378C73.5963 83.3263 73.4453 83.0749 73.3392 82.7848C73.2338 82.494 73.1807 82.1764 73.1807 81.8314V81.6411C73.1807 81.2418 73.2394 80.8862 73.3573 80.5748C73.4752 80.2604 73.6356 79.994 73.8384 79.7762C74.0411 79.5585 74.2714 79.3938 74.5284 79.2815C74.7855 79.1698 75.0519 79.1136 75.327 79.1136C75.6777 79.1136 75.9803 79.1741 76.2342 79.2952C76.4913 79.4162 76.7015 79.5853 76.865 79.8037C77.0284 80.0183 77.1495 80.2722 77.2281 80.5655C77.3067 80.8562 77.346 81.1738 77.346 81.5188V81.895H73.6799V81.21H76.5068V81.1463C76.4944 80.9286 76.4495 80.7171 76.3702 80.5112C76.2947 80.3053 76.1737 80.1362 76.0077 80.0033C75.8411 79.8698 75.614 79.8037 75.327 79.8037C75.1361 79.8037 74.9608 79.8442 74.8004 79.926C74.6401 80.0046 74.5028 80.1225 74.3874 80.2797C74.2726 80.4369 74.1834 80.6291 74.1197 80.8562C74.0561 81.0827 74.0243 81.3447 74.0243 81.6411V81.8314C74.0243 82.0648 74.0561 82.2837 74.1197 82.4896C74.1865 82.6924 74.282 82.8708 74.4055 83.025C74.5328 83.1791 74.6856 83.3001 74.8641 83.3881C75.0456 83.476 75.2515 83.5197 75.4811 83.5197C75.7775 83.5197 76.0289 83.4592 76.2342 83.3382C76.4401 83.2171 76.6198 83.0555 76.7745 82.8528L77.2824 83.2564C77.1769 83.4168 77.0422 83.5696 76.8787 83.715C76.7152 83.8598 76.5143 83.9783 76.2754 84.0688C76.0395 84.1592 75.7594 84.2048 75.4356 84.2048Z" fill="white"/>
<path d="M154.348 80.5347V80.9521C154.348 81.4487 154.287 81.893 154.163 82.2867C154.038 82.6797 153.86 83.0142 153.627 83.2893C153.394 83.5645 153.114 83.7747 152.788 83.9201C152.464 84.0655 152.101 84.1378 151.699 84.1378C151.309 84.1378 150.95 84.0655 150.623 83.9201C150.3 83.7747 150.018 83.5645 149.779 83.2893C149.544 83.0142 149.36 82.6797 149.23 82.2867C149.1 81.893 149.035 81.4487 149.035 80.9521V80.5347C149.035 80.0387 149.099 79.5957 149.225 79.2051C149.356 78.8121 149.539 78.4777 149.774 78.2025C150.011 77.9242 150.29 77.7127 150.614 77.5674C150.941 77.422 151.299 77.3496 151.69 77.3496C152.092 77.3496 152.455 77.422 152.779 77.5674C153.106 77.7127 153.385 77.9242 153.618 78.2025C153.854 78.4777 154.034 78.8121 154.158 79.2051C154.285 79.5957 154.348 80.0387 154.348 80.5347ZM153.482 80.9521V80.526C153.482 80.1323 153.441 79.7848 153.36 79.4822C153.281 79.1796 153.164 78.9256 153.01 78.7197C152.856 78.5138 152.667 78.3585 152.443 78.2524C152.222 78.1464 151.971 78.0939 151.69 78.0939C151.417 78.0939 151.171 78.1464 150.95 78.2524C150.732 78.3585 150.544 78.5138 150.387 78.7197C150.233 78.9256 150.113 79.1796 150.029 79.4822C149.944 79.7848 149.902 80.1323 149.902 80.526V80.9521C149.902 81.3489 149.944 81.6996 150.029 82.0053C150.113 82.3079 150.234 82.5631 150.392 82.7721C150.553 82.9773 150.742 83.1333 150.959 83.2394C151.18 83.3455 151.427 83.3979 151.699 83.3979C151.983 83.3979 152.236 83.3455 152.457 83.2394C152.678 83.1333 152.864 82.9773 153.014 82.7721C153.169 82.5631 153.285 82.3079 153.364 82.0053C153.443 81.6996 153.482 81.3489 153.482 80.9521Z" fill="white"/>
<path fill-rule="evenodd" clip-rule="evenodd" d="M37.171 94.8672L30.2012 107.258H44.1408L37.171 94.8672ZM31.5254 106.483L37.171 96.4469L42.8165 106.483H31.5254Z" fill="white"/>
<path d="M52.7668 101.658H51.0017V100.945H52.7668C53.1086 100.945 53.3854 100.891 53.5972 100.782C53.8089 100.673 53.9632 100.522 54.06 100.328C54.1599 100.135 54.2098 99.9141 54.2098 99.6658C54.2098 99.4387 54.1599 99.2259 54.06 99.0263C53.9632 98.8266 53.8089 98.6663 53.5972 98.5452C53.3854 98.4211 53.1086 98.3593 52.7668 98.3593H51.2059V104.249H50.3301V97.6418H52.7668C53.2659 97.6418 53.6879 97.7285 54.0328 97.9007C54.3777 98.0729 54.6393 98.3119 54.8178 98.6176C54.9963 98.9202 55.0855 99.2665 55.0855 99.657C55.0855 100.08 54.9963 100.442 54.8178 100.741C54.6393 101.041 54.3777 101.269 54.0328 101.426C53.6879 101.581 53.2659 101.658 52.7668 101.658ZM55.9657 101.848V101.744C55.9657 101.39 56.0171 101.062 56.1199 100.76C56.2227 100.454 56.3712 100.189 56.5646 99.9653C56.758 99.7382 56.9926 99.5628 57.2677 99.4387C57.5435 99.312 57.8517 99.2484 58.1936 99.2484C58.5386 99.2484 58.8487 99.312 59.1239 99.4387C59.4022 99.5628 59.638 99.7382 59.832 99.9653C60.0286 100.189 60.1783 100.454 60.2812 100.76C60.3836 101.062 60.4354 101.39 60.4354 101.744V101.848C60.4354 102.203 60.3836 102.531 60.2812 102.833C60.1783 103.135 60.0286 103.401 59.832 103.627C59.638 103.851 59.4034 104.026 59.1282 104.154C58.8562 104.278 58.5474 104.34 58.203 104.34C57.858 104.34 57.5479 104.278 57.2727 104.154C56.9969 104.026 56.7611 103.851 56.5646 103.627C56.3712 103.401 56.2227 103.135 56.1199 102.833C56.0171 102.531 55.9657 102.203 55.9657 101.848ZM56.8054 101.744V101.848C56.8054 102.093 56.8341 102.325 56.8915 102.543C56.9489 102.757 57.035 102.948 57.1498 103.114C57.2677 103.281 57.415 103.412 57.5903 103.509C57.7656 103.603 57.9696 103.65 58.203 103.65C58.4326 103.65 58.6335 103.603 58.8063 103.509C58.9816 103.412 59.127 103.281 59.2418 103.114C59.3566 102.948 59.4427 102.757 59.5007 102.543C59.5612 102.325 59.5912 102.093 59.5912 101.848V101.744C59.5912 101.502 59.5612 101.274 59.5007 101.059C59.4427 100.841 59.3554 100.649 59.2374 100.482C59.1226 100.313 58.9773 100.18 58.8019 100.083C58.6291 99.9865 58.4263 99.9378 58.1936 99.9378C57.964 99.9378 57.7612 99.9865 57.5853 100.083C57.4131 100.18 57.2677 100.313 57.1498 100.482C57.035 100.649 56.9489 100.841 56.8915 101.059C56.8341 101.274 56.8054 101.502 56.8054 101.744ZM62.586 97.2793V104.249H61.7418V97.2793H62.586ZM65.4991 103.741L66.8648 99.3388H67.7633L65.7936 105.007C65.7486 105.128 65.6881 105.258 65.6126 105.397C65.5396 105.539 65.446 105.673 65.3312 105.801C65.2158 105.928 65.0767 106.03 64.9132 106.109C64.7535 106.191 64.5613 106.232 64.3373 106.232C64.2706 106.232 64.1857 106.223 64.0834 106.204C63.9805 106.186 63.9075 106.171 63.865 106.159L63.8607 105.479C63.885 105.481 63.9231 105.484 63.9742 105.488C64.0285 105.494 64.0666 105.497 64.0878 105.497C64.2781 105.497 64.4403 105.471 64.5732 105.42C64.7061 105.371 64.8184 105.288 64.9088 105.17C65.0031 105.055 65.0829 104.896 65.1497 104.693L65.4991 103.741ZM64.4958 99.3388L65.7711 103.151L65.9888 104.036L65.3855 104.344L63.5793 99.3388H64.4958ZM71.8243 99.3388H72.5868V104.144C72.5868 104.577 72.4988 104.946 72.3235 105.252C72.1475 105.557 71.903 105.789 71.5885 105.946C71.2765 106.106 70.9166 106.186 70.5085 106.186C70.3388 106.186 70.1391 106.159 69.9095 106.105C69.6824 106.053 69.4585 105.964 69.2376 105.837C69.0198 105.713 68.837 105.545 68.6885 105.333L69.129 104.834C69.3343 105.082 69.5495 105.255 69.7729 105.352C70 105.448 70.224 105.497 70.4449 105.497C70.7107 105.497 70.9409 105.447 71.1343 105.347C71.3283 105.247 71.4781 105.099 71.5835 104.902C71.6927 104.709 71.747 104.47 71.747 104.185V100.419L71.8243 99.3388ZM68.4433 101.848V101.753C68.4433 101.378 68.4876 101.038 68.575 100.732C68.6661 100.424 68.7946 100.159 68.9612 99.9378C69.1303 99.7169 69.3343 99.5479 69.5733 99.4299C69.8122 99.3089 70.0817 99.2484 70.3812 99.2484C70.6894 99.2484 70.959 99.3027 71.1892 99.4118C71.4219 99.5173 71.6185 99.6733 71.7788 99.8792C71.9423 100.082 72.0708 100.327 72.1644 100.614C72.258 100.902 72.3235 101.227 72.3597 101.59V102.007C72.3266 102.367 72.2611 102.691 72.1644 102.978C72.0708 103.266 71.9423 103.511 71.7788 103.713C71.6185 103.916 71.4219 104.072 71.1892 104.181C70.9559 104.287 70.6838 104.34 70.3719 104.34C70.0786 104.34 69.8122 104.278 69.5733 104.154C69.3374 104.029 69.1346 103.855 68.9656 103.632C68.7959 103.408 68.6661 103.145 68.575 102.842C68.4876 102.536 68.4433 102.205 68.4433 101.848ZM69.2831 101.753V101.848C69.2831 102.093 69.3075 102.324 69.3555 102.538C69.4073 102.753 69.484 102.942 69.587 103.105C69.693 103.269 69.8278 103.397 69.9907 103.491C70.1541 103.582 70.3494 103.627 70.5765 103.627C70.8548 103.627 71.0844 103.568 71.2659 103.45C71.4475 103.333 71.591 103.177 71.6971 102.983C71.8063 102.789 71.8905 102.579 71.951 102.352V101.259C71.9179 101.092 71.8668 100.932 71.7969 100.778C71.7301 100.62 71.6428 100.481 71.5336 100.36C71.4282 100.236 71.2965 100.137 71.1393 100.065C70.9814 99.9927 70.7974 99.9565 70.5852 99.9565C70.3556 99.9565 70.1572 100.005 69.9907 100.101C69.8278 100.195 69.693 100.325 69.587 100.492C69.484 100.655 69.4073 100.846 69.3555 101.063C69.3075 101.278 69.2831 101.508 69.2831 101.753ZM73.8253 101.848V101.744C73.8253 101.39 73.8764 101.062 73.9794 100.76C74.0823 100.454 74.2302 100.189 74.4242 99.9653C74.6176 99.7382 74.8522 99.5628 75.1274 99.4387C75.4025 99.312 75.7114 99.2484 76.0533 99.2484C76.3977 99.2484 76.7078 99.312 76.9835 99.4387C77.2618 99.5628 77.4976 99.7382 77.691 99.9653C77.8876 100.189 78.0373 100.454 78.1403 100.76C78.2432 101.062 78.2944 101.39 78.2944 101.744V101.848C78.2944 102.203 78.2432 102.531 78.1403 102.833C78.0373 103.135 77.8876 103.401 77.691 103.627C77.4976 103.851 77.263 104.026 76.9879 104.154C76.7159 104.278 76.407 104.34 76.062 104.34C75.717 104.34 75.4075 104.278 75.1317 104.154C74.8566 104.026 74.6207 103.851 74.4242 103.627C74.2302 103.401 74.0823 103.135 73.9794 102.833C73.8764 102.531 73.8253 102.203 73.8253 101.848ZM74.6644 101.744V101.848C74.6644 102.093 74.6931 102.325 74.7505 102.543C74.8086 102.757 74.8946 102.948 75.0094 103.114C75.1274 103.281 75.274 103.412 75.4493 103.509C75.6253 103.603 75.8293 103.65 76.062 103.65C76.2922 103.65 76.4931 103.603 76.6659 103.509C76.8413 103.412 76.986 103.281 77.1014 103.114C77.2162 102.948 77.3023 102.757 77.3597 102.543C77.4203 102.325 77.4508 102.093 77.4508 101.848V101.744C77.4508 101.502 77.4203 101.274 77.3597 101.059C77.3023 100.841 77.215 100.649 77.0965 100.482C76.9817 100.313 76.8363 100.18 76.661 100.083C76.4888 99.9865 76.286 99.9378 76.0533 99.9378C75.823 99.9378 75.6203 99.9865 75.4449 100.083C75.2727 100.18 75.1274 100.313 75.0094 100.482C74.8946 100.649 74.8086 100.841 74.7505 101.059C74.6931 101.274 74.6644 101.502 74.6644 101.744ZM80.3726 100.387V104.249H79.5335V99.3388H80.3271L80.3726 100.387ZM80.173 101.608L79.8236 101.594C79.8267 101.259 79.8766 100.949 79.9733 100.664C80.07 100.376 80.2061 100.127 80.382 99.9154C80.5573 99.7038 80.7657 99.5404 81.0078 99.4256C81.253 99.3077 81.5238 99.2484 81.8201 99.2484C82.0622 99.2484 82.28 99.2814 82.4734 99.3482C82.6674 99.4118 82.8321 99.5148 82.9681 99.657C83.1073 99.7987 83.2133 99.9834 83.2857 100.21C83.3587 100.434 83.3949 100.708 83.3949 101.032V104.249H82.5507V101.023C82.5507 100.766 82.5127 100.56 82.4372 100.406C82.3617 100.248 82.2513 100.135 82.1059 100.065C81.9611 99.9927 81.7827 99.9565 81.5706 99.9565C81.3622 99.9565 81.1713 100 80.9991 100.088C80.8294 100.176 80.6827 100.297 80.5586 100.451C80.4375 100.605 80.3427 100.782 80.2728 100.982C80.2061 101.178 80.173 101.387 80.173 101.608Z" fill="white"/>
<path d="M37.1408 117.351L37.9602 119.893L38.1336 120.431L38.6989 120.43L41.3691 120.424L39.2054 121.988L38.7477 122.32L38.9235 122.857L39.7537 125.395L37.5969 123.821L37.14 123.487L36.6831 123.821L34.5264 125.395L35.3573 122.857L35.5331 122.32L35.0754 121.988L32.9109 120.424L35.5819 120.43L36.1472 120.431L36.3207 119.893L37.14 117.351H37.1408ZM35.5842 119.655L31.8375 119.647L30.5117 119.644L31.5859 120.421L34.6216 122.616L33.4561 126.177L33.0433 127.436L34.1143 126.655L37.14 124.446L40.1665 126.655L41.2367 127.438L40.8248 126.177L39.6592 122.616L42.695 120.421L43.7691 119.644L42.4433 119.647L38.6974 119.655L37.5474 116.09L37.14 114.828L36.7335 116.09L35.5834 119.655H35.5842Z" fill="white"/>
<path d="M53.8502 122.713C53.8502 122.559 53.826 122.423 53.7776 122.305C53.7322 122.184 53.6505 122.075 53.5326 121.978C53.4176 121.881 53.2573 121.789 53.0516 121.701C52.8489 121.614 52.5918 121.525 52.2802 121.433C51.9535 121.337 51.6586 121.229 51.3953 121.111C51.1322 120.99 50.9068 120.853 50.7193 120.698C50.5317 120.544 50.388 120.367 50.2882 120.167C50.1884 119.968 50.1385 119.739 50.1385 119.482C50.1385 119.225 50.1914 118.988 50.2972 118.77C50.4031 118.552 50.5544 118.363 50.751 118.203C50.9507 118.039 51.1881 117.913 51.4634 117.822C51.7387 117.731 52.0458 117.686 52.3846 117.686C52.8807 117.686 53.3012 117.781 53.646 117.971C53.9939 118.159 54.2586 118.406 54.4401 118.711C54.6216 119.013 54.7124 119.337 54.7124 119.682H53.8412C53.8412 119.434 53.7882 119.215 53.6823 119.024C53.5764 118.83 53.4161 118.679 53.2013 118.57C52.9866 118.459 52.7143 118.402 52.3846 118.402C52.073 118.402 51.8159 118.449 51.6131 118.543C51.4105 118.637 51.2592 118.764 51.1594 118.924C51.0626 119.084 51.0142 119.268 51.0142 119.473C51.0142 119.612 51.0429 119.739 51.1004 119.854C51.1609 119.967 51.2531 120.071 51.3772 120.167C51.5043 120.264 51.6646 120.353 51.8582 120.435C52.0548 120.517 52.2893 120.596 52.5615 120.671C52.9367 120.777 53.2603 120.895 53.5326 121.025C53.8048 121.155 54.0287 121.302 54.2042 121.465C54.3827 121.626 54.5142 121.808 54.5989 122.014C54.6866 122.217 54.7305 122.447 54.7305 122.704C54.7305 122.973 54.6761 123.217 54.5671 123.435C54.4583 123.653 54.3025 123.839 54.0998 123.993C53.8971 124.147 53.6536 124.267 53.3692 124.351C53.0879 124.433 52.7733 124.474 52.4254 124.474C52.1199 124.474 51.8188 124.431 51.5224 124.346C51.229 124.262 50.9613 124.135 50.7193 123.965C50.4802 123.796 50.2882 123.587 50.1429 123.339C50.0008 123.088 49.9297 122.798 49.9297 122.468H50.8009C50.8009 122.695 50.8448 122.89 50.9325 123.054C51.0202 123.214 51.1397 123.347 51.291 123.453C51.4452 123.558 51.6192 123.637 51.8128 123.689C52.0095 123.737 52.2137 123.761 52.4254 123.761C52.731 123.761 52.9896 123.719 53.2013 123.635C53.4131 123.55 53.5734 123.429 53.6823 123.271C53.7942 123.114 53.8502 122.928 53.8502 122.713ZM57.9611 119.473V120.118H55.3066V119.473H57.9611ZM56.2054 118.28H57.0445V123.167C57.0445 123.333 57.0701 123.459 57.1219 123.544C57.1731 123.628 57.2398 123.685 57.3216 123.711C57.4033 123.739 57.4906 123.753 57.5842 123.753C57.6541 123.753 57.7265 123.746 57.8026 123.734C57.8812 123.719 57.9399 123.707 57.9792 123.698L57.9835 124.383C57.9174 124.404 57.8294 124.424 57.7209 124.442C57.6148 124.463 57.4863 124.474 57.3347 124.474C57.1294 124.474 56.9403 124.433 56.7675 124.351C56.5953 124.27 56.4574 124.134 56.3551 123.943C56.2553 123.749 56.2054 123.489 56.2054 123.162V118.28ZM62.0265 123.544V121.016C62.0265 120.823 61.9872 120.655 61.9086 120.513C61.8331 120.367 61.7183 120.255 61.5636 120.177C61.4095 120.098 61.2192 120.059 60.9921 120.059C60.7806 120.059 60.594 120.095 60.4343 120.167C60.2764 120.24 60.1529 120.335 60.0618 120.453C59.9744 120.571 59.9302 120.698 59.9302 120.834H59.091C59.091 120.659 59.1359 120.485 59.227 120.313C59.3175 120.14 59.4479 119.985 59.6169 119.846C59.7898 119.703 59.995 119.591 60.2346 119.51C60.4761 119.425 60.7456 119.383 61.042 119.383C61.3989 119.383 61.7133 119.443 61.986 119.564C62.2611 119.685 62.4757 119.868 62.6305 120.113C62.7877 120.355 62.8663 120.659 62.8663 121.025V123.312C62.8663 123.476 62.88 123.65 62.9069 123.834C62.9374 124.018 62.9811 124.177 63.0385 124.31V124.383H62.1625C62.1207 124.286 62.087 124.157 62.0627 123.997C62.039 123.834 62.0265 123.683 62.0265 123.544ZM62.1719 121.407L62.1812 121.996H61.3327C61.0931 121.996 60.8804 122.016 60.6926 122.055C60.5048 122.092 60.3476 122.147 60.2209 122.223C60.0936 122.299 59.9969 122.394 59.9302 122.509C59.864 122.621 59.8303 122.752 59.8303 122.904C59.8303 123.058 59.8653 123.198 59.9345 123.326C60.0044 123.453 60.1086 123.554 60.2477 123.63C60.39 123.703 60.5641 123.739 60.7699 123.739C61.027 123.739 61.2535 123.685 61.4506 123.575C61.6472 123.466 61.8025 123.333 61.918 123.176C62.0359 123.019 62.0995 122.866 62.1082 122.717L62.467 123.122C62.4458 123.248 62.3884 123.389 62.2942 123.544C62.2006 123.698 62.0752 123.846 61.918 123.988C61.7632 124.127 61.5792 124.244 61.3639 124.338C61.1524 124.428 60.9134 124.474 60.647 124.474C60.3145 124.474 60.0225 124.409 59.7717 124.278C59.5234 124.149 59.3299 123.975 59.1908 123.757C59.0548 123.536 58.9862 123.29 58.9862 123.017C58.9862 122.754 59.038 122.523 59.1409 122.323C59.2438 122.12 59.3917 121.953 59.5851 121.819C59.7792 121.683 60.0119 121.58 60.2845 121.511C60.5566 121.441 60.8604 121.407 61.1961 121.407H62.1719ZM65.2116 120.245V124.383H64.3724V119.473H65.1892L65.2116 120.245ZM66.7458 119.446L66.7408 120.227C66.6716 120.211 66.6048 120.202 66.5412 120.199C66.4807 120.193 66.4114 120.19 66.3328 120.19C66.1394 120.19 65.9684 120.221 65.8199 120.281C65.6714 120.342 65.546 120.426 65.4431 120.535C65.3408 120.644 65.259 120.774 65.1985 120.926C65.1411 121.073 65.1031 121.237 65.085 121.415L64.8491 121.551C64.8491 121.255 64.8778 120.977 64.9352 120.717C64.9957 120.456 65.0881 120.227 65.2116 120.027C65.3358 119.824 65.493 119.667 65.6839 119.555C65.8773 119.44 66.1076 119.383 66.3734 119.383C66.4339 119.383 66.5037 119.39 66.5824 119.405C66.661 119.418 66.7153 119.431 66.7458 119.446Z" fill="white"/>
<path fill-rule="evenodd" clip-rule="evenodd" d="M39.8844 142.107C40.9531 142.107 41.8205 141.239 41.8205 140.17C41.8205 139.102 40.9531 138.234 39.8844 138.234C38.8157 138.234 37.9483 139.102 37.9483 140.17C37.9483 141.239 38.8157 142.107 39.8844 142.107ZM41.046 140.17C41.046 140.812 40.5256 141.332 39.8844 141.332C39.2432 141.332 38.7228 140.812 38.7228 140.17C38.7228 139.53 39.2432 139.009 39.8844 139.009C40.5256 139.009 41.046 139.53 41.046 140.17ZM43.3693 135.137H30.9785V147.528H43.3693V135.137ZM42.5949 135.912V146.753H41.5935L34.8506 140.01L31.7529 143.108V135.912H42.5949ZM31.7529 146.753V144.203L34.8506 141.106L40.4985 146.753H31.7529Z" fill="white"/>
<path d="M52.7668 141.928H51.0017V141.216H52.7668C53.1086 141.216 53.3854 141.161 53.5972 141.052C53.8089 140.943 53.9632 140.792 54.06 140.599C54.1599 140.404 54.2098 140.184 54.2098 139.936C54.2098 139.709 54.1599 139.495 54.06 139.296C53.9632 139.096 53.8089 138.936 53.5972 138.815C53.3854 138.691 53.1086 138.629 52.7668 138.629H51.2059V144.519H50.3301V137.912H52.7668C53.2659 137.912 53.6879 137.998 54.0328 138.171C54.3777 138.343 54.6393 138.582 54.8178 138.888C54.9963 139.19 55.0855 139.537 55.0855 139.927C55.0855 140.35 54.9963 140.712 54.8178 141.012C54.6393 141.311 54.3777 141.539 54.0328 141.697C53.6879 141.851 53.2659 141.928 52.7668 141.928ZM57.1635 137.549V144.519H56.3194V137.549H57.1635ZM61.5921 143.679V141.152C61.5921 140.959 61.5528 140.791 61.4742 140.648C61.3987 140.503 61.2839 140.391 61.1292 140.313C60.975 140.234 60.7847 140.194 60.5576 140.194C60.3455 140.194 60.1596 140.231 59.9992 140.303C59.842 140.376 59.7179 140.471 59.6274 140.589C59.5394 140.707 59.4957 140.834 59.4957 140.97H58.6566C58.6566 140.795 58.7015 140.621 58.7926 140.449C58.8831 140.276 59.0134 140.121 59.1825 139.981C59.3554 139.839 59.5606 139.727 59.7996 139.645C60.0417 139.561 60.3112 139.519 60.6076 139.519C60.9644 139.519 61.2789 139.579 61.5515 139.7C61.8267 139.821 62.0413 140.004 62.1954 140.249C62.3527 140.491 62.4319 140.795 62.4319 141.161V143.448C62.4319 143.611 62.445 143.786 62.4724 143.97C62.5024 144.154 62.5467 144.313 62.6041 144.446V144.519H61.7281C61.6857 144.422 61.6526 144.293 61.6283 144.133C61.604 143.97 61.5921 143.819 61.5921 143.679ZM61.7375 141.543L61.7462 142.132H60.8977C60.6587 142.132 60.4453 142.151 60.2582 142.191C60.0704 142.228 59.9131 142.283 59.7859 142.359C59.6592 142.435 59.5625 142.53 59.4957 142.645C59.429 142.757 59.3959 142.888 59.3959 143.04C59.3959 143.194 59.4308 143.334 59.5001 143.462C59.57 143.589 59.6742 143.69 59.8133 143.766C59.9556 143.839 60.1296 143.875 60.3355 143.875C60.5926 143.875 60.8191 143.82 61.0156 143.711C61.2128 143.602 61.3681 143.469 61.4835 143.312C61.6015 143.155 61.6645 143.002 61.6738 142.853L62.0326 143.258C62.0114 143.384 61.9533 143.525 61.8598 143.679C61.7662 143.834 61.6408 143.982 61.4835 144.124C61.3288 144.263 61.1441 144.379 60.9295 144.474C60.718 144.564 60.479 144.61 60.2126 144.61C59.8801 144.61 59.5881 144.545 59.3366 144.414C59.0889 144.285 58.8955 144.111 58.7564 143.893C58.6198 143.672 58.5517 143.426 58.5517 143.153C58.5517 142.89 58.6035 142.659 58.7065 142.459C58.8088 142.256 58.9573 142.088 59.1507 141.955C59.3447 141.819 59.5775 141.716 59.8495 141.647C60.1222 141.577 60.426 141.543 60.7617 141.543H61.7375ZM65.9027 143.92C66.1024 143.92 66.2871 143.879 66.4562 143.797C66.6259 143.716 66.765 143.604 66.8736 143.462C66.9827 143.316 67.0445 143.152 67.0601 142.967H67.8587C67.8431 143.258 67.7452 143.528 67.5636 143.779C67.3852 144.028 67.1506 144.228 66.8605 144.383C66.5697 144.534 66.2509 144.61 65.9027 144.61C65.5334 144.61 65.2114 144.545 64.9363 144.414C64.6636 144.285 64.4372 144.106 64.2556 143.879C64.0772 143.652 63.9424 143.392 63.8519 143.099C63.764 142.802 63.7203 142.489 63.7203 142.16V141.969C63.7203 141.639 63.764 141.327 63.8519 141.034C63.9424 140.738 64.0772 140.476 64.2556 140.249C64.4372 140.022 64.6636 139.844 64.9363 139.714C65.2114 139.583 65.5334 139.519 65.9027 139.519C66.2871 139.519 66.6227 139.597 66.9104 139.754C67.1974 139.908 67.4226 140.121 67.5861 140.39C67.7527 140.656 67.8431 140.959 67.8587 141.297H67.0601C67.0445 141.095 66.9871 140.912 66.8873 140.748C66.7906 140.585 66.6577 140.454 66.488 140.358C66.3214 140.258 66.1267 140.208 65.9027 140.208C65.6457 140.208 65.4292 140.26 65.2539 140.363C65.0817 140.463 64.9438 140.599 64.8408 140.771C64.741 140.94 64.6686 141.129 64.6231 141.338C64.5807 141.544 64.5594 141.754 64.5594 141.969V142.16C64.5594 142.374 64.5807 142.586 64.6231 142.795C64.6655 143.003 64.7366 143.192 64.8365 143.362C64.9394 143.531 65.0767 143.668 65.2495 143.77C65.4248 143.87 65.6426 143.92 65.9027 143.92ZM71.0257 144.61C70.6838 144.61 70.3737 144.552 70.0955 144.438C69.8203 144.319 69.5826 144.154 69.383 143.943C69.1864 143.731 69.0348 143.48 68.9294 143.19C68.8233 142.899 68.7703 142.581 68.7703 142.236V142.046C68.7703 141.647 68.8295 141.291 68.9475 140.98C69.0654 140.665 69.2257 140.399 69.4285 140.181C69.6313 139.963 69.8609 139.798 70.1179 139.686C70.375 139.575 70.6414 139.519 70.9165 139.519C71.2678 139.519 71.5698 139.579 71.8243 139.7C72.0814 139.821 72.2917 139.99 72.4551 140.208C72.618 140.423 72.739 140.677 72.8176 140.97C72.8969 141.261 72.9362 141.579 72.9362 141.923V142.3H69.2694V141.615H72.0964V141.551C72.0845 141.334 72.039 141.122 71.9604 140.916C71.8849 140.71 71.7638 140.541 71.5972 140.408C71.4307 140.275 71.2042 140.208 70.9165 140.208C70.7263 140.208 70.5503 140.249 70.39 140.331C70.2302 140.409 70.0923 140.527 69.9775 140.685C69.8621 140.842 69.7729 141.034 69.7099 141.261C69.6462 141.488 69.6144 141.75 69.6144 142.046V142.236C69.6144 142.47 69.6462 142.689 69.7099 142.895C69.776 143.097 69.8715 143.276 69.9956 143.43C70.1223 143.584 70.2752 143.705 70.4536 143.793C70.6352 143.88 70.841 143.925 71.0706 143.925C71.3676 143.925 71.6184 143.864 71.8243 143.743C72.0296 143.622 72.2099 143.46 72.364 143.258L72.8725 143.661C72.7665 143.822 72.6317 143.975 72.4682 144.119C72.3054 144.265 72.1039 144.383 71.8649 144.474C71.6291 144.564 71.3489 144.61 71.0257 144.61ZM77.5051 139.609V144.519H76.661V139.609H77.5051ZM76.5973 138.307C76.5973 138.171 76.6385 138.056 76.7196 137.962C76.8045 137.868 76.9286 137.821 77.0921 137.821C77.2524 137.821 77.3747 137.868 77.4596 137.962C77.5475 138.056 77.5912 138.171 77.5912 138.307C77.5912 138.437 77.5475 138.549 77.4596 138.643C77.3747 138.734 77.2524 138.779 77.0921 138.779C76.9286 138.779 76.8045 138.734 76.7196 138.643C76.6385 138.549 76.5973 138.437 76.5973 138.307ZM79.8735 140.585V144.519H79.0293V139.609H79.828L79.8735 140.585ZM79.7007 141.878L79.3107 141.864C79.3138 141.529 79.3575 141.219 79.4424 140.934C79.5272 140.647 79.6526 140.397 79.8192 140.186C79.9852 139.974 80.1923 139.811 80.4406 139.695C80.6883 139.577 80.976 139.519 81.3029 139.519C81.5325 139.519 81.7446 139.552 81.938 139.618C82.1315 139.682 82.2993 139.783 82.4415 139.922C82.5838 140.061 82.6942 140.24 82.7728 140.458C82.8515 140.675 82.8908 140.939 82.8908 141.247V144.519H82.0516V141.288C82.0516 141.031 82.0073 140.825 81.92 140.671C81.8351 140.517 81.7141 140.405 81.5568 140.335C81.3996 140.263 81.2149 140.226 81.0034 140.226C80.7551 140.226 80.548 140.27 80.3814 140.358C80.2154 140.446 80.0819 140.567 79.9821 140.721C79.8822 140.875 79.8099 141.052 79.7643 141.252C79.7219 141.448 79.7007 141.657 79.7007 141.878ZM82.882 141.415L82.3193 141.587C82.3224 141.319 82.3661 141.06 82.4509 140.812C82.5383 140.564 82.6643 140.343 82.8271 140.149C82.9937 139.955 83.1977 139.803 83.4398 139.691C83.6819 139.576 83.9589 139.519 84.2703 139.519C84.5335 139.519 84.7663 139.553 84.969 139.623C85.1749 139.693 85.3471 139.8 85.4863 139.945C85.6285 140.087 85.7358 140.27 85.8088 140.494C85.8812 140.718 85.9174 140.984 85.9174 141.293V144.519H85.0732V141.284C85.0732 141.008 85.0296 140.795 84.9422 140.643C84.8574 140.489 84.7363 140.382 84.5791 140.322C84.4244 140.258 84.2403 140.226 84.025 140.226C83.841 140.226 83.6775 140.258 83.5353 140.322C83.393 140.385 83.2739 140.473 83.1765 140.585C83.0798 140.693 83.0056 140.819 82.9544 140.962C82.9057 141.103 82.882 141.255 82.882 141.415ZM90.2692 143.679V141.152C90.2692 140.959 90.2299 140.791 90.1507 140.648C90.0752 140.503 89.9604 140.391 89.8063 140.313C89.6515 140.234 89.4612 140.194 89.2341 140.194C89.0226 140.194 88.8367 140.231 88.6764 140.303C88.5191 140.376 88.395 140.471 88.3039 140.589C88.2165 140.707 88.1729 140.834 88.1729 140.97H87.3331C87.3331 140.795 87.3786 140.621 87.4691 140.449C87.5602 140.276 87.6899 140.121 87.8596 139.981C88.0318 139.839 88.2377 139.727 88.4767 139.645C88.7188 139.561 88.9877 139.519 89.284 139.519C89.6409 139.519 89.956 139.579 90.228 139.7C90.5032 139.821 90.7184 140.004 90.8725 140.249C91.0298 140.491 91.1084 140.795 91.1084 141.161V143.448C91.1084 143.611 91.1221 143.786 91.1489 143.97C91.1795 144.154 91.2232 144.313 91.2806 144.446V144.519H90.4052C90.3628 144.422 90.3297 144.293 90.3054 144.133C90.2811 143.97 90.2692 143.819 90.2692 143.679ZM90.414 141.543L90.4233 142.132H89.5748C89.3358 142.132 89.1225 142.151 88.9347 142.191C88.7475 142.228 88.5903 142.283 88.463 142.359C88.3357 142.435 88.239 142.53 88.1729 142.645C88.1061 142.757 88.073 142.888 88.073 143.04C88.073 143.194 88.1073 143.334 88.1772 143.462C88.2465 143.589 88.3513 143.69 88.4904 143.766C88.6321 143.839 88.8061 143.875 89.012 143.875C89.2691 143.875 89.4962 143.82 89.6927 143.711C89.8892 143.602 90.0452 143.469 90.16 143.312C90.278 143.155 90.3416 143.002 90.3503 142.853L90.7091 143.258C90.6879 143.384 90.6305 143.525 90.5369 143.679C90.4427 143.834 90.3173 143.982 90.16 144.124C90.0059 144.263 89.8212 144.379 89.6066 144.474C89.3945 144.564 89.1555 144.61 88.8897 144.61C88.5566 144.61 88.2646 144.545 88.0138 144.414C87.7654 144.285 87.572 144.111 87.4329 143.893C87.2969 143.672 87.2289 143.426 87.2289 143.153C87.2289 142.89 87.28 142.659 87.383 142.459C87.4859 142.256 87.6338 142.088 87.8278 141.955C88.0212 141.819 88.254 141.716 88.5266 141.647C88.7986 141.577 89.1025 141.543 89.4388 141.543H90.414ZM95.7959 139.609H96.5577V144.414C96.5577 144.847 96.4703 145.216 96.295 145.522C96.1191 145.827 95.8745 146.058 95.5594 146.216C95.2481 146.376 94.8881 146.457 94.4794 146.457C94.3103 146.457 94.1107 146.429 93.8805 146.375C93.654 146.324 93.43 146.234 93.2091 146.107C92.9914 145.983 92.8086 145.815 92.6601 145.604L93.1006 145.104C93.3058 145.352 93.5204 145.525 93.7444 145.622C93.9715 145.718 94.1955 145.767 94.4164 145.767C94.6822 145.767 94.9124 145.717 95.1058 145.617C95.2992 145.517 95.449 145.369 95.555 145.172C95.6642 144.978 95.7185 144.739 95.7185 144.456V140.689L95.7959 139.609ZM92.4149 142.118V142.023C92.4149 141.648 92.4592 141.308 92.5465 141.002C92.6376 140.693 92.7661 140.429 92.9321 140.208C93.1018 139.987 93.3058 139.818 93.5448 139.7C93.7837 139.579 94.0533 139.519 94.3528 139.519C94.661 139.519 94.9305 139.573 95.1601 139.682C95.3934 139.787 95.59 139.943 95.7503 140.149C95.9138 140.352 96.0423 140.597 96.1359 140.884C96.2295 141.172 96.295 141.497 96.3312 141.86V142.277C96.2975 142.637 96.2326 142.961 96.1359 143.248C96.0423 143.536 95.9138 143.781 95.7503 143.983C95.59 144.186 95.3934 144.342 95.1601 144.451C94.9274 144.557 94.6554 144.61 94.3434 144.61C94.0502 144.61 93.7837 144.548 93.5448 144.424C93.3089 144.3 93.1062 144.126 92.9371 143.902C92.7674 143.678 92.6376 143.415 92.5465 143.112C92.4592 142.807 92.4149 142.475 92.4149 142.118ZM93.2547 142.023V142.118C93.2547 142.364 93.279 142.593 93.327 142.808C93.3788 143.023 93.4556 143.212 93.5585 143.376C93.6646 143.539 93.7993 143.668 93.9622 143.761C94.1256 143.852 94.3209 143.897 94.548 143.897C94.8263 143.897 95.0559 143.839 95.2375 143.72C95.419 143.602 95.5625 143.447 95.6686 143.253C95.7772 143.059 95.862 142.849 95.9225 142.622V141.529C95.8895 141.362 95.8377 141.202 95.7684 141.048C95.7017 140.891 95.6143 140.751 95.5051 140.63C95.3991 140.506 95.2674 140.408 95.1102 140.335C94.953 140.263 94.7683 140.226 94.5568 140.226C94.3272 140.226 94.1288 140.275 93.9622 140.371C93.7993 140.465 93.6646 140.595 93.5585 140.762C93.4556 140.925 93.3788 141.116 93.327 141.334C93.279 141.548 93.2547 141.778 93.2547 142.023ZM100.056 144.61C99.7147 144.61 99.4046 144.552 99.1264 144.438C98.8506 144.319 98.6135 144.154 98.4138 143.943C98.2173 143.731 98.0657 143.48 97.9596 143.19C97.8542 142.899 97.8011 142.581 97.8011 142.236V142.046C97.8011 141.647 97.8598 141.291 97.9777 140.98C98.0963 140.665 98.2566 140.399 98.4588 140.181C98.6615 139.963 98.8918 139.798 99.1488 139.686C99.4059 139.575 99.6723 139.519 99.9474 139.519C100.298 139.519 100.601 139.579 100.855 139.7C101.112 139.821 101.323 139.99 101.485 140.208C101.649 140.423 101.77 140.677 101.848 140.97C101.927 141.261 101.966 141.579 101.966 141.923V142.3H98.3003V141.615H101.127V141.551C101.115 141.334 101.07 141.122 100.991 140.916C100.915 140.71 100.794 140.541 100.628 140.408C100.462 140.275 100.235 140.208 99.9474 140.208C99.7565 140.208 99.5812 140.249 99.4208 140.331C99.2605 140.409 99.1232 140.527 99.0078 140.685C98.893 140.842 98.8038 141.034 98.7401 141.261C98.6771 141.488 98.6453 141.75 98.6453 142.046V142.236C98.6453 142.47 98.6771 142.689 98.7401 142.895C98.8069 143.097 98.9024 143.276 99.0265 143.43C99.1532 143.584 99.306 143.705 99.4845 143.793C99.666 143.88 99.8719 143.925 100.102 143.925C100.398 143.925 100.649 143.864 100.855 143.743C101.06 143.622 101.241 143.46 101.395 143.258L101.903 143.661C101.797 143.822 101.663 143.975 101.499 144.119C101.336 144.265 101.135 144.383 100.896 144.474C100.66 144.564 100.38 144.61 100.056 144.61ZM103.146 144.074C103.146 143.932 103.19 143.812 103.278 143.716C103.368 143.616 103.499 143.566 103.668 143.566C103.838 143.566 103.966 143.616 104.054 143.716C104.145 143.812 104.19 143.932 104.19 144.074C104.19 144.214 104.145 144.331 104.054 144.428C103.966 144.525 103.838 144.574 103.668 144.574C103.499 144.574 103.368 144.525 103.278 144.428C103.19 144.331 103.146 144.214 103.146 144.074ZM105.782 144.074C105.782 143.932 105.826 143.812 105.914 143.716C106.005 143.616 106.135 143.566 106.305 143.566C106.474 143.566 106.602 143.616 106.69 143.716C106.781 143.812 106.826 143.932 106.826 144.074C106.826 144.214 106.781 144.331 106.69 144.428C106.602 144.525 106.474 144.574 106.305 144.574C106.135 144.574 106.005 144.525 105.914 144.428C105.826 144.331 105.782 144.214 105.782 144.074ZM108.418 144.074C108.418 143.932 108.463 143.812 108.55 143.716C108.641 143.616 108.771 143.566 108.941 143.566C109.11 143.566 109.238 143.616 109.326 143.716C109.417 143.812 109.462 143.932 109.462 144.074C109.462 144.214 109.417 144.331 109.326 144.428C109.238 144.525 109.11 144.574 108.941 144.574C108.771 144.574 108.641 144.525 108.55 144.428C108.463 144.331 108.418 144.214 108.418 144.074Z" fill="white"/>
<path d="M132.574 144.13V139.962H131.127L133.775 137.268L136.423 139.962H134.976V144.13H132.574ZM132.858 143.841H134.693V139.673H135.733L133.775 137.681L131.817 139.673H132.858V143.841Z" fill="white"/>
<path d="M132.479 144.13V144.227H132.576H134.978H135.075V144.13V140.059H136.426H136.656L136.494 139.894L133.846 137.199L133.777 137.129L133.709 137.199L131.06 139.894L130.898 140.059H131.129H132.479V144.13ZM134.695 139.577H134.598V139.673V143.744H132.957V139.673V139.577H132.86H132.05L133.777 137.819L135.504 139.577H134.695Z" stroke="white" stroke-width="0.193606"/>
<path d="M140.945 144.453C141.986 144.453 142.321 143.802 142.321 143.021V142.25H143.343V143.021C143.343 143.802 143.677 144.453 144.718 144.453C145.583 144.453 146.14 143.904 146.14 143.049C146.14 142.148 145.601 141.618 144.542 141.618H143.994V140.596H144.542C145.601 140.596 146.14 140.066 146.14 139.165C146.14 138.31 145.583 137.762 144.718 137.762C143.677 137.762 143.343 138.412 143.343 139.193V139.964H142.321V139.193C142.321 138.412 141.986 137.762 140.945 137.762C140.081 137.762 139.523 138.31 139.523 139.165C139.523 140.066 140.063 140.596 141.122 140.596H141.67V141.618H141.122C140.063 141.618 139.523 142.148 139.523 143.049C139.523 143.904 140.081 144.453 140.945 144.453ZM143.994 139.174C143.994 138.7 144.235 138.403 144.718 138.403C145.155 138.403 145.481 138.616 145.481 139.165C145.481 139.695 145.202 139.964 144.542 139.964H143.994V139.174ZM141.122 139.964C140.462 139.964 140.184 139.695 140.184 139.165C140.184 138.616 140.509 138.403 140.945 138.403C141.429 138.403 141.67 138.7 141.67 139.174V139.964H141.122ZM142.321 141.618V140.596H143.343V141.618H142.321ZM140.945 143.811C140.509 143.811 140.184 143.598 140.184 143.049C140.184 142.52 140.462 142.25 141.122 142.25H141.67V143.04C141.67 143.514 141.429 143.811 140.945 143.811ZM143.994 143.04V142.25H144.542C145.202 142.25 145.481 142.52 145.481 143.049C145.481 143.598 145.155 143.811 144.718 143.811C144.235 143.811 143.994 143.514 143.994 143.04Z" fill="white"/>
<path d="M150.76 137.846V144.452H149.885V137.846H150.76ZM154.749 137.846L152.004 140.927L150.461 142.529L150.316 141.594L151.477 140.314L153.696 137.846H154.749ZM153.905 144.452L151.459 141.231L151.981 140.537L154.948 144.452H153.905Z" fill="white"/>
</svg>
