<svg width="401" height="61" viewBox="0 0 401 61" fill="none" xmlns="http://www.w3.org/2000/svg">
<path d="M259.188 52.2168C258.828 52.2194 258.48 52.337 258.198 52.551C257.917 52.7649 257.718 53.0628 257.634 53.3971C257.55 53.7314 257.586 54.083 257.736 54.3956C257.885 54.7083 258.14 54.964 258.46 55.1221V56.9483H259.796V55.1796C260.141 55.0445 260.426 54.7991 260.603 54.4854C260.78 54.1717 260.838 53.8091 260.766 53.4595C260.694 53.1098 260.497 52.7948 260.21 52.5682C259.922 52.3416 259.561 52.2174 259.188 52.2168Z" fill="white"/>
<path d="M264.473 48.6482V45.9153C264.502 44.5309 263.956 43.192 262.954 42.1915C261.952 41.1911 260.576 40.6106 259.128 40.5771C257.679 40.6106 256.303 41.1911 255.301 42.1915C254.3 43.192 253.753 44.5309 253.782 45.9153V48.6482H251.777V59.5032C251.777 59.8419 251.918 60.1667 252.169 60.4062C252.419 60.6457 252.759 60.7803 253.114 60.7803H265.142C265.496 60.7803 265.836 60.6457 266.087 60.4062C266.337 60.1667 266.478 59.8419 266.478 59.5032V48.6482H264.473ZM255.118 45.9153C255.09 44.8695 255.495 43.8554 256.246 43.0944C256.998 42.3335 258.034 41.8876 259.128 41.8542C260.222 41.8876 261.258 42.3335 262.009 43.0944C262.76 43.8554 263.166 44.8695 263.137 45.9153V48.6482H255.118V45.9153ZM253.114 59.5032V49.9252H265.142V59.5032H253.114Z" fill="white"/>
<path d="M105.513 50.351C106.474 50.351 107.293 50.0083 107.836 49.3732L107.134 48.7047C106.708 49.1727 106.182 49.3983 105.572 49.3983C104.36 49.3983 103.482 48.5459 103.482 47.3425C103.482 46.1391 104.36 45.2867 105.572 45.2867C106.182 45.2867 106.708 45.5123 107.134 45.9719L107.836 45.3117C107.293 44.6766 106.474 44.334 105.522 44.334C103.725 44.334 102.388 45.5959 102.388 47.3425C102.388 49.0891 103.725 50.351 105.513 50.351Z" fill="white"/>
<path d="M110.62 50.3259C112.007 50.3259 113.001 49.3732 113.001 48.0361C113.001 46.699 112.007 45.7547 110.62 45.7547C109.249 45.7547 108.246 46.699 108.246 48.0361C108.246 49.3732 109.249 50.3259 110.62 50.3259ZM110.62 49.4317C109.867 49.4317 109.299 48.8885 109.299 48.0361C109.299 47.1837 109.867 46.6405 110.62 46.6405C111.38 46.6405 111.948 47.1837 111.948 48.0361C111.948 48.8885 111.38 49.4317 110.62 49.4317Z" fill="white"/>
<path d="M119.633 45.7547C118.922 45.7547 118.321 46.0388 117.961 46.4984C117.652 45.997 117.109 45.7547 116.457 45.7547C115.847 45.7547 115.329 45.9719 114.995 46.3731V45.8048H114V50.2674H115.045V48.0027C115.045 47.1168 115.513 46.6656 116.206 46.6656C116.842 46.6656 117.209 47.05 117.209 47.8439V50.2674H118.254V48.0027C118.254 47.1168 118.73 46.6656 119.416 46.6656C120.051 46.6656 120.418 47.05 120.418 47.8439V50.2674H121.463V47.7102C121.463 46.3647 120.711 45.7547 119.633 45.7547Z" fill="white"/>
<path d="M125.272 45.7547C124.661 45.7547 124.143 45.9636 123.792 46.3898V45.8048H122.798V51.8887H123.842V49.7242C124.202 50.1337 124.703 50.3259 125.272 50.3259C126.575 50.3259 127.536 49.4234 127.536 48.0361C127.536 46.6572 126.575 45.7547 125.272 45.7547ZM125.155 49.4317C124.402 49.4317 123.826 48.8885 123.826 48.0361C123.826 47.1837 124.402 46.6405 125.155 46.6405C125.907 46.6405 126.475 47.1837 126.475 48.0361C126.475 48.8885 125.907 49.4317 125.155 49.4317Z" fill="white"/>
<path d="M129.521 46.4566V45.8048H128.527V50.2674H129.572V48.103C129.572 47.1921 130.073 46.7241 130.867 46.7241C130.942 46.7241 131.017 46.7324 131.109 46.7491V45.7547C130.365 45.7547 129.822 45.9887 129.521 46.4566Z" fill="white"/>
<path d="M133.676 45.7547C132.957 45.7547 132.263 45.9385 131.787 46.3062L132.197 47.0667C132.531 46.7909 133.049 46.6238 133.55 46.6238C134.294 46.6238 134.662 46.9831 134.662 47.5932V47.66H133.509C132.155 47.66 131.653 48.245 131.653 48.9888C131.653 49.766 132.297 50.3259 133.316 50.3259C133.985 50.3259 134.47 50.1086 134.72 49.7242V50.2674H135.706V47.6517C135.706 46.3647 134.963 45.7547 133.676 45.7547ZM133.534 49.5654C132.999 49.5654 132.681 49.3231 132.681 48.947C132.681 48.6211 132.873 48.3537 133.584 48.3537H134.662V48.8718C134.486 49.3314 134.043 49.5654 133.534 49.5654Z" fill="white"/>
<path d="M104.619 58.2794C106.224 58.2794 106.984 57.4771 106.984 56.5411C106.984 54.3934 103.516 55.204 103.516 53.9588C103.516 53.5159 103.884 53.1649 104.786 53.1649C105.296 53.1649 105.873 53.3153 106.399 53.6245L106.742 52.7805C106.232 52.4462 105.496 52.2624 104.795 52.2624C103.19 52.2624 102.438 53.0646 102.438 54.009C102.438 56.1818 105.914 55.3544 105.914 56.6163C105.914 57.0509 105.53 57.3768 104.619 57.3768C103.9 57.3768 103.157 57.1094 102.689 56.7333L102.312 57.5774C102.797 57.9952 103.708 58.2794 104.619 58.2794Z" fill="white"/>
<path d="M112.156 55.9896C112.156 54.594 111.204 53.683 109.9 53.683C108.571 53.683 107.593 54.6357 107.593 55.9645C107.593 57.2932 108.563 58.2543 110.059 58.2543C110.827 58.2543 111.454 58.0036 111.855 57.5272L111.295 56.8838C110.978 57.2097 110.585 57.3685 110.084 57.3685C109.306 57.3685 108.763 56.9506 108.638 56.2988H112.139C112.148 56.1985 112.156 56.0731 112.156 55.9896ZM109.9 54.5187C110.585 54.5187 111.078 54.9617 111.162 55.6051H108.63C108.73 54.9533 109.223 54.5187 109.9 54.5187Z" fill="white"/>
<path d="M116.594 53.7332V54.3265C116.227 53.8836 115.675 53.683 115.048 53.683C113.77 53.683 112.792 54.5355 112.792 55.8308C112.792 57.1261 113.77 57.9952 115.048 57.9952C115.65 57.9952 116.176 57.803 116.544 57.4019V57.6359C116.544 58.5384 116.11 58.9897 115.123 58.9897C114.505 58.9897 113.87 58.7808 113.477 58.4549L113.009 59.2404C113.519 59.6583 114.346 59.8755 115.182 59.8755C116.745 59.8755 117.589 59.1401 117.589 57.5189V53.7332H116.594ZM115.207 57.1094C114.413 57.1094 113.845 56.5913 113.845 55.8308C113.845 55.0787 114.413 54.5689 115.207 54.5689C115.993 54.5689 116.561 55.0787 116.561 55.8308C116.561 56.5913 115.993 57.1094 115.207 57.1094Z" fill="white"/>
<path d="M122.238 53.7332V55.9896C122.238 56.8838 121.745 57.335 121.018 57.335C120.358 57.335 119.973 56.9506 119.973 56.14V53.7332H118.929V56.2821C118.929 57.6275 119.706 58.2543 120.851 58.2543C121.427 58.2543 121.954 58.037 122.288 57.6275V58.1958H123.283V53.7332H122.238Z" fill="white"/>
<path d="M125.645 54.385V53.7332H124.65V58.1958H125.695V56.0313C125.695 55.1204 126.196 54.6525 126.99 54.6525C127.066 54.6525 127.141 54.6608 127.233 54.6775V53.683C126.489 53.683 125.946 53.917 125.645 54.385Z" fill="white"/>
<path d="M129.799 53.683C129.081 53.683 128.387 53.8669 127.911 54.2346L128.32 54.9951C128.654 54.7193 129.172 54.5522 129.674 54.5522C130.418 54.5522 130.785 54.9115 130.785 55.5216V55.5884H129.632C128.278 55.5884 127.777 56.1734 127.777 56.9172C127.777 57.6944 128.42 58.2543 129.44 58.2543C130.108 58.2543 130.593 58.037 130.844 57.6526V58.1958H131.83V55.5801C131.83 54.2931 131.086 53.683 129.799 53.683ZM129.657 57.4938C129.122 57.4938 128.805 57.2515 128.805 56.8754C128.805 56.5495 128.997 56.2821 129.707 56.2821H130.785V56.8002C130.61 57.2598 130.167 57.4938 129.657 57.4938Z" fill="white"/>
<path d="M189.187 50.3506C190.792 50.3506 191.552 49.5483 191.552 48.6123C191.552 46.4646 188.084 47.2752 188.084 46.03C188.084 45.5871 188.452 45.2361 189.355 45.2361C189.864 45.2361 190.441 45.3865 190.967 45.6957L191.31 44.8517C190.8 44.5174 190.065 44.3336 189.363 44.3336C187.758 44.3336 187.006 45.1358 187.006 46.0802C187.006 48.253 190.483 47.4256 190.483 48.6875C190.483 49.1221 190.098 49.448 189.187 49.448C188.469 49.448 187.725 49.1806 187.257 48.8045L186.881 49.6486C187.366 50.0664 188.276 50.3506 189.187 50.3506Z" fill="white"/>
<path d="M194.234 45.7542C193.515 45.7542 192.822 45.9381 192.346 46.3058L192.755 47.0663C193.089 46.7905 193.607 46.6234 194.109 46.6234C194.853 46.6234 195.22 46.9827 195.22 47.5928V47.6596H194.067C192.713 47.6596 192.212 48.2446 192.212 48.9884C192.212 49.7656 192.855 50.3255 193.875 50.3255C194.543 50.3255 195.028 50.1082 195.279 49.7238V50.267H196.265V47.6513C196.265 46.3643 195.521 45.7542 194.234 45.7542ZM194.092 49.565C193.557 49.565 193.24 49.3227 193.24 48.9466C193.24 48.6207 193.432 48.3532 194.142 48.3532H195.22V48.8714C195.045 49.331 194.602 49.565 194.092 49.565Z" fill="white"/>
<path d="M199.996 49.2809C199.837 49.4062 199.628 49.4647 199.411 49.4647C199.01 49.4647 198.792 49.2307 198.792 48.7962V46.6735H199.987V45.8378H198.792V44.8183H197.748V45.8378H197.012V46.6735H197.748V48.8212C197.748 49.8074 198.308 50.3255 199.285 50.3255C199.661 50.3255 200.037 50.2252 200.288 50.0246L199.996 49.2809Z" fill="white"/>
<path d="M201.674 45.069C202.067 45.069 202.343 44.7848 202.343 44.4171C202.343 44.0745 202.058 43.8154 201.674 43.8154C201.29 43.8154 201.005 44.0912 201.005 44.4422C201.005 44.7932 201.29 45.069 201.674 45.069ZM201.147 50.267H202.192V45.8044H201.147V50.267Z" fill="white"/>
<path d="M204.942 50.3255C206.196 50.3255 206.964 49.7823 206.964 48.9466C206.964 47.2 204.207 48.0023 204.207 47.0997C204.207 46.8072 204.507 46.5983 205.143 46.5983C205.569 46.5983 205.995 46.6819 206.421 46.9326L206.822 46.1387C206.421 45.8963 205.744 45.7542 205.151 45.7542C203.948 45.7542 203.187 46.3058 203.187 47.1498C203.187 48.9299 205.945 48.1276 205.945 48.98C205.945 49.2892 205.669 49.4731 205.009 49.4731C204.449 49.4731 203.847 49.2892 203.455 49.0302L203.053 49.8241C203.455 50.1082 204.198 50.3255 204.942 50.3255Z" fill="white"/>
<path d="M209.677 44.8517C209.895 44.8517 210.095 44.9269 210.254 45.0355L210.547 44.25C210.313 44.0829 209.962 44.0076 209.602 44.0076C208.566 44.0076 208.006 44.6177 208.006 45.5537V45.8378H207.271V46.6735H208.006V50.267H209.051V46.6735H210.246V45.8378H209.017V45.5704C209.017 45.094 209.243 44.8517 209.677 44.8517Z" fill="white"/>
<path d="M212.572 45.7542C211.853 45.7542 211.16 45.9381 210.683 46.3058L211.093 47.0663C211.427 46.7905 211.945 46.6234 212.447 46.6234C213.191 46.6234 213.558 46.9827 213.558 47.5928V47.6596H212.405C211.051 47.6596 210.55 48.2446 210.55 48.9884C210.55 49.7656 211.193 50.3255 212.213 50.3255C212.881 50.3255 213.366 50.1082 213.617 49.7238V50.267H214.603V47.6513C214.603 46.3643 213.859 45.7542 212.572 45.7542ZM212.43 49.565C211.895 49.565 211.578 49.3227 211.578 48.9466C211.578 48.6207 211.77 48.3532 212.48 48.3532H213.558V48.8714C213.383 49.331 212.94 49.565 212.43 49.565Z" fill="white"/>
<path d="M218.023 49.4313C217.255 49.4313 216.67 48.9048 216.67 48.0357C216.67 47.1749 217.255 46.6401 218.023 46.6401C218.466 46.6401 218.867 46.8323 219.135 47.2585L219.937 46.7905C219.595 46.1136 218.901 45.7542 218.032 45.7542C216.619 45.7542 215.617 46.6986 215.617 48.0357C215.617 49.214 216.394 50.0915 217.539 50.2837L217.33 51.0609H217.589C217.906 51.0609 218.032 51.1779 218.032 51.3367C218.032 51.5205 217.898 51.6375 217.589 51.6375C217.38 51.6375 217.196 51.5957 217.021 51.5038L216.828 51.9969C217.037 52.1139 217.296 52.1724 217.597 52.1724C218.282 52.1724 218.734 51.8632 218.734 51.3785C218.734 51.0191 218.5 50.735 218.007 50.6765L218.099 50.3255C218.934 50.3088 219.603 49.9327 219.937 49.2809L219.135 48.8129C218.867 49.2391 218.466 49.4313 218.023 49.4313Z" fill="white"/>
<path d="M222.102 44.6428C222.403 44.6428 222.687 45.1943 223.239 45.1943C223.773 45.1943 224.124 44.7514 224.141 44.0996H223.581C223.565 44.4004 223.406 44.5759 223.172 44.5759C222.871 44.5759 222.587 44.0244 222.035 44.0244C221.5 44.0244 221.149 44.4589 221.133 45.1442H221.693C221.709 44.8266 221.868 44.6428 222.102 44.6428ZM222.545 45.7542C221.826 45.7542 221.133 45.9381 220.656 46.3058L221.066 47.0663C221.4 46.7905 221.918 46.6234 222.42 46.6234C223.163 46.6234 223.531 46.9827 223.531 47.5928V47.6596H222.378C221.024 47.6596 220.523 48.2446 220.523 48.9884C220.523 49.7656 221.166 50.3255 222.186 50.3255C222.854 50.3255 223.339 50.1082 223.59 49.7238V50.267H224.576V47.6513C224.576 46.3643 223.832 45.7542 222.545 45.7542ZM222.403 49.565C221.868 49.565 221.55 49.3227 221.55 48.9466C221.55 48.6207 221.743 48.3532 222.453 48.3532H223.531V48.8714C223.356 49.331 222.913 49.565 222.403 49.565Z" fill="white"/>
<path d="M227.963 50.3255C229.35 50.3255 230.345 49.3728 230.345 48.0357C230.345 46.6986 229.35 45.7542 227.963 45.7542C226.592 45.7542 225.589 46.6986 225.589 48.0357C225.589 49.3728 226.592 50.3255 227.963 50.3255ZM227.963 49.4313C227.211 49.4313 226.642 48.8881 226.642 48.0357C226.642 47.1833 227.211 46.6401 227.963 46.6401C228.723 46.6401 229.292 47.1833 229.292 48.0357C229.292 48.8881 228.723 49.4313 227.963 49.4313Z" fill="white"/>
<path d="M191.369 57.0254C190.992 57.2427 190.583 57.3262 190.165 57.3262C188.928 57.3262 188.051 56.4571 188.051 55.2704C188.051 54.0587 188.928 53.2146 190.173 53.2146C190.8 53.2146 191.327 53.4236 191.786 53.8832L192.472 53.2146C191.92 52.5879 191.101 52.2619 190.123 52.2619C188.293 52.2619 186.956 53.5238 186.956 55.2704C186.956 57.017 188.293 58.2789 190.107 58.2789C190.934 58.2789 191.786 58.0282 192.396 57.5352V55.2036H191.369V57.0254Z" fill="white"/>
<path d="M195.434 53.6826C194.715 53.6826 194.022 53.8665 193.545 54.2342L193.955 54.9947C194.289 54.7189 194.807 54.5517 195.309 54.5517C196.052 54.5517 196.42 54.9111 196.42 55.5211V55.588H195.267C193.913 55.588 193.411 56.173 193.411 56.9168C193.411 57.694 194.055 58.2539 195.075 58.2539C195.743 58.2539 196.228 58.0366 196.478 57.6522V58.1954H197.465V55.5796C197.465 54.2927 196.721 53.6826 195.434 53.6826ZM195.292 57.4934C194.757 57.4934 194.439 57.251 194.439 56.875C194.439 56.5491 194.632 56.2816 195.342 56.2816H196.42V56.7998C196.244 57.2594 195.802 57.4934 195.292 57.4934Z" fill="white"/>
<path d="M199.8 54.3846V53.7328H198.805V58.1954H199.85V56.0309C199.85 55.12 200.351 54.652 201.145 54.652C201.22 54.652 201.296 54.6604 201.388 54.6771V53.6826C200.644 53.6826 200.101 53.9166 199.8 54.3846Z" fill="white"/>
<path d="M203.954 53.6826C203.235 53.6826 202.542 53.8665 202.065 54.2342L202.475 54.9947C202.809 54.7189 203.327 54.5517 203.829 54.5517C204.572 54.5517 204.94 54.9111 204.94 55.5211V55.588H203.787C202.433 55.588 201.932 56.173 201.932 56.9168C201.932 57.694 202.575 58.2539 203.595 58.2539C204.263 58.2539 204.748 58.0366 204.999 57.6522V58.1954H205.985V55.5796C205.985 54.2927 205.241 53.6826 203.954 53.6826ZM203.812 57.4934C203.277 57.4934 202.96 57.251 202.96 56.875C202.96 56.5491 203.152 56.2816 203.862 56.2816H204.94V56.7998C204.765 57.2594 204.322 57.4934 203.812 57.4934Z" fill="white"/>
<path d="M209.858 53.6826C209.206 53.6826 208.663 53.8999 208.32 54.3094V53.7328H207.325V58.1954H208.37V55.939C208.37 55.0448 208.871 54.5935 209.615 54.5935C210.284 54.5935 210.677 54.9779 210.677 55.7719V58.1954H211.721V55.6381C211.721 54.2927 210.927 53.6826 209.858 53.6826Z" fill="white"/>
<path d="M215.436 57.2093C215.278 57.3346 215.069 57.3931 214.851 57.3931C214.45 57.3931 214.233 57.1591 214.233 56.7245V54.6019H215.428V53.7662H214.233V52.7466H213.188V53.7662H212.453V54.6019H213.188V56.7496C213.188 57.7357 213.748 58.2539 214.726 58.2539C215.102 58.2539 215.478 58.1536 215.729 57.953L215.436 57.2093Z" fill="white"/>
<path d="M217.115 52.9974C217.507 52.9974 217.783 52.7132 217.783 52.3455C217.783 52.0029 217.499 51.7438 217.115 51.7438C216.73 51.7438 216.446 52.0196 216.446 52.3706C216.446 52.7216 216.73 52.9974 217.115 52.9974ZM216.588 58.1954H217.633V53.7328H216.588V58.1954Z" fill="white"/>
<path d="M222.33 51.9945V54.2843C221.979 53.8748 221.469 53.6826 220.893 53.6826C219.597 53.6826 218.636 54.5768 218.636 55.9641C218.636 57.3513 219.597 58.2539 220.893 58.2539C221.503 58.2539 222.021 58.0449 222.372 57.6187V58.1954H223.375V51.9945H222.33ZM221.018 57.3597C220.266 57.3597 219.689 56.8165 219.689 55.9641C219.689 55.1117 220.266 54.5685 221.018 54.5685C221.77 54.5685 222.347 55.1117 222.347 55.9641C222.347 56.8165 221.77 57.3597 221.018 57.3597Z" fill="white"/>
<path d="M226.446 53.6826C225.727 53.6826 225.034 53.8665 224.557 54.2342L224.967 54.9947C225.301 54.7189 225.819 54.5517 226.321 54.5517C227.064 54.5517 227.432 54.9111 227.432 55.5211V55.588H226.279C224.925 55.588 224.424 56.173 224.424 56.9168C224.424 57.694 225.067 58.2539 226.087 58.2539C226.755 58.2539 227.24 58.0366 227.491 57.6522V58.1954H228.477V55.5796C228.477 54.2927 227.733 53.6826 226.446 53.6826ZM226.304 57.4934C225.769 57.4934 225.451 57.251 225.451 56.875C225.451 56.5491 225.644 56.2816 226.354 56.2816H227.432V56.7998C227.257 57.2594 226.814 57.4934 226.304 57.4934Z" fill="white"/>
<path d="M277.876 44.4171H275.469V50.267H276.555V48.5789H277.876C279.413 48.5789 280.366 47.785 280.366 46.498C280.366 45.2027 279.413 44.4171 277.876 44.4171ZM277.825 47.6596H276.555V45.3364H277.825C278.778 45.3364 279.271 45.7626 279.271 46.498C279.271 47.2334 278.778 47.6596 277.825 47.6596Z" fill="white"/>
<path d="M282.304 46.4562V45.8044H281.31V50.267H282.354V48.1025C282.354 47.1916 282.856 46.7236 283.65 46.7236C283.725 46.7236 283.8 46.732 283.892 46.7487V45.7542C283.148 45.7542 282.605 45.9882 282.304 46.4562Z" fill="white"/>
<path d="M285.305 45.069C285.697 45.069 285.973 44.7848 285.973 44.4171C285.973 44.0745 285.689 43.8154 285.305 43.8154C284.92 43.8154 284.636 44.0912 284.636 44.4422C284.636 44.7932 284.92 45.069 285.305 45.069ZM284.778 50.267H285.823V45.8044H284.778V50.267Z" fill="white"/>
<path d="M290.37 45.8044L288.94 49.1137L287.553 45.8044H286.467L288.381 50.267H289.459L291.372 45.8044H290.37Z" fill="white"/>
<path d="M293.591 45.7542C292.873 45.7542 292.179 45.9381 291.703 46.3058L292.112 47.0663C292.446 46.7905 292.965 46.6234 293.466 46.6234C294.21 46.6234 294.577 46.9827 294.577 47.5928V47.6596H293.424C292.07 47.6596 291.569 48.2446 291.569 48.9884C291.569 49.7656 292.212 50.3255 293.232 50.3255C293.901 50.3255 294.385 50.1082 294.636 49.7238V50.267H295.622V47.6513C295.622 46.3643 294.878 45.7542 293.591 45.7542ZM293.449 49.565C292.914 49.565 292.597 49.3227 292.597 48.9466C292.597 48.6207 292.789 48.3532 293.499 48.3532H294.577V48.8714C294.402 49.331 293.959 49.565 293.449 49.565Z" fill="white"/>
<path d="M299.051 50.3255C299.92 50.3255 300.614 49.9494 300.956 49.2809L300.154 48.8129C299.887 49.2391 299.485 49.4313 299.043 49.4313C298.274 49.4313 297.689 48.9048 297.689 48.0357C297.689 47.1749 298.274 46.6401 299.043 46.6401C299.485 46.6401 299.887 46.8323 300.154 47.2585L300.956 46.7905C300.614 46.1136 299.92 45.7542 299.051 45.7542C297.639 45.7542 296.636 46.6986 296.636 48.0357C296.636 49.3728 297.639 50.3255 299.051 50.3255Z" fill="white"/>
<path d="M302.386 45.069C302.779 45.069 303.054 44.7848 303.054 44.4171C303.054 44.0745 302.77 43.8154 302.386 43.8154C302.001 43.8154 301.717 44.0912 301.717 44.4422C301.717 44.7932 302.001 45.069 302.386 45.069ZM301.859 50.267H302.904V45.8044H301.859V50.267Z" fill="white"/>
<path d="M307.601 44.0661V46.3559C307.25 45.9465 306.74 45.7542 306.164 45.7542C304.868 45.7542 303.907 46.6484 303.907 48.0357C303.907 49.4229 304.868 50.3255 306.164 50.3255C306.774 50.3255 307.292 50.1166 307.643 49.6904V50.267H308.646V44.0661H307.601ZM306.289 49.4313C305.537 49.4313 304.96 48.8881 304.96 48.0357C304.96 47.1833 305.537 46.6401 306.289 46.6401C307.041 46.6401 307.618 47.1833 307.618 48.0357C307.618 48.8881 307.041 49.4313 306.289 49.4313Z" fill="white"/>
<path d="M311.717 45.7542C310.998 45.7542 310.305 45.9381 309.828 46.3058L310.238 47.0663C310.572 46.7905 311.09 46.6234 311.592 46.6234C312.335 46.6234 312.703 46.9827 312.703 47.5928V47.6596H311.55C310.196 47.6596 309.695 48.2446 309.695 48.9884C309.695 49.7656 310.338 50.3255 311.358 50.3255C312.026 50.3255 312.511 50.1082 312.762 49.7238V50.267H313.748V47.6513C313.748 46.3643 313.004 45.7542 311.717 45.7542ZM311.575 49.565C311.04 49.565 310.723 49.3227 310.723 48.9466C310.723 48.6207 310.915 48.3532 311.625 48.3532H312.703V48.8714C312.528 49.331 312.085 49.565 311.575 49.565Z" fill="white"/>
<path d="M318.455 44.0661V46.3559C318.104 45.9465 317.595 45.7542 317.018 45.7542C315.723 45.7542 314.762 46.6484 314.762 48.0357C314.762 49.4229 315.723 50.3255 317.018 50.3255C317.628 50.3255 318.146 50.1166 318.497 49.6904V50.267H319.5V44.0661H318.455ZM317.143 49.4313C316.391 49.4313 315.815 48.8881 315.815 48.0357C315.815 47.1833 316.391 46.6401 317.143 46.6401C317.895 46.6401 318.472 47.1833 318.472 48.0357C318.472 48.8881 317.895 49.4313 317.143 49.4313Z" fill="white"/>
<path d="M325.062 48.0608C325.062 46.6651 324.109 45.7542 322.805 45.7542C321.477 45.7542 320.499 46.7069 320.499 48.0357C320.499 49.3644 321.468 50.3255 322.964 50.3255C323.733 50.3255 324.36 50.0748 324.761 49.5984L324.201 48.9549C323.883 49.2809 323.491 49.4397 322.989 49.4397C322.212 49.4397 321.669 49.0218 321.543 48.37H325.045C325.053 48.2697 325.062 48.1443 325.062 48.0608ZM322.805 46.5899C323.491 46.5899 323.984 47.0329 324.067 47.6763H321.535C321.635 47.0245 322.128 46.5899 322.805 46.5899Z" fill="white"/>
<path d="M277.876 52.3455H275.469V58.1954H276.555V56.5073H277.876C279.413 56.5073 280.366 55.7134 280.366 54.4264C280.366 53.1311 279.413 52.3455 277.876 52.3455ZM277.825 55.588H276.555V53.2648H277.825C278.778 53.2648 279.271 53.691 279.271 54.4264C279.271 55.1618 278.778 55.588 277.825 55.588Z" fill="white"/>
<path d="M282.304 54.3846V53.7328H281.31V58.1954H282.354V56.0309C282.354 55.12 282.856 54.652 283.65 54.652C283.725 54.652 283.8 54.6604 283.892 54.6771V53.6826C283.148 53.6826 282.605 53.9166 282.304 54.3846Z" fill="white"/>
<path d="M286.743 58.2539C288.13 58.2539 289.125 57.3012 289.125 55.9641C289.125 54.627 288.13 53.6826 286.743 53.6826C285.373 53.6826 284.37 54.627 284.37 55.9641C284.37 57.3012 285.373 58.2539 286.743 58.2539ZM286.743 57.3597C285.991 57.3597 285.423 56.8165 285.423 55.9641C285.423 55.1117 285.991 54.5685 286.743 54.5685C287.504 54.5685 288.072 55.1117 288.072 55.9641C288.072 56.8165 287.504 57.3597 286.743 57.3597Z" fill="white"/>
<path d="M292.514 57.2093C292.355 57.3346 292.146 57.3931 291.929 57.3931C291.528 57.3931 291.31 57.1591 291.31 56.7245V54.6019H292.505V53.7662H291.31V52.7466H290.266V53.7662H289.53V54.6019H290.266V56.7496C290.266 57.7357 290.826 58.2539 291.803 58.2539C292.18 58.2539 292.556 58.1536 292.806 57.953L292.514 57.2093Z" fill="white"/>
<path d="M297.714 55.9891C297.714 54.5935 296.761 53.6826 295.458 53.6826C294.129 53.6826 293.151 54.6353 293.151 55.9641C293.151 57.2928 294.12 58.2539 295.616 58.2539C296.385 58.2539 297.012 58.0032 297.413 57.5268L296.853 56.8833C296.536 57.2093 296.143 57.368 295.641 57.368C294.864 57.368 294.321 56.9502 294.196 56.2983H297.697C297.706 56.1981 297.714 56.0727 297.714 55.9891ZM295.458 54.5183C296.143 54.5183 296.636 54.9612 296.719 55.6047H294.187C294.288 54.9529 294.781 54.5183 295.458 54.5183Z" fill="white"/>
<path d="M302.152 53.7328V54.3261C301.784 53.8832 301.233 53.6826 300.606 53.6826C299.327 53.6826 298.35 54.535 298.35 55.8304C298.35 57.1257 299.327 57.9948 300.606 57.9948C301.208 57.9948 301.734 57.8026 302.102 57.4015V57.6355C302.102 58.538 301.667 58.9893 300.681 58.9893C300.063 58.9893 299.428 58.7804 299.035 58.4544L298.567 59.24C299.077 59.6578 299.904 59.8751 300.74 59.8751C302.302 59.8751 303.146 59.1397 303.146 57.5185V53.7328H302.152ZM300.765 57.109C299.971 57.109 299.403 56.5908 299.403 55.8304C299.403 55.0782 299.971 54.5685 300.765 54.5685C301.55 54.5685 302.119 55.0782 302.119 55.8304C302.119 56.5908 301.55 57.109 300.765 57.109Z" fill="white"/>
<path d="M305.046 52.9974C305.439 52.9974 305.715 52.7132 305.715 52.3455C305.715 52.0029 305.431 51.7438 305.046 51.7438C304.662 51.7438 304.378 52.0196 304.378 52.3706C304.378 52.7216 304.662 52.9974 305.046 52.9974ZM304.52 58.1954H305.564V53.7328H304.52V58.1954Z" fill="white"/>
<path d="M310.262 51.9945V54.2843C309.911 53.8748 309.401 53.6826 308.824 53.6826C307.529 53.6826 306.568 54.5768 306.568 55.9641C306.568 57.3513 307.529 58.2539 308.824 58.2539C309.434 58.2539 309.952 58.0449 310.303 57.6187V58.1954H311.306V51.9945H310.262ZM308.95 57.3597C308.197 57.3597 307.621 56.8165 307.621 55.9641C307.621 55.1117 308.197 54.5685 308.95 54.5685C309.702 54.5685 310.278 55.1117 310.278 55.9641C310.278 56.8165 309.702 57.3597 308.95 57.3597Z" fill="white"/>
<path d="M314.378 53.6826C313.659 53.6826 312.965 53.8665 312.489 54.2342L312.898 54.9947C313.233 54.7189 313.751 54.5517 314.252 54.5517C314.996 54.5517 315.364 54.9111 315.364 55.5211V55.588H314.21C312.857 55.588 312.355 56.173 312.355 56.9168C312.355 57.694 312.999 58.2539 314.018 58.2539C314.687 58.2539 315.171 58.0366 315.422 57.6522V58.1954H316.408V55.5796C316.408 54.2927 315.665 53.6826 314.378 53.6826ZM314.236 57.4934C313.701 57.4934 313.383 57.251 313.383 56.875C313.383 56.5491 313.575 56.2816 314.286 56.2816H315.364V56.7998C315.188 57.2594 314.745 57.4934 314.236 57.4934Z" fill="white"/>
<path d="M85.4393 40.5771L76.4727 43.4332V52.0015C76.4727 56.7342 80.4866 60.5698 85.4393 60.5698C90.3919 60.5698 94.4059 56.7342 94.4059 52.0015V43.4332L85.4393 40.5771ZM92.7247 52.0015C92.7247 55.8461 89.4626 58.9633 85.4393 58.9633C81.416 58.9633 78.1539 55.8461 78.1539 52.0015V44.6382L85.4393 42.1837L92.7247 44.6382V52.0015Z" fill="white"/>
<path d="M82.3203 49.749C82.2423 49.6742 82.1497 49.6149 82.0478 49.5744C81.9458 49.5339 81.8364 49.513 81.726 49.513C81.6155 49.513 81.5062 49.5339 81.4042 49.5744C81.3022 49.6149 81.2096 49.6742 81.1317 49.749C81.0534 49.8235 80.9913 49.912 80.949 50.0094C80.9066 50.1069 80.8848 50.2114 80.8848 50.3169C80.8848 50.4224 80.9066 50.5269 80.949 50.6244C80.9913 50.7218 81.0534 50.8103 81.1317 50.8848L84.1533 53.7721L84.2023 53.819C84.276 53.8895 84.3635 53.9455 84.4599 53.9837C84.5563 54.0219 84.6596 54.0415 84.7639 54.0415C84.8682 54.0415 84.9715 54.0219 85.0679 53.9837C85.1642 53.9455 85.2518 53.8895 85.3255 53.819L90.5443 48.832C90.6182 48.7615 90.6767 48.6779 90.7167 48.5858C90.7567 48.4937 90.7773 48.395 90.7773 48.2953C90.7773 48.1956 90.7567 48.0969 90.7167 48.0048C90.6767 47.9128 90.6182 47.8291 90.5443 47.7587L90.479 47.6962C90.4053 47.6257 90.3177 47.5697 90.2214 47.5315C90.125 47.4933 90.0217 47.4736 89.9174 47.4736C89.813 47.4736 89.7097 47.4933 89.6134 47.5315C89.517 47.5697 89.4295 47.6257 89.3558 47.6962L84.7627 52.083L82.3203 49.749Z" fill="white"/>
<path fill-rule="evenodd" clip-rule="evenodd" d="M161.767 49.368C160.586 49.2061 159.507 48.6431 158.726 47.7821C157.945 46.9212 157.516 45.8202 157.516 44.6809V44.0496C157.516 42.8298 158.552 41.8398 159.828 41.8398H161.62C161.921 41.1012 162.672 40.5771 163.552 40.5771H172.622C173.039 40.5774 173.447 40.698 173.792 40.9233C174.137 41.1486 174.402 41.468 174.554 41.8398H176.346C177.622 41.8398 178.658 42.8298 178.658 44.0496V44.6809C178.658 45.8202 178.228 46.9212 177.447 47.7821C176.667 48.6431 175.587 49.2061 174.407 49.368C174.128 50.2367 173.657 51.0379 173.025 51.717C172.393 52.3961 171.616 52.9373 170.745 53.3039L170.936 55.1297C170.942 55.1929 170.975 55.2812 171.086 55.3873C171.2 55.4972 171.373 55.602 171.579 55.6739C171.953 55.804 172.396 56.0199 172.755 56.3911C173.132 56.7826 173.372 57.3041 173.372 57.9392V58.8862H175.024C175.287 58.8862 175.539 58.986 175.725 59.1636C175.911 59.3412 176.015 59.5821 176.015 59.8333C176.015 60.0844 175.911 60.3253 175.725 60.5029C175.539 60.6805 175.287 60.7803 175.024 60.7803H161.149C160.887 60.7803 160.635 60.6805 160.449 60.5029C160.263 60.3253 160.158 60.0844 160.158 59.8333C160.158 59.5821 160.263 59.3412 160.449 59.1636C160.635 58.986 160.887 58.8862 161.149 58.8862H162.801V57.9392C162.801 57.3041 163.042 56.7826 163.42 56.3911C163.776 56.0199 164.22 55.804 164.594 55.6739C164.778 55.6132 164.946 55.5154 165.087 55.3873C165.198 55.28 165.231 55.1941 165.238 55.1297L165.428 53.3039C164.558 52.9372 163.781 52.3959 163.15 51.7168C162.518 51.0377 162.047 50.2366 161.768 49.368H161.767ZM161.48 43.7339H159.828C159.74 43.7339 159.656 43.7671 159.594 43.8263C159.533 43.8855 159.498 43.9658 159.498 44.0496V44.6809C159.498 45.9184 160.325 46.9702 161.48 47.3603V43.7339ZM167.369 53.7976L167.211 55.3179C167.088 56.4859 166.077 57.174 165.272 57.4531C165.124 57.497 164.988 57.5731 164.876 57.6753C164.827 57.7258 164.783 57.7927 164.783 57.9405V58.8875H171.39V57.9405C171.39 57.7927 171.347 57.7258 171.298 57.6753C171.185 57.5731 171.05 57.497 170.901 57.4531C170.097 57.174 169.086 56.4859 168.964 55.3191L168.806 53.7988C168.328 53.8482 167.847 53.8482 167.369 53.7988V53.7976ZM174.694 47.3616V43.7339H176.346C176.433 43.7339 176.517 43.7671 176.579 43.8263C176.641 43.8855 176.676 43.9658 176.676 44.0496V44.6809C176.676 45.2686 176.486 45.8418 176.131 46.3217C175.776 46.8016 175.274 47.1645 174.694 47.3603V47.3616ZM163.462 42.5571C163.462 42.5103 163.502 42.4712 163.552 42.4712H172.622C172.671 42.4712 172.712 42.5091 172.712 42.5571V47.522C172.712 48.6941 172.224 49.8182 171.357 50.647C170.49 51.4758 169.313 51.9414 168.087 51.9414C166.86 51.9414 165.684 51.4758 164.817 50.647C163.949 49.8182 163.462 48.6941 163.462 47.522V42.5571Z" fill="white"/>
<path d="M168.085 43.6074L168.797 45.7014H171.102L169.237 46.9956L169.949 49.0896L168.085 47.7954L166.221 49.0896L166.933 46.9956L165.069 45.7014H167.373L168.085 43.6074Z" fill="white"/>
<path d="M316.775 22.6185V15.5314C316.775 15.2214 316.836 14.9143 316.955 14.6279C317.074 14.3415 317.248 14.0812 317.467 13.862C317.686 13.6428 317.947 13.469 318.233 13.3504C318.52 13.2318 318.827 13.1708 319.137 13.1709H321.227C321.851 13.1722 322.45 13.4212 322.891 13.8632C323.332 14.3052 323.58 14.9041 323.58 15.5286V17.037C323.58 17.6632 323.331 18.2638 322.888 18.7066C322.445 19.1494 321.845 19.3982 321.218 19.3982H318.262" stroke="white" stroke-width="0.515429" stroke-linecap="round" stroke-linejoin="round"/>
<path d="M324.164 13.1699H325.07C325.327 13.1699 325.573 13.272 325.755 13.4538C325.937 13.6355 326.039 13.882 326.039 14.1391V19.4342" stroke="white" stroke-width="0.515429" stroke-linecap="round" stroke-linejoin="round"/>
<path d="M325.843 12.3496L325.432 11.9379C325.408 11.9136 325.389 11.8848 325.375 11.853C325.362 11.8213 325.355 11.7872 325.355 11.7529C325.355 11.7185 325.362 11.6845 325.375 11.6527C325.389 11.621 325.408 11.5922 325.432 11.5679L325.843 11.1568C325.868 11.1325 325.896 11.1132 325.928 11.1C325.96 11.0869 325.994 11.0801 326.028 11.0801C326.063 11.0801 326.097 11.0869 326.128 11.1C326.16 11.1132 326.189 11.1325 326.213 11.1568L326.625 11.5679C326.649 11.5922 326.669 11.621 326.682 11.6527C326.695 11.6845 326.702 11.7185 326.702 11.7529C326.702 11.7872 326.695 11.8213 326.682 11.853C326.669 11.8848 326.649 11.9136 326.625 11.9379L326.213 12.3496C326.189 12.374 326.16 12.3933 326.128 12.4064C326.097 12.4196 326.063 12.4264 326.028 12.4264C325.994 12.4264 325.96 12.4196 325.928 12.4064C325.896 12.3933 325.868 12.374 325.843 12.3496Z" fill="white"/>
<path d="M327.783 13.166H328.683C329.146 13.1661 329.59 13.35 329.918 13.6774L332.023 15.7822C332.088 15.8472 332.165 15.8988 332.25 15.9339C332.335 15.9691 332.425 15.9872 332.517 15.9872C332.609 15.9872 332.7 15.9691 332.784 15.9339C332.869 15.8988 332.946 15.8472 333.011 15.7822L335.111 13.6851C335.273 13.5229 335.465 13.3943 335.677 13.3065C335.889 13.2188 336.116 13.1736 336.345 13.1737H337.077" stroke="white" stroke-width="0.515429" stroke-linecap="round" stroke-linejoin="round"/>
<path d="M327.783 19.386H328.683C329.146 19.3859 329.59 19.2019 329.918 18.8746L332.023 16.7705C332.088 16.7055 332.165 16.6539 332.25 16.6187C332.335 16.5835 332.425 16.5654 332.517 16.5654C332.609 16.5654 332.7 16.5835 332.784 16.6187C332.869 16.6539 332.946 16.7055 333.011 16.7705L335.111 18.8669C335.273 19.0291 335.465 19.1577 335.677 19.2454C335.889 19.3332 336.116 19.3783 336.345 19.3783H337.077" stroke="white" stroke-width="0.515429" stroke-linecap="round" stroke-linejoin="round"/>
<path d="M311.406 20.7315C311.184 20.7322 310.964 20.6887 310.759 20.6037C310.553 20.5187 310.367 20.3937 310.21 20.2361L308.483 18.5131C308.422 18.4546 308.341 18.4219 308.256 18.4219C308.172 18.4219 308.09 18.4546 308.029 18.5131L306.296 20.2459C306.139 20.4035 305.953 20.5284 305.748 20.6134C305.542 20.6985 305.322 20.7419 305.1 20.7412H304.76L306.947 22.9289C307.275 23.2568 307.72 23.441 308.184 23.441C308.648 23.441 309.093 23.2568 309.421 22.9289L311.614 20.735L311.406 20.7315Z" fill="white"/>
<path d="M305.102 14.6225C305.325 14.622 305.545 14.6655 305.75 14.7505C305.955 14.8356 306.142 14.9604 306.299 15.1179L308.032 16.8513C308.092 16.9114 308.174 16.9451 308.259 16.9451C308.344 16.9451 308.425 16.9114 308.486 16.8513L310.213 15.1242C310.37 14.9667 310.556 14.8418 310.761 14.7568C310.967 14.6718 311.187 14.6283 311.409 14.6288H311.618L309.425 12.4355C309.262 12.273 309.069 12.1441 308.857 12.0561C308.645 11.9681 308.417 11.9229 308.188 11.9229C307.958 11.9229 307.73 11.9681 307.518 12.0561C307.306 12.1441 307.113 12.273 306.951 12.4355L304.764 14.6225H305.102Z" fill="white"/>
<path d="M313.432 16.4425L312.108 15.1187C312.078 15.1307 312.046 15.1371 312.014 15.1375H311.411C311.097 15.1388 310.797 15.264 310.575 15.4859L308.845 17.2096C308.768 17.2866 308.677 17.3476 308.576 17.3892C308.476 17.4309 308.368 17.4522 308.259 17.452C308.039 17.4524 307.828 17.3655 307.672 17.2103L305.939 15.4768C305.717 15.255 305.417 15.1298 305.103 15.1285H304.362C304.332 15.1279 304.301 15.1218 304.273 15.1104L302.942 16.4411C302.78 16.6035 302.651 16.7963 302.563 17.0086C302.475 17.2208 302.43 17.4484 302.43 17.6781C302.43 17.9079 302.475 18.1354 302.563 18.3476C302.651 18.5599 302.78 18.7527 302.942 18.9152L304.273 20.2459C304.301 20.2345 304.332 20.2283 304.362 20.2278H305.103C305.417 20.2262 305.717 20.1011 305.939 19.8794L307.672 18.146C307.83 17.9952 308.04 17.9111 308.259 17.9111C308.477 17.9111 308.687 17.9952 308.845 18.146L310.572 19.8731C310.794 20.0948 311.095 20.22 311.408 20.2215H312.011C312.043 20.2219 312.075 20.2285 312.105 20.241L313.429 18.9172C313.757 18.5891 313.941 18.1441 313.941 17.6802C313.941 17.2163 313.757 16.7714 313.429 16.4432" fill="white"/>
<path d="M318.574 22.0161C318.464 22.021 318.355 22.0376 318.249 22.0655V22.4975C318.33 22.5261 318.416 22.5404 318.502 22.54C318.719 22.54 318.821 22.4668 318.821 22.2759C318.821 22.0969 318.737 22.0161 318.574 22.0161ZM318.176 22.818V21.9645H318.236L318.242 22.0014C318.352 21.9719 318.466 21.9537 318.58 21.9471C318.659 21.9416 318.737 21.9643 318.801 22.0112C318.836 22.0452 318.863 22.0867 318.88 22.1325C318.897 22.1783 318.904 22.2273 318.899 22.2759C318.903 22.3302 318.892 22.3845 318.868 22.433C318.843 22.4815 318.806 22.5224 318.76 22.5511C318.681 22.5897 318.595 22.6088 318.508 22.6069C318.42 22.6064 318.332 22.593 318.248 22.5672V22.818H318.176Z" fill="white"/>
<path d="M319.442 22.014C319.226 22.014 319.13 22.0837 319.13 22.2725C319.13 22.4613 319.225 22.54 319.442 22.54C319.66 22.54 319.754 22.4703 319.754 22.2822C319.754 22.0941 319.659 22.014 319.442 22.014ZM319.721 22.54C319.638 22.5916 319.54 22.616 319.442 22.6097C319.344 22.6155 319.247 22.5912 319.164 22.54C319.125 22.509 319.094 22.4687 319.075 22.4228C319.055 22.377 319.047 22.327 319.052 22.2773C319.048 22.2277 319.056 22.1777 319.075 22.1317C319.094 22.0858 319.125 22.0454 319.164 22.014C319.247 21.9624 319.344 21.9381 319.442 21.9443C319.54 21.9382 319.638 21.9626 319.721 22.014C319.76 22.0451 319.79 22.0852 319.81 22.131C319.829 22.1767 319.837 22.2265 319.832 22.276C319.837 22.3258 319.83 22.376 319.81 22.4221C319.791 22.4682 319.76 22.5087 319.721 22.54Z" fill="white"/>
<path d="M320.747 22.589L320.506 22.0706H320.501L320.263 22.589H320.201L319.943 21.9619H320.024L320.238 22.4865H320.243L320.476 21.9619H320.545L320.784 22.4865H320.789L320.998 21.9619H321.076L320.819 22.589H320.747Z" fill="white"/>
<path d="M321.537 22.0127C321.336 22.0127 321.269 22.1019 321.258 22.2308H321.82C321.814 22.088 321.741 22.0127 321.541 22.0127H321.537ZM321.541 22.6071C321.449 22.6169 321.356 22.592 321.281 22.5374C321.245 22.5044 321.217 22.4637 321.199 22.4183C321.181 22.373 321.173 22.3241 321.177 22.2754C321.174 22.2248 321.183 22.1743 321.203 22.1279C321.223 22.0815 321.254 22.0404 321.293 22.0079C321.366 21.9624 321.451 21.9405 321.537 21.9452C321.624 21.9398 321.712 21.9609 321.787 22.0058C321.877 22.0664 321.895 22.173 321.895 22.2942H321.253C321.253 22.4224 321.298 22.5367 321.54 22.5367C321.649 22.5341 321.757 22.522 321.864 22.5005V22.5659C321.755 22.5886 321.645 22.6016 321.535 22.605" fill="white"/>
<path d="M322.104 22.5898V21.9627H322.163L322.17 21.9997C322.27 21.9667 322.374 21.9484 322.48 21.9453H322.489V22.015H322.471C322.371 22.0172 322.272 22.0338 322.177 22.0645V22.5884L322.104 22.5898Z" fill="white"/>
<path d="M322.912 22.0126C322.712 22.0126 322.643 22.1018 322.634 22.2307H323.196C323.19 22.0878 323.116 22.0126 322.917 22.0126H322.912ZM322.917 22.6069C322.825 22.6165 322.732 22.5917 322.657 22.5372C322.623 22.5038 322.596 22.4632 322.579 22.4183C322.562 22.3733 322.556 22.3252 322.56 22.2774C322.557 22.2268 322.566 22.1763 322.586 22.1298C322.607 22.0834 322.637 22.0423 322.676 22.0098C322.749 21.9643 322.834 21.9424 322.92 21.9471C323.007 21.9417 323.094 21.9629 323.169 22.0077C323.26 22.0683 323.277 22.1749 323.277 22.2962H322.636C322.636 22.4244 322.681 22.5386 322.923 22.5386C323.032 22.536 323.14 22.5239 323.247 22.5024V22.5679C323.138 22.5905 323.028 22.6035 322.917 22.6069Z" fill="white"/>
<path d="M324.071 22.0565C323.99 22.0282 323.905 22.0141 323.819 22.0147C323.603 22.0147 323.499 22.0879 323.499 22.2781C323.499 22.4683 323.584 22.5379 323.747 22.5379C323.857 22.5328 323.965 22.5167 324.071 22.4899V22.0565ZM324.085 22.5902L324.079 22.5526C323.969 22.5823 323.855 22.6007 323.741 22.6076C323.662 22.6137 323.583 22.5906 323.52 22.5428C323.484 22.5089 323.457 22.4675 323.44 22.4217C323.423 22.3758 323.417 22.3267 323.421 22.2781C323.417 22.224 323.428 22.1699 323.453 22.1216C323.477 22.0733 323.515 22.0327 323.561 22.0042C323.639 21.9648 323.726 21.9454 323.814 21.9478C323.901 21.9488 323.988 21.9622 324.072 21.9875V21.7012H324.145V22.5902H324.085Z" fill="white"/>
<path d="M325.218 22.0168C325.108 22.0217 324.999 22.0383 324.893 22.0663V22.4968C324.974 22.5264 325.06 22.5413 325.146 22.5407C325.363 22.5407 325.465 22.4676 325.465 22.2767C325.465 22.0976 325.381 22.0168 325.218 22.0168ZM325.405 22.5519C325.326 22.5904 325.24 22.6095 325.153 22.6076C325.058 22.6066 324.964 22.5906 324.874 22.5602V22.5902H324.824V21.7012H324.894V21.9973C325.002 21.9696 325.113 21.9524 325.225 21.9457C325.304 21.9403 325.382 21.963 325.446 22.0098C325.481 22.0439 325.508 22.0853 325.525 22.1311C325.542 22.1769 325.548 22.226 325.544 22.2746C325.548 22.3288 325.537 22.3831 325.513 22.4316C325.488 22.4802 325.451 22.521 325.405 22.5498" fill="white"/>
<path d="M325.636 22.8327V22.763C325.671 22.763 325.705 22.7693 325.728 22.7693C325.771 22.7727 325.813 22.7619 325.848 22.7386C325.884 22.7152 325.911 22.6806 325.924 22.6404L325.948 22.5909L325.621 21.9639H325.705L325.984 22.5031H325.989L326.255 21.9639H326.338L325.99 22.6655C325.925 22.793 325.856 22.8348 325.728 22.8348C325.697 22.8362 325.667 22.8355 325.636 22.8327Z" fill="white"/>
<path d="M327.346 22.2324H327.103V22.4519H327.347C327.514 22.4519 327.577 22.4331 327.577 22.3411C327.577 22.2491 327.49 22.2324 327.346 22.2324ZM327.301 21.8771H327.103V22.1H327.302C327.467 22.1 327.533 22.0805 327.533 21.9872C327.533 21.8938 327.45 21.8771 327.301 21.8771ZM327.678 22.5299C327.588 22.5863 327.48 22.5891 327.284 22.5891H326.914V21.7412H327.275C327.445 21.7412 327.549 21.7412 327.635 21.7956C327.664 21.8127 327.687 21.8376 327.703 21.8674C327.718 21.8972 327.725 21.9307 327.722 21.9642C327.724 22.006 327.712 22.0473 327.688 22.0815C327.664 22.1156 327.629 22.1406 327.588 22.1523V22.1572C327.697 22.1815 327.768 22.2373 327.768 22.3578C327.77 22.392 327.763 22.4263 327.747 22.4567C327.731 22.4872 327.707 22.5125 327.678 22.5299Z" fill="white"/>
<path d="M328.509 22.3276C328.44 22.3214 328.362 22.3179 328.284 22.3179C328.157 22.3179 328.112 22.3437 328.112 22.4022C328.112 22.4607 328.149 22.4858 328.247 22.4858C328.335 22.4827 328.423 22.4703 328.509 22.4489V22.3276ZM328.546 22.5903L328.541 22.5527C328.431 22.5841 328.317 22.6025 328.202 22.6077C328.136 22.6121 328.07 22.5961 328.013 22.5617C327.99 22.5442 327.972 22.5213 327.96 22.4949C327.947 22.4685 327.942 22.4395 327.944 22.4105C327.942 22.375 327.951 22.3398 327.97 22.3096C327.989 22.2794 328.016 22.2555 328.049 22.2412C328.124 22.2132 328.204 22.2013 328.284 22.2064C328.349 22.2064 328.437 22.2099 328.51 22.2148V22.2064C328.51 22.1089 328.446 22.0768 328.27 22.0768C328.2 22.0768 328.119 22.0803 328.04 22.088V21.9612C328.128 21.9542 328.227 21.9493 328.308 21.9493C328.409 21.9405 328.51 21.9605 328.599 22.0071C328.669 22.058 328.684 22.1284 328.684 22.2217V22.5917L328.546 22.5903Z" fill="white"/>
<path d="M329.5 22.5896V22.2412C329.5 22.1277 329.441 22.0866 329.337 22.0866C329.251 22.0903 329.166 22.1036 329.082 22.1263V22.5868H328.91V21.9598H329.05L329.056 21.9988C329.164 21.9672 329.276 21.9483 329.39 21.9423C329.467 21.9364 329.543 21.9592 329.604 22.0064C329.629 22.0319 329.649 22.0627 329.661 22.0965C329.673 22.1304 329.677 22.1665 329.674 22.2022V22.5847L329.5 22.5896Z" fill="white"/>
<path d="M330.165 22.6072C330.082 22.6136 330 22.5901 329.933 22.541C329.897 22.5073 329.87 22.466 329.852 22.4201C329.835 22.3742 329.829 22.325 329.834 22.2762C329.83 22.2246 329.84 22.1729 329.863 22.1262C329.885 22.0795 329.919 22.0393 329.961 22.0094C330.045 21.9625 330.14 21.941 330.236 21.9474C330.305 21.9474 330.378 21.9523 330.456 21.9592V22.093C330.393 22.0874 330.316 22.0819 330.256 22.0819C330.091 22.0819 330.013 22.1341 330.013 22.2776C330.013 22.4212 330.071 22.4706 330.207 22.4706C330.295 22.4679 330.383 22.4572 330.47 22.4386V22.5675C330.37 22.5904 330.268 22.6037 330.165 22.6072Z" fill="white"/>
<path d="M330.985 22.078C330.819 22.078 330.746 22.1302 330.746 22.2724C330.746 22.4145 330.815 22.4751 330.985 22.4751C331.154 22.4751 331.221 22.4242 331.221 22.2821C331.221 22.14 331.151 22.078 330.985 22.078ZM331.284 22.5406C331.193 22.5921 331.089 22.6152 330.985 22.6068C330.88 22.6149 330.775 22.5918 330.684 22.5406C330.643 22.5107 330.61 22.4707 330.59 22.4245C330.569 22.3783 330.561 22.3276 330.566 22.2772C330.561 22.2267 330.569 22.1757 330.59 22.1293C330.61 22.0829 330.643 22.0427 330.684 22.0125C330.775 21.9615 330.88 21.9387 330.985 21.947C331.089 21.939 331.193 21.9618 331.284 22.0125C331.325 22.0426 331.357 22.0827 331.377 22.1288C331.397 22.175 331.406 22.2256 331.401 22.2758C331.405 22.3262 331.397 22.3771 331.377 22.4234C331.357 22.4698 331.325 22.5101 331.284 22.5406Z" fill="white"/>
<path d="M332.41 22.6068C332.301 22.6137 332.194 22.5824 332.106 22.5183C332.004 22.4347 331.973 22.3044 331.973 22.1644C331.97 22.0948 331.983 22.0253 332.013 21.9624C332.044 21.8995 332.089 21.8451 332.145 21.8042C332.255 21.7437 332.379 21.7158 332.504 21.7241C332.598 21.7241 332.694 21.7303 332.8 21.7387V21.8913C332.71 21.8836 332.598 21.8773 332.512 21.8773C332.27 21.8773 332.168 21.9693 332.168 22.1644C332.168 22.3595 332.262 22.4528 332.441 22.4528C332.568 22.4487 332.695 22.4316 332.818 22.402V22.5539C332.684 22.5853 332.548 22.6032 332.41 22.6075" fill="white"/>
<path d="M333.33 22.059C333.185 22.059 333.129 22.1105 333.121 22.206H333.539C333.534 22.1042 333.474 22.059 333.33 22.059ZM333.304 22.6073C333.21 22.6157 333.116 22.5911 333.039 22.5376C333.004 22.5045 332.976 22.4638 332.959 22.4185C332.941 22.3732 332.935 22.3246 332.939 22.2763C332.936 22.2263 332.945 22.1763 332.965 22.1305C332.986 22.0848 333.017 22.0445 333.056 22.013C333.138 21.9635 333.234 21.9406 333.33 21.9475C333.424 21.9416 333.518 21.9634 333.601 22.0102C333.701 22.0799 333.709 22.1899 333.711 22.3188H333.116C333.121 22.4143 333.171 22.4756 333.347 22.4756C333.459 22.4731 333.57 22.4624 333.68 22.4435V22.5662C333.556 22.5897 333.43 22.6035 333.304 22.6073Z" fill="white"/>
<path d="M334.488 22.5896V22.2412C334.488 22.1277 334.43 22.0866 334.326 22.0866C334.24 22.0903 334.155 22.1036 334.071 22.1263V22.5868H333.896V21.9598H334.039L334.046 21.9988C334.154 21.9672 334.266 21.9482 334.379 21.9423C334.456 21.9364 334.533 21.9592 334.594 22.0064C334.619 22.0319 334.639 22.0627 334.651 22.0965C334.663 22.1304 334.667 22.1665 334.664 22.2022V22.5847L334.488 22.5896Z" fill="white"/>
<path d="M335.158 22.6073C335.119 22.611 335.081 22.6048 335.045 22.5892C335.01 22.5736 334.979 22.5491 334.955 22.5181C334.921 22.4612 334.905 22.395 334.909 22.3286V22.0945H334.783V21.9649H334.909L334.928 21.7754H335.083V21.9649H335.329V22.0945H335.083V22.2951C335.08 22.3356 335.086 22.3762 335.1 22.4143C335.111 22.4345 335.127 22.4509 335.148 22.4613C335.168 22.4717 335.191 22.4754 335.214 22.4721C335.256 22.4714 335.297 22.4672 335.338 22.4596V22.585C335.279 22.598 335.219 22.6055 335.158 22.6073Z" fill="white"/>
<path d="M335.5 22.5898V21.9627H335.639L335.646 22.0017C335.745 21.9681 335.85 21.9491 335.955 21.9453H335.977V22.0944C335.957 22.0944 335.934 22.0944 335.917 22.0944C335.834 22.0947 335.751 22.1055 335.671 22.1265V22.5884L335.5 22.5898Z" fill="white"/>
<path d="M336.614 22.3276C336.541 22.3214 336.466 22.3179 336.388 22.3179C336.26 22.3179 336.216 22.3437 336.216 22.4022C336.216 22.4607 336.254 22.4858 336.351 22.4858C336.44 22.4826 336.528 22.4702 336.614 22.4489V22.3276ZM336.651 22.5903L336.644 22.5548C336.533 22.5861 336.419 22.6046 336.304 22.6098C336.238 22.6141 336.172 22.5981 336.115 22.5638C336.092 22.5462 336.073 22.5233 336.061 22.4969C336.049 22.4705 336.044 22.4416 336.045 22.4126C336.044 22.3761 336.053 22.3399 336.073 22.3092C336.093 22.2785 336.122 22.2547 336.156 22.2412C336.231 22.2138 336.31 22.2024 336.389 22.2078C336.455 22.2078 336.543 22.2113 336.617 22.2162V22.2064C336.617 22.1089 336.552 22.0768 336.376 22.0768C336.306 22.0768 336.225 22.0803 336.146 22.088V21.9612C336.234 21.9542 336.333 21.9493 336.414 21.9493C336.515 21.9404 336.616 21.9605 336.705 22.0071C336.775 22.058 336.791 22.1284 336.791 22.2217V22.5917L336.651 22.5903Z" fill="white"/>
<path d="M337.012 21.7012H337.187V22.5902H337.012V21.7012Z" fill="white"/>
<path fill-rule="evenodd" clip-rule="evenodd" d="M268.972 22.4231V18.2741H271.113C271.991 18.2741 272.731 17.9801 273.335 17.4002L273.48 17.2532C274.583 16.0526 274.51 14.1823 273.335 13.0715C272.747 12.4835 271.942 12.1649 271.113 12.1813H267.676V22.4231H268.972ZM268.971 17.016V13.4387H271.145C271.612 13.4387 272.055 13.6184 272.385 13.9451C273.086 14.6312 273.102 15.7746 272.426 16.4851C272.095 16.8363 271.628 17.0323 271.145 17.016H268.971ZM279.525 15.9634C278.969 15.4488 278.213 15.1875 277.255 15.1875C276.023 15.1875 275.097 15.6449 274.485 16.5514L275.629 17.2783C276.047 16.6576 276.619 16.3472 277.343 16.3472C277.802 16.3472 278.245 16.5188 278.591 16.8291C278.929 17.1231 279.122 17.5478 279.122 17.997V18.2992C278.623 18.0215 277.995 17.8745 277.223 17.8745C276.321 17.8745 275.596 18.0869 275.057 18.5198C274.518 18.9526 274.244 19.5243 274.244 20.2512C274.228 20.9128 274.51 21.5417 275.009 21.9664C275.516 22.4237 276.16 22.6524 276.917 22.6524C277.81 22.6524 278.519 22.2522 279.058 21.4518H279.114V22.4237H280.354V18.1032C280.354 17.1966 280.08 16.4779 279.525 15.9634ZM276.007 21.1335C275.742 20.9375 275.581 20.6189 275.581 20.2759C275.581 19.8921 275.758 19.5735 276.104 19.3203C276.458 19.0672 276.901 18.9365 277.424 18.9365C278.149 18.9283 278.713 19.0917 279.115 19.4184C279.115 19.9737 278.898 20.4556 278.471 20.864C278.085 21.256 277.561 21.4765 277.014 21.4765C276.651 21.4847 276.297 21.3622 276.007 21.1335ZM283.141 25.5024L287.472 15.4157H286.064L284.059 20.4468H284.035L281.982 15.4157H280.573L283.415 21.9741L281.805 25.5024H283.141Z" fill="white"/>
<path d="M264.5 17.375C264.5 16.9748 264.468 16.5746 264.404 16.1826H258.938V18.445H262.069C261.94 19.1719 261.522 19.8252 260.91 20.2336V21.7037H262.777C263.872 20.6828 264.5 19.1719 264.5 17.375Z" fill="white"/>
<path d="M258.938 23.1245C260.5 23.1245 261.82 22.6018 262.778 21.7034L260.91 20.2332C260.387 20.5926 259.719 20.7968 258.938 20.7968C257.425 20.7968 256.145 19.7595 255.686 18.3711H253.762V19.8902C254.744 21.8749 256.748 23.1245 258.938 23.1245Z" fill="white"/>
<path d="M255.685 18.3716C255.443 17.6447 255.443 16.8525 255.685 16.1174V14.6064H253.761C252.931 16.2644 252.931 18.2246 253.761 19.8825L255.685 18.3716Z" fill="white"/>
<path d="M258.938 13.6913C259.767 13.675 260.564 13.9935 261.16 14.5734L262.818 12.8909C261.764 11.8945 260.379 11.3473 258.938 11.3636C256.748 11.3636 254.744 12.6214 253.762 14.6061L255.686 16.1252C256.145 14.7286 257.425 13.6913 258.938 13.6913Z" fill="white"/>
<path fill-rule="evenodd" clip-rule="evenodd" d="M212.021 21.7119H209.884C209.738 21.7119 209.614 21.8182 209.591 21.9625L208.727 27.4411C208.71 27.5492 208.793 27.6466 208.903 27.6466H209.923C210.069 27.6466 210.194 27.5404 210.216 27.3958L210.449 25.9182C210.472 25.7735 210.597 25.6673 210.742 25.6673H211.419C212.826 25.6673 213.638 24.9863 213.851 23.6367C213.946 23.0463 213.855 22.5824 213.578 22.2574C213.275 21.9007 212.736 21.7119 212.021 21.7119ZM212.267 23.7129C212.15 24.4796 211.565 24.4796 210.998 24.4796H210.676L210.902 23.0477C210.916 22.9613 210.991 22.8975 211.078 22.8975H211.226C211.612 22.8975 211.976 22.8975 212.164 23.1174C212.276 23.2487 212.31 23.4436 212.267 23.7129ZM218.407 23.6883H217.384C217.297 23.6883 217.222 23.7521 217.208 23.8387L217.163 24.1248L217.091 24.0211C216.87 23.6996 216.376 23.5922 215.883 23.5922C214.752 23.5922 213.787 24.4485 213.599 25.6497C213.501 26.2488 213.64 26.8217 213.98 27.2213C214.292 27.5887 214.738 27.7418 215.269 27.7418C216.179 27.7418 216.685 27.156 216.685 27.156L216.639 27.4403C216.622 27.5491 216.706 27.6465 216.815 27.6465H217.736C217.883 27.6465 218.006 27.5402 218.03 27.3957L218.583 23.8939C218.6 23.7862 218.517 23.6883 218.407 23.6883ZM216.981 25.6796C216.882 26.2641 216.418 26.6565 215.827 26.6565C215.53 26.6565 215.292 26.5612 215.14 26.3806C214.989 26.2014 214.931 25.9461 214.979 25.6618C215.072 25.0823 215.543 24.6772 216.126 24.6772C216.416 24.6772 216.653 24.7736 216.808 24.9558C216.964 25.1398 217.026 25.3966 216.981 25.6796ZM222.828 23.6882H223.856C224 23.6882 224.084 23.8497 224.002 23.9678L220.583 28.9037C220.528 28.9836 220.436 29.0312 220.339 29.0312H219.312C219.167 29.0312 219.083 28.8684 219.167 28.75L220.231 27.247L219.099 23.9237C219.06 23.8082 219.145 23.6882 219.268 23.6882H220.278C220.41 23.6882 220.525 23.7743 220.563 23.9L221.164 25.9072L222.582 23.8184C222.638 23.7369 222.73 23.6882 222.828 23.6882Z" fill="white"/>
<path fill-rule="evenodd" clip-rule="evenodd" d="M233.974 27.4404L234.851 21.8616C234.865 21.775 234.94 21.7112 235.027 21.7109H236.014C236.123 21.7109 236.207 21.8087 236.189 21.9168L235.325 27.3951C235.302 27.5397 235.178 27.646 235.031 27.646H234.15C234.041 27.646 233.957 27.5485 233.974 27.4404ZM227.259 21.7112H225.122C224.976 21.7112 224.852 21.8175 224.829 21.9618L223.965 27.4404C223.948 27.5485 224.032 27.646 224.141 27.646H225.237C225.339 27.646 225.426 27.5716 225.442 27.4704L225.687 25.9175C225.71 25.7728 225.835 25.6666 225.98 25.6666H226.656C228.064 25.6666 228.876 24.9856 229.089 23.636C229.184 23.0456 229.092 22.5817 228.816 22.2567C228.512 21.9 227.974 21.7112 227.259 21.7112ZM227.506 23.7122C227.389 24.4789 226.803 24.4789 226.237 24.4789H225.915L226.141 23.047C226.154 22.9606 226.229 22.8968 226.317 22.8968H226.464C226.85 22.8968 227.214 22.8968 227.402 23.1167C227.514 23.248 227.548 23.4429 227.506 23.7122ZM233.645 23.6876H232.623C232.535 23.6876 232.46 23.7514 232.447 23.838L232.402 24.1241L232.33 24.0204C232.108 23.6989 231.615 23.5915 231.122 23.5915C229.991 23.5915 229.026 24.4478 228.838 25.649C228.74 26.2481 228.879 26.821 229.219 27.2206C229.531 27.588 229.977 27.7411 230.507 27.7411C231.418 27.7411 231.923 27.1553 231.923 27.1553L231.878 27.4397C231.861 27.5484 231.944 27.6458 232.054 27.6458H232.975C233.121 27.6458 233.245 27.5395 233.268 27.395L233.822 23.8932C233.839 23.7855 233.755 23.6876 233.645 23.6876ZM232.219 25.6789C232.121 26.2634 231.656 26.6558 231.065 26.6558C230.768 26.6558 230.53 26.5605 230.378 26.38C230.226 26.2007 230.17 25.9454 230.217 25.6612C230.31 25.0816 230.781 24.6765 231.364 24.6765C231.654 24.6765 231.89 24.7729 232.046 24.9551C232.202 25.1391 232.264 25.3959 232.219 25.6789Z" fill="white"/>
<path d="M219.927 19.7515L220.189 18.0832L219.604 18.0696H216.811L218.752 5.75862C218.758 5.72145 218.778 5.6868 218.806 5.66219C218.835 5.63758 218.872 5.62402 218.91 5.62402H223.621C225.185 5.62402 226.264 5.94946 226.827 6.5918C227.091 6.89314 227.26 7.20803 227.341 7.55456C227.426 7.91818 227.428 8.3526 227.345 8.88245L227.339 8.92112V9.26061L227.603 9.41028C227.825 9.5283 228.002 9.6634 228.138 9.81809C228.364 10.0757 228.51 10.4032 228.572 10.7914C228.635 11.1907 228.614 11.6658 228.51 12.2036C228.389 12.8224 228.194 13.3613 227.931 13.8022C227.689 14.2085 227.381 14.5454 227.015 14.8067C226.665 15.0548 226.25 15.2431 225.78 15.3637C225.325 15.4821 224.806 15.542 224.237 15.542H223.871C223.609 15.542 223.354 15.6364 223.154 15.8056C222.954 15.9784 222.821 16.2143 222.78 16.4725L222.753 16.6228L222.289 19.5632L222.268 19.6711C222.262 19.7054 222.253 19.7225 222.239 19.734C222.226 19.7444 222.208 19.7515 222.19 19.7515H219.927Z" fill="white"/>
<path d="M227.854 8.96094C227.84 9.05083 227.824 9.14273 227.806 9.23715C227.185 12.4268 225.059 13.5287 222.345 13.5287H220.963C220.631 13.5287 220.351 13.7697 220.299 14.0972L219.591 18.5851L219.391 19.8571C219.357 20.0721 219.523 20.266 219.74 20.266H222.192C222.482 20.266 222.728 20.0551 222.774 19.7688L222.798 19.6442L223.26 16.7152L223.289 16.5546C223.335 16.2673 223.582 16.0564 223.872 16.0564H224.238C226.613 16.0564 228.473 15.0921 229.016 12.3017C229.243 11.1361 229.126 10.1628 228.525 9.47822C228.343 9.27181 228.118 9.10055 227.854 8.96094Z" fill="#CECECE"/>
<path d="M227.204 8.7015C227.109 8.67387 227.011 8.64876 226.911 8.62616C226.81 8.60407 226.706 8.58449 226.6 8.56741C226.227 8.50714 225.819 8.47852 225.381 8.47852H221.689C221.598 8.47852 221.512 8.4991 221.434 8.53627C221.264 8.61813 221.138 8.77935 221.107 8.97672L220.321 13.9517L220.299 14.0969C220.351 13.7694 220.63 13.5284 220.962 13.5284H222.344C225.059 13.5284 227.184 12.426 227.806 9.23687C227.824 9.14245 227.84 9.05055 227.854 8.96065C227.697 8.87728 227.526 8.80597 227.343 8.74519C227.298 8.73012 227.251 8.71557 227.204 8.7015Z" fill="white"/>
<path d="M221.108 8.97696C221.138 8.77958 221.265 8.61837 221.435 8.53701C221.513 8.49984 221.599 8.47925 221.69 8.47925H225.382C225.82 8.47925 226.228 8.50788 226.6 8.56815C226.707 8.58522 226.81 8.60481 226.911 8.6269C227.012 8.64951 227.11 8.67463 227.205 8.70224C227.252 8.71631 227.299 8.73086 227.344 8.74544C227.527 8.8062 227.698 8.87802 227.855 8.96089C228.04 7.78217 227.854 6.97962 227.216 6.2529C226.514 5.45287 225.245 5.11035 223.623 5.11035H218.912C218.58 5.11035 218.298 5.35141 218.246 5.67936L216.284 18.1169C216.246 18.363 216.435 18.585 216.683 18.585H219.592L220.322 13.952L221.108 8.97696Z" fill="white"/>
<path fill-rule="evenodd" clip-rule="evenodd" d="M120.728 24.3438C119.092 25.7561 116.969 26.6087 114.649 26.6087C109.473 26.6087 105.277 22.3641 105.277 17.1281C105.277 11.8921 109.473 7.64746 114.649 7.64746C116.969 7.64746 119.092 8.50002 120.728 9.9123C122.365 8.50002 124.488 7.64746 126.807 7.64746C131.983 7.64746 136.179 11.8921 136.179 17.1281C136.179 22.3641 131.983 26.6087 126.807 26.6087C124.488 26.6087 122.365 25.7561 120.728 24.3438Z" fill="white"/>
<path fill-rule="evenodd" clip-rule="evenodd" d="M120.729 24.3438C122.744 22.6049 124.021 20.0174 124.021 17.1281C124.021 14.2387 122.744 11.6512 120.729 9.9123C122.365 8.50002 124.488 7.64746 126.808 7.64746C131.983 7.64746 136.179 11.8921 136.179 17.1281C136.179 22.3641 131.983 26.6087 126.808 26.6087C124.488 26.6087 122.365 25.7561 120.729 24.3438Z" fill="#F4F4F4"/>
<path fill-rule="evenodd" clip-rule="evenodd" d="M120.728 24.3436C122.743 22.6047 124.021 20.0173 124.021 17.1279C124.021 14.2385 122.743 11.651 120.728 9.91211C118.713 11.651 117.436 14.2385 117.436 17.1279C117.436 20.0173 118.713 22.6047 120.728 24.3436Z" fill="#B7B7B7"/>
<path fill-rule="evenodd" clip-rule="evenodd" d="M157.068 12.4541L152.57 22.4068H157.954L158.622 20.82H160.148L160.815 22.4068H166.741V21.1957L167.269 22.4068H170.335L170.863 21.1701V22.4068H183.188L184.687 20.8612L186.09 22.4068L192.421 22.4196L187.909 17.4583L192.421 12.4541H186.189L184.73 13.9712L183.371 12.4541H169.962L168.811 15.023L167.633 12.4541H162.26V13.624L161.662 12.4541H157.068ZM175.473 13.8671H182.551L184.715 16.2054L186.95 13.8671H189.115L185.826 17.4565L189.115 21.0046H186.852L184.687 18.6391L182.441 21.0046H175.473V13.8671ZM177.221 16.6501V15.3463V15.3451H181.637L183.564 17.4301L181.551 19.5265H177.221V18.1032H181.082V16.6501H177.221ZM158.109 13.8671H160.733L163.717 20.6161V13.8671H166.592L168.896 18.7061L171.019 13.8671H173.88V21.0088H172.139L172.125 15.4126L169.587 21.0088H168.03L165.478 15.4126V21.0088H161.898L161.219 19.4077H157.551L156.874 21.0074H154.955L158.109 13.8671ZM158.178 17.9277L159.386 15.0755L160.593 17.9277H158.178Z" fill="white"/>
<path fill-rule="evenodd" clip-rule="evenodd" d="M65.1781 23.1092H62.266L60.0823 14.7783C59.9787 14.3951 59.7586 14.0563 59.4349 13.8966C58.627 13.4953 57.7368 13.176 56.7656 13.0149V12.6942H61.4567C62.1042 12.6942 62.5898 13.176 62.6707 13.7355L63.8037 19.7449L66.7144 12.6942H69.5455L65.1781 23.1092ZM71.1643 23.1092H68.4141L70.6787 12.6942H73.4289L71.1643 23.1092ZM76.9871 15.5796C77.068 15.0186 77.5536 14.6979 78.1201 14.6979C79.0103 14.6174 79.9801 14.7784 80.7894 15.1783L81.2749 12.9359C80.4656 12.6152 79.5754 12.4541 78.7675 12.4541C76.0982 12.4541 74.1559 13.8967 74.1559 15.8989C74.1559 17.4221 75.5317 18.2219 76.5029 18.7037C77.5536 19.1841 77.9582 19.5048 77.8773 19.9852C77.8773 20.7059 77.068 21.0266 76.2601 21.0266C75.2889 21.0266 74.3178 20.7864 73.429 20.3851L72.9434 22.6289C73.9146 23.0288 74.9652 23.1899 75.9364 23.1899C78.9294 23.269 80.7894 21.8278 80.7894 19.6645C80.7894 16.9403 76.9871 16.7806 76.9871 15.5796ZM90.4136 23.1092L88.2299 12.6942H85.8844C85.3988 12.6942 84.9132 13.0149 84.7514 13.4953L80.7077 23.1092H83.5388L84.1039 21.5874H87.5825L87.9062 23.1092H90.4136ZM86.29 15.4993L87.0979 19.4246H84.8333L86.29 15.4993Z" fill="white"/>
<g clip-path="url(#clip0_878_19615)">
<path d="M7.52539 7.64746H7.90699V17.7796H7.52539V7.64746ZM8.28859 7.64746H8.67019V17.7796H8.28859V7.64746ZM10.5799 7.64746H10.9615V17.7796H10.5799V7.64746ZM18.0077 7.64746H18.3893V17.7796H18.0077V7.64746ZM20.4909 7.64746H20.8725V17.7796H20.4909V7.64746ZM22.8988 7.64746H23.2804V17.7796H22.8988V7.64746ZM23.5194 7.64746H23.901V17.7796H23.5199L23.5194 7.64746ZM24.1408 7.64746H24.5224V17.7796H24.1408V7.64746ZM24.8392 7.64746H25.2208V17.7796H24.8393L24.8392 7.64746ZM25.5375 7.64746H25.9191V17.7796H25.5375V7.64746ZM27.4788 7.64746H27.8604V17.7796H27.4783L27.4788 7.64746ZM32.2921 7.64746H32.6737V17.7796H32.2921V7.64746ZM37.3128 7.64746H37.6943V17.7796H37.3127L37.3128 7.64746ZM38.6861 7.64746H39.0677V17.7796H38.6861V7.64746ZM39.679 7.64746H40.0606V17.7796H39.679V7.64746ZM40.2899 7.64746H40.6715V17.7796H40.2899V7.64746ZM13.0999 7.64746H13.4815V17.7796H13.0999V7.64746ZM9.28145 7.64746H9.96862V17.7796H9.28145V7.64746ZM13.8161 7.64746H14.5031V17.7796H13.8161V7.64746ZM17.0002 7.64746H17.6872V17.7796H17.0002V7.64746ZM18.6303 7.64746H19.3173V17.7796H18.6303V7.64746ZM21.1921 7.64746H21.8792V17.7796H21.1921V7.64746ZM28.496 7.64746H29.5646V17.7796H28.496V7.64746ZM29.8918 7.64746H30.7312V17.7796H29.8909L29.8918 7.64746ZM31.3648 7.64746H32.0518V17.7796H31.3648V7.64746ZM33.3125 7.64746H34.4581V17.7796H33.3125V7.64746ZM35.5559 7.64746H36.7016V17.7796H35.5559V7.64746ZM11.3435 7.64746H12.7175V17.7796H11.3435V7.64746ZM14.905 7.64746H15.9736V17.7796H14.905V7.64746Z" fill="white"/>
<path d="M8.02148 26.776V20.9766H10.1977C10.5613 20.9626 10.9241 21.0224 11.264 21.1525C11.5245 21.2638 11.7441 21.4532 11.8926 21.6945C12.0398 21.9228 12.1188 22.1884 12.1203 22.4601C12.1203 22.7078 12.0504 22.9504 11.9186 23.1602C11.7701 23.3912 11.5587 23.575 11.3093 23.6899C11.6294 23.7722 11.9138 23.9569 12.1193 24.2157C12.3094 24.4685 12.409 24.7778 12.402 25.094C12.4042 25.3565 12.3454 25.6159 12.2302 25.8517C12.1328 26.0632 11.9864 26.2484 11.8033 26.3921C11.6126 26.5289 11.3967 26.6265 11.1681 26.6795C10.8615 26.7498 10.5475 26.7824 10.2331 26.7767L8.02148 26.776ZM8.78965 23.4137H10.0438C10.2887 23.4233 10.5338 23.4007 10.7729 23.3464C10.9479 23.3021 11.103 23.2006 11.2137 23.058C11.3167 22.9098 11.3688 22.732 11.3619 22.5516C11.3655 22.3725 11.3174 22.1962 11.2235 22.0437C11.1338 21.8989 10.9945 21.7918 10.8315 21.7423C10.5424 21.6758 10.2456 21.6485 9.94921 21.6612H8.78991L8.78965 23.4137ZM8.78965 26.0918H10.2333C10.408 26.0964 10.5827 26.0873 10.7559 26.0644C10.9126 26.039 11.063 25.9839 11.199 25.9023C11.3234 25.822 11.4243 25.7102 11.4915 25.5783C11.57 25.4285 11.6096 25.2613 11.6066 25.0922C11.612 24.8904 11.554 24.692 11.4406 24.525C11.3287 24.3647 11.1664 24.2463 10.9796 24.1888C10.7033 24.1141 10.4173 24.0813 10.1313 24.0916H8.78965V26.0918ZM13.5235 23.9521C13.4748 23.1257 13.7533 22.3133 14.2986 21.6905C14.5556 21.4205 14.867 21.2082 15.2121 21.0674C15.5571 20.9266 15.9282 20.8606 16.3007 20.8737C16.8093 20.8668 17.3101 20.9996 17.7484 21.2578C18.1745 21.5097 18.5164 21.882 18.7312 22.328C18.9627 22.8137 19.0783 23.3465 19.069 23.8844C19.0788 24.4313 18.9571 24.9726 18.7142 25.4627C18.4937 25.9087 18.1416 26.2763 17.7056 26.5159C17.2745 26.7536 16.7897 26.8769 16.2974 26.874C15.7823 26.8825 15.2752 26.7457 14.8342 26.4795C14.4099 26.2222 14.07 25.8465 13.8564 25.3987C13.6361 24.9483 13.5222 24.4534 13.5235 23.9521ZM14.3151 23.9642C14.2821 24.5677 14.4855 25.1602 14.8822 25.6162C15.0611 25.8121 15.28 25.9674 15.524 26.0715C15.7681 26.1756 16.0316 26.2262 16.2969 26.2197C16.5637 26.2265 16.8288 26.1755 17.0741 26.0702C17.3194 25.9649 17.539 25.8078 17.7178 25.6097C18.118 25.1258 18.3183 24.5074 18.2778 23.8808C18.2884 23.4565 18.208 23.0349 18.042 22.6444C17.8956 22.3076 17.6519 22.0223 17.342 21.8253C17.0323 21.6307 16.673 21.5297 16.3073 21.5345C16.0482 21.5305 15.7908 21.578 15.5501 21.6741C15.3094 21.7701 15.0901 21.913 14.9049 22.0943C14.6858 22.35 14.5206 22.6474 14.4192 22.9686C14.3179 23.2898 14.2824 23.6281 14.3151 23.9633V23.9642ZM20.3275 26.7764V20.9766H21.0947V26.0913H23.9507V26.776L20.3275 26.7764ZM25.1805 26.7764V20.9766H29.374V21.6612H25.9478V23.4379H29.1561V24.1184H25.9478V26.092H29.5086V26.7767L25.1805 26.7764ZM32.3443 26.7764V21.6612H30.4326V20.9766H35.0296V21.6612H33.111V26.776L32.3443 26.7764ZM35.7372 23.9521C35.6892 23.1255 35.9683 22.3133 36.5143 21.6908C36.7713 21.4209 37.0826 21.2086 37.4277 21.0678C37.7727 20.927 38.1438 20.861 38.5162 20.8741C39.0249 20.8672 39.5256 21 39.964 21.2582C40.3901 21.51 40.7321 21.8824 40.9468 22.3284C41.1784 22.814 41.294 23.3468 41.2846 23.8848C41.2941 24.4318 41.1722 24.973 40.929 25.4631C40.7077 25.9099 40.3545 26.2778 39.9171 26.5171C39.486 26.7547 39.0012 26.878 38.5089 26.8752C37.9935 26.8836 37.4861 26.7466 37.0449 26.4798C36.6215 26.2223 36.2824 25.8466 36.0695 25.3991C35.8493 24.9486 35.7357 24.4535 35.7372 23.9521ZM36.5288 23.9642C36.4959 24.5677 36.6993 25.1602 37.0959 25.6162C37.2748 25.8121 37.4937 25.9674 37.7378 26.0715C37.9818 26.1756 38.2453 26.2262 38.5106 26.2197C38.7782 26.2273 39.0443 26.1768 39.2904 26.0716C39.5366 25.9664 39.757 25.8091 39.9365 25.6104C40.3367 25.1266 40.537 24.5081 40.4963 23.8815C40.5046 23.4568 40.4217 23.0352 40.2532 22.6452C40.1069 22.3084 39.8631 22.0231 39.5532 21.8261C39.2437 21.6316 38.8847 21.5307 38.5192 21.5353C38.2601 21.5313 38.0027 21.5788 37.7619 21.6748C37.5212 21.7709 37.3019 21.9137 37.1167 22.095C36.898 22.3508 36.7332 22.6482 36.6322 22.9692C36.5312 23.2902 36.496 23.6283 36.5288 23.9632V23.9642Z" fill="white"/>
</g>
<path d="M357.837 12.7258C357.504 13.2134 357.183 13.6085 356.945 14.0496C356.21 15.4149 356.076 16.8472 356.625 18.3078C357.287 20.0709 358.543 21.1952 360.385 21.6291C362.153 22.0452 363.715 21.5931 365.077 20.4222C365.265 20.261 365.371 20.2671 365.529 20.4328C365.82 20.7392 366.12 21.0378 366.425 21.3299C366.575 21.4728 366.567 21.5692 366.413 21.7105C364.919 23.0814 363.152 23.7241 361.137 23.6127C359.392 23.5163 357.871 22.8376 356.612 21.6208C355.609 20.6516 354.958 19.4747 354.634 18.1172C354.357 16.9647 354.39 15.8149 354.698 14.679C354.996 13.5808 355.533 12.6028 356.306 11.7606C356.539 11.5068 356.564 11.5068 356.807 11.7384C357.158 12.0736 357.508 12.4105 357.837 12.7264V12.7258Z" fill="white"/>
<path d="M377.059 14.7169C377.649 14.7169 378.172 14.707 378.694 14.728C378.77 14.7313 378.876 14.8737 378.907 14.9713C379.272 16.126 379.624 17.2841 379.982 18.441C379.999 18.4959 380.035 18.5446 380.098 18.6649C380.229 18.2332 380.339 17.8714 380.448 17.5096C380.71 16.6391 380.966 15.7664 381.241 14.8998C381.267 14.8183 381.407 14.7236 381.497 14.7197C381.921 14.7009 382.346 14.718 382.77 14.7086C382.982 14.7042 383.019 14.8422 383.067 14.999C383.416 16.1404 383.769 17.2808 384.122 18.4216C384.144 18.4909 384.172 18.5579 384.222 18.6926C384.434 17.9989 384.628 17.365 384.822 16.7311C384.998 16.1515 385.18 15.5736 385.348 14.9918C385.409 14.7812 385.52 14.6959 385.745 14.7059C386.122 14.7225 386.5 14.7125 386.879 14.7103C387.064 14.7092 387.159 14.7502 387.077 14.9696C386.641 16.1388 386.213 17.3107 385.785 18.4831C385.578 19.0522 385.372 19.6218 385.178 20.1959C385.099 20.4291 385.002 20.5704 384.713 20.5472C384.328 20.5167 383.939 20.5344 383.552 20.5422C383.391 20.5455 383.307 20.4984 383.254 20.3322C382.972 19.4489 382.677 18.5701 382.385 17.6902C382.299 17.4304 382.207 17.1727 382.101 16.8663C381.844 17.6614 381.604 18.4106 381.361 19.158C381.23 19.5598 381.105 19.9637 380.954 20.3577C380.923 20.4386 380.792 20.5272 380.702 20.5311C380.279 20.5494 379.854 20.5283 379.43 20.5444C379.234 20.5516 379.148 20.4646 379.088 20.3006C378.846 19.6362 378.6 18.9741 378.357 18.3103C377.966 17.2409 377.576 16.1709 377.186 15.1009C377.149 15.0001 377.118 14.897 377.059 14.7169H377.059Z" fill="white"/>
<path d="M370.597 18.2391C370.276 18.6281 369.812 18.8547 369.9 19.4438C369.941 19.723 369.9 20.0134 369.909 20.2987C369.915 20.4727 369.86 20.5475 369.674 20.5436C369.25 20.5337 368.826 20.5348 368.402 20.5436C368.231 20.547 368.169 20.4727 368.172 20.3159C368.173 20.2605 368.17 20.2056 368.17 20.1502C368.17 17.7482 368.17 15.3456 368.17 12.9436C368.17 12.5092 368.172 12.5087 368.596 12.5081C368.928 12.5081 369.26 12.5192 369.592 12.5048C369.831 12.4942 369.914 12.5779 369.912 12.8217C369.902 14.0274 369.908 15.2332 369.908 16.4389C369.908 16.5392 369.908 16.6395 369.908 16.8079C370.018 16.7071 370.091 16.6472 370.156 16.5802C370.688 16.0316 371.21 15.4736 371.755 14.9384C371.871 14.8242 372.067 14.7439 372.231 14.7334C372.671 14.7057 373.115 14.7228 373.558 14.725C373.647 14.725 373.736 14.74 373.89 14.7539C373.723 14.9461 373.6 15.0985 373.465 15.2398C372.965 15.7662 372.463 16.292 371.953 16.8096C371.829 16.9359 371.81 17.0223 371.913 17.183C372.587 18.2353 373.246 19.2964 373.909 20.3552C373.931 20.3918 373.939 20.4378 373.962 20.5076C373.877 20.5204 373.81 20.5392 373.743 20.5398C373.227 20.542 372.71 20.5353 372.194 20.5447C372.024 20.5481 371.931 20.4838 371.846 20.3386C371.45 19.6565 371.04 18.9816 370.597 18.2402L370.597 18.2391Z" fill="white"/>
<path d="M395.018 20.9096C395.236 21.0011 395.4 21.0831 395.573 21.1396C396.051 21.2964 396.656 20.9041 396.649 20.4093C396.645 20.1932 396.514 19.9754 396.425 19.7654C395.979 18.7176 395.527 17.6731 395.078 16.6265C394.86 16.1206 394.644 15.6147 394.431 15.1066C394.387 15.0002 394.361 14.8866 394.305 14.7082C394.57 14.7082 394.786 14.7082 395.002 14.7082C395.288 14.7082 395.575 14.6915 395.858 14.7187C395.959 14.7281 396.102 14.8234 396.138 14.9137C396.503 15.8346 396.848 16.7639 397.202 17.6892C397.302 17.9519 397.41 18.2112 397.58 18.4733C397.684 18.184 397.79 17.8953 397.89 17.605C398.196 16.7201 398.505 15.8358 398.801 14.9475C398.862 14.7641 398.962 14.7037 399.144 14.7065C399.61 14.7131 400.075 14.7087 400.614 14.7087C400.449 15.1431 400.314 15.5088 400.171 15.8712C399.728 16.9983 399.284 18.1258 398.833 19.2501C398.521 20.0247 398.226 20.8077 397.868 21.5607C397.531 22.2683 396.932 22.6451 396.135 22.6933C395.537 22.7293 394.977 22.6307 394.493 22.2572C394.427 22.2057 394.344 22.0671 394.368 22.0223C394.575 21.6394 394.805 21.2681 395.019 20.9091L395.018 20.9096Z" fill="white"/>
<path d="M394.382 14.0662C394.068 14.0063 393.793 13.9165 393.517 13.9105C393.103 13.901 392.782 14.5056 392.998 14.858C393.03 14.91 393.137 14.9366 393.21 14.9394C393.496 14.9494 393.782 14.9494 394.067 14.9433C394.257 14.9394 394.331 15.0181 394.323 15.2076C394.312 15.4647 394.314 15.7229 394.322 15.98C394.327 16.1479 394.252 16.2111 394.091 16.2089C393.815 16.2055 393.538 16.221 393.262 16.2055C393.028 16.1922 392.964 16.2886 392.965 16.5108C392.973 17.7254 392.969 18.94 392.969 20.154C392.969 20.5375 392.967 20.538 392.597 20.538C392.237 20.538 391.878 20.5258 391.519 20.5425C391.297 20.553 391.236 20.4754 391.238 20.2599C391.247 19.027 391.233 17.7941 391.248 16.5613C391.252 16.2864 391.186 16.1884 390.9 16.2022C390.47 16.2238 390.47 16.2055 390.469 15.7634C390.469 15.5794 390.477 15.3949 390.468 15.2115C390.458 15.0247 390.532 14.9505 390.722 14.9411C391.238 14.9161 391.238 14.9095 391.242 14.4075C391.252 13.3281 392.014 12.5468 393.157 12.4465C393.712 12.3978 394.235 12.5141 394.74 12.7419C394.915 12.8211 394.975 12.912 394.868 13.102C394.689 13.4217 394.536 13.7553 394.381 14.065L394.382 14.0662Z" fill="white"/>
<path d="M389.496 17.6492C389.496 18.5147 389.49 19.3808 389.5 20.2463C389.503 20.4779 389.423 20.5516 389.196 20.5427C388.8 20.5278 388.403 20.5311 388.007 20.5416C387.812 20.5466 387.72 20.4923 387.721 20.2801C387.726 18.5119 387.725 16.7438 387.722 14.9757C387.722 14.7879 387.8 14.7075 387.986 14.7086C388.401 14.7119 388.816 14.7142 389.231 14.7081C389.438 14.7053 389.5 14.8023 389.498 14.9968C389.492 15.8805 389.495 16.7649 389.495 17.6492H389.496Z" fill="white"/>
<path d="M376.448 17.6194C376.448 18.4938 376.442 19.3676 376.452 20.242C376.454 20.4653 376.389 20.5539 376.154 20.5445C375.758 20.5279 375.361 20.5334 374.965 20.5429C374.782 20.5473 374.699 20.4946 374.699 20.2957C374.704 18.5198 374.704 16.744 374.7 14.9681C374.7 14.7946 374.765 14.7115 374.941 14.7121C375.365 14.7137 375.789 14.7154 376.213 14.711C376.419 14.7088 376.451 14.8279 376.45 14.9974C376.447 15.8718 376.449 16.7456 376.449 17.62L376.448 17.6194Z" fill="white"/>
<path d="M388.617 14.0693C388.079 14.0704 387.663 13.6459 387.666 13.1013C387.669 12.5643 388.074 12.156 388.604 12.1543C389.157 12.1526 389.556 12.5588 389.549 13.1184C389.543 13.6681 389.15 14.0687 388.617 14.0698L388.617 14.0693Z" fill="white"/>
<path d="M375.571 12.1543C376.106 12.1515 376.522 12.5588 376.525 13.088C376.527 13.6465 376.126 14.0671 375.588 14.0704C375.042 14.0737 374.645 13.667 374.645 13.1046C374.645 12.5522 375.03 12.1571 375.571 12.1543Z" fill="white"/>
<path d="M358.637 19.0826C358.638 18.5596 359.396 17.8071 359.916 17.8215C360.142 17.8276 360.279 17.9384 360.272 18.1811C360.262 18.5629 360.031 18.8338 359.77 19.0638C359.589 19.2228 359.363 19.3419 359.139 19.4378C358.872 19.5519 358.636 19.3696 358.637 19.0832V19.0826Z" fill="white"/>
<path d="M363.604 19.7087C363.56 19.7929 363.516 20.0107 363.405 20.0517C363.261 20.1048 363.022 20.0755 362.898 19.9824C362.475 19.6616 362.24 19.2128 362.252 18.6747C362.256 18.5356 362.361 18.3301 362.475 18.2808C362.592 18.2298 362.809 18.288 362.924 18.375C363.334 18.6836 363.534 19.1213 363.604 19.7087Z" fill="white"/>
<path d="M361.657 19.2158C361.616 19.6607 361.565 20.0325 361.289 20.3251C361.052 20.5766 360.747 20.5351 360.642 20.2087C360.465 19.6596 360.508 19.1171 360.874 18.6473C361.118 18.3342 361.418 18.3952 361.558 18.7725C361.616 18.9326 361.634 19.1077 361.657 19.2158H361.657Z" fill="white"/>
<path d="M358.33 17.5639C358.228 17.5384 358.052 17.5157 357.892 17.4514C357.548 17.3129 357.501 16.9832 357.797 16.7649C358.271 16.4164 358.809 16.382 359.352 16.5377C359.681 16.6319 359.719 16.9827 359.456 17.2065C359.152 17.4664 358.784 17.5307 358.33 17.5639Z" fill="white"/>
<path d="M358.581 14.5299C359.002 14.5515 359.428 14.7842 359.746 15.1981C359.976 15.4968 359.827 15.8043 359.453 15.847C358.994 15.8996 358.26 15.5262 358.037 15.1255C357.839 14.7709 358.018 14.526 358.581 14.5293V14.5299Z" fill="white"/>
<defs>
<clipPath id="clip0_878_19615">
<rect width="33.7579" height="19.2277" fill="white" transform="translate(7.52539 7.64746)"/>
</clipPath>
</defs>
</svg>
