<svg width="95" height="19" viewBox="0 0 95 19" fill="none" xmlns="http://www.w3.org/2000/svg">
<path d="M1.10742 1.0842L1.10742 17.5981L1.28553 17.5981L1.28553 1.0842L1.10742 1.0842Z" fill="black"/>
<path d="M1.83336 1.03205C1.83336 0.680183 1.54882 0.395647 1.19695 0.395647C0.845083 0.395647 0.560547 0.680183 0.560547 1.03205C0.560547 1.38392 0.845083 1.66846 1.19695 1.66846C1.54882 1.66846 1.83336 1.38392 1.83336 1.03205Z" fill="black"/>
<path d="M1.83336 17.6502C1.83336 17.2983 1.54882 17.0138 1.19695 17.0138C0.845083 17.0138 0.560547 17.2983 0.560547 17.6502C0.560547 18.0021 0.845083 18.2866 1.19695 18.2866C1.54882 18.2866 1.83336 18.0021 1.83336 17.6502Z" fill="black"/>
<path d="M0.966797 9.34029C0.966796 4.98537 4.50938 1.44278 8.8643 1.44278L8.8643 1.90108C4.76351 1.90108 1.42509 5.23732 1.4251 9.34029C1.4251 13.4433 4.76351 16.7795 8.86647 16.7795L8.86647 17.2378C4.51155 17.2378 0.966797 13.6952 0.966797 9.34029Z" fill="black"/>
<path d="M9.37695 17.2265L9.37695 16.8551C9.37695 16.6056 9.17468 16.4033 8.92517 16.4033L8.6819 16.4033C8.43239 16.4033 8.23012 16.6056 8.23012 16.8551L8.23012 17.2265C8.23012 17.476 8.43239 17.6783 8.6819 17.6783L8.92517 17.6783C9.17468 17.6783 9.37695 17.476 9.37695 17.2265Z" fill="black"/>
<path d="M9.37695 1.82662L9.37695 1.4552C9.37695 1.20569 9.17468 1.00342 8.92517 1.00342L8.6819 1.00342C8.43239 1.00342 8.23012 1.20569 8.23012 1.4552L8.23012 1.82662C8.23012 2.07613 8.43239 2.2784 8.6819 2.2784L8.92517 2.2784C9.17468 2.2784 9.37695 2.07613 9.37695 1.82662Z" fill="black"/>
<path d="M1.64648 9.52535L1.64648 9.15393C1.64648 8.90442 1.44421 8.70215 1.1947 8.70215L0.951435 8.70215C0.701922 8.70215 0.499652 8.90442 0.499652 9.15393L0.499652 9.52535C0.499652 9.77486 0.701922 9.97713 0.951435 9.97713L1.1947 9.97713C1.44421 9.97713 1.64648 9.77486 1.64648 9.52535Z" fill="black"/>
<path d="M9.95221 9.05594V7.07829H8.53765V5.15558L6.4776 5.77359V7.07829H5.37891V9.05594H6.4776V11.4868C6.4776 13.4095 7.26042 14.2198 9.95221 13.9451V12.0773C9.04579 12.1323 8.53765 12.0773 8.53765 11.4868V9.05594H9.95221Z" fill="black"/>
<path d="M14.4559 6.88602C13.5495 6.88602 12.8628 7.21563 12.492 7.72377V4.33156H10.4319V13.9451H12.492V10.1958C12.492 9.22074 13.0139 8.78126 13.7692 8.78126C14.4284 8.78126 14.964 9.17954 14.964 10.031V13.9451H17.0241V9.72889C17.0241 7.87484 15.843 6.88602 14.4559 6.88602Z" fill="black"/>
<path d="M18.7821 6.47401C19.455 6.47401 20.0181 5.91093 20.0181 5.23798C20.0181 4.56503 19.455 4.00195 18.7821 4.00195C18.1091 4.00195 17.5461 4.56503 17.5461 5.23798C17.5461 5.91093 18.1091 6.47401 18.7821 6.47401ZM17.7521 13.9451H19.8121V7.07829H17.7521V13.9451Z" fill="black"/>
<path d="M25.6182 7.07829V7.72377C25.165 7.20189 24.4921 6.88602 23.5719 6.88602C21.7728 6.88602 20.2896 8.46539 20.2896 10.5117C20.2896 12.558 21.7728 14.1374 23.5719 14.1374C24.4921 14.1374 25.165 13.8215 25.6182 13.2996V13.9451H27.6783V7.07829H25.6182ZM23.9839 12.1872C23.0363 12.1872 22.3496 11.5417 22.3496 10.5117C22.3496 9.48168 23.0363 8.8362 23.9839 8.8362C24.9315 8.8362 25.6182 9.48168 25.6182 10.5117C25.6182 11.5417 24.9315 12.1872 23.9839 12.1872Z" fill="black"/>
<path d="M33.5432 7.07829V7.77871C33.09 7.21563 32.4308 6.88602 31.5381 6.88602C29.5879 6.88602 28.1596 8.47912 28.1596 10.3744C28.1596 12.2696 29.5879 13.8627 31.5381 13.8627C32.4308 13.8627 33.09 13.5331 33.5432 12.97V13.6018C33.5432 14.5769 32.9526 15.0713 31.9913 15.0713C31.0849 15.0713 30.6866 14.6867 30.4256 14.2061L28.6677 15.2223C29.2995 16.3485 30.4943 16.8841 31.9226 16.8841C33.7492 16.8841 35.5483 15.909 35.5483 13.6018V7.07829H33.5432ZM31.8814 11.9675C30.9063 11.9675 30.2196 11.322 30.2196 10.3744C30.2196 9.42675 30.9063 8.78126 31.8814 8.78126C32.8565 8.78126 33.5432 9.42675 33.5432 10.3744C33.5432 11.322 32.8565 11.9675 31.8814 11.9675Z" fill="black"/>
<path d="M39.669 14.1374C41.6879 14.1374 43.3085 12.558 43.3085 10.5117C43.3085 8.46539 41.6879 6.88602 39.669 6.88602C37.6502 6.88602 36.0296 8.46539 36.0296 10.5117C36.0296 12.558 37.6502 14.1374 39.669 14.1374ZM39.669 12.1323C38.7764 12.1323 38.0897 11.4868 38.0897 10.5117C38.0897 9.53661 38.7764 8.89113 39.669 8.89113C40.5617 8.89113 41.2484 9.53661 41.2484 10.5117C41.2484 11.4868 40.5617 12.1323 39.669 12.1323Z" fill="black"/>
<path d="M44.4045 14.1374C45.1186 14.1374 45.7092 13.5468 45.7092 12.8327C45.7092 12.1185 45.1186 11.528 44.4045 11.528C43.6903 11.528 43.0998 12.1185 43.0998 12.8327C43.0998 13.5468 43.6903 14.1374 44.4045 14.1374Z" fill="black"/>
<path d="M54.0355 6.92722C54.7863 6.92722 55.3906 7.16069 55.8484 7.62764C56.3061 8.09458 56.535 8.74922 56.535 9.59155V13.9451H55.8484V9.59155C55.8484 8.95064 55.679 8.45623 55.3402 8.10831C55.0106 7.7604 54.5711 7.58644 54.0218 7.58644C53.4083 7.58644 52.9094 7.79702 52.5248 8.21818C52.1494 8.63935 51.9617 9.2711 51.9617 10.1134V13.9451H51.275V9.59155C51.275 8.95064 51.1148 8.45623 50.7944 8.10831C50.4831 7.7604 50.0573 7.58644 49.5171 7.58644C48.9129 7.58644 48.4047 7.8016 47.9927 8.23192C47.5898 8.65308 47.3884 9.28025 47.3884 10.1134V13.9451H46.7017V7.07829H47.3884V8.25938C47.8645 7.37128 48.6016 6.92722 49.5995 6.92722C50.1031 6.92722 50.5426 7.05082 50.918 7.29803C51.2934 7.53608 51.568 7.87942 51.742 8.32805C51.98 7.86111 52.3005 7.51319 52.7033 7.2843C53.1154 7.04625 53.5594 6.92722 54.0355 6.92722Z" fill="black"/>
<path d="M60.3313 6.92722C61.3384 6.92722 62.1533 7.28429 62.7759 7.99844C63.4076 8.71259 63.7235 9.5595 63.7235 10.5392C63.7235 10.5758 63.7189 10.6307 63.7098 10.704C63.7098 10.7772 63.7098 10.8322 63.7098 10.8688H57.4884C57.5708 11.6379 57.8776 12.2605 58.4086 12.7366C58.9488 13.2035 59.6126 13.437 60.4 13.437C60.9493 13.437 61.43 13.3225 61.842 13.0936C62.254 12.8647 62.5653 12.5626 62.7759 12.1872L63.3802 12.5443C63.0964 13.0204 62.6935 13.4003 62.1716 13.6842C61.6497 13.9588 61.0546 14.0962 60.3862 14.0962C59.3333 14.0962 58.4681 13.762 57.7906 13.0936C57.1131 12.4161 56.7743 11.5555 56.7743 10.5117C56.7743 9.48626 57.1039 8.63477 57.7631 7.95724C58.4315 7.27056 59.2876 6.92722 60.3313 6.92722ZM60.3313 7.58644C59.5531 7.58644 58.903 7.82906 58.3811 8.31432C57.8593 8.79957 57.5617 9.42674 57.4884 10.1958H63.0094C62.9361 9.38097 62.6431 8.74464 62.1304 8.28685C61.6269 7.81991 61.0272 7.58644 60.3313 7.58644Z" fill="black"/>
<path d="M70.1491 4.33156H70.8357V13.9451H70.1491V12.352C69.8652 12.8922 69.4624 13.3179 68.9405 13.6292C68.4278 13.9405 67.8464 14.0962 67.1963 14.0962C66.2075 14.0962 65.3652 13.7528 64.6693 13.0662C63.9826 12.3703 63.6393 11.5188 63.6393 10.5117C63.6393 9.50457 63.9826 8.65766 64.6693 7.97098C65.3652 7.27514 66.2075 6.92722 67.1963 6.92722C67.8464 6.92722 68.4278 7.08287 68.9405 7.39416C69.4624 7.70546 69.8652 8.1312 70.1491 8.67139V4.33156ZM65.1637 12.5855C65.7314 13.1531 66.4227 13.437 67.2375 13.437C68.0524 13.437 68.7391 13.1531 69.2976 12.5855C69.8652 12.0178 70.1491 11.3266 70.1491 10.5117C70.1491 9.69684 69.8652 9.00558 69.2976 8.43792C68.7391 7.87026 68.0524 7.58644 67.2375 7.58644C66.4227 7.58644 65.7314 7.87026 65.1637 8.43792C64.6052 9.00558 64.326 9.69684 64.326 10.5117C64.326 11.3266 64.6052 12.0178 65.1637 12.5855Z" fill="black"/>
<path d="M74.7983 6.92722C75.8055 6.92722 76.6203 7.28429 77.2429 7.99844C77.8747 8.71259 78.1905 9.5595 78.1905 10.5392C78.1905 10.5758 78.186 10.6307 78.1768 10.704C78.1768 10.7772 78.1768 10.8322 78.1768 10.8688H71.9555C72.0379 11.6379 72.3446 12.2605 72.8756 12.7366C73.4158 13.2035 74.0796 13.437 74.867 13.437C75.4163 13.437 75.897 13.3225 76.309 13.0936C76.721 12.8647 77.0323 12.5626 77.2429 12.1872L77.8472 12.5443C77.5634 13.0204 77.1605 13.4003 76.6386 13.6842C76.1168 13.9588 75.5216 14.0962 74.8533 14.0962C73.8003 14.0962 72.9351 13.762 72.2576 13.0936C71.5801 12.4161 71.2413 11.5555 71.2413 10.5117C71.2413 9.48626 71.5709 8.63477 72.2301 7.95724C72.8985 7.27056 73.7546 6.92722 74.7983 6.92722ZM74.7983 7.58644C74.0201 7.58644 73.37 7.82906 72.8481 8.31432C72.3263 8.79957 72.0287 9.42674 71.9555 10.1958H77.4764C77.4031 9.38097 77.1102 8.74464 76.5974 8.28685C76.0939 7.81991 75.4942 7.58644 74.7983 7.58644Z" fill="black"/>
<path d="M79.2874 5.26545C79.1775 5.36616 79.0493 5.41652 78.9029 5.41652C78.7564 5.41652 78.6282 5.36616 78.5183 5.26545C78.4084 5.15558 78.3535 5.02282 78.3535 4.86717C78.3535 4.72068 78.4084 4.59708 78.5183 4.49636C78.6282 4.3865 78.7564 4.33156 78.9029 4.33156C79.0493 4.33156 79.1775 4.3865 79.2874 4.49636C79.3973 4.59708 79.4522 4.72068 79.4522 4.86717C79.4522 5.02282 79.3973 5.15558 79.2874 5.26545ZM78.5595 13.9451V7.07829H79.2462V13.9451H78.5595Z" fill="black"/>
<path d="M80.8132 8.42419C81.2252 7.46283 81.9897 6.98216 83.1068 6.98216V7.64137C82.4567 7.64137 81.9119 7.85195 81.4724 8.27312C81.033 8.68513 80.8132 9.30314 80.8132 10.1272V13.9451H80.1265V7.07829H80.8132V8.42419Z" fill="black"/>
<path d="M85.992 14.0962C84.9849 14.0962 84.1288 13.7528 83.4238 13.0662C82.728 12.3703 82.38 11.5188 82.38 10.5117C82.38 9.50457 82.728 8.65766 83.4238 7.97098C84.1288 7.27514 84.9849 6.92722 85.992 6.92722C86.99 6.92722 87.8369 7.27514 88.5327 7.97098C89.2377 8.65766 89.5902 9.50457 89.5902 10.5117C89.5902 11.5188 89.2377 12.3703 88.5327 13.0662C87.8369 13.7528 86.99 14.0962 85.992 14.0962ZM83.9182 12.5855C84.4859 13.1531 85.1771 13.437 85.992 13.437C86.8069 13.437 87.4935 13.1531 88.052 12.5855C88.6105 12.0178 88.8898 11.3266 88.8898 10.5117C88.8898 9.69684 88.6105 9.00558 88.052 8.43792C87.4935 7.87026 86.8069 7.58644 85.992 7.58644C85.1771 7.58644 84.4859 7.87026 83.9182 8.43792C83.3597 9.00558 83.0805 9.69684 83.0805 10.5117C83.0805 11.3266 83.3597 12.0178 83.9182 12.5855Z" fill="black"/>
<path d="M90.3396 8.8774C90.3396 9.21616 90.4815 9.48168 90.7653 9.67395C91.0491 9.86622 91.397 10.0127 91.8091 10.1134C92.2211 10.205 92.6285 10.3103 93.0313 10.4293C93.4434 10.5483 93.7913 10.7498 94.0751 11.0336C94.3589 11.3083 94.5008 11.6791 94.5008 12.146C94.5008 12.7137 94.272 13.1806 93.8142 13.5468C93.3655 13.9131 92.775 14.0962 92.0425 14.0962C91.3833 14.0962 90.8248 13.9588 90.367 13.6842C89.9184 13.4003 89.6071 13.0295 89.4331 12.5718L90.0237 12.2284C90.1519 12.6038 90.3899 12.9014 90.7378 13.1211C91.0949 13.3317 91.5298 13.437 92.0425 13.437C92.5553 13.437 92.9764 13.3271 93.306 13.1074C93.6448 12.8785 93.8142 12.558 93.8142 12.146C93.8142 11.8072 93.6722 11.5371 93.3884 11.3357C93.1046 11.1343 92.7567 10.9878 92.3447 10.8962C91.9327 10.7955 91.5206 10.6857 91.1086 10.5666C90.7058 10.4476 90.3624 10.2508 90.0786 9.97609C89.7948 9.70142 89.6529 9.33519 89.6529 8.8774C89.6529 8.32805 89.868 7.86569 90.2983 7.4903C90.7378 7.11491 91.3009 6.92722 91.9876 6.92722C92.5369 6.92722 93.013 7.05082 93.4159 7.29803C93.8279 7.54523 94.13 7.87942 94.3223 8.30059L93.7455 8.63019C93.6082 8.29143 93.3793 8.03507 93.0588 7.86111C92.7384 7.67799 92.3813 7.58644 91.9876 7.58644C91.5206 7.58644 91.127 7.70546 90.8065 7.94351C90.4952 8.17241 90.3396 8.4837 90.3396 8.8774Z" fill="black"/>
</svg>
